<?xml version="1.0" encoding="UTF-8" standalone="no"?>
<!DOCTYPE svg PUBLIC "-//W3C//DTD SVG 1.1//EN"
 "http://www.w3.org/Graphics/SVG/1.1/DTD/svg11.dtd">
<!-- Generated by graphviz version 2.44.1 (20201121.0304)
 -->
<!-- Title: G Pages: 1 -->
<svg width="500pt" height="397pt"
 viewBox="0.00 0.00 500.00 397.00" xmlns="http://www.w3.org/2000/svg" xmlns:xlink="http://www.w3.org/1999/xlink"><style>
  * {
    fill: transparent !important;
    stroke: #1f1f1f !important;
    stroke-width: 1 !important;
  }
  polygon:not(.cluster *, .node *, .edge *, text) {
    stroke: transparent !important;
  }
  text {
    font-size: 10px !important;
    font-family: monospace !important;
    fill: #1f1f1f !important;
    stroke: transparent !important;
    transform: translateY(-0.5em);
  }
</style>
<g id="graph0" class="graph" transform="scale(1 1) rotate(0) translate(4 393.25)">
<title>G</title>
<polygon fill="white" stroke="none" points="-4,4 -4,-393.25 496.47,-393.25 496.47,4 -4,4"/>
<!-- User -->
<g id="node1" class="node">
<title>User</title>
<polygon fill="lightblue" stroke="black" points="389.25,-300 268.25,-300 268.25,-264 389.25,-264 389.25,-300"/>
<text xml:space="preserve" text-anchor="middle" x="328.75" y="-273.95" font-family="Times,serif" font-size="14.00">User (CLI/Web)</text>
</g>
<!-- Hub -->
<g id="node2" class="node">
<title>Hub</title>
<polygon fill="lightblue" stroke="black" points="302.5,-213 219,-213 219,-177 302.5,-177 302.5,-213"/>
<text xml:space="preserve" text-anchor="middle" x="260.75" y="-186.95" font-family="Times,serif" font-size="14.00">Scion Hub</text>
</g>
<!-- User&#45;&gt;Hub -->
<g id="edge1" class="edge">
<title>User&#45;&gt;Hub</title>
<path fill="none" stroke="gray" d="M310.9,-263.51C304.9,-257.31 298.32,-250.16 292.75,-243.25 287.45,-236.67 282.13,-229.24 277.39,-222.24"/>
<polygon fill="gray" stroke="gray" points="272.02,-214.12 281.29,-219.98 274.11,-217.27 277.54,-222.46 277.54,-222.46 277.54,-222.46 274.11,-217.27 273.78,-224.94 272.02,-214.12"/>
<text xml:space="preserve" text-anchor="middle" x="322.75" y="-229.95" font-family="Times,serif" font-size="14.00">HTTPS/WS</text>
</g>
<!-- CloudStorage -->
<g id="node5" class="node">
<title>CloudStorage</title>
<polygon fill="lightblue" stroke="black" points="374.5,-37 261,-37 261,-1 374.5,-1 374.5,-37"/>
<text xml:space="preserve" text-anchor="middle" x="317.75" y="-10.95" font-family="Times,serif" font-size="14.00">Cloud Storage</text>
</g>
<!-- User&#45;&gt;CloudStorage -->
<g id="edge5" class="edge">
<title>User&#45;&gt;CloudStorage</title>
<path fill="none" stroke="gray" d="M342.72,-263.58C346.77,-257.51 350.67,-250.41 352.75,-243.25 375.78,-164.09 382.86,-134.5 352.75,-57.75 351.06,-53.44 348.62,-49.34 345.81,-45.52"/>
<polygon fill="gray" stroke="gray" points="339.53,-38.13 349.44,-42.84 341.98,-41.01 346.01,-45.75 346.01,-45.75 346.01,-45.75 341.98,-41.01 342.58,-48.67 339.53,-38.13"/>
<text xml:space="preserve" text-anchor="middle" x="414.01" y="-142.95" font-family="Times,serif" font-size="14.00">Direct Sync</text>
</g>
<!-- RuntimeBroker -->
<g id="node3" class="node">
<title>RuntimeBroker</title>
<polygon fill="lightblue" stroke="black" points="338.25,-125 217.25,-125 217.25,-89 338.25,-89 338.25,-125"/>
<text xml:space="preserve" text-anchor="middle" x="277.75" y="-98.95" font-family="Times,serif" font-size="14.00">Runtime Broker</text>
</g>
<!-- Hub&#45;&gt;RuntimeBroker -->
<g id="edge2" class="edge">
<title>Hub&#45;&gt;RuntimeBroker</title>
<path fill="none" stroke="gray" d="M259.8,-176.85C259.66,-167.55 260.08,-155.91 262.25,-145.75 262.97,-142.39 263.97,-138.96 265.12,-135.59"/>
<polygon fill="gray" stroke="gray" points="268.7,-126.39 269.27,-137.34 267.33,-129.91 265.07,-135.7 265.07,-135.7 265.07,-135.7 267.33,-129.91 260.88,-134.07 268.7,-126.39"/>
<text xml:space="preserve" text-anchor="middle" x="303.5" y="-142.95" font-family="Times,serif" font-size="14.00">Control/API</text>
</g>
<!-- Agent -->
<g id="node4" class="node">
<title>Agent</title>
<polygon fill="lightblue" stroke="black" points="143.5,-37 0,-37 0,-1 143.5,-1 143.5,-37"/>
<text xml:space="preserve" text-anchor="middle" x="71.75" y="-10.95" font-family="Times,serif" font-size="14.00">Agent (sciontool)</text>
</g>
<!-- RuntimeBroker&#45;&gt;Agent -->
<g id="edge3" class="edge">
<title>RuntimeBroker&#45;&gt;Agent</title>
<path fill="none" stroke="gray" d="M236.06,-88.6C203.53,-75.02 158.18,-56.08 123.36,-41.54"/>
<polygon fill="gray" stroke="gray" points="114.5,-37.85 125.46,-37.55 117.99,-39.3 123.73,-41.7 123.73,-41.7 123.73,-41.7 117.99,-39.3 121.99,-45.85 114.5,-37.85"/>
<text xml:space="preserve" text-anchor="middle" x="213.33" y="-54.95" font-family="Times,serif" font-size="14.00">Manages</text>
</g>
<!-- RuntimeBroker&#45;&gt;CloudStorage -->
<g id="edge6" class="edge">
<title>RuntimeBroker&#45;&gt;CloudStorage</title>
<path fill="none" stroke="gray" d="M270.32,-88.75C267.35,-79.21 265.61,-67.37 270.25,-57.75 272.53,-53.02 275.73,-48.7 279.4,-44.81"/>
<polygon fill="gray" stroke="gray" points="286.55,-38.26 282.21,-48.33 283.76,-40.81 279.17,-45.01 279.17,-45.01 279.17,-45.01 283.76,-40.81 276.13,-41.69 286.55,-38.26"/>
<text xml:space="preserve" text-anchor="middle" x="311.5" y="-54.95" font-family="Times,serif" font-size="14.00">Direct Sync</text>
</g>
<!-- Agent&#45;&gt;Hub -->
<g id="edge4" class="edge">
<title>Agent&#45;&gt;Hub</title>
<path fill="none" stroke="gray" d="M68,-37.19C64.13,-59.73 61.05,-99.39 80.25,-125 110.11,-164.84 166,-181.67 207.71,-188.79"/>
<polygon fill="gray" stroke="gray" points="217.59,-190.33 207.02,-193.24 213.86,-189.74 207.71,-188.79 207.71,-188.79 207.71,-188.79 213.86,-189.74 208.4,-184.34 217.59,-190.33"/>
<text xml:space="preserve" text-anchor="middle" x="144" y="-98.95" font-family="Times,serif" font-size="14.00">Heartbeats/Status</text>
</g>
<!-- AuthFlows -->
<g id="node6" class="node">
<title>AuthFlows</title>
<polygon fill="lightblue" stroke="black" points="374.25,-388 283.25,-388 283.25,-352 374.25,-352 374.25,-388"/>
<text xml:space="preserve" text-anchor="middle" x="328.75" y="-361.95" font-family="Times,serif" font-size="14.00">Auth Flows</text>
</g>
<!-- AuthFlows&#45;&gt;User -->
<g id="edge7" class="edge">
<title>AuthFlows&#45;&gt;User</title>
<path fill="none" stroke="gray" d="M328.75,-351.6C328.75,-340.06 328.75,-324.65 328.75,-311.36"/>
<polygon fill="gray" stroke="gray" points="328.75,-301.6 333.25,-311.6 328.75,-305.38 328.75,-311.6 328.75,-311.6 328.75,-311.6 328.75,-305.38 324.25,-311.6 328.75,-301.6"/>
<text xml:space="preserve" text-anchor="middle" x="355" y="-317.95" font-family="Times,serif" font-size="14.00">CLI/Web</text>
</g>
<!-- AuthFlows&#45;&gt;RuntimeBroker -->
<g id="edge9" class="edge">
<title>AuthFlows&#45;&gt;RuntimeBroker</title>
<path fill="none" stroke="gray" d="M362.18,-351.58C370.69,-345.97 379.25,-339.12 385.75,-331.25 441.36,-263.88 505.54,-213.79 450.75,-145.75 437.83,-129.71 391.02,-120.11 349.35,-114.62"/>
<polygon fill="gray" stroke="gray" points="339.54,-113.39 350.02,-110.16 343.29,-113.86 349.46,-114.63 349.46,-114.63 349.46,-114.63 343.29,-113.86 348.9,-119.1 339.54,-113.39"/>
<text xml:space="preserve" text-anchor="middle" x="477.47" y="-229.95" font-family="Times,serif" font-size="14.00">HMAC</text>
</g>
<!-- AuthFlows&#45;&gt;Agent -->
<g id="edge8" class="edge">
<title>AuthFlows&#45;&gt;Agent</title>
<path fill="none" stroke="gray" d="M283.06,-365.56C198.41,-357.91 25.75,-335.84 25.75,-283 25.75,-283 25.75,-283 25.75,-106 25.75,-84.06 37.53,-62.3 49.17,-46.16"/>
<polygon fill="gray" stroke="gray" points="55.18,-38.31 52.67,-48.98 52.88,-41.31 49.1,-46.25 49.1,-46.25 49.1,-46.25 52.88,-41.31 45.53,-43.51 55.18,-38.31"/>
<text xml:space="preserve" text-anchor="middle" x="37" y="-186.95" font-family="Times,serif" font-size="14.00">JWT</text>
</g>
</g>
</svg>
