<?xml version="1.0" encoding="UTF-8" standalone="no"?>
<!DOCTYPE svg PUBLIC "-//W3C//DTD SVG 1.1//EN"
 "http://www.w3.org/Graphics/SVG/1.1/DTD/svg11.dtd">
<!-- Generated by graphviz version 2.44.1 (20201121.0304)
 -->
<!-- Title: G Pages: 1 -->
<svg width="525pt" height="427pt"
 viewBox="0.00 0.00 525.00 427.00" xmlns="http://www.w3.org/2000/svg" xmlns:xlink="http://www.w3.org/1999/xlink"><style>
  * {
    fill: transparent !important;
    stroke: #1f1f1f !important;
    stroke-width: 1 !important;
  }
  polygon:not(.cluster *, .node *, .edge *, text) {
    stroke: transparent !important;
  }
  text {
    font-size: 10px !important;
    font-family: monospace !important;
    fill: #1f1f1f !important;
    stroke: transparent !important;
    transform: translateY(-0.5em);
  }
</style>
<g id="graph0" class="graph" transform="scale(1 1) rotate(0) translate(4 423.5)">
<title>G</title>
<!-- Scion CLI -->
<g id="node1" class="node">
<title>Scion CLI</title>
<polygon fill="lightblue" stroke="black" points="329.75,-402 201.25,-402 201.25,-366 329.75,-366 329.75,-402"/>
<text xml:space="preserve" text-anchor="middle" x="265.5" y="-385" font-family="Sans-serif" font-size="10.00">Scion CLI/</text>
<text xml:space="preserve" text-anchor="middle" x="265.5" y="-374.5" font-family="Sans-serif" font-size="10.00">Daemon Launcher</text>
</g>
<!-- Hub Credential Store -->
<g id="node2" class="node">
<title>Hub Credential Store</title>
<polygon fill="lightblue" stroke="black" points="173.5,-217 7.5,-217 7.5,-181 173.5,-181 173.5,-217"/>
<text xml:space="preserve" text-anchor="middle" x="90.5" y="-200" font-family="Sans-serif" font-size="10.00">Hub Credential Store</text>
<text xml:space="preserve" text-anchor="middle" x="90.5" y="-189.5" font-family="Sans-serif" font-size="10.00">(credentials.json)</text>
</g>
<!-- Scion CLI&#45;&gt;Hub Credential Store -->
<g id="edge1" class="edge">
<title>Scion CLI&#45;&gt;Hub Credential Store</title>
<path fill="none" stroke="#333333" d="M242.47,-365.67C222.49,-350.13 193.26,-326.2 170.5,-302.5 147.31,-278.36 124.14,-247.79 108.75,-226.35"/>
<polygon fill="#333333" stroke="#333333" points="111.77,-224.55 103.13,-218.42 106.07,-228.6 111.77,-224.55"/>
<text xml:space="preserve" text-anchor="middle" x="215.5" y="-293.95" font-family="Sans-serif" font-size="9.00">Loads/Stores</text>
<text xml:space="preserve" text-anchor="middle" x="215.5" y="-283.45" font-family="Sans-serif" font-size="9.00">User Tokens</text>
</g>
<!-- Broker Credential Store -->
<g id="node3" class="node">
<title>Broker Credential Store</title>
<polygon fill="lightblue" stroke="black" points="379.75,-217 191.25,-217 191.25,-181 379.75,-181 379.75,-217"/>
<text xml:space="preserve" text-anchor="middle" x="285.5" y="-200" font-family="Sans-serif" font-size="10.00">Broker Credential Store</text>
<text xml:space="preserve" text-anchor="middle" x="285.5" y="-189.5" font-family="Sans-serif" font-size="10.00">(multi&#45;file)</text>
</g>
<!-- Scion CLI&#45;&gt;Broker Credential Store -->
<g id="edge2" class="edge">
<title>Scion CLI&#45;&gt;Broker Credential Store</title>
<path fill="none" stroke="#333333" d="M264.52,-365.68C263.64,-345.42 262.97,-310.89 266.5,-281.5 268.65,-263.57 273.19,-243.83 277.3,-228.28"/>
<polygon fill="#333333" stroke="#333333" points="280.64,-229.32 279.9,-218.75 273.89,-227.47 280.64,-229.32"/>
<text xml:space="preserve" text-anchor="middle" x="334" y="-293.95" font-family="Sans-serif" font-size="9.00">Manages</text>
<text xml:space="preserve" text-anchor="middle" x="334" y="-283.45" font-family="Sans-serif" font-size="9.00">Broker Credentials</text>
</g>
<!-- Daemon Files -->
<g id="node4" class="node">
<title>Daemon Files</title>
<polygon fill="lightblue" stroke="black" points="419.5,-54 283.5,-54 283.5,-18 419.5,-18 419.5,-54"/>
<text xml:space="preserve" text-anchor="middle" x="351.5" y="-37" font-family="Sans-serif" font-size="10.00">Daemon Files</text>
<text xml:space="preserve" text-anchor="middle" x="351.5" y="-26.5" font-family="Sans-serif" font-size="10.00">(PID, Log, Args)</text>
</g>
<!-- Scion CLI&#45;&gt;Daemon Files -->
<g id="edge3" class="edge">
<title>Scion CLI&#45;&gt;Daemon Files</title>
<path fill="none" stroke="#333333" d="M320.45,-365.63C350.11,-353.13 384.11,-333.01 401.5,-302.5 443.27,-229.24 425.75,-193.52 401.5,-112.75 396.09,-94.72 384.84,-77.03 374.38,-63.28"/>
<polygon fill="#333333" stroke="#333333" points="377.26,-61.27 368.29,-55.62 371.78,-65.63 377.26,-61.27"/>
<text xml:space="preserve" text-anchor="middle" x="471.58" y="-200.95" font-family="Sans-serif" font-size="9.00">Manages</text>
<text xml:space="preserve" text-anchor="middle" x="471.58" y="-190.45" font-family="Sans-serif" font-size="9.00">Daemon State</text>
</g>
<!-- Authentication Service -->
<g id="node5" class="node">
<title>Authentication Service</title>
<polygon fill="lightblue" stroke="black" points="181,-54 0,-54 0,-18 181,-18 181,-54"/>
<text xml:space="preserve" text-anchor="middle" x="90.5" y="-31.75" font-family="Sans-serif" font-size="10.00">Authentication Service</text>
</g>
<!-- Hub Credential Store&#45;&gt;Authentication Service -->
<g id="edge4" class="edge">
<title>Hub Credential Store&#45;&gt;Authentication Service</title>
<path fill="none" stroke="#333333" d="M90.5,-180.77C90.5,-153.17 90.5,-98.77 90.5,-65.37"/>
<polygon fill="#333333" stroke="#333333" points="94,-65.62 90.5,-55.62 87,-65.62 94,-65.62"/>
<text xml:space="preserve" text-anchor="middle" x="150.5" y="-114.7" font-family="Sans-serif" font-size="9.00">Refreshes Tokens</text>
</g>
<!-- Broker Credential Store&#45;&gt;Daemon Files -->
<g id="edge5" class="edge">
<title>Broker Credential Store&#45;&gt;Daemon Files</title>
<path fill="none" stroke="#333333" d="M283.07,-180.7C281.29,-163 280.48,-135.02 289,-112.75 296.32,-93.63 310.52,-75.78 323.54,-62.22"/>
<polygon fill="#333333" stroke="#333333" points="325.74,-64.96 330.35,-55.42 320.8,-60.01 325.74,-64.96"/>
<text xml:space="preserve" text-anchor="middle" x="345.25" y="-114.7" font-family="Sans-serif" font-size="9.00">Migrates Legacy</text>
</g>
</g>
</svg>
