<?xml version="1.0" encoding="UTF-8" standalone="no"?>
<!DOCTYPE svg PUBLIC "-//W3C//DTD SVG 1.1//EN"
 "http://www.w3.org/Graphics/SVG/1.1/DTD/svg11.dtd">
<!-- Generated by graphviz version 2.44.1 (20201121.0304)
 -->
<!-- Title: G Pages: 1 -->
<svg width="421pt" height="374pt"
 viewBox="0.00 0.00 421.00 374.00" xmlns="http://www.w3.org/2000/svg" xmlns:xlink="http://www.w3.org/1999/xlink"><style>
  * {
    fill: transparent !important;
    stroke: #1f1f1f !important;
    stroke-width: 1 !important;
  }
  polygon:not(.cluster *, .node *, .edge *, text) {
    stroke: transparent !important;
  }
  text {
    font-size: 10px !important;
    font-family: monospace !important;
    fill: #1f1f1f !important;
    stroke: transparent !important;
    transform: translateY(-0.5em);
  }
</style>
<g id="graph0" class="graph" transform="scale(1 1) rotate(0) translate(4 370)">
<title>G</title>
<polygon fill="white" stroke="none" points="-4,4 -4,-370 416.76,-370 416.76,4 -4,4"/>
<!-- environment_variables -->
<g id="node1" class="node">
<title>environment_variables</title>
<polygon fill="lightblue" stroke="black" points="320.2,-366 116.7,-366 116.7,-330 320.2,-330 320.2,-366"/>
<text xml:space="preserve" text-anchor="middle" x="218.45" y="-345.2" font-family="Times,serif" font-size="14.00">Environment Variables</text>
<text xml:space="preserve" text-anchor="middle" x="218.45" y="-334.7" font-family="Times,serif" font-size="14.00">(PG_DSN, SIGNING_KEY_B64)</text>
</g>
<!-- db_connection -->
<g id="node2" class="node">
<title>db_connection</title>
<polygon fill="lightblue" stroke="black" points="213.7,-284 55.2,-284 55.2,-248 213.7,-248 213.7,-284"/>
<text xml:space="preserve" text-anchor="middle" x="134.45" y="-263.2" font-family="Times,serif" font-size="14.00">PostgreSQL Database</text>
<text xml:space="preserve" text-anchor="middle" x="134.45" y="-252.7" font-family="Times,serif" font-size="14.00">Connection</text>
</g>
<!-- environment_variables&#45;&gt;db_connection -->
<g id="edge1" class="edge">
<title>environment_variables&#45;&gt;db_connection</title>
<path fill="none" stroke="black" d="M200.22,-329.64C188.66,-318.63 173.52,-304.22 160.68,-291.99"/>
<polygon fill="black" stroke="black" points="163.39,-289.73 153.73,-285.37 158.56,-294.8 163.39,-289.73"/>
<text xml:space="preserve" text-anchor="middle" x="211.48" y="-298.95" font-family="Times,serif" font-size="14.00">Uses DSN</text>
</g>
<!-- token_generation -->
<g id="node3" class="node">
<title>token_generation</title>
<polygon fill="lightblue" stroke="black" points="247.95,-119 126.95,-119 126.95,-83 247.95,-83 247.95,-119"/>
<text xml:space="preserve" text-anchor="middle" x="187.45" y="-98.2" font-family="Times,serif" font-size="14.00">JWT Generation</text>
<text xml:space="preserve" text-anchor="middle" x="187.45" y="-87.7" font-family="Times,serif" font-size="14.00">(Long&#45;lived)</text>
</g>
<!-- environment_variables&#45;&gt;token_generation -->
<g id="edge2" class="edge">
<title>environment_variables&#45;&gt;token_generation</title>
<path fill="none" stroke="black" d="M233.02,-329.63C263.14,-291.51 325.95,-198.98 282.45,-136.75 276.39,-128.08 267.92,-121.57 258.52,-116.68"/>
<polygon fill="black" stroke="black" points="259.95,-113.49 249.4,-112.6 257.1,-119.88 259.95,-113.49"/>
<text xml:space="preserve" text-anchor="middle" x="352.76" y="-215.95" font-family="Times,serif" font-size="14.00">Uses Signing Key</text>
</g>
<!-- user_selection -->
<g id="node4" class="node">
<title>user_selection</title>
<polygon fill="lightblue" stroke="black" points="147.95,-201 26.95,-201 26.95,-165 147.95,-165 147.95,-201"/>
<text xml:space="preserve" text-anchor="middle" x="87.45" y="-180.2" font-family="Times,serif" font-size="14.00">User Lookup</text>
<text xml:space="preserve" text-anchor="middle" x="87.45" y="-169.7" font-family="Times,serif" font-size="14.00">(Prefer Admin)</text>
</g>
<!-- db_connection&#45;&gt;user_selection -->
<g id="edge3" class="edge">
<title>db_connection&#45;&gt;user_selection</title>
<path fill="none" stroke="black" d="M124.48,-247.82C118.29,-237.16 110.2,-223.22 103.16,-211.08"/>
<polygon fill="black" stroke="black" points="106.37,-209.63 98.32,-202.74 100.31,-213.15 106.37,-209.63"/>
<text xml:space="preserve" text-anchor="middle" x="138.61" y="-215.95" font-family="Times,serif" font-size="14.00">Queries</text>
</g>
<!-- output -->
<g id="node5" class="node">
<title>output</title>
<polygon fill="lightblue" stroke="black" points="255.45,-36 119.45,-36 119.45,0 255.45,0 255.45,-36"/>
<text xml:space="preserve" text-anchor="middle" x="187.45" y="-15.2" font-family="Times,serif" font-size="14.00">Output JWT</text>
<text xml:space="preserve" text-anchor="middle" x="187.45" y="-4.7" font-family="Times,serif" font-size="14.00">and User Details</text>
</g>
<!-- token_generation&#45;&gt;output -->
<g id="edge5" class="edge">
<title>token_generation&#45;&gt;output</title>
<path fill="none" stroke="black" d="M187.45,-82.82C187.45,-72.69 187.45,-59.6 187.45,-47.92"/>
<polygon fill="black" stroke="black" points="190.95,-47.95 187.45,-37.95 183.95,-47.95 190.95,-47.95"/>
<text xml:space="preserve" text-anchor="middle" x="239.95" y="-50.95" font-family="Times,serif" font-size="14.00">Provides Token</text>
</g>
<!-- user_selection&#45;&gt;token_generation -->
<g id="edge4" class="edge">
<title>user_selection&#45;&gt;token_generation</title>
<path fill="none" stroke="black" d="M109.14,-164.64C123.17,-153.42 141.61,-138.66 157.08,-126.29"/>
<polygon fill="black" stroke="black" points="158.99,-129.25 164.61,-120.27 154.61,-123.78 158.99,-129.25"/>
<text xml:space="preserve" text-anchor="middle" x="210.93" y="-133.95" font-family="Times,serif" font-size="14.00">Provides User Data</text>
</g>
</g>
</svg>
