<?xml version="1.0" encoding="UTF-8" standalone="no"?>
<!DOCTYPE svg PUBLIC "-//W3C//DTD SVG 1.1//EN"
 "http://www.w3.org/Graphics/SVG/1.1/DTD/svg11.dtd">
<!-- Generated by graphviz version 2.44.1 (20201121.0304)
 -->
<!-- Title: G Pages: 1 -->
<svg width="374pt" height="374pt"
 viewBox="0.00 0.00 374.00 374.00" xmlns="http://www.w3.org/2000/svg" xmlns:xlink="http://www.w3.org/1999/xlink"><style>
  * {
    fill: transparent !important;
    stroke: #1f1f1f !important;
    stroke-width: 1 !important;
  }
  polygon:not(.cluster *, .node *, .edge *, text) {
    stroke: transparent !important;
  }
  text {
    font-size: 10px !important;
    font-family: monospace !important;
    fill: #1f1f1f !important;
    stroke: transparent !important;
    transform: translateY(-0.5em);
  }
</style>
<g id="graph0" class="graph" transform="scale(1 1) rotate(0) translate(4 370)">
<title>G</title>
<polygon fill="white" stroke="none" points="-4,4 -4,-370 370,-370 370,4 -4,4"/>
<!-- Agent -->
<g id="node1" class="node">
<title>Agent</title>
<polygon fill="lightblue" stroke="black" points="223.32,-366 94.82,-366 94.82,-330 223.32,-330 223.32,-366"/>
<text xml:space="preserve" text-anchor="middle" x="159.07" y="-339.95" font-family="Times,serif" font-size="14.00">Agent / Harness</text>
</g>
<!-- Fabrictool_Hook_Command -->
<g id="node2" class="node">
<title>Fabrictool_Hook_Command</title>
<polygon fill="lightblue" stroke="black" points="249.57,-284 68.57,-284 68.57,-248 249.57,-248 249.57,-284"/>
<text xml:space="preserve" text-anchor="middle" x="159.07" y="-257.95" font-family="Times,serif" font-size="14.00">Fabrictool Hook Command</text>
</g>
<!-- Agent&#45;&gt;Fabrictool_Hook_Command -->
<g id="edge1" class="edge">
<title>Agent&#45;&gt;Fabrictool_Hook_Command</title>
<path fill="none" stroke="black" d="M159.07,-329.64C159.07,-319.68 159.07,-306.93 159.07,-295.54"/>
<polygon fill="black" stroke="black" points="162.57,-295.84 159.07,-285.84 155.57,-295.84 162.57,-295.84"/>
<text xml:space="preserve" text-anchor="middle" x="226.57" y="-298.95" font-family="Times,serif" font-size="14.00">Emits Event (JSON)</text>
</g>
<!-- Event_Normalizer -->
<g id="node3" class="node">
<title>Event_Normalizer</title>
<polygon fill="lightblue" stroke="black" points="227.07,-201 91.07,-201 91.07,-165 227.07,-165 227.07,-201"/>
<text xml:space="preserve" text-anchor="middle" x="159.07" y="-180.2" font-family="Times,serif" font-size="14.00">Event Normalizer</text>
<text xml:space="preserve" text-anchor="middle" x="159.07" y="-169.7" font-family="Times,serif" font-size="14.00">(Dialects)</text>
</g>
<!-- Fabrictool_Hook_Command&#45;&gt;Event_Normalizer -->
<g id="edge2" class="edge">
<title>Fabrictool_Hook_Command&#45;&gt;Event_Normalizer</title>
<path fill="none" stroke="black" d="M159.07,-247.82C159.07,-237.69 159.07,-224.6 159.07,-212.92"/>
<polygon fill="black" stroke="black" points="162.57,-212.95 159.07,-202.95 155.57,-212.95 162.57,-212.95"/>
<text xml:space="preserve" text-anchor="middle" x="204.07" y="-215.95" font-family="Times,serif" font-size="14.00">Parses Input</text>
</g>
<!-- Event_Handlers -->
<g id="node4" class="node">
<title>Event_Handlers</title>
<polygon fill="lightblue" stroke="black" points="294.57,-119 23.57,-119 23.57,-83 294.57,-83 294.57,-119"/>
<text xml:space="preserve" text-anchor="middle" x="159.07" y="-98.2" font-family="Times,serif" font-size="14.00">Event Handlers</text>
<text xml:space="preserve" text-anchor="middle" x="159.07" y="-87.7" font-family="Times,serif" font-size="14.00">(Status, Logging, Telemetry, etc.)</text>
</g>
<!-- Event_Normalizer&#45;&gt;Event_Handlers -->
<g id="edge3" class="edge">
<title>Event_Normalizer&#45;&gt;Event_Handlers</title>
<path fill="none" stroke="black" d="M159.07,-164.64C159.07,-154.68 159.07,-141.93 159.07,-130.54"/>
<polygon fill="black" stroke="black" points="162.57,-130.84 159.07,-120.84 155.57,-130.84 162.57,-130.84"/>
<text xml:space="preserve" text-anchor="middle" x="219.07" y="-133.95" font-family="Times,serif" font-size="14.00">Normalized Event</text>
</g>
<!-- Agent_State -->
<g id="node5" class="node">
<title>Agent_State</title>
<polygon fill="lightblue" stroke="black" points="119.82,-36 6.32,-36 6.32,0 119.82,0 119.82,-36"/>
<text xml:space="preserve" text-anchor="middle" x="63.07" y="-15.2" font-family="Times,serif" font-size="14.00">Agent State</text>
<text xml:space="preserve" text-anchor="middle" x="63.07" y="-4.7" font-family="Times,serif" font-size="14.00">(File System)</text>
</g>
<!-- Event_Handlers&#45;&gt;Agent_State -->
<g id="edge4" class="edge">
<title>Event_Handlers&#45;&gt;Agent_State</title>
<path fill="none" stroke="black" d="M117.9,-82.58C108.62,-77.51 99.25,-71.37 91.57,-64.25 86.03,-59.11 81.14,-52.67 77.03,-46.27"/>
<polygon fill="black" stroke="black" points="80.11,-44.59 72.03,-37.75 74.07,-48.14 80.11,-44.59"/>
<text xml:space="preserve" text-anchor="middle" x="162.82" y="-50.95" font-family="Times,serif" font-size="14.00">Updates Status/Logs</text>
</g>
<!-- External_Services -->
<g id="node6" class="node">
<title>External_Services</title>
<polygon fill="lightblue" stroke="black" points="354.07,-36 158.07,-36 158.07,0 354.07,0 354.07,-36"/>
<text xml:space="preserve" text-anchor="middle" x="256.07" y="-15.2" font-family="Times,serif" font-size="14.00">External Services</text>
<text xml:space="preserve" text-anchor="middle" x="256.07" y="-4.7" font-family="Times,serif" font-size="14.00">(Hub, Telemetry Backend)</text>
</g>
<!-- Event_Handlers&#45;&gt;External_Services -->
<g id="edge5" class="edge">
<title>Event_Handlers&#45;&gt;External_Services</title>
<path fill="none" stroke="black" d="M207.8,-82.68C217.29,-77.76 226.6,-71.67 234.07,-64.25 239.08,-59.28 243.11,-52.95 246.29,-46.61"/>
<polygon fill="black" stroke="black" points="249.46,-48.11 250.25,-37.54 243.04,-45.31 249.46,-48.11"/>
<text xml:space="preserve" text-anchor="middle" x="279.22" y="-50.95" font-family="Times,serif" font-size="14.00">Sends Data</text>
</g>
</g>
</svg>
