<?xml version="1.0" encoding="UTF-8" standalone="no"?>
<!DOCTYPE svg PUBLIC "-//W3C//DTD SVG 1.1//EN"
 "http://www.w3.org/Graphics/SVG/1.1/DTD/svg11.dtd">
<!-- Generated by graphviz version 2.44.1 (20201121.0304)
 -->
<!-- Title: G Pages: 1 -->
<svg width="813pt" height="728pt"
 viewBox="0.00 0.00 813.00 728.00" xmlns="http://www.w3.org/2000/svg" xmlns:xlink="http://www.w3.org/1999/xlink"><style>
  * {
    fill: transparent !important;
    stroke: #1f1f1f !important;
    stroke-width: 1 !important;
  }
  polygon:not(.cluster *, .node *, .edge *, text) {
    stroke: transparent !important;
  }
  text {
    font-size: 10px !important;
    font-family: monospace !important;
    fill: #1f1f1f !important;
    stroke: transparent !important;
    transform: translateY(-0.5em);
  }
</style>
<g id="graph0" class="graph" transform="scale(1 1) rotate(0) translate(4 723.5)">
<title>G</title>
<polygon fill="white" stroke="none" points="-4,4 -4,-723.5 809.49,-723.5 809.49,4 -4,4"/>
<!-- A2A Client -->
<g id="node1" class="node">
<title>A2A Client</title>
<polygon fill="lightblue" stroke="black" points="377.41,-673 286.41,-673 286.41,-637 377.41,-637 377.41,-673"/>
<text xml:space="preserve" text-anchor="middle" x="331.91" y="-646.95" font-family="Times,serif" font-size="14.00">A2A Client</text>
</g>
<!-- fabric&#45;a2a&#45;bridge -->
<g id="node2" class="node">
<title>fabric&#45;a2a&#45;bridge</title>
<polygon fill="lightblue" stroke="black" points="471.16,-378 192.66,-378 192.66,-342 471.16,-342 471.16,-378"/>
<text xml:space="preserve" text-anchor="middle" x="331.91" y="-357.2" font-family="Times,serif" font-size="14.00">fabric&#45;a2a&#45;bridge</text>
<text xml:space="preserve" text-anchor="middle" x="331.91" y="-346.7" font-family="Times,serif" font-size="14.00">(Auth, Rate Limit, TLS Termination)</text>
</g>
<!-- A2A Client&#45;&gt;fabric&#45;a2a&#45;bridge -->
<g id="edge1" class="edge">
<title>A2A Client&#45;&gt;fabric&#45;a2a&#45;bridge</title>
<path fill="none" stroke="black" d="M331.91,-636.55C331.91,-587.79 331.91,-449.79 331.91,-389.63"/>
<polygon fill="black" stroke="black" points="335.41,-389.87 331.91,-379.87 328.41,-389.87 335.41,-389.87"/>
<text xml:space="preserve" text-anchor="middle" x="421.91" y="-498.95" font-family="Times,serif" font-size="14.00">JSON&#45;RPC (Blocking, SSE)</text>
</g>
<!-- Fabric Hub -->
<g id="node3" class="node">
<title>Fabric Hub</title>
<polygon fill="lightblue" stroke="black" points="136.66,-82 53.16,-82 53.16,-46 136.66,-46 136.66,-82"/>
<text xml:space="preserve" text-anchor="middle" x="94.91" y="-55.95" font-family="Times,serif" font-size="14.00">Fabric Hub</text>
</g>
<!-- fabric&#45;a2a&#45;bridge&#45;&gt;Fabric Hub -->
<g id="edge2" class="edge">
<title>fabric&#45;a2a&#45;bridge&#45;&gt;Fabric Hub</title>
<path fill="none" stroke="black" d="M218.75,-341.51C145.37,-323.67 55.12,-288 8.91,-217.25 -19.56,-173.67 28.69,-120.17 63.66,-89.58"/>
<polygon fill="black" stroke="black" points="65.7,-92.44 71.05,-83.3 61.16,-87.11 65.7,-92.44"/>
<text xml:space="preserve" text-anchor="middle" x="83.91" y="-203.95" font-family="Times,serif" font-size="14.00">Hub API (Admin JWTs)</text>
</g>
<!-- Fabric Agents -->
<g id="node4" class="node">
<title>Fabric Agents</title>
<polygon fill="lightblue" stroke="black" points="384.91,-82 278.91,-82 278.91,-46 384.91,-46 384.91,-82"/>
<text xml:space="preserve" text-anchor="middle" x="331.91" y="-55.95" font-family="Times,serif" font-size="14.00">Fabric Agents</text>
</g>
<!-- fabric&#45;a2a&#45;bridge&#45;&gt;Fabric Agents -->
<g id="edge3" class="edge">
<title>fabric&#45;a2a&#45;bridge&#45;&gt;Fabric Agents</title>
<path fill="none" stroke="black" d="M331.91,-341.92C331.91,-293.42 331.91,-154.46 331.91,-93.85"/>
<polygon fill="black" stroke="black" points="335.41,-94.01 331.91,-84.01 328.41,-94.01 335.41,-94.01"/>
<text xml:space="preserve" text-anchor="middle" x="388.16" y="-203.95" font-family="Times,serif" font-size="14.00">Agent Messaging</text>
</g>
<!-- State DB -->
<g id="node5" class="node">
<title>State DB</title>
<polygon fill="lightblue" stroke="black" points="505.91,-82 429.91,-82 429.91,-46 505.91,-46 505.91,-82"/>
<text xml:space="preserve" text-anchor="middle" x="467.91" y="-61.2" font-family="Times,serif" font-size="14.00">State DB</text>
<text xml:space="preserve" text-anchor="middle" x="467.91" y="-50.7" font-family="Times,serif" font-size="14.00">(SQLite)</text>
</g>
<!-- fabric&#45;a2a&#45;bridge&#45;&gt;State DB -->
<g id="edge4" class="edge">
<title>fabric&#45;a2a&#45;bridge&#45;&gt;State DB</title>
<path fill="none" stroke="black" d="M350.96,-341.9C377.12,-317.19 423.48,-268.8 445.91,-217.25 463.5,-176.82 467.55,-125.22 468.21,-93.67"/>
<polygon fill="black" stroke="black" points="471.71,-93.78 468.3,-83.75 464.71,-93.72 471.71,-93.78"/>
<text xml:space="preserve" text-anchor="middle" x="554.02" y="-203.95" font-family="Times,serif" font-size="14.00">Task Lifecycle, Push Configs</text>
</g>
<!-- External Webhooks -->
<g id="node6" class="node">
<title>External Webhooks</title>
<polygon fill="lightblue" stroke="black" points="772.66,-82 629.16,-82 629.16,-46 772.66,-46 772.66,-82"/>
<text xml:space="preserve" text-anchor="middle" x="700.91" y="-55.95" font-family="Times,serif" font-size="14.00">External Webhooks</text>
</g>
<!-- fabric&#45;a2a&#45;bridge&#45;&gt;External Webhooks -->
<g id="edge5" class="edge">
<title>fabric&#45;a2a&#45;bridge&#45;&gt;External Webhooks</title>
<path fill="none" stroke="black" d="M429.57,-341.56C504.05,-323.2 603.63,-286.86 662.91,-217.25 692.79,-182.15 699.77,-126.93 701.07,-93.53"/>
<polygon fill="black" stroke="black" points="704.56,-93.87 701.29,-83.8 697.56,-93.71 704.56,-93.87"/>
<text xml:space="preserve" text-anchor="middle" x="737.99" y="-203.95" font-family="Times,serif" font-size="14.00">Push Notifications</text>
</g>
<!-- Fabric Hub&#45;&gt;fabric&#45;a2a&#45;bridge -->
<g id="edge6" class="edge">
<title>Fabric Hub&#45;&gt;fabric&#45;a2a&#45;bridge</title>
<path fill="none" stroke="black" d="M105.85,-82.47C124.22,-111.38 162.94,-170.63 200.41,-217.25 234.9,-260.17 279.18,-306.29 306.54,-333.88"/>
<polygon fill="black" stroke="black" points="303.85,-336.14 313.39,-340.75 308.81,-331.2 303.85,-336.14"/>
<text xml:space="preserve" text-anchor="middle" x="264.16" y="-203.95" font-family="Times,serif" font-size="14.00">Broker Plugin RPC</text>
</g>
</g>
</svg>
