<?xml version="1.0" encoding="UTF-8" standalone="no"?>
<!DOCTYPE svg PUBLIC "-//W3C//DTD SVG 1.1//EN"
 "http://www.w3.org/Graphics/SVG/1.1/DTD/svg11.dtd">
<!-- Generated by graphviz version 2.44.1 (20201121.0304)
 -->
<!-- Title: G Pages: 1 -->
<svg width="535pt" height="535pt"
 viewBox="0.00 0.00 535.00 535.00" xmlns="http://www.w3.org/2000/svg" xmlns:xlink="http://www.w3.org/1999/xlink"><style>
  * {
    fill: transparent !important;
    stroke: #1f1f1f !important;
    stroke-width: 1 !important;
  }
  polygon:not(.cluster *, .node *, .edge *, text) {
    stroke: transparent !important;
  }
  text {
    font-size: 10px !important;
    font-family: monospace !important;
    fill: #1f1f1f !important;
    stroke: transparent !important;
    transform: translateY(-0.5em);
  }
</style>
<g id="graph0" class="graph" transform="scale(1 1) rotate(0) translate(4 531)">
<title>G</title>
<polygon fill="white" stroke="none" points="-4,4 -4,-531 531,-531 531,4 -4,4"/>
<g id="clust1" class="cluster">
<title>cluster_scion_resources</title>
<polygon fill="none" stroke="black" points="32.25,-201.47 32.25,-361.96 398.25,-361.96 398.25,-201.47 32.25,-201.47"/>
<text xml:space="preserve" text-anchor="middle" x="215.25" y="-344.66" font-family="Times,serif" font-size="14.00">/googlecloudplatform/scion/resources</text>
</g>
<!-- templates/* -->
<g id="node1" class="node">
<title>templates/*</title>
<polygon fill="lightblue" stroke="black" points="98.5,-504 0,-504 0,-468 98.5,-468 98.5,-504"/>
<text xml:space="preserve" text-anchor="middle" x="49.25" y="-477.95" font-family="Times,serif" font-size="14.00">templates/*</text>
</g>
<!-- embed.go -->
<g id="node2" class="node">
<title>embed.go</title>
<polygon fill="lightblue" stroke="black" points="198.5,-279 40,-279 40,-243 198.5,-243 198.5,-279"/>
<text xml:space="preserve" text-anchor="middle" x="119.25" y="-252.95" font-family="Times,serif" font-size="14.00">embed.go (Go Files)</text>
</g>
<!-- templates/*&#45;&gt;embed.go -->
<g id="edge1" class="edge">
<title>templates/*&#45;&gt;embed.go</title>
<path fill="none" stroke="black" d="M54.74,-467.5C66.81,-429.07 95.7,-337.01 110.38,-290.26"/>
<polygon fill="black" stroke="black" points="113.67,-291.45 113.33,-280.86 107,-289.35 113.67,-291.45"/>
<text xml:space="preserve" text-anchor="middle" x="110.06" y="-383.95" font-family="Times,serif" font-size="14.00">go:embed</text>
</g>
<!-- Embedded Resources -->
<g id="node4" class="node">
<title>Embedded Resources</title>
<polygon fill="lightblue" stroke="black" points="233.75,-75 82.75,-75 82.75,-39 233.75,-39 233.75,-75"/>
<text xml:space="preserve" text-anchor="middle" x="158.25" y="-48.95" font-family="Times,serif" font-size="14.00">Embedded Resources</text>
</g>
<!-- embed.go&#45;&gt;Embedded Resources -->
<g id="edge3" class="edge">
<title>embed.go&#45;&gt;Embedded Resources</title>
<path fill="none" stroke="black" d="M118.08,-242.79C117.1,-223.05 116.6,-189.77 121.75,-161.75 126.65,-135.13 137.31,-106.18 145.85,-85.64"/>
<polygon fill="black" stroke="black" points="149.03,-87.13 149.74,-76.56 142.59,-84.38 149.03,-87.13"/>
<text xml:space="preserve" text-anchor="middle" x="148" y="-158.95" font-family="Times,serif" font-size="14.00">defines</text>
</g>
<!-- platform_skills/* -->
<g id="node3" class="node">
<title>platform_skills/*</title>
<polygon fill="lightblue" stroke="black" points="260,-504 116.5,-504 116.5,-468 260,-468 260,-504"/>
<text xml:space="preserve" text-anchor="middle" x="188.25" y="-477.95" font-family="Times,serif" font-size="14.00">platform_skills/*</text>
</g>
<!-- platform_skills/*&#45;&gt;embed.go -->
<g id="edge2" class="edge">
<title>platform_skills/*&#45;&gt;embed.go</title>
<path fill="none" stroke="black" d="M182.84,-467.5C170.94,-429.07 142.46,-337.01 128,-290.26"/>
<polygon fill="black" stroke="black" points="131.39,-289.38 125.09,-280.86 124.7,-291.45 131.39,-289.38"/>
<text xml:space="preserve" text-anchor="middle" x="189.93" y="-383.95" font-family="Times,serif" font-size="14.00">go:embed</text>
</g>
<!-- catalog.go -->
<g id="node5" class="node">
<title>catalog.go</title>
<polygon fill="lightblue" stroke="black" points="390,-279 216.5,-279 216.5,-243 390,-243 390,-279"/>
<text xml:space="preserve" text-anchor="middle" x="303.25" y="-252.95" font-family="Times,serif" font-size="14.00">catalog.go (Go Files)</text>
</g>
<!-- Embedded Resources&#45;&gt;catalog.go -->
<g id="edge5" class="edge">
<title>Embedded Resources&#45;&gt;catalog.go</title>
<path fill="none" stroke="black" d="M164.48,-75.27C173.35,-98.56 191.08,-140.75 213.75,-172.25 230.76,-195.88 254.44,-218.79 273.17,-235.26"/>
<polygon fill="black" stroke="black" points="270.65,-237.71 280.5,-241.6 275.22,-232.41 270.65,-237.71"/>
<text xml:space="preserve" text-anchor="middle" x="255" y="-158.95" font-family="Times,serif" font-size="14.00">accessed by</text>
</g>
<!-- BundledResource Objects -->
<g id="node6" class="node">
<title>BundledResource Objects</title>
<polygon fill="lightblue" stroke="black" points="527,-82 293.5,-82 293.5,-32 527,-32 527,-82"/>
<text xml:space="preserve" text-anchor="middle" x="410.25" y="-64.7" font-family="Times,serif" font-size="14.00">{BundledResource Objects|Kind</text>
<text xml:space="preserve" text-anchor="middle" x="410.25" y="-54.2" font-family="Times,serif" font-size="14.00">Name</text>
<text xml:space="preserve" text-anchor="middle" x="410.25" y="-43.7" font-family="Times,serif" font-size="14.00">FS</text>
<text xml:space="preserve" text-anchor="middle" x="410.25" y="-33.2" font-family="Times,serif" font-size="14.00">Root}</text>
</g>
<!-- catalog.go&#45;&gt;BundledResource Objects -->
<g id="edge4" class="edge">
<title>catalog.go&#45;&gt;BundledResource Objects</title>
<path fill="none" stroke="black" d="M299.41,-242.5C295.83,-222.2 292.54,-188.12 303.75,-161.75 316.18,-132.49 341.3,-107.37 364.02,-89.18"/>
<polygon fill="black" stroke="black" points="365.94,-92.12 371.71,-83.24 361.66,-86.59 365.94,-92.12"/>
<text xml:space="preserve" text-anchor="middle" x="367.5" y="-158.95" font-family="Times,serif" font-size="14.00">creates/populates</text>
</g>
<!-- BundledResource Objects&#45;&gt;catalog.go -->
<g id="edge6" class="edge">
<title>BundledResource Objects&#45;&gt;catalog.go</title>
<path fill="none" stroke="black" d="M423.24,-82.11C434.33,-106.21 446.29,-143.7 431.25,-172.25 415.77,-201.63 385.53,-223.06 358.32,-237.38"/>
<polygon fill="black" stroke="black" points="356.8,-234.23 349.43,-241.85 359.94,-240.49 356.8,-234.23"/>
<text xml:space="preserve" text-anchor="middle" x="461.11" y="-158.95" font-family="Times,serif" font-size="14.00">returns</text>
</g>
</g>
</svg>
