<?xml version="1.0" encoding="UTF-8" standalone="no"?>
<!DOCTYPE svg PUBLIC "-//W3C//DTD SVG 1.1//EN"
 "http://www.w3.org/Graphics/SVG/1.1/DTD/svg11.dtd">
<!-- Generated by graphviz version 2.44.1 (20201121.0304)
 -->
<!-- Title: G Pages: 1 -->
<svg width="632pt" height="632pt"
 viewBox="0.00 0.00 632.00 632.00" xmlns="http://www.w3.org/2000/svg" xmlns:xlink="http://www.w3.org/1999/xlink"><style>
  * {
    fill: transparent !important;
    stroke: #1f1f1f !important;
    stroke-width: 1 !important;
  }
  polygon:not(.cluster *, .node *, .edge *, text) {
    stroke: transparent !important;
  }
  text {
    font-size: 10px !important;
    font-family: monospace !important;
    fill: #1f1f1f !important;
    stroke: transparent !important;
    transform: translateY(-0.5em);
  }
</style>
<g id="graph0" class="graph" transform="scale(1 1) rotate(0) translate(4 627.75)">
<title>G</title>
<polygon fill="white" stroke="none" points="-4,4 -4,-627.75 627.75,-627.75 627.75,4 -4,4"/>
<!-- Host Environment -->
<g id="node1" class="node">
<title>Host Environment</title>
<polygon fill="lightblue" stroke="black" points="327.75,-611 56.75,-611 56.75,-575 327.75,-575 327.75,-611"/>
<text xml:space="preserve" text-anchor="middle" x="192.25" y="-584.95" font-family="Times,serif" font-size="14.00">Host Environment (Env Vars, Files)</text>
</g>
<!-- Auth Pipeline -->
<g id="node2" class="node">
<title>Auth Pipeline</title>
<polygon fill="lightblue" stroke="black" points="369,-470 15.5,-470 15.5,-434 369,-434 369,-470"/>
<text xml:space="preserve" text-anchor="middle" x="192.25" y="-443.95" font-family="Times,serif" font-size="14.00">Auth Pipeline (Gather &#45;&gt; Resolve &#45;&gt; Validate)</text>
</g>
<!-- Host Environment&#45;&gt;Auth Pipeline -->
<g id="edge1" class="edge">
<title>Host Environment&#45;&gt;Auth Pipeline</title>
<path fill="none" stroke="black" d="M192.25,-574.68C192.25,-551.35 192.25,-509.53 192.25,-481.53"/>
<polygon fill="black" stroke="black" points="195.75,-481.62 192.25,-471.62 188.75,-481.62 195.75,-481.62"/>
<text xml:space="preserve" text-anchor="middle" x="233.5" y="-514.95" font-family="Times,serif" font-size="14.00">Credentials</text>
</g>
<!-- Agent Container -->
<g id="node3" class="node">
<title>Agent Container</title>
<polygon fill="lightblue" stroke="black" points="218.5,-330 0,-330 0,-294 218.5,-294 218.5,-330"/>
<text xml:space="preserve" text-anchor="middle" x="109.25" y="-303.95" font-family="Times,serif" font-size="14.00">Agent Container (fabrictool)</text>
</g>
<!-- Auth Pipeline&#45;&gt;Agent Container -->
<g id="edge2" class="edge">
<title>Auth Pipeline&#45;&gt;Agent Container</title>
<path fill="none" stroke="black" d="M167.62,-433.63C153.11,-422.11 135.62,-405.73 125.25,-387.25 117.44,-373.32 113.44,-355.96 111.39,-341.52"/>
<polygon fill="black" stroke="black" points="114.88,-341.27 110.26,-331.73 107.93,-342.07 114.88,-341.27"/>
<text xml:space="preserve" text-anchor="middle" x="192.75" y="-373.95" font-family="Times,serif" font-size="14.00">Injected Env/Files</text>
</g>
<!-- Fabric Hub -->
<g id="node4" class="node">
<title>Fabric Hub</title>
<polygon fill="lightblue" stroke="black" points="447.75,-189 176.75,-189 176.75,-153 447.75,-153 447.75,-189"/>
<text xml:space="preserve" text-anchor="middle" x="312.25" y="-162.95" font-family="Times,serif" font-size="14.00">Fabric Hub (AuthzService, Policies)</text>
</g>
<!-- Agent Container&#45;&gt;Fabric Hub -->
<g id="edge3" class="edge">
<title>Agent Container&#45;&gt;Fabric Hub</title>
<path fill="none" stroke="black" d="M104.18,-293.58C100.56,-277.26 98.21,-253.02 110.25,-236.75 124.78,-217.11 145.35,-203.3 167.84,-193.62"/>
<polygon fill="black" stroke="black" points="168.9,-196.97 176.89,-190.02 166.31,-190.46 168.9,-196.97"/>
<text xml:space="preserve" text-anchor="middle" x="185.25" y="-233.95" font-family="Times,serif" font-size="14.00">Authn/Authz Requests</text>
</g>
<!-- Fabric Hub&#45;&gt;Auth Pipeline -->
<g id="edge7" class="edge">
<title>Fabric Hub&#45;&gt;Auth Pipeline</title>
<path fill="none" stroke="black" d="M308.23,-189.21C296.47,-239.48 262.8,-382.87 260.25,-387.25 251.6,-402.1 238.42,-415.61 225.96,-426.32"/>
<polygon fill="black" stroke="black" points="223.76,-423.6 218.26,-432.65 228.21,-429.01 223.76,-423.6"/>
<text xml:space="preserve" text-anchor="middle" x="373.21" y="-303.95" font-family="Times,serif" font-size="14.00">Secrets (Hub&#45;dispatched)</text>
</g>
<!-- Runtime Broker -->
<g id="node6" class="node">
<title>Runtime Broker</title>
<polygon fill="lightblue" stroke="black" points="214.75,-49 93.75,-49 93.75,-13 214.75,-13 214.75,-49"/>
<text xml:space="preserve" text-anchor="middle" x="154.25" y="-22.95" font-family="Times,serif" font-size="14.00">Runtime Broker</text>
</g>
<!-- Fabric Hub&#45;&gt;Runtime Broker -->
<g id="edge5" class="edge">
<title>Fabric Hub&#45;&gt;Runtime Broker</title>
<path fill="none" stroke="black" d="M311.14,-152.77C309.23,-136.36 304.1,-111.86 290.25,-95.75 273.37,-76.12 249.12,-62.13 225.76,-52.35"/>
<polygon fill="black" stroke="black" points="227.12,-49.12 216.53,-48.71 224.55,-55.63 227.12,-49.12"/>
<text xml:space="preserve" text-anchor="middle" x="376.13" y="-92.95" font-family="Times,serif" font-size="14.00">Provisioning Commands</text>
</g>
<!-- Clients -->
<g id="node5" class="node">
<title>Clients</title>
<polygon fill="lightblue" stroke="black" points="623.75,-330 472.75,-330 472.75,-294 623.75,-294 623.75,-330"/>
<text xml:space="preserve" text-anchor="middle" x="548.25" y="-303.95" font-family="Times,serif" font-size="14.00">Clients (Web, CLI)</text>
</g>
<!-- Clients&#45;&gt;Fabric Hub -->
<g id="edge4" class="edge">
<title>Clients&#45;&gt;Fabric Hub</title>
<path fill="none" stroke="black" d="M518.84,-293.68C476.59,-268.79 398.64,-222.88 351.51,-195.12"/>
<polygon fill="black" stroke="black" points="353.36,-192.15 342.97,-190.09 349.81,-198.18 353.36,-192.15"/>
<text xml:space="preserve" text-anchor="middle" x="512.33" y="-233.95" font-family="Times,serif" font-size="14.00">Authn/Authz Requests</text>
</g>
<!-- Runtime Broker&#45;&gt;Agent Container -->
<g id="edge6" class="edge">
<title>Runtime Broker&#45;&gt;Agent Container</title>
<path fill="none" stroke="black" d="M130.93,-49.45C104.8,-70.6 63.94,-108.94 47.25,-153 29.66,-199.45 62.11,-253.23 86.34,-284.55"/>
<polygon fill="black" stroke="black" points="83.59,-286.72 92.58,-292.34 89.05,-282.35 83.59,-286.72"/>
<text xml:space="preserve" text-anchor="middle" x="107.25" y="-162.95" font-family="Times,serif" font-size="14.00">Agent Deployment</text>
</g>
<!-- Runtime Broker&#45;&gt;Fabric Hub -->
<g id="edge8" class="edge">
<title>Runtime Broker&#45;&gt;Fabric Hub</title>
<path fill="none" stroke="black" d="M148.14,-49.21C143.57,-65.37 139.87,-89.5 151.25,-106.25 164.32,-125.48 184.19,-138.91 205.55,-148.29"/>
<polygon fill="black" stroke="black" points="204.15,-151.5 214.74,-152.01 206.78,-145.01 204.15,-151.5"/>
<text xml:space="preserve" text-anchor="middle" x="218.75" y="-92.95" font-family="Times,serif" font-size="14.00">Heartbeats, Status</text>
</g>
</g>
</svg>
