<?xml version="1.0" encoding="UTF-8" standalone="no"?>
<!DOCTYPE svg PUBLIC "-//W3C//DTD SVG 1.1//EN"
 "http://www.w3.org/Graphics/SVG/1.1/DTD/svg11.dtd">
<!-- Generated by graphviz version 2.44.1 (20201121.0304)
 -->
<!-- Title: G Pages: 1 -->
<svg width="765pt" height="706pt"
 viewBox="0.00 0.00 765.00 706.00" xmlns="http://www.w3.org/2000/svg" xmlns:xlink="http://www.w3.org/1999/xlink"><style>
  * {
    fill: transparent !important;
    stroke: #1f1f1f !important;
    stroke-width: 1 !important;
  }
  polygon:not(.cluster *, .node *, .edge *, text) {
    stroke: transparent !important;
  }
  text {
    font-size: 10px !important;
    font-family: monospace !important;
    fill: #1f1f1f !important;
    stroke: transparent !important;
    transform: translateY(-0.5em);
  }
</style>
<g id="graph0" class="graph" transform="scale(1 1) rotate(0) translate(4 702.25)">
<title>G</title>
<polygon fill="white" stroke="none" points="-4,4 -4,-702.25 760.78,-702.25 760.78,4 -4,4"/>
<!-- targets.sh -->
<g id="node1" class="node">
<title>targets.sh</title>
<polygon fill="lightblue" stroke="black" points="485.75,-469 312.25,-469 312.25,-433 485.75,-433 485.75,-469"/>
<text xml:space="preserve" text-anchor="middle" x="399" y="-448.2" font-family="Times,serif" font-size="14.00">targets.sh</text>
<text xml:space="preserve" text-anchor="middle" x="399" y="-437.7" font-family="Times,serif" font-size="14.00">(Metadata Repository)</text>
</g>
<!-- Dockerfiles/Contexts -->
<g id="node2" class="node">
<title>Dockerfiles/Contexts</title>
<polygon fill="lightblue" stroke="black" points="136,-266 0,-266 0,-230 136,-230 136,-266"/>
<text xml:space="preserve" text-anchor="middle" x="68" y="-245.2" font-family="Times,serif" font-size="14.00">Dockerfiles</text>
<text xml:space="preserve" text-anchor="middle" x="68" y="-234.7" font-family="Times,serif" font-size="14.00">&amp; Build Contexts</text>
</g>
<!-- targets.sh&#45;&gt;Dockerfiles/Contexts -->
<g id="edge1" class="edge">
<title>targets.sh&#45;&gt;Dockerfiles/Contexts</title>
<path fill="none" stroke="black" d="M370.2,-432.51C310.51,-396.27 173.27,-312.92 106.24,-272.22"/>
<polygon fill="black" stroke="black" points="108.15,-269.29 97.79,-267.09 104.52,-275.27 108.15,-269.29"/>
<text xml:space="preserve" text-anchor="middle" x="282.25" y="-340.95" font-family="Times,serif" font-size="14.00">defines paths</text>
</g>
<!-- Image Dependencies -->
<g id="node3" class="node">
<title>Image Dependencies</title>
<polygon fill="lightblue" stroke="black" points="447.75,-266 154.25,-266 154.25,-230 447.75,-230 447.75,-266"/>
<text xml:space="preserve" text-anchor="middle" x="301" y="-245.2" font-family="Times,serif" font-size="14.00">Image Dependencies</text>
<text xml:space="preserve" text-anchor="middle" x="301" y="-234.7" font-family="Times,serif" font-size="14.00">(e.g., &#39;scion&#45;base&#39; uses &#39;core&#45;base&#39;)</text>
</g>
<!-- targets.sh&#45;&gt;Image Dependencies -->
<g id="edge2" class="edge">
<title>targets.sh&#45;&gt;Image Dependencies</title>
<path fill="none" stroke="black" d="M390.47,-432.51C373.42,-397.53 334.98,-318.69 314.47,-276.64"/>
<polygon fill="black" stroke="black" points="317.63,-275.12 310.1,-267.66 311.34,-278.19 317.63,-275.12"/>
<text xml:space="preserve" text-anchor="middle" x="402.5" y="-340.95" font-family="Times,serif" font-size="14.00">defines parent</text>
</g>
<!-- Logical Targets -->
<g id="node4" class="node">
<title>Logical Targets</title>
<polygon fill="lightblue" stroke="black" points="676.5,-266 465.5,-266 465.5,-230 676.5,-230 676.5,-266"/>
<text xml:space="preserve" text-anchor="middle" x="571" y="-245.2" font-family="Times,serif" font-size="14.00">Logical Targets</text>
<text xml:space="preserve" text-anchor="middle" x="571" y="-234.7" font-family="Times,serif" font-size="14.00">(e.g., &#39;all&#39;, &#39;harnesses&#39;)</text>
</g>
<!-- targets.sh&#45;&gt;Logical Targets -->
<g id="edge3" class="edge">
<title>targets.sh&#45;&gt;Logical Targets</title>
<path fill="none" stroke="black" d="M413.96,-432.51C444.28,-397.08 513.1,-316.67 548.71,-275.04"/>
<polygon fill="black" stroke="black" points="551.37,-277.33 555.21,-267.45 546.05,-272.77 551.37,-277.33"/>
<text xml:space="preserve" text-anchor="middle" x="545" y="-340.95" font-family="Times,serif" font-size="14.00">expands to steps</text>
</g>
<!-- Build Order/Config -->
<g id="node5" class="node">
<title>Build Order/Config</title>
<polygon fill="lightblue" stroke="black" points="627.75,-62 514.25,-62 514.25,-26 627.75,-26 627.75,-62"/>
<text xml:space="preserve" text-anchor="middle" x="571" y="-41.2" font-family="Times,serif" font-size="14.00">Build Order/</text>
<text xml:space="preserve" text-anchor="middle" x="571" y="-30.7" font-family="Times,serif" font-size="14.00">Configuration</text>
</g>
<!-- Image Dependencies&#45;&gt;Build Order/Config -->
<g id="edge5" class="edge">
<title>Image Dependencies&#45;&gt;Build Order/Config</title>
<path fill="none" stroke="black" d="M324.02,-229.78C372.12,-193.79 483.39,-110.55 538.65,-69.2"/>
<polygon fill="black" stroke="black" points="540.53,-72.17 546.44,-63.37 536.34,-66.56 540.53,-72.17"/>
<text xml:space="preserve" text-anchor="middle" x="473.5" y="-137.95" font-family="Times,serif" font-size="14.00">influences</text>
</g>
<!-- Logical Targets&#45;&gt;Build Order/Config -->
<g id="edge4" class="edge">
<title>Logical Targets&#45;&gt;Build Order/Config</title>
<path fill="none" stroke="black" d="M571,-229.78C571,-195.06 571,-116.34 571,-73.71"/>
<polygon fill="black" stroke="black" points="574.5,-73.98 571,-63.98 567.5,-73.98 574.5,-73.98"/>
<text xml:space="preserve" text-anchor="middle" x="604.75" y="-137.95" font-family="Times,serif" font-size="14.00">generates</text>
</g>
<!-- build&#45;images.sh -->
<g id="node6" class="node">
<title>build&#45;images.sh</title>
<polygon fill="lightblue" stroke="black" points="698.25,-672 569.75,-672 569.75,-636 698.25,-636 698.25,-672"/>
<text xml:space="preserve" text-anchor="middle" x="634" y="-651.2" font-family="Times,serif" font-size="14.00">build&#45;images.sh</text>
<text xml:space="preserve" text-anchor="middle" x="634" y="-640.7" font-family="Times,serif" font-size="14.00">(Orchestrator)</text>
</g>
<!-- build&#45;images.sh&#45;&gt;targets.sh -->
<g id="edge6" class="edge">
<title>build&#45;images.sh&#45;&gt;targets.sh</title>
<path fill="none" stroke="black" d="M613.56,-635.51C571.7,-599.71 476.13,-517.97 427.93,-476.75"/>
<polygon fill="black" stroke="black" points="430.25,-474.13 420.38,-470.29 425.7,-479.45 430.25,-474.13"/>
<text xml:space="preserve" text-anchor="middle" x="542.75" y="-543.95" font-family="Times,serif" font-size="14.00">sources</text>
</g>
<!-- build&#45;images.sh&#45;&gt;Build Order/Config -->
<g id="edge7" class="edge">
<title>build&#45;images.sh&#45;&gt;Build Order/Config</title>
<path fill="none" stroke="black" d="M640.3,-635.86C660.67,-578.03 721.41,-385.09 686,-230 671.39,-166.03 623.77,-103.8 594.58,-70.33"/>
<polygon fill="black" stroke="black" points="597.5,-68.34 588.24,-63.2 592.27,-72.99 597.5,-68.34"/>
<text xml:space="preserve" text-anchor="middle" x="726.78" y="-340.95" font-family="Times,serif" font-size="14.00">consumes</text>
</g>
</g>
</svg>
