<?xml version="1.0" encoding="UTF-8" standalone="no"?>
<!DOCTYPE svg PUBLIC "-//W3C//DTD SVG 1.1//EN"
 "http://www.w3.org/Graphics/SVG/1.1/DTD/svg11.dtd">
<!-- Generated by graphviz version 2.44.1 (20201121.0304)
 -->
<!-- Title: G Pages: 1 -->
<svg width="448pt" height="435pt"
 viewBox="0.00 0.00 448.00 435.00" xmlns="http://www.w3.org/2000/svg" xmlns:xlink="http://www.w3.org/1999/xlink"><style>
  * {
    fill: transparent !important;
    stroke: #1f1f1f !important;
    stroke-width: 1 !important;
  }
  polygon:not(.cluster *, .node *, .edge *, text) {
    stroke: transparent !important;
  }
  text {
    font-size: 10px !important;
    font-family: monospace !important;
    fill: #1f1f1f !important;
    stroke: transparent !important;
    transform: translateY(-0.5em);
  }
</style>
<g id="graph0" class="graph" transform="scale(1 1) rotate(0) translate(4 431)">
<title>G</title>
<polygon fill="white" stroke="none" points="-4,4 -4,-431 443.59,-431 443.59,4 -4,4"/>
<!-- Fabric CLI (Manager) -->
<g id="node1" class="node">
<title>Fabric CLI (Manager)</title>
<polygon fill="lightblue" stroke="black" points="351,-409 192.5,-409 192.5,-373 351,-373 351,-409"/>
<text xml:space="preserve" text-anchor="middle" x="271.75" y="-382.95" font-family="Times,serif" font-size="14.00">Fabric CLI (Manager)</text>
</g>
<!-- Agent Containers -->
<g id="node2" class="node">
<title>Agent Containers</title>
<polygon fill="lightblue" stroke="black" points="249.5,-221 76,-221 76,-185 249.5,-185 249.5,-221"/>
<text xml:space="preserve" text-anchor="middle" x="162.75" y="-200.2" font-family="Times,serif" font-size="14.00">Agent Containers</text>
<text xml:space="preserve" text-anchor="middle" x="162.75" y="-189.7" font-family="Times,serif" font-size="14.00">(Isolated LLM Agents)</text>
</g>
<!-- Fabric CLI (Manager)&#45;&gt;Agent Containers -->
<g id="edge1" class="edge">
<title>Fabric CLI (Manager)&#45;&gt;Agent Containers</title>
<path fill="none" stroke="black" d="M234.37,-372.52C209.57,-358.69 178.98,-336.83 164.25,-307.5 152.55,-284.19 153.63,-254.05 156.76,-232.31"/>
<polygon fill="black" stroke="black" points="160.18,-233.13 158.4,-222.69 153.27,-231.96 160.18,-233.13"/>
<text xml:space="preserve" text-anchor="middle" x="265.5" y="-294.2" font-family="Times,serif" font-size="14.00">orchestrates lifecycle</text>
<text xml:space="preserve" text-anchor="middle" x="265.5" y="-283.7" font-family="Times,serif" font-size="14.00">(start, list, attach, stop)</text>
</g>
<!-- Git Worktrees -->
<g id="node3" class="node">
<title>Git Worktrees</title>
<polygon fill="lightblue" stroke="black" points="427,-54 238.5,-54 238.5,-18 427,-18 427,-54"/>
<text xml:space="preserve" text-anchor="middle" x="332.75" y="-33.2" font-family="Times,serif" font-size="14.00">Git Worktrees</text>
<text xml:space="preserve" text-anchor="middle" x="332.75" y="-22.7" font-family="Times,serif" font-size="14.00">(Concurrent Workspaces)</text>
</g>
<!-- Fabric CLI (Manager)&#45;&gt;Git Worktrees -->
<g id="edge4" class="edge">
<title>Fabric CLI (Manager)&#45;&gt;Git Worktrees</title>
<path fill="none" stroke="black" d="M303.36,-372.58C325.67,-358.33 353.79,-335.92 366.75,-307.5 402.29,-229.56 384.28,-198.6 366.75,-114.75 363.06,-97.11 355.14,-78.58 347.87,-64.03"/>
<polygon fill="black" stroke="black" points="351.18,-62.81 343.45,-55.56 344.97,-66.05 351.18,-62.81"/>
<text xml:space="preserve" text-anchor="middle" x="413.34" y="-194.95" font-family="Times,serif" font-size="14.00">manages</text>
</g>
<!-- Agent Containers&#45;&gt;Git Worktrees -->
<g id="edge2" class="edge">
<title>Agent Containers&#45;&gt;Git Worktrees</title>
<path fill="none" stroke="black" d="M168.89,-184.62C176.22,-165.74 189.96,-135.49 209.25,-114.75 230.48,-91.92 259.84,-73.08 284.6,-59.66"/>
<polygon fill="black" stroke="black" points="285.98,-62.89 293.2,-55.13 282.72,-56.69 285.98,-62.89"/>
<text xml:space="preserve" text-anchor="middle" x="288" y="-111.95" font-family="Times,serif" font-size="14.00">mounts workspace from</text>
</g>
<!-- Filesystem/Networking -->
<g id="node4" class="node">
<title>Filesystem/Networking</title>
<polygon fill="lightblue" stroke="black" points="173.5,-54 0,-54 0,-18 173.5,-18 173.5,-54"/>
<text xml:space="preserve" text-anchor="middle" x="86.75" y="-27.95" font-family="Times,serif" font-size="14.00">Filesystem/Networking</text>
</g>
<!-- Agent Containers&#45;&gt;Filesystem/Networking -->
<g id="edge3" class="edge">
<title>Agent Containers&#45;&gt;Filesystem/Networking</title>
<path fill="none" stroke="black" d="M137.97,-184.67C120.49,-170.85 98.44,-149.77 88.25,-125.25 80.46,-106.51 80.33,-83.54 82.02,-65.73"/>
<polygon fill="black" stroke="black" points="85.49,-66.2 83.22,-55.85 78.54,-65.35 85.49,-66.2"/>
<text xml:space="preserve" text-anchor="middle" x="137" y="-111.95" font-family="Times,serif" font-size="14.00">uses isolated</text>
</g>
</g>
</svg>
