<?xml version="1.0" encoding="UTF-8" standalone="no"?>
<!DOCTYPE svg PUBLIC "-//W3C//DTD SVG 1.1//EN"
 "http://www.w3.org/Graphics/SVG/1.1/DTD/svg11.dtd">
<!-- Generated by graphviz version 2.44.1 (20201121.0304)
 -->
<!-- Title: G Pages: 1 -->
<svg width="1164pt" height="1164pt"
 viewBox="0.00 0.00 1164.00 1164.00" xmlns="http://www.w3.org/2000/svg" xmlns:xlink="http://www.w3.org/1999/xlink"><style>
  * {
    fill: transparent !important;
    stroke: #1f1f1f !important;
    stroke-width: 1 !important;
  }
  polygon:not(.cluster *, .node *, .edge *, text) {
    stroke: transparent !important;
  }
  text {
    font-size: 10px !important;
    font-family: monospace !important;
    fill: #1f1f1f !important;
    stroke: transparent !important;
    transform: translateY(-0.5em);
  }
</style>
<g id="graph0" class="graph" transform="scale(1 1) rotate(0) translate(4 1160)">
<title>G</title>
<polygon fill="white" stroke="none" points="-4,4 -4,-1160 1160,-1160 1160,4 -4,4"/>
<!-- FabricApp -->
<g id="node1" class="node">
<title>FabricApp</title>
<polygon fill="lightblue" stroke="black" points="645.5,-1070 389.5,-1070 389.5,-1034 645.5,-1034 645.5,-1070"/>
<text xml:space="preserve" text-anchor="middle" x="517.5" y="-1043.95" font-family="Times,serif" font-size="14.00">{FabricApp | Top&#45;level container}</text>
</g>
<!-- SharedComponents -->
<g id="node2" class="node">
<title>SharedComponents</title>
<polygon fill="lightblue" stroke="black" points="661,-122 0,-122 0,-86 661,-86 661,-122"/>
<text xml:space="preserve" text-anchor="middle" x="330.5" y="-95.95" font-family="Times,serif" font-size="14.00">{Shared Components | (e.g., FabricNav, FabricHeader, FabricDebugPanel, FabricJsonBrowser)}</text>
</g>
<!-- FabricApp&#45;&gt;SharedComponents -->
<g id="edge1" class="edge">
<title>FabricApp&#45;&gt;SharedComponents</title>
<path fill="none" stroke="black" d="M508.21,-1033.9C476.88,-975.16 375.03,-775.31 339.5,-596 305.28,-423.3 320.41,-209.73 327.54,-133.6"/>
<polygon fill="black" stroke="black" points="331.02,-133.99 328.5,-123.7 324.05,-133.31 331.02,-133.99"/>
<text xml:space="preserve" text-anchor="middle" x="354.5" y="-569.95" font-family="Times,serif" font-size="14.00">uses</text>
</g>
<!-- ProfileShell -->
<g id="node3" class="node">
<title>ProfileShell</title>
<polygon fill="lightblue" stroke="black" points="656.75,-596 378.25,-596 378.25,-560 656.75,-560 656.75,-596"/>
<text xml:space="preserve" text-anchor="middle" x="517.5" y="-569.95" font-family="Times,serif" font-size="14.00">{Profile Shell | FabricProfileShell}</text>
</g>
<!-- FabricApp&#45;&gt;ProfileShell -->
<g id="edge2" class="edge">
<title>FabricApp&#45;&gt;ProfileShell</title>
<path fill="none" stroke="black" d="M517.5,-1033.64C517.5,-962.87 517.5,-695.69 517.5,-607.47"/>
<polygon fill="black" stroke="black" points="521,-607.53 517.5,-597.53 514,-607.53 521,-607.53"/>
<text xml:space="preserve" text-anchor="middle" x="547.5" y="-806.95" font-family="Times,serif" font-size="14.00">contains</text>
</g>
<!-- PageComponents -->
<g id="node4" class="node">
<title>PageComponents</title>
<polygon fill="lightblue" stroke="black" points="1156,-596 675,-596 675,-560 1156,-560 1156,-596"/>
<text xml:space="preserve" text-anchor="middle" x="915.5" y="-569.95" font-family="Times,serif" font-size="14.00">{Page Components | (e.g., FabricPageAgents, FabricPageProjects)}</text>
</g>
<!-- FabricApp&#45;&gt;PageComponents -->
<g id="edge3" class="edge">
<title>FabricApp&#45;&gt;PageComponents</title>
<path fill="none" stroke="black" d="M532.14,-1033.64C592.43,-962.14 821.73,-690.2 893.73,-604.81"/>
<polygon fill="black" stroke="black" points="896.4,-607.08 900.17,-597.18 891.05,-602.56 896.4,-607.08"/>
<text xml:space="preserve" text-anchor="middle" x="746.5" y="-806.95" font-family="Times,serif" font-size="14.00">contains</text>
</g>
<!-- ProfileShell&#45;&gt;SharedComponents -->
<g id="edge5" class="edge">
<title>ProfileShell&#45;&gt;SharedComponents</title>
<path fill="none" stroke="black" d="M510.62,-559.64C482.5,-488.65 376.08,-220.05 341.46,-132.66"/>
<polygon fill="black" stroke="black" points="344.74,-131.43 337.8,-123.43 338.23,-134.01 344.74,-131.43"/>
<text xml:space="preserve" text-anchor="middle" x="439" y="-332.95" font-family="Times,serif" font-size="14.00">uses</text>
</g>
<!-- ProfileNav -->
<g id="node5" class="node">
<title>ProfileNav</title>
<polygon fill="lightblue" stroke="black" points="927.75,-122 679.25,-122 679.25,-86 927.75,-86 927.75,-122"/>
<text xml:space="preserve" text-anchor="middle" x="803.5" y="-95.95" font-family="Times,serif" font-size="14.00">{Profile Nav | FabricProfileNav}</text>
</g>
<!-- ProfileShell&#45;&gt;ProfileNav -->
<g id="edge4" class="edge">
<title>ProfileShell&#45;&gt;ProfileNav</title>
<path fill="none" stroke="black" d="M528.02,-559.64C571.17,-488.43 734.78,-218.4 787.22,-131.86"/>
<polygon fill="black" stroke="black" points="790.21,-133.68 792.4,-123.31 784.23,-130.05 790.21,-133.68"/>
<text xml:space="preserve" text-anchor="middle" x="675.5" y="-332.95" font-family="Times,serif" font-size="14.00">uses</text>
</g>
</g>
</svg>
