<?xml version="1.0" encoding="UTF-8" standalone="no"?>
<!DOCTYPE svg PUBLIC "-//W3C//DTD SVG 1.1//EN"
 "http://www.w3.org/Graphics/SVG/1.1/DTD/svg11.dtd">
<!-- Generated by graphviz version 2.44.1 (20201121.0304)
 -->
<!-- Title: G Pages: 1 -->
<svg width="468pt" height="444pt"
 viewBox="0.00 0.00 468.00 444.00" xmlns="http://www.w3.org/2000/svg" xmlns:xlink="http://www.w3.org/1999/xlink"><style>
  * {
    fill: transparent !important;
    stroke: #1f1f1f !important;
    stroke-width: 1 !important;
  }
  polygon:not(.cluster *, .node *, .edge *, text) {
    stroke: transparent !important;
  }
  text {
    font-size: 10px !important;
    font-family: monospace !important;
    fill: #1f1f1f !important;
    stroke: transparent !important;
    transform: translateY(-0.5em);
  }
</style>
<g id="graph0" class="graph" transform="scale(1 1) rotate(0) translate(4 439.75)">
<title>G</title>
<polygon fill="white" stroke="none" points="-4,4 -4,-439.75 463.57,-439.75 463.57,4 -4,4"/>
<!-- Publisher -->
<g id="node1" class="node">
<title>Publisher</title>
<polygon fill="lightblue" stroke="black" points="284.25,-433 200.75,-433 200.75,-397 284.25,-397 284.25,-433"/>
<text xml:space="preserve" text-anchor="middle" x="242.5" y="-406.95" font-family="Times,serif" font-size="14.00">Publisher</text>
</g>
<!-- EventBusInterface -->
<g id="node2" class="node">
<title>EventBusInterface</title>
<polygon fill="lightblue" stroke="black" points="318,-339 167,-339 167,-303 318,-303 318,-339"/>
<text xml:space="preserve" text-anchor="middle" x="242.5" y="-312.95" font-family="Times,serif" font-size="14.00">EventBus Interface</text>
</g>
<!-- Publisher&#45;&gt;EventBusInterface -->
<g id="edge1" class="edge">
<title>Publisher&#45;&gt;EventBusInterface</title>
<path fill="none" stroke="black" d="M242.5,-396.7C242.5,-383.72 242.5,-365.66 242.5,-350.56"/>
<polygon fill="black" stroke="black" points="246,-350.74 242.5,-340.74 239,-350.74 246,-350.74"/>
<text xml:space="preserve" text-anchor="middle" x="268.75" y="-359.95" font-family="Times,serif" font-size="14.00">Publish</text>
</g>
<!-- Subscriber -->
<g id="node3" class="node">
<title>Subscriber</title>
<polygon fill="lightblue" stroke="black" points="163,-245 72,-245 72,-209 163,-209 163,-245"/>
<text xml:space="preserve" text-anchor="middle" x="117.5" y="-218.95" font-family="Times,serif" font-size="14.00">Subscriber</text>
</g>
<!-- EventBusInterface&#45;&gt;Subscriber -->
<g id="edge2" class="edge">
<title>EventBusInterface&#45;&gt;Subscriber</title>
<path fill="none" stroke="black" d="M166.8,-310.55C148.35,-304.52 130.61,-294.82 119,-279.25 114.21,-272.83 112.6,-264.58 112.53,-256.59"/>
<polygon fill="black" stroke="black" points="116.01,-257.04 113.23,-246.82 109.03,-256.54 116.01,-257.04"/>
<text xml:space="preserve" text-anchor="middle" x="152.75" y="-265.95" font-family="Times,serif" font-size="14.00">Subscribe</text>
</g>
<!-- StructuredMessage -->
<g id="node4" class="node">
<title>StructuredMessage</title>
<polygon fill="lightblue" stroke="black" points="211,-183 0,-183 0,-147 211,-147 211,-183"/>
<text xml:space="preserve" text-anchor="middle" x="105.5" y="-156.95" font-family="Times,serif" font-size="14.00">messages.StructuredMessage</text>
</g>
<!-- EventBusInterface&#45;&gt;StructuredMessage -->
<g id="edge3" class="edge">
<title>EventBusInterface&#45;&gt;StructuredMessage</title>
<path fill="none" stroke="black" d="M227.53,-302.68C221.75,-295.63 215.27,-287.26 210,-279.25 190.55,-249.68 196.5,-235.01 172.5,-209 165.76,-201.69 157.51,-195.1 149.15,-189.39"/>
<polygon fill="black" stroke="black" points="151.3,-186.61 140.99,-184.15 147.51,-192.5 151.3,-186.61"/>
<text xml:space="preserve" text-anchor="middle" x="236.25" y="-265.95" font-family="Times,serif" font-size="14.00">handles</text>
</g>
<!-- InProcessEventBus -->
<g id="node5" class="node">
<title>InProcessEventBus</title>
<polygon fill="lightblue" stroke="black" points="435.75,-122 187.25,-122 187.25,-86 435.75,-86 435.75,-122"/>
<text xml:space="preserve" text-anchor="middle" x="311.5" y="-95.95" font-family="Times,serif" font-size="14.00">InProcessEventBus (Go Channels)</text>
</g>
<!-- EventBusInterface&#45;&gt;InProcessEventBus -->
<g id="edge4" class="edge">
<title>EventBusInterface&#45;&gt;InProcessEventBus</title>
<path fill="none" stroke="black" stroke-dasharray="5,2" d="M256.67,-292.85C258.77,-288.37 260.79,-283.72 262.5,-279.25 283.94,-223.19 300.66,-153.78 307.77,-122.15"/>
<polygon fill="black" stroke="black" points="253.69,-290.98 252.44,-301.5 259.98,-294.05 253.69,-290.98"/>
</g>
<!-- FanOutEventBus -->
<g id="node6" class="node">
<title>FanOutEventBus</title>
<polygon fill="lightblue" stroke="black" points="426,-245 305,-245 305,-209 426,-209 426,-245"/>
<text xml:space="preserve" text-anchor="middle" x="365.5" y="-218.95" font-family="Times,serif" font-size="14.00">FanOutEventBus</text>
</g>
<!-- EventBusInterface&#45;&gt;FanOutEventBus -->
<g id="edge5" class="edge">
<title>EventBusInterface&#45;&gt;FanOutEventBus</title>
<path fill="none" stroke="black" stroke-dasharray="5,2" d="M274.64,-295.96C295.92,-280.04 323.34,-259.53 342.47,-245.23"/>
<polygon fill="black" stroke="black" points="272.76,-293 266.85,-301.79 276.95,-298.6 272.76,-293"/>
</g>
<!-- NATSStyleMatching -->
<g id="node7" class="node">
<title>NATSStyleMatching</title>
<polygon fill="lightblue" stroke="black" points="420.75,-39 202.25,-39 202.25,-3 420.75,-3 420.75,-39"/>
<text xml:space="preserve" text-anchor="middle" x="311.5" y="-12.95" font-family="Times,serif" font-size="14.00">NATS&#45;style Subject Matching</text>
</g>
<!-- StructuredMessage&#45;&gt;NATSStyleMatching -->
<g id="edge9" class="edge">
<title>StructuredMessage&#45;&gt;NATSStyleMatching</title>
<path fill="none" stroke="black" d="M83.48,-146.59C76.52,-139.75 69.69,-131.31 66,-122 60.1,-107.13 56.22,-98.66 66,-86 82.16,-65.09 137.1,-49.72 190.92,-39.29"/>
<polygon fill="black" stroke="black" points="191.34,-42.78 200.52,-37.49 190.05,-35.9 191.34,-42.78"/>
<text xml:space="preserve" text-anchor="middle" x="122.25" y="-95.95" font-family="Times,serif" font-size="14.00">uses for topics</text>
</g>
<!-- InProcessEventBus&#45;&gt;NATSStyleMatching -->
<g id="edge7" class="edge">
<title>InProcessEventBus&#45;&gt;NATSStyleMatching</title>
<path fill="none" stroke="black" d="M311.5,-85.82C311.5,-75.69 311.5,-62.6 311.5,-50.92"/>
<polygon fill="black" stroke="black" points="315,-50.95 311.5,-40.95 308,-50.95 315,-50.95"/>
</g>
<!-- FanOutEventBus&#45;&gt;InProcessEventBus -->
<g id="edge6" class="edge">
<title>FanOutEventBus&#45;&gt;InProcessEventBus</title>
<path fill="none" stroke="black" d="M357.76,-208.66C348.9,-188.81 334.26,-156 323.83,-132.62"/>
<polygon fill="black" stroke="black" points="327.11,-131.39 319.84,-123.69 320.72,-134.24 327.11,-131.39"/>
<text xml:space="preserve" text-anchor="middle" x="389.92" y="-156.95" font-family="Times,serif" font-size="14.00">delegates to</text>
</g>
<!-- FanOutEventBus&#45;&gt;NATSStyleMatching -->
<g id="edge8" class="edge">
<title>FanOutEventBus&#45;&gt;NATSStyleMatching</title>
<path fill="none" stroke="black" d="M409.93,-208.62C420.98,-202.21 431.61,-193.79 438.5,-183 461.75,-146.59 467.49,-122.57 444.5,-86 432.54,-66.98 413.17,-53.48 392.87,-43.95"/>
<polygon fill="black" stroke="black" points="394.49,-40.83 383.92,-40.05 391.7,-47.25 394.49,-40.83"/>
</g>
</g>
</svg>
