<?xml version="1.0" encoding="UTF-8" standalone="no"?>
<!DOCTYPE svg PUBLIC "-//W3C//DTD SVG 1.1//EN"
 "http://www.w3.org/Graphics/SVG/1.1/DTD/svg11.dtd">
<!-- Generated by graphviz version 2.44.1 (20201121.0304)
 -->
<!-- Title: G Pages: 1 -->
<svg width="485pt" height="422pt"
 viewBox="0.00 0.00 485.00 422.00" xmlns="http://www.w3.org/2000/svg" xmlns:xlink="http://www.w3.org/1999/xlink"><style>
  * {
    fill: transparent !important;
    stroke: #1f1f1f !important;
    stroke-width: 1 !important;
  }
  polygon:not(.cluster *, .node *, .edge *, text) {
    stroke: transparent !important;
  }
  text {
    font-size: 10px !important;
    font-family: monospace !important;
    fill: #1f1f1f !important;
    stroke: transparent !important;
    transform: translateY(-0.5em);
  }
</style>
<g id="graph0" class="graph" transform="scale(1 1) rotate(0) translate(4 417.75)">
<title>G</title>
<polygon fill="white" stroke="none" points="-4,4 -4,-417.75 481.24,-417.75 481.24,4 -4,4"/>
<!-- Agent -->
<g id="node1" class="node">
<title>Agent</title>
<polygon fill="lightblue" stroke="black" points="188.5,-405 45,-405 45,-369 188.5,-369 188.5,-405"/>
<text xml:space="preserve" text-anchor="middle" x="116.75" y="-378.95" font-family="Times,serif" font-size="14.00">Agent/Application</text>
</g>
<!-- Emulated Metadata Server -->
<g id="node2" class="node">
<title>Emulated Metadata Server</title>
<polygon fill="lightblue" stroke="black" points="234,-285 105.5,-285 105.5,-249 234,-249 234,-285"/>
<text xml:space="preserve" text-anchor="middle" x="169.75" y="-264.2" font-family="Times,serif" font-size="14.00">Scion Emulated</text>
<text xml:space="preserve" text-anchor="middle" x="169.75" y="-253.7" font-family="Times,serif" font-size="14.00">Metadata Server</text>
</g>
<!-- Agent&#45;&gt;Emulated Metadata Server -->
<g id="edge1" class="edge">
<title>Agent&#45;&gt;Emulated Metadata Server</title>
<path fill="none" stroke="black" d="M113.66,-368.67C112.07,-355.32 111.57,-336.7 117.75,-321.75 122.18,-311.04 129.84,-301.27 137.94,-293.08"/>
<polygon fill="black" stroke="black" points="140.08,-295.87 144.98,-286.47 135.29,-290.76 140.08,-295.87"/>
<text xml:space="preserve" text-anchor="middle" x="177.75" y="-318.95" font-family="Times,serif" font-size="14.00">Queries metadata</text>
</g>
<!-- Scion Hub API -->
<g id="node3" class="node">
<title>Scion Hub API</title>
<polygon fill="lightblue" stroke="black" points="113.5,-165 0,-165 0,-129 113.5,-129 113.5,-165"/>
<text xml:space="preserve" text-anchor="middle" x="56.75" y="-138.95" font-family="Times,serif" font-size="14.00">Scion Hub API</text>
</g>
<!-- Emulated Metadata Server&#45;&gt;Scion Hub API -->
<g id="edge2" class="edge">
<title>Emulated Metadata Server&#45;&gt;Scion Hub API</title>
<path fill="none" stroke="black" d="M105.16,-248.94C86.94,-240.86 69.13,-229.14 58.25,-212.25 51.54,-201.84 50.37,-188.38 51.19,-176.47"/>
<polygon fill="black" stroke="black" points="54.64,-177.1 52.37,-166.75 47.69,-176.26 54.64,-177.1"/>
<text xml:space="preserve" text-anchor="middle" x="129.5" y="-198.95" font-family="Times,serif" font-size="14.00">Fetches credentials</text>
</g>
<!-- Network Configuration -->
<g id="node6" class="node">
<title>Network Configuration</title>
<polygon fill="lightblue" stroke="black" points="384.5,-165 211,-165 211,-129 384.5,-129 384.5,-165"/>
<text xml:space="preserve" text-anchor="middle" x="297.75" y="-144.2" font-family="Times,serif" font-size="14.00">Network Configuration</text>
<text xml:space="preserve" text-anchor="middle" x="297.75" y="-133.7" font-family="Times,serif" font-size="14.00">(e.g., iptables)</text>
</g>
<!-- Emulated Metadata Server&#45;&gt;Network Configuration -->
<g id="edge6" class="edge">
<title>Emulated Metadata Server&#45;&gt;Network Configuration</title>
<path fill="none" stroke="black" d="M182.47,-248.64C192.81,-235.11 208.18,-216.25 223.75,-201.75 235.23,-191.05 248.87,-180.61 261.3,-171.81"/>
<polygon fill="black" stroke="black" points="263.04,-174.86 269.26,-166.29 259.05,-169.11 263.04,-174.86"/>
<text xml:space="preserve" text-anchor="middle" x="291.25" y="-198.95" font-family="Times,serif" font-size="14.00">Intercepts traffic</text>
</g>
<!-- GCP APIs -->
<g id="node4" class="node">
<title>GCP APIs</title>
<polygon fill="lightblue" stroke="black" points="94.75,-44 18.75,-44 18.75,-8 94.75,-8 94.75,-44"/>
<text xml:space="preserve" text-anchor="middle" x="56.75" y="-17.95" font-family="Times,serif" font-size="14.00">GCP APIs</text>
</g>
<!-- Scion Hub API&#45;&gt;GCP APIs -->
<g id="edge3" class="edge">
<title>Scion Hub API&#45;&gt;GCP APIs</title>
<path fill="none" stroke="black" d="M56.75,-128.7C56.75,-109.57 56.75,-78.46 56.75,-55.68"/>
<polygon fill="black" stroke="black" points="60.25,-55.84 56.75,-45.84 53.25,-55.84 60.25,-55.84"/>
<text xml:space="preserve" text-anchor="middle" x="124.25" y="-77.95" font-family="Times,serif" font-size="14.00">Obtains GCP tokens</text>
</g>
<!-- Metadata Diagnostics -->
<g id="node5" class="node">
<title>Metadata Diagnostics</title>
<polygon fill="lightblue" stroke="black" points="413.75,-405 247.75,-405 247.75,-369 413.75,-369 413.75,-405"/>
<text xml:space="preserve" text-anchor="middle" x="330.75" y="-384.2" font-family="Times,serif" font-size="14.00">Sciontool</text>
<text xml:space="preserve" text-anchor="middle" x="330.75" y="-373.7" font-family="Times,serif" font-size="14.00">Metadata Diagnostics</text>
</g>
<!-- Metadata Diagnostics&#45;&gt;Emulated Metadata Server -->
<g id="edge4" class="edge">
<title>Metadata Diagnostics&#45;&gt;Emulated Metadata Server</title>
<path fill="none" stroke="black" d="M306.99,-368.59C279.41,-348.37 233.73,-314.89 202.72,-292.17"/>
<polygon fill="black" stroke="black" points="204.96,-289.47 194.82,-286.38 200.82,-295.11 204.96,-289.47"/>
<text xml:space="preserve" text-anchor="middle" x="303.83" y="-318.95" font-family="Times,serif" font-size="14.00">Checks status</text>
</g>
<!-- Metadata Diagnostics&#45;&gt;Network Configuration -->
<g id="edge5" class="edge">
<title>Metadata Diagnostics&#45;&gt;Network Configuration</title>
<path fill="none" stroke="black" d="M341.45,-368.81C347.18,-358.6 353.68,-345.16 356.75,-332.25 370.18,-275.82 382.63,-254.61 358.75,-201.75 353.69,-190.54 345,-180.73 335.75,-172.67"/>
<polygon fill="black" stroke="black" points="337.97,-169.97 327.98,-166.44 333.59,-175.43 337.97,-169.97"/>
<text xml:space="preserve" text-anchor="middle" x="424.74" y="-258.95" font-family="Times,serif" font-size="14.00">Verifies rules</text>
</g>
</g>
</svg>
