<?xml version="1.0" encoding="UTF-8" standalone="no"?>
<!DOCTYPE svg PUBLIC "-//W3C//DTD SVG 1.1//EN"
 "http://www.w3.org/Graphics/SVG/1.1/DTD/svg11.dtd">
<!-- Generated by graphviz version 2.44.1 (20201121.0304)
 -->
<!-- Title: G Pages: 1 -->
<svg width="433pt" height="310pt"
 viewBox="0.00 0.00 433.00 310.00" xmlns="http://www.w3.org/2000/svg" xmlns:xlink="http://www.w3.org/1999/xlink"><style>
  * {
    fill: transparent !important;
    stroke: #1f1f1f !important;
    stroke-width: 1 !important;
  }
  polygon:not(.cluster *, .node *, .edge *, text) {
    stroke: transparent !important;
  }
  text {
    font-size: 10px !important;
    font-family: monospace !important;
    fill: #1f1f1f !important;
    stroke: transparent !important;
    transform: translateY(-0.5em);
  }
</style>
<g id="graph0" class="graph" transform="scale(1 1) rotate(0) translate(4 305.5)">
<title>G</title>
<polygon fill="white" stroke="none" points="-4,4 -4,-305.5 428.86,-305.5 428.86,4 -4,4"/>
<!-- Git/gh CLI -->
<g id="node1" class="node">
<title>Git/gh CLI</title>
<polygon fill="lightblue" stroke="black" points="226.5,-300 120.5,-300 120.5,-264 226.5,-264 226.5,-300"/>
<text xml:space="preserve" text-anchor="middle" x="173.5" y="-273.95" font-family="Times,serif" font-size="14.00">Git / gh CLI</text>
</g>
<!-- sciontool Wrapper -->
<g id="node2" class="node">
<title>sciontool Wrapper</title>
<polygon fill="lightblue" stroke="black" points="301.5,-213 45.5,-213 45.5,-177 301.5,-177 301.5,-213"/>
<text xml:space="preserve" text-anchor="middle" x="173.5" y="-192.2" font-family="Times,serif" font-size="14.00">sciontool Wrapper</text>
<text xml:space="preserve" text-anchor="middle" x="173.5" y="-181.7" font-family="Times,serif" font-size="14.00">(credential&#45;helper / gh&#45;wrapper)</text>
</g>
<!-- Git/gh CLI&#45;&gt;sciontool Wrapper -->
<g id="edge1" class="edge">
<title>Git/gh CLI&#45;&gt;sciontool Wrapper</title>
<path fill="none" stroke="black" d="M173.5,-263.8C173.5,-252.58 173.5,-237.67 173.5,-224.69"/>
<polygon fill="black" stroke="black" points="177,-224.98 173.5,-214.98 170,-224.98 177,-224.98"/>
<text xml:space="preserve" text-anchor="middle" x="218.5" y="-229.95" font-family="Times,serif" font-size="14.00">Interception</text>
</g>
<!-- GitHub App Token File -->
<g id="node3" class="node">
<title>GitHub App Token File</title>
<polygon fill="lightblue" stroke="black" points="91,-125 0,-125 0,-89 91,-89 91,-125"/>
<text xml:space="preserve" text-anchor="middle" x="45.5" y="-104.2" font-family="Times,serif" font-size="14.00">GitHub App</text>
<text xml:space="preserve" text-anchor="middle" x="45.5" y="-93.7" font-family="Times,serif" font-size="14.00">Token File</text>
</g>
<!-- sciontool Wrapper&#45;&gt;GitHub App Token File -->
<g id="edge2" class="edge">
<title>sciontool Wrapper&#45;&gt;GitHub App Token File</title>
<path fill="none" stroke="black" d="M74.67,-176.54C65.06,-171.37 56.35,-164.74 49.5,-156.25 45.1,-150.8 43.14,-143.79 42.5,-136.81"/>
<polygon fill="black" stroke="black" points="46,-136.88 42.47,-126.89 39,-136.9 46,-136.88"/>
<text xml:space="preserve" text-anchor="middle" x="109.5" y="-142.95" font-family="Times,serif" font-size="14.00">Read/Write Token</text>
</g>
<!-- Scion Hub -->
<g id="node4" class="node">
<title>Scion Hub</title>
<polygon fill="lightblue" stroke="black" points="215.25,-125 131.75,-125 131.75,-89 215.25,-89 215.25,-125"/>
<text xml:space="preserve" text-anchor="middle" x="173.5" y="-98.95" font-family="Times,serif" font-size="14.00">Scion Hub</text>
</g>
<!-- sciontool Wrapper&#45;&gt;Scion Hub -->
<g id="edge3" class="edge">
<title>sciontool Wrapper&#45;&gt;Scion Hub</title>
<path fill="none" stroke="black" d="M173.5,-176.6C173.5,-165.17 173.5,-149.96 173.5,-136.76"/>
<polygon fill="black" stroke="black" points="177,-136.89 173.5,-126.89 170,-136.89 177,-136.89"/>
<text xml:space="preserve" text-anchor="middle" x="237.25" y="-142.95" font-family="Times,serif" font-size="14.00">On&#45;demand Refresh</text>
</g>
<!-- GitHub -->
<g id="node5" class="node">
<title>GitHub</title>
<polygon fill="lightblue" stroke="black" points="204,-37 143,-37 143,-1 204,-1 204,-37"/>
<text xml:space="preserve" text-anchor="middle" x="173.5" y="-10.95" font-family="Times,serif" font-size="14.00">GitHub</text>
</g>
<!-- sciontool Wrapper&#45;&gt;GitHub -->
<g id="edge6" class="edge">
<title>sciontool Wrapper&#45;&gt;GitHub</title>
<path fill="none" stroke="black" d="M278.81,-176.64C287.95,-171.42 296.13,-164.75 302.5,-156.25 321.53,-130.86 404.92,-194.74 275.5,-57.75 259.74,-41.07 235.97,-31.72 215.33,-26.5"/>
<polygon fill="black" stroke="black" points="216.27,-23.12 205.74,-24.34 214.73,-29.95 216.27,-23.12"/>
<text xml:space="preserve" text-anchor="middle" x="379.86" y="-98.95" font-family="Times,serif" font-size="14.00">Inject Token</text>
</g>
<!-- GitHub App Token File&#45;&gt;GitHub -->
<g id="edge4" class="edge">
<title>GitHub App Token File&#45;&gt;GitHub</title>
<path fill="none" stroke="black" d="M54.24,-88.91C60.18,-78.71 68.89,-66.14 79.5,-57.75 94.92,-45.55 114.8,-36.81 132.3,-30.83"/>
<polygon fill="black" stroke="black" points="132.93,-34.3 141.39,-27.92 130.8,-27.63 132.93,-34.3"/>
<text xml:space="preserve" text-anchor="middle" x="124.5" y="-54.95" font-family="Times,serif" font-size="14.00">Cached Token</text>
</g>
<!-- Scion Hub&#45;&gt;GitHub -->
<g id="edge5" class="edge">
<title>Scion Hub&#45;&gt;GitHub</title>
<path fill="none" stroke="black" d="M173.5,-88.6C173.5,-77.17 173.5,-61.96 173.5,-48.76"/>
<polygon fill="black" stroke="black" points="177,-48.89 173.5,-38.89 170,-48.89 177,-48.89"/>
<text xml:space="preserve" text-anchor="middle" x="222.25" y="-54.95" font-family="Times,serif" font-size="14.00">Token Refresh</text>
</g>
</g>
</svg>
