<?xml version="1.0" encoding="UTF-8" standalone="no"?>
<!DOCTYPE svg PUBLIC "-//W3C//DTD SVG 1.1//EN"
 "http://www.w3.org/Graphics/SVG/1.1/DTD/svg11.dtd">
<!-- Generated by graphviz version 2.44.1 (20201121.0304)
 -->
<!-- Title: G Pages: 1 -->
<svg width="558pt" height="372pt"
 viewBox="0.00 0.00 558.00 372.00" xmlns="http://www.w3.org/2000/svg" xmlns:xlink="http://www.w3.org/1999/xlink"><style>
  * {
    fill: transparent !important;
    stroke: #1f1f1f !important;
    stroke-width: 1 !important;
  }
  polygon:not(.cluster *, .node *, .edge *, text) {
    stroke: transparent !important;
  }
  text {
    font-size: 10px !important;
    font-family: monospace !important;
    fill: #1f1f1f !important;
    stroke: transparent !important;
    transform: translateY(-0.5em);
  }
</style>
<g id="graph0" class="graph" transform="scale(1 1) rotate(0) translate(4 367.5)">
<title>G</title>
<polygon fill="white" stroke="none" points="-4,4 -4,-367.5 553.86,-367.5 553.86,4 -4,4"/>
<!-- Web Development Agent -->
<g id="node1" class="node">
<title>Web Development Agent</title>
<polygon fill="lightblue" stroke="black" points="301.39,-359 127.89,-359 127.89,-323 301.39,-323 301.39,-359"/>
<text xml:space="preserve" text-anchor="middle" x="214.64" y="-332.95" font-family="Times,serif" font-size="14.00">Web Development Agent</text>
</g>
<!-- Review Instructions -->
<g id="node2" class="node">
<title>Review Instructions</title>
<polygon fill="lightblue" stroke="black" points="293.89,-265 135.39,-265 135.39,-229 293.89,-229 293.89,-265"/>
<text xml:space="preserve" text-anchor="middle" x="214.64" y="-244.2" font-family="Times,serif" font-size="14.00">Review Instructions</text>
<text xml:space="preserve" text-anchor="middle" x="214.64" y="-233.7" font-family="Times,serif" font-size="14.00">(@web/AGENTS.md)</text>
</g>
<!-- Web Development Agent&#45;&gt;Review Instructions -->
<g id="edge1" class="edge">
<title>Web Development Agent&#45;&gt;Review Instructions</title>
<path fill="none" stroke="black" d="M214.64,-322.7C214.64,-309.72 214.64,-291.66 214.64,-276.56"/>
<polygon fill="black" stroke="black" points="218.14,-276.74 214.64,-266.74 211.14,-276.74 218.14,-276.74"/>
</g>
<!-- User Interaction -->
<g id="node3" class="node">
<title>User Interaction</title>
<polygon fill="lightblue" stroke="black" points="282.64,-160 146.64,-160 146.64,-124 282.64,-124 282.64,-160"/>
<text xml:space="preserve" text-anchor="middle" x="214.64" y="-133.95" font-family="Times,serif" font-size="14.00">User Interaction</text>
</g>
<!-- Review Instructions&#45;&gt;User Interaction -->
<g id="edge2" class="edge">
<title>Review Instructions&#45;&gt;User Interaction</title>
<path fill="none" stroke="black" d="M214.64,-228.53C214.64,-212.97 214.64,-189.92 214.64,-171.66"/>
<polygon fill="black" stroke="black" points="218.14,-171.73 214.64,-161.73 211.14,-171.73 218.14,-171.73"/>
<text xml:space="preserve" text-anchor="middle" x="308.39" y="-186.95" font-family="Times,serif" font-size="14.00">sciontool status ask_user</text>
</g>
<!-- Chrome DevTools -->
<g id="node4" class="node">
<title>Chrome DevTools</title>
<polygon fill="lightblue" stroke="black" points="156.89,-41 28.39,-41 28.39,-5 156.89,-5 156.89,-41"/>
<text xml:space="preserve" text-anchor="middle" x="92.64" y="-20.2" font-family="Times,serif" font-size="14.00">Chrome DevTools</text>
<text xml:space="preserve" text-anchor="middle" x="92.64" y="-9.7" font-family="Times,serif" font-size="14.00">(via MCP)</text>
</g>
<!-- User Interaction&#45;&gt;Chrome DevTools -->
<g id="edge3" class="edge">
<title>User Interaction&#45;&gt;Chrome DevTools</title>
<path fill="none" stroke="black" d="M146.4,-134.32C92.19,-127.43 22.65,-114.53 5.14,-92.5 -9.2,-74.46 8.89,-58.35 32.27,-46.28"/>
<polygon fill="black" stroke="black" points="33.66,-49.5 41.17,-42.02 30.64,-43.18 33.66,-49.5"/>
<text xml:space="preserve" text-anchor="middle" x="98.89" y="-79.2" font-family="Times,serif" font-size="14.00">Navigate, Wait, Snapshot,</text>
<text xml:space="preserve" text-anchor="middle" x="98.89" y="-68.7" font-family="Times,serif" font-size="14.00">Interact (Click, Fill)</text>
</g>
<!-- Task Completion -->
<g id="node5" class="node">
<title>Task Completion</title>
<polygon fill="lightblue" stroke="black" points="391.89,-41 263.39,-41 263.39,-5 391.89,-5 391.89,-41"/>
<text xml:space="preserve" text-anchor="middle" x="327.64" y="-14.95" font-family="Times,serif" font-size="14.00">Task Completion</text>
</g>
<!-- User Interaction&#45;&gt;Task Completion -->
<g id="edge5" class="edge">
<title>User Interaction&#45;&gt;Task Completion</title>
<path fill="none" stroke="black" d="M263.46,-123.54C278.75,-116.02 294.51,-105.83 305.64,-92.5 315.12,-81.16 320.54,-65.66 323.62,-52.28"/>
<polygon fill="black" stroke="black" points="327.01,-53.19 325.49,-42.71 320.14,-51.85 327.01,-53.19"/>
<text xml:space="preserve" text-anchor="middle" x="433.61" y="-73.95" font-family="Times,serif" font-size="14.00">sciontool status task_completed</text>
</g>
<!-- Chrome DevTools&#45;&gt;User Interaction -->
<g id="edge4" class="edge">
<title>Chrome DevTools&#45;&gt;User Interaction</title>
<path fill="none" stroke="black" d="M149.66,-41.45C165.37,-48.61 181.21,-58.39 192.64,-71.5 202.55,-82.86 208,-98.7 211,-112.38"/>
<polygon fill="black" stroke="black" points="207.55,-112.99 212.78,-122.2 214.44,-111.74 207.55,-112.99"/>
<text xml:space="preserve" text-anchor="middle" x="249.69" y="-73.95" font-family="Times,serif" font-size="14.00">Debug/Verify</text>
</g>
</g>
</svg>
