<?xml version="1.0" encoding="UTF-8" standalone="no"?>
<!DOCTYPE svg PUBLIC "-//W3C//DTD SVG 1.1//EN"
 "http://www.w3.org/Graphics/SVG/1.1/DTD/svg11.dtd">
<!-- Generated by graphviz version 2.44.1 (20201121.0304)
 -->
<!-- Title: G Pages: 1 -->
<svg width="537pt" height="477pt"
 viewBox="0.00 0.00 537.00 477.00" xmlns="http://www.w3.org/2000/svg" xmlns:xlink="http://www.w3.org/1999/xlink"><style>
  * {
    fill: transparent !important;
    stroke: #1f1f1f !important;
    stroke-width: 1 !important;
  }
  polygon:not(.cluster *, .node *, .edge *, text) {
    stroke: transparent !important;
  }
  text {
    font-size: 10px !important;
    font-family: monospace !important;
    fill: #1f1f1f !important;
    stroke: transparent !important;
    transform: translateY(-0.5em);
  }
</style>
<g id="graph0" class="graph" transform="scale(1 1) rotate(0) translate(4 473)">
<title>G</title>
<polygon fill="white" stroke="none" points="-4,4 -4,-473 533.02,-473 533.02,4 -4,4"/>
<!-- Harness&#45;Agnostic Templates -->
<g id="node1" class="node">
<title>Harness&#45;Agnostic Templates</title>
<polygon fill="lightblue" stroke="black" points="387.5,-460 116.5,-460 116.5,-424 387.5,-424 387.5,-460"/>
<text xml:space="preserve" text-anchor="middle" x="252" y="-439.2" font-family="Times,serif" font-size="14.00">Harness&#45;Agnostic Templates</text>
<text xml:space="preserve" text-anchor="middle" x="252" y="-428.7" font-family="Times,serif" font-size="14.00">(role&#45;based, instructions, prompt)</text>
</g>
<!-- Harness Skills -->
<g id="node2" class="node">
<title>Harness Skills</title>
<polygon fill="lightblue" stroke="black" points="246,-253 80,-253 80,-217 246,-217 246,-253"/>
<text xml:space="preserve" text-anchor="middle" x="163" y="-232.2" font-family="Times,serif" font-size="14.00">Harness Skills</text>
<text xml:space="preserve" text-anchor="middle" x="163" y="-221.7" font-family="Times,serif" font-size="14.00">(for specialization)</text>
</g>
<!-- Harness&#45;Agnostic Templates&#45;&gt;Harness Skills -->
<g id="edge1" class="edge">
<title>Harness&#45;Agnostic Templates&#45;&gt;Harness Skills</title>
<path fill="none" stroke="black" d="M231.12,-423.53C220.03,-413.18 207.06,-399.2 199,-384.25 178.35,-345.97 169.38,-295.81 165.6,-264.75"/>
<polygon fill="black" stroke="black" points="169.1,-264.53 164.52,-254.97 162.14,-265.29 169.1,-264.53"/>
<text xml:space="preserve" text-anchor="middle" x="244" y="-370.95" font-family="Times,serif" font-size="14.00">incorporates</text>
</g>
<!-- Template Bootstrapping -->
<g id="node3" class="node">
<title>Template Bootstrapping</title>
<polygon fill="lightblue" stroke="black" points="437,-334 241,-334 241,-298 437,-298 437,-334"/>
<text xml:space="preserve" text-anchor="middle" x="339" y="-313.2" font-family="Times,serif" font-size="14.00">Template Bootstrapping</text>
<text xml:space="preserve" text-anchor="middle" x="339" y="-302.7" font-family="Times,serif" font-size="14.00">(server startup, Hub DB)</text>
</g>
<!-- Harness&#45;Agnostic Templates&#45;&gt;Template Bootstrapping -->
<g id="edge2" class="edge">
<title>Harness&#45;Agnostic Templates&#45;&gt;Template Bootstrapping</title>
<path fill="none" stroke="black" d="M264.1,-423.76C278.62,-403.05 303.16,-368.09 320.17,-343.84"/>
<polygon fill="black" stroke="black" points="322.98,-345.93 325.86,-335.73 317.25,-341.91 322.98,-345.93"/>
<text xml:space="preserve" text-anchor="middle" x="350.61" y="-370.95" font-family="Times,serif" font-size="14.00">are defined in</text>
</g>
<!-- Agent Provisioning -->
<g id="node5" class="node">
<title>Agent Provisioning</title>
<polygon fill="lightblue" stroke="black" points="226,-45 0,-45 0,-9 226,-9 226,-45"/>
<text xml:space="preserve" text-anchor="middle" x="113" y="-24.2" font-family="Times,serif" font-size="14.00">Agent Provisioning</text>
<text xml:space="preserve" text-anchor="middle" x="113" y="-13.7" font-family="Times,serif" font-size="14.00">(applies templates &amp; skills)</text>
</g>
<!-- Harness Skills&#45;&gt;Agent Provisioning -->
<g id="edge5" class="edge">
<title>Harness Skills&#45;&gt;Agent Provisioning</title>
<path fill="none" stroke="black" d="M140.95,-216.72C128.24,-205.3 113.43,-189.11 106.5,-171 92.07,-133.3 98.57,-85.87 105.25,-56.23"/>
<polygon fill="black" stroke="black" points="108.55,-57.45 107.51,-46.91 101.75,-55.8 108.55,-57.45"/>
<text xml:space="preserve" text-anchor="middle" x="170.25" y="-144.95" font-family="Times,serif" font-size="14.00">integrated during</text>
</g>
<!-- Grove Template Sync &amp; Import -->
<g id="node4" class="node">
<title>Grove Template Sync &amp; Import</title>
<polygon fill="lightblue" stroke="black" points="469,-171 243,-171 243,-135 469,-135 469,-171"/>
<text xml:space="preserve" text-anchor="middle" x="356" y="-150.2" font-family="Times,serif" font-size="14.00">Grove Template Sync &amp; Import</text>
<text xml:space="preserve" text-anchor="middle" x="356" y="-139.7" font-family="Times,serif" font-size="14.00">(API, CLI, UI)</text>
</g>
<!-- Template Bootstrapping&#45;&gt;Grove Template Sync &amp; Import -->
<g id="edge3" class="edge">
<title>Template Bootstrapping&#45;&gt;Grove Template Sync &amp; Import</title>
<path fill="none" stroke="black" d="M340.82,-297.77C343.73,-270.17 349.48,-215.77 353,-182.37"/>
<polygon fill="black" stroke="black" points="356.47,-182.92 354.03,-172.61 349.5,-182.19 356.47,-182.92"/>
<text xml:space="preserve" text-anchor="middle" x="439.02" y="-226.95" font-family="Times,serif" font-size="14.00">ensures availability for</text>
</g>
<!-- Grove Template Sync &amp; Import&#45;&gt;Agent Provisioning -->
<g id="edge4" class="edge">
<title>Grove Template Sync &amp; Import&#45;&gt;Agent Provisioning</title>
<path fill="none" stroke="black" d="M321.96,-134.63C278.88,-112.65 204.6,-74.74 157.18,-50.55"/>
<polygon fill="black" stroke="black" points="159.05,-47.57 148.55,-46.14 155.87,-53.81 159.05,-47.57"/>
<text xml:space="preserve" text-anchor="middle" x="305.54" y="-81.95" font-family="Times,serif" font-size="14.00">provides input to</text>
</g>
</g>
</svg>
