<?xml version="1.0" encoding="UTF-8" standalone="no"?>
<!DOCTYPE svg PUBLIC "-//W3C//DTD SVG 1.1//EN"
 "http://www.w3.org/Graphics/SVG/1.1/DTD/svg11.dtd">
<!-- Generated by graphviz version 2.44.1 (20201121.0304)
 -->
<!-- Title: G Pages: 1 -->
<svg width="660pt" height="428pt"
 viewBox="0.00 0.00 660.00 428.00" xmlns="http://www.w3.org/2000/svg" xmlns:xlink="http://www.w3.org/1999/xlink"><style>
  * {
    fill: transparent !important;
    stroke: #1f1f1f !important;
    stroke-width: 1 !important;
  }
  polygon:not(.cluster *, .node *, .edge *, text) {
    stroke: transparent !important;
  }
  text {
    font-size: 10px !important;
    font-family: monospace !important;
    fill: #1f1f1f !important;
    stroke: transparent !important;
    transform: translateY(-0.5em);
  }
</style>
<g id="graph0" class="graph" transform="scale(1 1) rotate(0) translate(4 424)">
<title>G</title>
<polygon fill="white" stroke="none" points="-4,4 -4,-424 656.34,-424 656.34,4 -4,4"/>
<!-- ADK Agent Main Loop -->
<g id="node1" class="node">
<title>ADK Agent Main Loop</title>
<polygon fill="lightblue" stroke="black" points="306.5,-330 148,-330 148,-294 306.5,-294 306.5,-330"/>
<text xml:space="preserve" text-anchor="middle" x="227.25" y="-303.95" font-family="Times,serif" font-size="14.00">ADK Agent Main Loop</text>
</g>
<!-- Agent Callbacks -->
<g id="node2" class="node">
<title>Agent Callbacks</title>
<polygon fill="lightblue" stroke="black" points="128.5,-184 0,-184 0,-148 128.5,-148 128.5,-184"/>
<text xml:space="preserve" text-anchor="middle" x="64.25" y="-157.95" font-family="Times,serif" font-size="14.00">Agent Callbacks</text>
</g>
<!-- ADK Agent Main Loop&#45;&gt;Agent Callbacks -->
<g id="edge1" class="edge">
<title>ADK Agent Main Loop&#45;&gt;Agent Callbacks</title>
<path fill="none" stroke="black" d="M207.59,-293.63C178.83,-268.22 125.15,-220.8 92.27,-191.75"/>
<polygon fill="black" stroke="black" points="94.93,-189.43 85.12,-185.43 90.29,-194.68 94.93,-189.43"/>
<text xml:space="preserve" text-anchor="middle" x="212.91" y="-259.95" font-family="Times,serif" font-size="14.00">Triggers</text>
</g>
<!-- sciontool_status Tool -->
<g id="node3" class="node">
<title>sciontool_status Tool</title>
<polygon fill="lightblue" stroke="black" points="419,-242 245.5,-242 245.5,-206 419,-206 419,-242"/>
<text xml:space="preserve" text-anchor="middle" x="332.25" y="-215.95" font-family="Times,serif" font-size="14.00">sciontool_status Tool</text>
</g>
<!-- ADK Agent Main Loop&#45;&gt;sciontool_status Tool -->
<g id="edge2" class="edge">
<title>ADK Agent Main Loop&#45;&gt;sciontool_status Tool</title>
<path fill="none" stroke="black" d="M248.5,-293.6C264.01,-280.89 285.25,-263.5 302.45,-249.4"/>
<polygon fill="black" stroke="black" points="304.34,-252.38 309.86,-243.34 299.91,-246.97 304.34,-252.38"/>
<text xml:space="preserve" text-anchor="middle" x="301.04" y="-259.95" font-family="Times,serif" font-size="14.00">Uses</text>
</g>
<!-- agent&#45;info.json -->
<g id="node4" class="node">
<title>agent&#45;info.json</title>
<polygon fill="lightblue" stroke="black" points="185.5,-37 57,-37 57,-1 185.5,-1 185.5,-37"/>
<text xml:space="preserve" text-anchor="middle" x="121.25" y="-10.95" font-family="Times,serif" font-size="14.00">agent&#45;info.json</text>
</g>
<!-- Agent Callbacks&#45;&gt;agent&#45;info.json -->
<g id="edge3" class="edge">
<title>Agent Callbacks&#45;&gt;agent&#45;info.json</title>
<path fill="none" stroke="black" d="M31.38,-147.53C23.71,-141.76 16.54,-134.58 12.25,-126 5.09,-111.69 4.58,-104.04 12.25,-90 23.59,-69.23 44.03,-53.71 64.16,-42.63"/>
<polygon fill="black" stroke="black" points="65.68,-45.79 72.95,-38.09 62.46,-39.57 65.68,-45.79"/>
<text xml:space="preserve" text-anchor="middle" x="154.75" y="-99.95" font-family="Times,serif" font-size="14.00">Writes Transient (thinking, executing)</text>
</g>
<!-- Sciontool CLI -->
<g id="node5" class="node">
<title>Sciontool CLI</title>
<polygon fill="lightblue" stroke="black" points="420,-126 306.5,-126 306.5,-90 420,-90 420,-126"/>
<text xml:space="preserve" text-anchor="middle" x="363.25" y="-99.95" font-family="Times,serif" font-size="14.00">Sciontool CLI</text>
</g>
<!-- sciontool_status Tool&#45;&gt;Sciontool CLI -->
<g id="edge4" class="edge">
<title>sciontool_status Tool&#45;&gt;Sciontool CLI</title>
<path fill="none" stroke="black" d="M336.96,-205.69C341.87,-187.61 349.67,-158.95 355.49,-137.53"/>
<polygon fill="black" stroke="black" points="358.85,-138.51 358.1,-127.94 352.1,-136.67 358.85,-138.51"/>
<text xml:space="preserve" text-anchor="middle" x="502.34" y="-157.95" font-family="Times,serif" font-size="14.00">Invokes for Sticky (ask_user, completed)</text>
</g>
<!-- Sciontool CLI&#45;&gt;agent&#45;info.json -->
<g id="edge6" class="edge">
<title>Sciontool CLI&#45;&gt;agent&#45;info.json</title>
<path fill="none" stroke="black" d="M314.86,-89.6C276.11,-75.67 221.61,-56.08 180.3,-41.23"/>
<polygon fill="black" stroke="black" points="181.58,-37.97 170.98,-37.88 179.21,-44.56 181.58,-37.97"/>
<text xml:space="preserve" text-anchor="middle" x="282.99" y="-55.95" font-family="Times,serif" font-size="14.00">Updates</text>
</g>
<!-- Scion Hub -->
<g id="node6" class="node">
<title>Scion Hub</title>
<polygon fill="lightblue" stroke="black" points="405,-37 321.5,-37 321.5,-1 405,-1 405,-37"/>
<text xml:space="preserve" text-anchor="middle" x="363.25" y="-10.95" font-family="Times,serif" font-size="14.00">Scion Hub</text>
</g>
<!-- Sciontool CLI&#45;&gt;Scion Hub -->
<g id="edge5" class="edge">
<title>Sciontool CLI&#45;&gt;Scion Hub</title>
<path fill="none" stroke="black" d="M363.25,-89.81C363.25,-78.09 363.25,-62.29 363.25,-48.68"/>
<polygon fill="black" stroke="black" points="366.75,-48.96 363.25,-38.96 359.75,-48.96 366.75,-48.96"/>
<text xml:space="preserve" text-anchor="middle" x="415.75" y="-55.95" font-family="Times,serif" font-size="14.00">Reports Status</text>
</g>
<!-- User Input -->
<g id="node7" class="node">
<title>User Input</title>
<polygon fill="lightblue" stroke="black" points="272.75,-419 181.75,-419 181.75,-383 272.75,-383 272.75,-419"/>
<text xml:space="preserve" text-anchor="middle" x="227.25" y="-392.95" font-family="Times,serif" font-size="14.00">User Input</text>
</g>
<!-- User Input&#45;&gt;ADK Agent Main Loop -->
<g id="edge7" class="edge">
<title>User Input&#45;&gt;ADK Agent Main Loop</title>
<path fill="none" stroke="black" d="M227.25,-382.81C227.25,-371.09 227.25,-355.29 227.25,-341.68"/>
<polygon fill="black" stroke="black" points="230.75,-341.96 227.25,-331.96 223.75,-341.96 230.75,-341.96"/>
<text xml:space="preserve" text-anchor="middle" x="317.25" y="-347.95" font-family="Times,serif" font-size="14.00">Provides Tasks/Responses</text>
</g>
</g>
</svg>
