<?xml version="1.0" encoding="UTF-8" standalone="no"?>
<!DOCTYPE svg PUBLIC "-//W3C//DTD SVG 1.1//EN"
 "http://www.w3.org/Graphics/SVG/1.1/DTD/svg11.dtd">
<!-- Generated by graphviz version 2.44.1 (20201121.0304)
 -->
<!-- Title: G Pages: 1 -->
<svg width="496pt" height="365pt"
 viewBox="0.00 0.00 496.00 365.00" xmlns="http://www.w3.org/2000/svg" xmlns:xlink="http://www.w3.org/1999/xlink"><style>
  * {
    fill: transparent !important;
    stroke: #1f1f1f !important;
    stroke-width: 1 !important;
  }
  polygon:not(.cluster *, .node *, .edge *, text) {
    stroke: transparent !important;
  }
  text {
    font-size: 10px !important;
    font-family: monospace !important;
    fill: #1f1f1f !important;
    stroke: transparent !important;
    transform: translateY(-0.5em);
  }
</style>
<g id="graph0" class="graph" transform="scale(1 1) rotate(0) translate(4 360.5)">
<title>G</title>
<polygon fill="white" stroke="none" points="-4,4 -4,-360.5 491.97,-360.5 491.97,4 -4,4"/>
<!-- Phase 0+1: Foundations &amp; Identity -->
<g id="node1" class="node">
<title>Phase 0+1: Foundations &amp; Identity</title>
<polygon fill="lightblue" stroke="black" points="321.73,-357 80.73,-357 80.73,-321 321.73,-321 321.73,-357"/>
<text xml:space="preserve" text-anchor="middle" x="201.23" y="-336.2" font-family="Times,serif" font-size="14.00">Phase 0+1:</text>
<text xml:space="preserve" text-anchor="middle" x="201.23" y="-325.7" font-family="Times,serif" font-size="14.00">Foundations, Identity &amp; Labels</text>
</g>
<!-- Phase 2: System API Endpoints -->
<g id="node2" class="node">
<title>Phase 2: System API Endpoints</title>
<polygon fill="lightblue" stroke="black" points="284.23,-274 118.23,-274 118.23,-238 284.23,-238 284.23,-274"/>
<text xml:space="preserve" text-anchor="middle" x="201.23" y="-253.2" font-family="Times,serif" font-size="14.00">Phase 2:</text>
<text xml:space="preserve" text-anchor="middle" x="201.23" y="-242.7" font-family="Times,serif" font-size="14.00">System API Endpoints</text>
</g>
<!-- Phase 0+1: Foundations &amp; Identity&#45;&gt;Phase 2: System API Endpoints -->
<g id="edge1" class="edge">
<title>Phase 0+1: Foundations &amp; Identity&#45;&gt;Phase 2: System API Endpoints</title>
<path fill="none" stroke="black" d="M201.23,-320.82C201.23,-310.69 201.23,-297.6 201.23,-285.92"/>
<polygon fill="black" stroke="black" points="204.73,-285.95 201.23,-275.95 197.73,-285.95 204.73,-285.95"/>
<text xml:space="preserve" text-anchor="middle" x="313.73" y="-288.95" font-family="Times,serif" font-size="14.00">Prerequisite: Workstation flag</text>
</g>
<!-- Phase 3: Wizard Shell -->
<g id="node3" class="node">
<title>Phase 3: Wizard Shell</title>
<polygon fill="lightblue" stroke="black" points="287.98,-192 114.48,-192 114.48,-156 287.98,-156 287.98,-192"/>
<text xml:space="preserve" text-anchor="middle" x="201.23" y="-171.2" font-family="Times,serif" font-size="14.00">Phase 3:</text>
<text xml:space="preserve" text-anchor="middle" x="201.23" y="-160.7" font-family="Times,serif" font-size="14.00">Wizard Shell (Web UI)</text>
</g>
<!-- Phase 2: System API Endpoints&#45;&gt;Phase 3: Wizard Shell -->
<g id="edge2" class="edge">
<title>Phase 2: System API Endpoints&#45;&gt;Phase 3: Wizard Shell</title>
<path fill="none" stroke="black" d="M201.23,-237.64C201.23,-227.68 201.23,-214.93 201.23,-203.54"/>
<polygon fill="black" stroke="black" points="204.73,-203.84 201.23,-193.84 197.73,-203.84 204.73,-203.84"/>
<text xml:space="preserve" text-anchor="middle" x="249.98" y="-206.95" font-family="Times,serif" font-size="14.00">Provides APIs</text>
</g>
<!-- Phase 4: Image Management -->
<g id="node4" class="node">
<title>Phase 4: Image Management</title>
<polygon fill="lightblue" stroke="black" points="218.23,-109 22.23,-109 22.23,-73 218.23,-73 218.23,-109"/>
<text xml:space="preserve" text-anchor="middle" x="120.23" y="-88.2" font-family="Times,serif" font-size="14.00">Phase 4:</text>
<text xml:space="preserve" text-anchor="middle" x="120.23" y="-77.7" font-family="Times,serif" font-size="14.00">Harness&#45;Aware Image Pull</text>
</g>
<!-- Phase 3: Wizard Shell&#45;&gt;Phase 4: Image Management -->
<g id="edge3" class="edge">
<title>Phase 3: Wizard Shell&#45;&gt;Phase 4: Image Management</title>
<path fill="none" stroke="black" d="M159.45,-155.6C151.09,-150.64 142.97,-144.55 136.73,-137.25 132.52,-132.32 129.35,-126.23 126.97,-120.13"/>
<polygon fill="black" stroke="black" points="130.37,-119.27 123.96,-110.84 123.71,-121.43 130.37,-119.27"/>
<text xml:space="preserve" text-anchor="middle" x="215.48" y="-123.95" font-family="Times,serif" font-size="14.00">Integrates Image Step</text>
</g>
<!-- Phase 5: Linked Groves -->
<g id="node5" class="node">
<title>Phase 5: Linked Groves</title>
<polygon fill="lightblue" stroke="black" points="329.98,-36 96.48,-36 96.48,0 329.98,0 329.98,-36"/>
<text xml:space="preserve" text-anchor="middle" x="213.23" y="-15.2" font-family="Times,serif" font-size="14.00">Phase 5:</text>
<text xml:space="preserve" text-anchor="middle" x="213.23" y="-4.7" font-family="Times,serif" font-size="14.00">Linked Groves via Dir Browser</text>
</g>
<!-- Phase 3: Wizard Shell&#45;&gt;Phase 5: Linked Groves -->
<g id="edge4" class="edge">
<title>Phase 3: Wizard Shell&#45;&gt;Phase 5: Linked Groves</title>
<path fill="none" stroke="black" d="M273.69,-155.73C281.75,-150.99 288.94,-144.95 294.23,-137.25 316.61,-104.67 280.04,-67 249.06,-43.1"/>
<polygon fill="black" stroke="black" points="251.44,-40.51 241.32,-37.34 247.26,-46.12 251.44,-40.51"/>
<text xml:space="preserve" text-anchor="middle" x="394.22" y="-82.95" font-family="Times,serif" font-size="14.00">Integrates Workspace Step</text>
</g>
<!-- Phase 4: Image Management&#45;&gt;Phase 5: Linked Groves -->
<g id="edge5" class="edge">
<title>Phase 4: Image Management&#45;&gt;Phase 5: Linked Groves</title>
<path fill="none" stroke="black" stroke-dasharray="1,5" d="M142.74,-72.81C154.42,-63.9 168.88,-52.86 181.66,-43.1"/>
<polygon fill="black" stroke="black" points="183.58,-46.04 189.4,-37.19 179.33,-40.48 183.58,-46.04"/>
</g>
</g>
</svg>
