<?xml version="1.0" encoding="UTF-8" standalone="no"?>
<!DOCTYPE svg PUBLIC "-//W3C//DTD SVG 1.1//EN"
 "http://www.w3.org/Graphics/SVG/1.1/DTD/svg11.dtd">
<!-- Generated by graphviz version 2.44.1 (20201121.0304)
 -->
<!-- Title: G Pages: 1 -->
<svg width="656pt" height="639pt"
 viewBox="0.00 0.00 656.00 639.00" xmlns="http://www.w3.org/2000/svg" xmlns:xlink="http://www.w3.org/1999/xlink"><style>
  * {
    fill: transparent !important;
    stroke: #1f1f1f !important;
    stroke-width: 1 !important;
  }
  polygon:not(.cluster *, .node *, .edge *, text) {
    stroke: transparent !important;
  }
  text {
    font-size: 10px !important;
    font-family: monospace !important;
    fill: #1f1f1f !important;
    stroke: transparent !important;
    transform: translateY(-0.5em);
  }
</style>
<g id="graph0" class="graph" transform="scale(1 1) rotate(0) translate(4 635)">
<title>G</title>
<polygon fill="white" stroke="none" points="-4,4 -4,-635 652.47,-635 652.47,4 -4,4"/>
<!-- Development Workspace -->
<g id="node1" class="node">
<title>Development Workspace</title>
<polygon fill="lightblue" stroke="black" points="241,-425 0,-425 0,-389 241,-389 241,-425"/>
<text xml:space="preserve" text-anchor="middle" x="120.5" y="-404.2" font-family="Times,serif" font-size="14.00">Development Workspace</text>
<text xml:space="preserve" text-anchor="middle" x="120.5" y="-393.7" font-family="Times,serif" font-size="14.00">(scion/rename&#45;strategy branch)</text>
</g>
<!-- External Git Remote -->
<g id="node2" class="node">
<title>External Git Remote</title>
<polygon fill="lightblue" stroke="black" points="309.5,-242 83.5,-242 83.5,-206 309.5,-206 309.5,-242"/>
<text xml:space="preserve" text-anchor="middle" x="196.5" y="-221.2" font-family="Times,serif" font-size="14.00">External Git</text>
<text xml:space="preserve" text-anchor="middle" x="196.5" y="-210.7" font-family="Times,serif" font-size="14.00">(github.com/ptone/scion.git)</text>
</g>
<!-- Development Workspace&#45;&gt;External Git Remote -->
<g id="edge1" class="edge">
<title>Development Workspace&#45;&gt;External Git Remote</title>
<path fill="none" stroke="black" d="M120.33,-388.84C120.7,-369.25 123.04,-336.59 133.5,-310.75 142.51,-288.5 158.6,-266.75 172.27,-250.72"/>
<polygon fill="black" stroke="black" points="174.58,-253.39 178.55,-243.57 169.32,-248.77 174.58,-253.39"/>
<text xml:space="preserve" text-anchor="middle" x="186" y="-307.95" font-family="Times,serif" font-size="14.00">Pushes changes</text>
</g>
<!-- GCP VM (scion&#45;integration2) -->
<g id="node3" class="node">
<title>GCP VM (scion&#45;integration2)</title>
<polygon fill="lightblue" stroke="black" points="425.5,-425 259.5,-425 259.5,-389 425.5,-389 425.5,-425"/>
<text xml:space="preserve" text-anchor="middle" x="342.5" y="-404.2" font-family="Times,serif" font-size="14.00">GCP VM</text>
<text xml:space="preserve" text-anchor="middle" x="342.5" y="-393.7" font-family="Times,serif" font-size="14.00">(scion&#45;integration2)</text>
</g>
<!-- GCP VM (scion&#45;integration2)&#45;&gt;External Git Remote -->
<g id="edge2" class="edge">
<title>GCP VM (scion&#45;integration2)&#45;&gt;External Git Remote</title>
<path fill="none" stroke="black" d="M324.05,-388.66C306.87,-372.09 280.98,-346.05 261,-321.25 243.05,-298.97 225.14,-271.74 212.76,-251.94"/>
<polygon fill="black" stroke="black" points="215.85,-250.28 207.62,-243.61 209.9,-253.96 215.85,-250.28"/>
<text xml:space="preserve" text-anchor="middle" x="324.75" y="-307.95" font-family="Times,serif" font-size="14.00">Pulls Git changes</text>
</g>
<!-- Scion Hub Service -->
<g id="node5" class="node">
<title>Scion Hub Service</title>
<polygon fill="lightblue" stroke="black" points="518.25,-242 374.75,-242 374.75,-206 518.25,-206 518.25,-242"/>
<text xml:space="preserve" text-anchor="middle" x="446.5" y="-221.2" font-family="Times,serif" font-size="14.00">Scion Hub</text>
<text xml:space="preserve" text-anchor="middle" x="446.5" y="-210.7" font-family="Times,serif" font-size="14.00">(systemd service)</text>
</g>
<!-- GCP VM (scion&#45;integration2)&#45;&gt;Scion Hub Service -->
<g id="edge7" class="edge">
<title>GCP VM (scion&#45;integration2)&#45;&gt;Scion Hub Service</title>
<path fill="none" stroke="black" d="M352.95,-388.53C363.15,-371.44 379.04,-344.65 392.5,-321.25 405.8,-298.13 420.61,-271.69 431.35,-252.38"/>
<polygon fill="black" stroke="black" points="434.33,-254.22 436.12,-243.78 428.21,-250.82 434.33,-254.22"/>
<text xml:space="preserve" text-anchor="middle" x="417.2" y="-307.95" font-family="Times,serif" font-size="14.00">Hosts</text>
</g>
<!-- Instance Manager Agent -->
<g id="node4" class="node">
<title>Instance Manager Agent</title>
<polygon fill="lightblue" stroke="black" points="492,-609 311,-609 311,-573 492,-573 492,-609"/>
<text xml:space="preserve" text-anchor="middle" x="401.5" y="-588.2" font-family="Times,serif" font-size="14.00">Instance Manager Agent</text>
<text xml:space="preserve" text-anchor="middle" x="401.5" y="-577.7" font-family="Times,serif" font-size="14.00">(Sandbox Environment)</text>
</g>
<!-- Instance Manager Agent&#45;&gt;GCP VM (scion&#45;integration2) -->
<g id="edge3" class="edge">
<title>Instance Manager Agent&#45;&gt;GCP VM (scion&#45;integration2)</title>
<path fill="none" stroke="black" d="M379.59,-572.6C361.73,-556.91 337.85,-532.08 327.5,-504.25 319.27,-482.12 324.48,-455.5 330.91,-435.88"/>
<polygon fill="black" stroke="black" points="334.15,-437.23 334.24,-426.64 327.56,-434.86 334.15,-437.23"/>
<text xml:space="preserve" text-anchor="middle" x="395" y="-490.95" font-family="Times,serif" font-size="14.00">Manages VM via SSH</text>
</g>
<!-- Instance Manager Agent&#45;&gt;Scion Hub Service -->
<g id="edge4" class="edge">
<title>Instance Manager Agent&#45;&gt;Scion Hub Service</title>
<path fill="none" stroke="black" d="M418.76,-572.77C433.6,-556.64 453.94,-531.05 462.5,-504.25 490.67,-416.06 468.01,-304.35 454.6,-253.06"/>
<polygon fill="black" stroke="black" points="458.05,-252.41 452.06,-243.68 451.3,-254.24 458.05,-252.41"/>
<text xml:space="preserve" text-anchor="middle" x="562.22" y="-398.95" font-family="Times,serif" font-size="14.00">Interacts via Scion CLI</text>
</g>
<!-- GCP Secret Manager -->
<g id="node6" class="node">
<title>GCP Secret Manager</title>
<polygon fill="lightblue" stroke="black" points="428,-58 277,-58 277,-22 428,-22 428,-58"/>
<text xml:space="preserve" text-anchor="middle" x="352.5" y="-37.2" font-family="Times,serif" font-size="14.00">GCP Secret Manager</text>
<text xml:space="preserve" text-anchor="middle" x="352.5" y="-26.7" font-family="Times,serif" font-size="14.00">(Signing Keys)</text>
</g>
<!-- Scion Hub Service&#45;&gt;GCP Secret Manager -->
<g id="edge5" class="edge">
<title>Scion Hub Service&#45;&gt;GCP Secret Manager</title>
<path fill="none" stroke="black" d="M417.41,-205.65C395.33,-190.65 366.61,-166.75 353.5,-137.25 344.06,-116 344.58,-89.42 347.03,-69.58"/>
<polygon fill="black" stroke="black" points="350.49,-70.11 348.51,-59.7 343.57,-69.08 350.49,-70.11"/>
<text xml:space="preserve" text-anchor="middle" x="436" y="-123.95" font-family="Times,serif" font-size="14.00">Retrieves Signing Keys</text>
</g>
<!-- External Users/Systems -->
<g id="node7" class="node">
<title>External Users/Systems</title>
<polygon fill="lightblue" stroke="black" points="631,-58 450,-58 450,-22 631,-22 631,-58"/>
<text xml:space="preserve" text-anchor="middle" x="540.5" y="-37.2" font-family="Times,serif" font-size="14.00">External Users/Systems</text>
<text xml:space="preserve" text-anchor="middle" x="540.5" y="-26.7" font-family="Times,serif" font-size="14.00">(via Public URL)</text>
</g>
<!-- Scion Hub Service&#45;&gt;External Users/Systems -->
<g id="edge6" class="edge">
<title>Scion Hub Service&#45;&gt;External Users/Systems</title>
<path fill="none" stroke="black" d="M465.33,-205.77C481.82,-189.64 505.17,-164.05 518.5,-137.25 529.12,-115.9 534.7,-89.33 537.57,-69.52"/>
<polygon fill="black" stroke="black" points="541.03,-70.03 538.84,-59.66 534.09,-69.13 541.03,-70.03"/>
<text xml:space="preserve" text-anchor="middle" x="579.12" y="-123.95" font-family="Times,serif" font-size="14.00">Provides API/UI</text>
</g>
</g>
</svg>
