<?xml version="1.0" encoding="UTF-8" standalone="no"?>
<!DOCTYPE svg PUBLIC "-//W3C//DTD SVG 1.1//EN"
 "http://www.w3.org/Graphics/SVG/1.1/DTD/svg11.dtd">
<!-- Generated by graphviz version 2.44.1 (20201121.0304)
 -->
<!-- Title: G Pages: 1 -->
<svg width="781pt" height="781pt"
 viewBox="0.00 0.00 781.00 781.00" xmlns="http://www.w3.org/2000/svg" xmlns:xlink="http://www.w3.org/1999/xlink"><style>
  * {
    fill: transparent !important;
    stroke: #1f1f1f !important;
    stroke-width: 1 !important;
  }
  polygon:not(.cluster *, .node *, .edge *, text) {
    stroke: transparent !important;
  }
  text {
    font-size: 10px !important;
    font-family: monospace !important;
    fill: #1f1f1f !important;
    stroke: transparent !important;
    transform: translateY(-0.5em);
  }
</style>
<g id="graph0" class="graph" transform="scale(1 1) rotate(0) translate(4 776.75)">
<title>G</title>
<polygon fill="white" stroke="none" points="-4,4 -4,-776.75 776.75,-776.75 776.75,4 -4,4"/>
<!-- Authentication Methods -->
<g id="node1" class="node">
<title>Authentication Methods</title>
<polygon fill="lightblue" stroke="black" points="491.75,-753 295.75,-753 295.75,-717 491.75,-717 491.75,-753"/>
<text xml:space="preserve" text-anchor="middle" x="393.75" y="-732.2" font-family="Times,serif" font-size="14.00">Authentication Methods</text>
<text xml:space="preserve" text-anchor="middle" x="393.75" y="-721.7" font-family="Times,serif" font-size="14.00">(API Key, OAuth, Tokens)</text>
</g>
<!-- Hub -->
<g id="node2" class="node">
<title>Hub</title>
<polygon fill="lightblue" stroke="black" points="420.75,-579 366.75,-579 366.75,-543 420.75,-543 420.75,-579"/>
<text xml:space="preserve" text-anchor="middle" x="393.75" y="-552.95" font-family="Times,serif" font-size="14.00">Hub</text>
</g>
<!-- Authentication Methods&#45;&gt;Hub -->
<g id="edge1" class="edge">
<title>Authentication Methods&#45;&gt;Hub</title>
<path fill="none" stroke="black" d="M393.75,-716.56C393.75,-686.94 393.75,-626.54 393.75,-590.64"/>
<polygon fill="black" stroke="black" points="397.25,-591 393.75,-581 390.25,-591 397.25,-591"/>
<text xml:space="preserve" text-anchor="middle" x="442.5" y="-639.95" font-family="Times,serif" font-size="14.00">authenticates</text>
</g>
<!-- Agents -->
<g id="node4" class="node">
<title>Agents</title>
<polygon fill="lightblue" stroke="black" points="353.25,-230 292.25,-230 292.25,-194 353.25,-194 353.25,-230"/>
<text xml:space="preserve" text-anchor="middle" x="322.75" y="-203.95" font-family="Times,serif" font-size="14.00">Agents</text>
</g>
<!-- Hub&#45;&gt;Agents -->
<g id="edge8" class="edge">
<title>Hub&#45;&gt;Agents</title>
<path fill="none" stroke="black" d="M375.06,-542.52C347.98,-515.76 299,-461.65 280.25,-404 261.74,-347.11 288.81,-278.1 307.51,-240.57"/>
<polygon fill="black" stroke="black" points="310.58,-242.25 312.06,-231.76 304.36,-239.04 310.58,-242.25"/>
<text xml:space="preserve" text-anchor="middle" x="306.5" y="-377.95" font-family="Times,serif" font-size="14.00">deploys</text>
</g>
<!-- Policy&#45;Based Auth -->
<g id="node5" class="node">
<title>Policy&#45;Based Auth</title>
<polygon fill="lightblue" stroke="black" points="612.25,-404 341.25,-404 341.25,-368 612.25,-368 612.25,-404"/>
<text xml:space="preserve" text-anchor="middle" x="476.75" y="-383.2" font-family="Times,serif" font-size="14.00">Policy&#45;Based Authorization</text>
<text xml:space="preserve" text-anchor="middle" x="476.75" y="-372.7" font-family="Times,serif" font-size="14.00">(Grove Membership, Access Control)</text>
</g>
<!-- Hub&#45;&gt;Policy&#45;Based Auth -->
<g id="edge4" class="edge">
<title>Hub&#45;&gt;Policy&#45;Based Auth</title>
<path fill="none" stroke="black" d="M402.01,-542.78C416.39,-512.81 446.14,-450.8 463.45,-414.71"/>
<polygon fill="black" stroke="black" points="466.57,-416.3 467.74,-405.77 460.26,-413.27 466.57,-416.3"/>
<text xml:space="preserve" text-anchor="middle" x="467.74" y="-464.95" font-family="Times,serif" font-size="14.00">enforces</text>
</g>
<!-- GCP Identity &amp; Metadata -->
<g id="node3" class="node">
<title>GCP Identity &amp; Metadata</title>
<polygon fill="lightblue" stroke="black" points="263.5,-753 0,-753 0,-717 263.5,-717 263.5,-753"/>
<text xml:space="preserve" text-anchor="middle" x="131.75" y="-732.2" font-family="Times,serif" font-size="14.00">GCP Identity</text>
<text xml:space="preserve" text-anchor="middle" x="131.75" y="-721.7" font-family="Times,serif" font-size="14.00">(ADC, Service Accounts, Metadata)</text>
</g>
<!-- GCP Identity &amp; Metadata&#45;&gt;Hub -->
<g id="edge2" class="edge">
<title>GCP Identity &amp; Metadata&#45;&gt;Hub</title>
<path fill="none" stroke="black" d="M158.31,-716.56C205.59,-685.53 304.35,-620.69 357.7,-585.66"/>
<polygon fill="black" stroke="black" points="359.41,-588.73 365.85,-580.32 355.57,-582.88 359.41,-588.73"/>
<text xml:space="preserve" text-anchor="middle" x="308.11" y="-639.95" font-family="Times,serif" font-size="14.00">integrates</text>
</g>
<!-- GCP Identity &amp; Metadata&#45;&gt;Agents -->
<g id="edge3" class="edge">
<title>GCP Identity &amp; Metadata&#45;&gt;Agents</title>
<path fill="none" stroke="black" d="M133.03,-716.68C136.62,-673.48 148.78,-558 181.25,-467.75 213.18,-379.02 273.63,-284.44 304.14,-239.57"/>
<polygon fill="black" stroke="black" points="306.9,-241.74 309.67,-231.52 301.12,-237.78 306.9,-241.74"/>
<text xml:space="preserve" text-anchor="middle" x="245" y="-464.95" font-family="Times,serif" font-size="14.00">provides identity</text>
</g>
<!-- Runtime Environment -->
<g id="node7" class="node">
<title>Runtime Environment</title>
<polygon fill="lightblue" stroke="black" points="591,-56 432.5,-56 432.5,-20 591,-20 591,-56"/>
<text xml:space="preserve" text-anchor="middle" x="511.75" y="-35.2" font-family="Times,serif" font-size="14.00">Runtime Environment</text>
<text xml:space="preserve" text-anchor="middle" x="511.75" y="-24.7" font-family="Times,serif" font-size="14.00">(Kubernetes, Local)</text>
</g>
<!-- Agents&#45;&gt;Runtime Environment -->
<g id="edge9" class="edge">
<title>Agents&#45;&gt;Runtime Environment</title>
<path fill="none" stroke="black" d="M341.91,-193.56C375.59,-162.91 445.49,-99.3 484.3,-63.98"/>
<polygon fill="black" stroke="black" points="486.38,-66.82 491.42,-57.5 481.67,-61.65 486.38,-66.82"/>
<text xml:space="preserve" text-anchor="middle" x="464.17" y="-116.95" font-family="Times,serif" font-size="14.00">executes in</text>
</g>
<!-- Policy&#45;Based Auth&#45;&gt;Agents -->
<g id="edge5" class="edge">
<title>Policy&#45;Based Auth&#45;&gt;Agents</title>
<path fill="none" stroke="black" d="M461.14,-367.56C433.93,-337.17 377.69,-274.36 345.92,-238.88"/>
<polygon fill="black" stroke="black" points="348.69,-236.73 339.41,-231.61 343.48,-241.4 348.69,-236.73"/>
<text xml:space="preserve" text-anchor="middle" x="456.87" y="-290.95" font-family="Times,serif" font-size="14.00">governs access</text>
</g>
<!-- Secrets Management -->
<g id="node6" class="node">
<title>Secrets Management</title>
<polygon fill="lightblue" stroke="black" points="772.75,-753 516.75,-753 516.75,-717 772.75,-717 772.75,-753"/>
<text xml:space="preserve" text-anchor="middle" x="644.75" y="-732.2" font-family="Times,serif" font-size="14.00">Secrets Management</text>
<text xml:space="preserve" text-anchor="middle" x="644.75" y="-721.7" font-family="Times,serif" font-size="14.00">(GCP Secret Manager, Kubernetes)</text>
</g>
<!-- Secrets Management&#45;&gt;Hub -->
<g id="edge6" class="edge">
<title>Secrets Management&#45;&gt;Hub</title>
<path fill="none" stroke="black" d="M619.3,-716.56C574.11,-685.59 479.79,-620.96 428.6,-585.88"/>
<polygon fill="black" stroke="black" points="430.74,-583.11 420.51,-580.34 426.78,-588.88 430.74,-583.11"/>
<text xml:space="preserve" text-anchor="middle" x="553.03" y="-639.95" font-family="Times,serif" font-size="14.00">manages</text>
</g>
<!-- Secrets Management&#45;&gt;Runtime Environment -->
<g id="edge7" class="edge">
<title>Secrets Management&#45;&gt;Runtime Environment</title>
<path fill="none" stroke="black" d="M645.41,-716.91C646.55,-686.01 648.75,-618.75 648.75,-562 648.75,-562 648.75,-562 648.75,-211 648.75,-146.68 589.4,-92.52 548.83,-63"/>
<polygon fill="black" stroke="black" points="550.9,-60.18 540.71,-57.26 546.85,-65.89 550.9,-60.18"/>
<text xml:space="preserve" text-anchor="middle" x="701.25" y="-377.95" font-family="Times,serif" font-size="14.00">mounts secrets</text>
</g>
</g>
</svg>
