<?xml version="1.0" encoding="UTF-8" standalone="no"?>
<!DOCTYPE svg PUBLIC "-//W3C//DTD SVG 1.1//EN"
 "http://www.w3.org/Graphics/SVG/1.1/DTD/svg11.dtd">
<!-- Generated by graphviz version 2.44.1 (20201121.0304)
 -->
<!-- Title: G Pages: 1 -->
<svg width="482pt" height="482pt"
 viewBox="0.00 0.00 482.00 482.00" xmlns="http://www.w3.org/2000/svg" xmlns:xlink="http://www.w3.org/1999/xlink"><style>
  * {
    fill: transparent !important;
    stroke: #1f1f1f !important;
    stroke-width: 1 !important;
  }
  polygon:not(.cluster *, .node *, .edge *, text) {
    stroke: transparent !important;
  }
  text {
    font-size: 10px !important;
    font-family: monospace !important;
    fill: #1f1f1f !important;
    stroke: transparent !important;
    transform: translateY(-0.5em);
  }
</style>
<g id="graph0" class="graph" transform="scale(1 1) rotate(0) translate(4 477.5)">
<title>G</title>
<polygon fill="white" stroke="none" points="-4,4 -4,-477.5 477.5,-477.5 477.5,4 -4,4"/>
<!-- Agent Creation -->
<g id="node1" class="node">
<title>Agent Creation</title>
<polygon fill="lightblue" stroke="black" points="188.5,-361 0,-361 0,-325 188.5,-325 188.5,-361"/>
<text xml:space="preserve" text-anchor="middle" x="94.25" y="-334.95" font-family="Times,serif" font-size="14.00">Agent Creation (create)</text>
</g>
<!-- Agent Operation -->
<g id="node2" class="node">
<title>Agent Operation</title>
<polygon fill="lightblue" stroke="black" points="399.5,-255 151,-255 151,-219 399.5,-219 399.5,-255"/>
<text xml:space="preserve" text-anchor="middle" x="275.25" y="-228.95" font-family="Times,serif" font-size="14.00">Agent Operation (start, attach)</text>
</g>
<!-- Agent Creation&#45;&gt;Agent Operation -->
<g id="edge1" class="edge">
<title>Agent Creation&#45;&gt;Agent Operation</title>
<path fill="none" stroke="black" d="M124.55,-324.59C154.82,-307.19 201.56,-280.34 234.95,-261.15"/>
<polygon fill="black" stroke="black" points="236.62,-264.23 243.54,-256.22 233.13,-258.17 236.62,-264.23"/>
<text xml:space="preserve" text-anchor="middle" x="223.93" y="-281.95" font-family="Times,serif" font-size="14.00">initiates</text>
</g>
<!-- Local Project/Agent Files -->
<g id="node4" class="node">
<title>Local Project/Agent Files</title>
<polygon fill="lightblue" stroke="black" points="312.75,-41 11.75,-41 11.75,-5 312.75,-5 312.75,-41"/>
<text xml:space="preserve" text-anchor="middle" x="162.25" y="-14.95" font-family="Times,serif" font-size="14.00">Local Project/Agent Files (cdw, clean)</text>
</g>
<!-- Agent Creation&#45;&gt;Local Project/Agent Files -->
<g id="edge3" class="edge">
<title>Agent Creation&#45;&gt;Local Project/Agent Files</title>
<path fill="none" stroke="black" d="M97.91,-324.9C109.02,-272.92 142.49,-116.41 156.25,-52.07"/>
<polygon fill="black" stroke="black" points="159.59,-53.17 158.26,-42.66 152.75,-51.71 159.59,-53.17"/>
<text xml:space="preserve" text-anchor="middle" x="155.28" y="-174.95" font-family="Times,serif" font-size="14.00">manages</text>
</g>
<!-- Agent Deletion -->
<g id="node3" class="node">
<title>Agent Deletion</title>
<polygon fill="lightblue" stroke="black" points="473.5,-148 285,-148 285,-112 473.5,-112 473.5,-148"/>
<text xml:space="preserve" text-anchor="middle" x="379.25" y="-121.95" font-family="Times,serif" font-size="14.00">Agent Deletion (delete)</text>
</g>
<!-- Agent Operation&#45;&gt;Agent Deletion -->
<g id="edge2" class="edge">
<title>Agent Operation&#45;&gt;Agent Deletion</title>
<path fill="none" stroke="black" d="M292.42,-218.66C309.21,-201.71 334.95,-175.72 354.06,-156.43"/>
<polygon fill="black" stroke="black" points="356.44,-159.01 360.99,-149.44 351.46,-154.08 356.44,-159.01"/>
<text xml:space="preserve" text-anchor="middle" x="367.87" y="-174.95" font-family="Times,serif" font-size="14.00">terminates</text>
</g>
<!-- Agent Operation&#45;&gt;Local Project/Agent Files -->
<g id="edge4" class="edge">
<title>Agent Operation&#45;&gt;Local Project/Agent Files</title>
<path fill="none" stroke="black" d="M243.32,-218.58C218.96,-203.41 187.01,-178.99 171.25,-148 156.05,-118.1 155.98,-78.81 158.28,-52.55"/>
<polygon fill="black" stroke="black" points="161.76,-52.96 159.34,-42.65 154.8,-52.22 161.76,-52.96"/>
<text xml:space="preserve" text-anchor="middle" x="223.75" y="-121.95" font-family="Times,serif" font-size="14.00">interacts with</text>
</g>
<!-- Agent Deletion&#45;&gt;Local Project/Agent Files -->
<g id="edge5" class="edge">
<title>Agent Deletion&#45;&gt;Local Project/Agent Files</title>
<path fill="none" stroke="black" d="M343.42,-111.66C306.43,-93.76 248.59,-65.78 208.25,-46.26"/>
<polygon fill="black" stroke="black" points="210.02,-43.23 199.5,-42.02 206.98,-49.53 210.02,-43.23"/>
<text xml:space="preserve" text-anchor="middle" x="303.51" y="-68.95" font-family="Times,serif" font-size="14.00">removes</text>
</g>
<!-- SCION Hub -->
<g id="node5" class="node">
<title>SCION Hub</title>
<polygon fill="lightblue" stroke="black" points="226,-468 142.5,-468 142.5,-432 226,-432 226,-468"/>
<text xml:space="preserve" text-anchor="middle" x="184.25" y="-441.95" font-family="Times,serif" font-size="14.00">SCION Hub</text>
</g>
<!-- SCION Hub&#45;&gt;Agent Creation -->
<g id="edge6" class="edge">
<title>SCION Hub&#45;&gt;Agent Creation</title>
<path fill="none" stroke="black" d="M142.04,-441.43C119.61,-435.03 93.9,-423.36 80.25,-402.25 74.4,-393.21 75.57,-381.95 79.05,-371.75"/>
<polygon fill="black" stroke="black" points="82.22,-373.22 82.9,-362.64 75.78,-370.49 82.22,-373.22"/>
<text xml:space="preserve" text-anchor="middle" x="177.75" y="-388.95" font-family="Times,serif" font-size="14.00">orchestrates (Hub&#45;managed)</text>
</g>
<!-- SCION Hub&#45;&gt;Agent Operation -->
<g id="edge7" class="edge">
<title>SCION Hub&#45;&gt;Agent Operation</title>
<path fill="none" stroke="black" d="M226.5,-438.13C244.82,-431.08 264.51,-419.84 275.25,-402.25 300.75,-360.48 292.06,-300.91 283.56,-266.17"/>
<polygon fill="black" stroke="black" points="287.05,-265.65 281.12,-256.86 280.28,-267.42 287.05,-265.65"/>
<text xml:space="preserve" text-anchor="middle" x="374.66" y="-334.95" font-family="Times,serif" font-size="14.00">monitors (Hub&#45;managed)</text>
</g>
</g>
</svg>
