<?xml version="1.0" encoding="UTF-8" standalone="no"?>
<!DOCTYPE svg PUBLIC "-//W3C//DTD SVG 1.1//EN"
 "http://www.w3.org/Graphics/SVG/1.1/DTD/svg11.dtd">
<!-- Generated by graphviz version 2.44.1 (20201121.0304)
 -->
<!-- Title: G Pages: 1 -->
<svg width="753pt" height="753pt"
 viewBox="0.00 0.00 753.00 753.00" xmlns="http://www.w3.org/2000/svg" xmlns:xlink="http://www.w3.org/1999/xlink"><style>
  * {
    fill: transparent !important;
    stroke: #1f1f1f !important;
    stroke-width: 1 !important;
  }
  polygon:not(.cluster *, .node *, .edge *, text) {
    stroke: transparent !important;
  }
  text {
    font-size: 10px !important;
    font-family: monospace !important;
    fill: #1f1f1f !important;
    stroke: transparent !important;
    transform: translateY(-0.5em);
  }
</style>
<g id="graph0" class="graph" transform="scale(1 1) rotate(0) translate(4 748.75)">
<title>G</title>
<polygon fill="white" stroke="none" points="-4,4 -4,-748.75 748.75,-748.75 748.75,4 -4,4"/>
<!-- build&#45;images.sh\n(Orchestrator) -->
<g id="node1" class="node">
<title>build&#45;images.sh\n(Orchestrator)</title>
<polygon fill="lightblue" stroke="black" points="410.5,-696 282,-696 282,-660 410.5,-660 410.5,-696"/>
<text xml:space="preserve" text-anchor="middle" x="346.25" y="-675.2" font-family="Times,serif" font-size="14.00">build&#45;images.sh</text>
<text xml:space="preserve" text-anchor="middle" x="346.25" y="-664.7" font-family="Times,serif" font-size="14.00">(Orchestrator)</text>
</g>
<!-- local&#45;docker.sh\n(docker buildx, Multi&#45;arch) -->
<g id="node2" class="node">
<title>local&#45;docker.sh\n(docker buildx, Multi&#45;arch)</title>
<polygon fill="lightblue" stroke="black" points="218.5,-390 0,-390 0,-354 218.5,-354 218.5,-390"/>
<text xml:space="preserve" text-anchor="middle" x="109.25" y="-369.2" font-family="Times,serif" font-size="14.00">local&#45;docker.sh</text>
<text xml:space="preserve" text-anchor="middle" x="109.25" y="-358.7" font-family="Times,serif" font-size="14.00">(docker buildx, Multi&#45;arch)</text>
</g>
<!-- build&#45;images.sh\n(Orchestrator)&#45;&gt;local&#45;docker.sh\n(docker buildx, Multi&#45;arch) -->
<g id="edge1" class="edge">
<title>build&#45;images.sh\n(Orchestrator)&#45;&gt;local&#45;docker.sh\n(docker buildx, Multi&#45;arch)</title>
<path fill="none" stroke="black" d="M308.83,-659.63C263.45,-636.6 187.98,-591.58 147.25,-530.25 120.96,-490.66 112.82,-434.7 110.33,-401.31"/>
<polygon fill="black" stroke="black" points="113.84,-401.38 109.73,-391.61 106.85,-401.81 113.84,-401.38"/>
<text xml:space="preserve" text-anchor="middle" x="244.75" y="-516.95" font-family="Times,serif" font-size="14.00">Dispatches per&#45;image build</text>
</g>
<!-- local&#45;podman.sh\n(podman build, Single&#45;arch) -->
<g id="node3" class="node">
<title>local&#45;podman.sh\n(podman build, Single&#45;arch)</title>
<polygon fill="lightblue" stroke="black" points="455.5,-390 237,-390 237,-354 455.5,-354 455.5,-390"/>
<text xml:space="preserve" text-anchor="middle" x="346.25" y="-369.2" font-family="Times,serif" font-size="14.00">local&#45;podman.sh</text>
<text xml:space="preserve" text-anchor="middle" x="346.25" y="-358.7" font-family="Times,serif" font-size="14.00">(podman build, Single&#45;arch)</text>
</g>
<!-- build&#45;images.sh\n(Orchestrator)&#45;&gt;local&#45;podman.sh\n(podman build, Single&#45;arch) -->
<g id="edge2" class="edge">
<title>build&#45;images.sh\n(Orchestrator)&#45;&gt;local&#45;podman.sh\n(podman build, Single&#45;arch)</title>
<path fill="none" stroke="black" d="M346.25,-659.78C346.25,-609.74 346.25,-463.91 346.25,-401.68"/>
<polygon fill="black" stroke="black" points="349.75,-401.92 346.25,-391.92 342.75,-401.92 349.75,-401.92"/>
<text xml:space="preserve" text-anchor="middle" x="443.75" y="-516.95" font-family="Times,serif" font-size="14.00">Dispatches per&#45;image build</text>
</g>
<!-- cloud&#45;build.sh\n(Google Cloud Build, YAML configs) -->
<g id="node4" class="node">
<title>cloud&#45;build.sh\n(Google Cloud Build, YAML configs)</title>
<polygon fill="lightblue" stroke="black" points="744.75,-390 473.75,-390 473.75,-354 744.75,-354 744.75,-390"/>
<text xml:space="preserve" text-anchor="middle" x="609.25" y="-369.2" font-family="Times,serif" font-size="14.00">cloud&#45;build.sh</text>
<text xml:space="preserve" text-anchor="middle" x="609.25" y="-358.7" font-family="Times,serif" font-size="14.00">(Google Cloud Build, YAML configs)</text>
</g>
<!-- build&#45;images.sh\n(Orchestrator)&#45;&gt;cloud&#45;build.sh\n(Google Cloud Build, YAML configs) -->
<g id="edge3" class="edge">
<title>build&#45;images.sh\n(Orchestrator)&#45;&gt;cloud&#45;build.sh\n(Google Cloud Build, YAML configs)</title>
<path fill="none" stroke="black" d="M380.31,-659.62C423.94,-635.82 499.4,-589.21 545.25,-530.25 576,-490.7 594.13,-434.36 602.84,-400.95"/>
<polygon fill="black" stroke="black" points="606.14,-402.17 605.17,-391.62 599.35,-400.47 606.14,-402.17"/>
<text xml:space="preserve" text-anchor="middle" x="625.67" y="-516.95" font-family="Times,serif" font-size="14.00">Submits target build</text>
</g>
<!-- Cloud Build Configuration\n(cloudbuild&#45;*.yaml) -->
<g id="node5" class="node">
<title>Cloud Build Configuration\n(cloudbuild&#45;*.yaml)</title>
<polygon fill="lightblue" stroke="black" points="711,-85 507.5,-85 507.5,-49 711,-49 711,-85"/>
<text xml:space="preserve" text-anchor="middle" x="609.25" y="-64.2" font-family="Times,serif" font-size="14.00">Cloud Build Configuration</text>
<text xml:space="preserve" text-anchor="middle" x="609.25" y="-53.7" font-family="Times,serif" font-size="14.00">(cloudbuild&#45;*.yaml)</text>
</g>
<!-- cloud&#45;build.sh\n(Google Cloud Build, YAML configs)&#45;&gt;Cloud Build Configuration\n(cloudbuild&#45;*.yaml) -->
<g id="edge4" class="edge">
<title>cloud&#45;build.sh\n(Google Cloud Build, YAML configs)&#45;&gt;Cloud Build Configuration\n(cloudbuild&#45;*.yaml)</title>
<path fill="none" stroke="black" d="M609.25,-353.84C609.25,-303.96 609.25,-158.61 609.25,-96.59"/>
<polygon fill="black" stroke="black" points="612.75,-96.86 609.25,-86.86 605.75,-96.86 612.75,-96.86"/>
<text xml:space="preserve" text-anchor="middle" x="624.25" y="-211.95" font-family="Times,serif" font-size="14.00">Uses</text>
</g>
</g>
</svg>
