<?xml version="1.0" encoding="UTF-8" standalone="no"?>
<!DOCTYPE svg PUBLIC "-//W3C//DTD SVG 1.1//EN"
 "http://www.w3.org/Graphics/SVG/1.1/DTD/svg11.dtd">
<!-- Generated by graphviz version 2.44.1 (20201121.0304)
 -->
<!-- Title: G Pages: 1 -->
<svg width="516pt" height="433pt"
 viewBox="0.00 0.00 516.00 433.00" xmlns="http://www.w3.org/2000/svg" xmlns:xlink="http://www.w3.org/1999/xlink"><style>
  * {
    fill: transparent !important;
    stroke: #1f1f1f !important;
    stroke-width: 1 !important;
  }
  polygon:not(.cluster *, .node *, .edge *, text) {
    stroke: transparent !important;
  }
  text {
    font-size: 10px !important;
    font-family: monospace !important;
    fill: #1f1f1f !important;
    stroke: transparent !important;
    transform: translateY(-0.5em);
  }
</style>
<g id="graph0" class="graph" transform="scale(1 1) rotate(0) translate(4 428.75)">
<title>G</title>
<polygon fill="white" stroke="none" points="-4,4 -4,-428.75 512.08,-428.75 512.08,4 -4,4"/>
<!-- GitHub -->
<g id="node1" class="node">
<title>GitHub</title>
<polygon fill="lightblue" stroke="black" points="159.33,-416 98.33,-416 98.33,-380 159.33,-380 159.33,-416"/>
<text xml:space="preserve" text-anchor="middle" x="128.83" y="-389.95" font-family="Times,serif" font-size="14.00">GitHub</text>
</g>
<!-- GitHubApp -->
<g id="node2" class="node">
<title>GitHubApp</title>
<polygon fill="lightblue" stroke="black" points="174.33,-292 83.33,-292 83.33,-256 174.33,-256 174.33,-292"/>
<text xml:space="preserve" text-anchor="middle" x="128.83" y="-265.95" font-family="Times,serif" font-size="14.00">GitHub App</text>
</g>
<!-- GitHub&#45;&gt;GitHubApp -->
<g id="edge1" class="edge">
<title>GitHub&#45;&gt;GitHubApp</title>
<path fill="none" stroke="black" d="M128.83,-379.52C128.83,-359.77 128.83,-327.32 128.83,-303.81"/>
<polygon fill="black" stroke="black" points="132.33,-303.96 128.83,-293.96 125.33,-303.96 132.33,-303.96"/>
<text xml:space="preserve" text-anchor="middle" x="177.58" y="-327.95" font-family="Times,serif" font-size="14.00">Registers App</text>
</g>
<!-- ScionHub -->
<g id="node3" class="node">
<title>ScionHub</title>
<polygon fill="lightblue" stroke="black" points="267.58,-45 184.08,-45 184.08,-9 267.58,-9 267.58,-45"/>
<text xml:space="preserve" text-anchor="middle" x="225.83" y="-18.95" font-family="Times,serif" font-size="14.00">Scion Hub</text>
</g>
<!-- GitHubApp&#45;&gt;ScionHub -->
<g id="edge2" class="edge">
<title>GitHubApp&#45;&gt;ScionHub</title>
<path fill="none" stroke="black" d="M93.89,-255.63C48.18,-230.46 -22.68,-181.56 7.83,-133 43.74,-75.84 120.48,-49.06 172.63,-37.05"/>
<polygon fill="black" stroke="black" points="173.18,-40.51 182.21,-34.96 171.69,-33.68 173.18,-40.51"/>
<text xml:space="preserve" text-anchor="middle" x="60.33" y="-142.95" font-family="Times,serif" font-size="14.00">Sends Webhooks</text>
</g>
<!-- SettingsYAML -->
<g id="node5" class="node">
<title>SettingsYAML</title>
<polygon fill="lightblue" stroke="black" points="235.58,-169 122.08,-169 122.08,-133 235.58,-133 235.58,-169"/>
<text xml:space="preserve" text-anchor="middle" x="178.83" y="-142.95" font-family="Times,serif" font-size="14.00">settings.yaml</text>
</g>
<!-- GitHubApp&#45;&gt;SettingsYAML -->
<g id="edge6" class="edge">
<title>GitHubApp&#45;&gt;SettingsYAML</title>
<path fill="none" stroke="black" d="M126.05,-255.76C124.58,-242 124.15,-222.49 130.33,-206.75 134.53,-196.05 141.82,-186.06 149.5,-177.63"/>
<polygon fill="black" stroke="black" points="151.97,-180.12 156.46,-170.52 146.97,-175.22 151.97,-180.12"/>
<text xml:space="preserve" text-anchor="middle" x="194.08" y="-203.95" font-family="Times,serif" font-size="14.00">App ID/Secret/Key</text>
</g>
<!-- ScionHub&#45;&gt;GitHubApp -->
<g id="edge3" class="edge">
<title>ScionHub&#45;&gt;GitHubApp</title>
<path fill="none" stroke="black" d="M238.74,-45.03C245.9,-55.57 254.09,-69.73 257.83,-83.75 273.11,-141.08 290.42,-167.67 257.83,-217.25 241.69,-241.8 212.2,-255.59 185.48,-263.31"/>
<polygon fill="black" stroke="black" points="184.88,-259.85 176.1,-265.78 186.66,-266.62 184.88,-259.85"/>
<text xml:space="preserve" text-anchor="middle" x="336.33" y="-142.95" font-family="Times,serif" font-size="14.00">Calls GitHub API</text>
</g>
<!-- AdminToken -->
<g id="node4" class="node">
<title>AdminToken</title>
<polygon fill="lightblue" stroke="black" points="508.08,-169 409.58,-169 409.58,-133 508.08,-133 508.08,-169"/>
<text xml:space="preserve" text-anchor="middle" x="458.83" y="-142.95" font-family="Times,serif" font-size="14.00">Admin Token</text>
</g>
<!-- AdminToken&#45;&gt;ScionHub -->
<g id="edge4" class="edge">
<title>AdminToken&#45;&gt;ScionHub</title>
<path fill="none" stroke="black" d="M425.45,-132.52C384.35,-111 314.47,-74.41 269.24,-50.73"/>
<polygon fill="black" stroke="black" points="270.97,-47.69 260.49,-46.15 267.73,-53.89 270.97,-47.69"/>
<text xml:space="preserve" text-anchor="middle" x="398.06" y="-80.95" font-family="Times,serif" font-size="14.00">Authenticates</text>
</g>
<!-- SettingsYAML&#45;&gt;ScionHub -->
<g id="edge5" class="edge">
<title>SettingsYAML&#45;&gt;ScionHub</title>
<path fill="none" stroke="black" d="M177.14,-132.54C176.45,-118.84 176.92,-99.5 182.83,-83.75 186.84,-73.05 193.66,-62.72 200.7,-53.93"/>
<polygon fill="black" stroke="black" points="203.19,-56.4 207.02,-46.52 197.87,-51.86 203.19,-56.4"/>
<text xml:space="preserve" text-anchor="middle" x="220.33" y="-80.95" font-family="Times,serif" font-size="14.00">Configures</text>
</g>
</g>
</svg>
