<?xml version="1.0" encoding="UTF-8" standalone="no"?>
<!DOCTYPE svg PUBLIC "-//W3C//DTD SVG 1.1//EN"
 "http://www.w3.org/Graphics/SVG/1.1/DTD/svg11.dtd">
<!-- Generated by graphviz version 2.44.1 (20201121.0304)
 -->
<!-- Title: G Pages: 1 -->
<svg width="505pt" height="502pt"
 viewBox="0.00 0.00 505.00 502.00" xmlns="http://www.w3.org/2000/svg" xmlns:xlink="http://www.w3.org/1999/xlink"><style>
  * {
    fill: transparent !important;
    stroke: #1f1f1f !important;
    stroke-width: 1 !important;
  }
  polygon:not(.cluster *, .node *, .edge *, text) {
    stroke: transparent !important;
  }
  text {
    font-size: 10px !important;
    font-family: monospace !important;
    fill: #1f1f1f !important;
    stroke: transparent !important;
    transform: translateY(-0.5em);
  }
</style>
<g id="graph0" class="graph" transform="scale(1 1) rotate(0) translate(4 497.75)">
<title>G</title>
<polygon fill="white" stroke="none" points="-4,4 -4,-497.75 500.95,-497.75 500.95,4 -4,4"/>
<g id="clust1" class="cluster">
<title>cluster_0</title>
<polygon fill="#f2f2f2" stroke="#cccccc" points="8,-371.87 8,-481.33 280,-481.33 280,-371.87 8,-371.87"/>
<text xml:space="preserve" text-anchor="middle" x="144" y="-464.03" font-family="Times,serif" font-size="14.00">Fabric Setup</text>
</g>
<!-- Fabric CLI -->
<g id="node1" class="node">
<title>Fabric CLI</title>
<polygon fill="lightblue" stroke="black" points="272,-430 16,-430 16,-394 272,-394 272,-430"/>
<text xml:space="preserve" text-anchor="middle" x="144" y="-409.2" font-family="Helvetica,sans-Serif" font-size="14.00">Fabric CLI</text>
<text xml:space="preserve" text-anchor="middle" x="144" y="-398.7" font-family="Helvetica,sans-Serif" font-size="14.00">(init, clone, mv, start, config)</text>
</g>
<!-- Orchestrator Agent -->
<g id="node2" class="node">
<title>Orchestrator Agent</title>
<polygon fill="lightblue" stroke="black" points="343.5,-302 192.5,-302 192.5,-266 343.5,-266 343.5,-302"/>
<text xml:space="preserve" text-anchor="middle" x="268" y="-281.2" font-family="Helvetica,sans-Serif" font-size="14.00">Orchestrator Agent</text>
<text xml:space="preserve" text-anchor="middle" x="268" y="-270.7" font-family="Helvetica,sans-Serif" font-size="14.00">(Manages Workflow)</text>
</g>
<!-- Fabric CLI&#45;&gt;Orchestrator Agent -->
<g id="edge1" class="edge">
<title>Fabric CLI&#45;&gt;Orchestrator Agent</title>
<path fill="none" stroke="#333333" d="M160.98,-393.74C182.2,-372.19 218.67,-335.13 243.06,-310.34"/>
<polygon fill="#333333" stroke="#333333" points="245.24,-313.11 249.76,-303.53 240.25,-308.2 245.24,-313.11"/>
<text xml:space="preserve" text-anchor="middle" x="232.22" y="-339.95" font-family="Times,serif" font-size="14.00">Starts</text>
</g>
<!-- Researcher Agent(s) -->
<g id="node4" class="node">
<title>Researcher Agent(s)</title>
<polygon fill="lightblue" stroke="black" points="369.75,-174 166.25,-174 166.25,-138 369.75,-138 369.75,-174"/>
<text xml:space="preserve" text-anchor="middle" x="268" y="-153.2" font-family="Helvetica,sans-Serif" font-size="14.00">Researcher Agent(s)</text>
<text xml:space="preserve" text-anchor="middle" x="268" y="-142.7" font-family="Helvetica,sans-Serif" font-size="14.00">(Parallel Research Tasks)</text>
</g>
<!-- Orchestrator Agent&#45;&gt;Researcher Agent(s) -->
<g id="edge3" class="edge">
<title>Orchestrator Agent&#45;&gt;Researcher Agent(s)</title>
<path fill="none" stroke="#333333" d="M215.47,-265.53C190.15,-253.92 167.58,-236.76 179.5,-214.75 187.38,-200.2 200.69,-188.73 214.63,-179.99"/>
<polygon fill="#333333" stroke="#333333" points="216.12,-183.17 223.01,-175.12 212.61,-177.11 216.12,-183.17"/>
<text xml:space="preserve" text-anchor="middle" x="258.25" y="-211.95" font-family="Times,serif" font-size="14.00">Dispatches &amp; Notifies</text>
</g>
<!-- Orchestrator Agent&#45;&gt;Researcher Agent(s) -->
<g id="edge5" class="edge">
<title>Orchestrator Agent&#45;&gt;Researcher Agent(s)</title>
<path fill="none" stroke="#333333" stroke-dasharray="1,5" d="M305.66,-265.76C326.62,-253.48 346.7,-235.51 337,-214.75 330.79,-201.46 319.86,-190.15 308.49,-181.16"/>
<polygon fill="#333333" stroke="#333333" points="310.72,-178.45 300.59,-175.34 306.57,-184.09 310.72,-178.45"/>
<text xml:space="preserve" text-anchor="middle" x="418.2" y="-211.95" font-family="Times,serif" font-size="14.00">Deletes on completion</text>
</g>
<!-- topics.txt -->
<g id="node3" class="node">
<title>topics.txt</title>
<polygon fill="lightblue" stroke="black" points="493.75,-430 290.25,-430 290.25,-394 493.75,-394 493.75,-430"/>
<text xml:space="preserve" text-anchor="middle" x="392" y="-409.2" font-family="Helvetica,sans-Serif" font-size="14.00">topics.txt</text>
<text xml:space="preserve" text-anchor="middle" x="392" y="-398.7" font-family="Helvetica,sans-Serif" font-size="14.00">(Coffee Equipment Topics)</text>
</g>
<!-- topics.txt&#45;&gt;Orchestrator Agent -->
<g id="edge2" class="edge">
<title>topics.txt&#45;&gt;Orchestrator Agent</title>
<path fill="none" stroke="#333333" d="M375.02,-393.74C353.8,-372.19 317.33,-335.13 292.94,-310.34"/>
<polygon fill="#333333" stroke="#333333" points="295.75,-308.2 286.24,-303.53 290.76,-313.11 295.75,-308.2"/>
<text xml:space="preserve" text-anchor="middle" x="363.72" y="-339.95" font-family="Times,serif" font-size="14.00">Provides</text>
</g>
<!-- Research Results -->
<g id="node5" class="node">
<title>Research Results</title>
<polygon fill="lightblue" stroke="black" points="347.25,-46 188.75,-46 188.75,-10 347.25,-10 347.25,-46"/>
<text xml:space="preserve" text-anchor="middle" x="268" y="-25.2" font-family="Helvetica,sans-Serif" font-size="14.00">Research Results</text>
<text xml:space="preserve" text-anchor="middle" x="268" y="-14.7" font-family="Helvetica,sans-Serif" font-size="14.00">(Completed Reports)</text>
</g>
<!-- Researcher Agent(s)&#45;&gt;Research Results -->
<g id="edge4" class="edge">
<title>Researcher Agent(s)&#45;&gt;Research Results</title>
<path fill="none" stroke="#333333" d="M268,-137.74C268,-117.12 268,-82.32 268,-57.64"/>
<polygon fill="#333333" stroke="#333333" points="271.5,-57.97 268,-47.97 264.5,-57.97 271.5,-57.97"/>
<text xml:space="preserve" text-anchor="middle" x="301.75" y="-83.95" font-family="Times,serif" font-size="14.00">Generates</text>
</g>
</g>
</svg>
