<?xml version="1.0" encoding="UTF-8" standalone="no"?>
<!DOCTYPE svg PUBLIC "-//W3C//DTD SVG 1.1//EN"
 "http://www.w3.org/Graphics/SVG/1.1/DTD/svg11.dtd">
<!-- Generated by graphviz version 2.44.1 (20201121.0304)
 -->
<!-- Title: G Pages: 1 -->
<svg width="495pt" height="365pt"
 viewBox="0.00 0.00 495.00 365.00" xmlns="http://www.w3.org/2000/svg" xmlns:xlink="http://www.w3.org/1999/xlink"><style>
  * {
    fill: transparent !important;
    stroke: #1f1f1f !important;
    stroke-width: 1 !important;
  }
  polygon:not(.cluster *, .node *, .edge *, text) {
    stroke: transparent !important;
  }
  text {
    font-size: 10px !important;
    font-family: monospace !important;
    fill: #1f1f1f !important;
    stroke: transparent !important;
    transform: translateY(-0.5em);
  }
</style>
<g id="graph0" class="graph" transform="scale(1 1) rotate(0) translate(4 360.5)">
<title>G</title>
<polygon fill="white" stroke="none" points="-4,4 -4,-360.5 490.54,-360.5 490.54,4 -4,4"/>
<!-- Pull Requests (GitHub) -->
<g id="node1" class="node">
<title>Pull Requests (GitHub)</title>
<polygon fill="lightblue" stroke="black" points="355.34,-357 174.34,-357 174.34,-321 355.34,-321 355.34,-357"/>
<text xml:space="preserve" text-anchor="middle" x="264.84" y="-330.95" font-family="Times,serif" font-size="14.00">Pull Requests (GitHub)</text>
</g>
<!-- pr&#45;deps.sh Script -->
<g id="node2" class="node">
<title>pr&#45;deps.sh Script</title>
<polygon fill="lightblue" stroke="black" points="336.59,-284 193.09,-284 193.09,-248 336.59,-248 336.59,-284"/>
<text xml:space="preserve" text-anchor="middle" x="264.84" y="-257.95" font-family="Times,serif" font-size="14.00">pr&#45;deps.sh Script</text>
</g>
<!-- Pull Requests (GitHub)&#45;&gt;pr&#45;deps.sh Script -->
<g id="edge1" class="edge">
<title>Pull Requests (GitHub)&#45;&gt;pr&#45;deps.sh Script</title>
<path fill="none" stroke="black" d="M264.84,-320.81C264.84,-313.23 264.84,-304.1 264.84,-295.54"/>
<polygon fill="black" stroke="black" points="268.34,-295.54 264.84,-285.54 261.34,-295.54 268.34,-295.54"/>
</g>
<!-- GitHub CLI (gh) -->
<g id="node3" class="node">
<title>GitHub CLI (gh)</title>
<polygon fill="lightblue" stroke="black" points="129.09,-201 0.59,-201 0.59,-165 129.09,-165 129.09,-201"/>
<text xml:space="preserve" text-anchor="middle" x="64.84" y="-174.95" font-family="Times,serif" font-size="14.00">GitHub CLI (gh)</text>
</g>
<!-- pr&#45;deps.sh Script&#45;&gt;GitHub CLI (gh) -->
<g id="edge2" class="edge">
<title>pr&#45;deps.sh Script&#45;&gt;GitHub CLI (gh)</title>
<path fill="none" stroke="black" d="M192.61,-260.12C145.22,-255.37 89.04,-246.27 72.34,-229.25 67.88,-224.7 65.48,-218.58 64.28,-212.31"/>
<polygon fill="black" stroke="black" points="67.79,-212.31 63.38,-202.67 60.83,-212.96 67.79,-212.31"/>
<text xml:space="preserve" text-anchor="middle" x="158.59" y="-215.95" font-family="Times,serif" font-size="14.00">Fetches PR Data &amp; Files</text>
</g>
<!-- Git Commands -->
<g id="node4" class="node">
<title>Git Commands</title>
<polygon fill="lightblue" stroke="black" points="289.84,-201 183.84,-201 183.84,-165 289.84,-165 289.84,-201"/>
<text xml:space="preserve" text-anchor="middle" x="236.84" y="-174.95" font-family="Times,serif" font-size="14.00">Git Commands</text>
</g>
<!-- pr&#45;deps.sh Script&#45;&gt;Git Commands -->
<g id="edge3" class="edge">
<title>pr&#45;deps.sh Script&#45;&gt;Git Commands</title>
<path fill="none" stroke="black" d="M258.91,-247.82C255.33,-237.48 250.69,-224.05 246.59,-212.18"/>
<polygon fill="black" stroke="black" points="249.94,-211.17 243.36,-202.86 243.32,-213.46 249.94,-211.17"/>
<text xml:space="preserve" text-anchor="middle" x="307.93" y="-215.95" font-family="Times,serif" font-size="14.00">Infers Ancestry</text>
</g>
<!-- Output Reports -->
<g id="node6" class="node">
<title>Output Reports</title>
<polygon fill="lightblue" stroke="black" points="355.34,-36 234.34,-36 234.34,0 355.34,0 355.34,-36"/>
<text xml:space="preserve" text-anchor="middle" x="294.84" y="-9.95" font-family="Times,serif" font-size="14.00">Output Reports</text>
</g>
<!-- pr&#45;deps.sh Script&#45;&gt;Output Reports -->
<g id="edge7" class="edge">
<title>pr&#45;deps.sh Script&#45;&gt;Output Reports</title>
<path fill="none" stroke="black" d="M336.89,-251.41C348.69,-246.23 359.7,-239.1 367.84,-229.25 391.32,-200.87 375.41,-183.81 379.84,-147.25 384.87,-105.85 411.62,-88.02 387.84,-53.75 382.2,-45.62 374.42,-39.39 365.73,-34.62"/>
<polygon fill="black" stroke="black" points="367.51,-31.59 356.98,-30.47 364.52,-37.91 367.51,-31.59"/>
<text xml:space="preserve" text-anchor="middle" x="434.04" y="-133.95" font-family="Times,serif" font-size="14.00">Directs Output</text>
</g>
<!-- jq (JSON Processor) -->
<g id="node5" class="node">
<title>jq (JSON Processor)</title>
<polygon fill="lightblue" stroke="black" points="267.09,-119 108.59,-119 108.59,-83 267.09,-83 267.09,-119"/>
<text xml:space="preserve" text-anchor="middle" x="187.84" y="-92.95" font-family="Times,serif" font-size="14.00">jq (JSON Processor)</text>
</g>
<!-- GitHub CLI (gh)&#45;&gt;jq (JSON Processor) -->
<g id="edge4" class="edge">
<title>GitHub CLI (gh)&#45;&gt;jq (JSON Processor)</title>
<path fill="none" stroke="black" d="M68.76,-164.93C71.73,-155.48 76.73,-144.16 84.84,-136.75 89.97,-132.07 95.74,-128.02 101.87,-124.52"/>
<polygon fill="black" stroke="black" points="103.12,-127.81 110.42,-120.13 99.92,-121.58 103.12,-127.81"/>
<text xml:space="preserve" text-anchor="middle" x="144.84" y="-133.95" font-family="Times,serif" font-size="14.00">Provides PR JSON</text>
</g>
<!-- Git Commands&#45;&gt;jq (JSON Processor) -->
<g id="edge5" class="edge">
<title>Git Commands&#45;&gt;jq (JSON Processor)</title>
<path fill="none" stroke="black" d="M225.79,-164.73C222.26,-159.17 218.36,-152.97 214.84,-147.25 211.22,-141.36 207.39,-135 203.78,-128.97"/>
<polygon fill="black" stroke="black" points="206.89,-127.36 198.77,-120.55 200.88,-130.94 206.89,-127.36"/>
<text xml:space="preserve" text-anchor="middle" x="297.34" y="-133.95" font-family="Times,serif" font-size="14.00">Provides Ancestry Data</text>
</g>
<!-- jq (JSON Processor)&#45;&gt;Output Reports -->
<g id="edge6" class="edge">
<title>jq (JSON Processor)&#45;&gt;Output Reports</title>
<path fill="none" stroke="black" d="M185.5,-82.93C185.13,-73.38 186.38,-61.82 192.84,-53.75 200.8,-43.81 211.74,-36.7 223.51,-31.62"/>
<polygon fill="black" stroke="black" points="224.47,-34.99 232.59,-28.18 222,-28.44 224.47,-34.99"/>
<text xml:space="preserve" text-anchor="middle" x="290.34" y="-50.95" font-family="Times,serif" font-size="14.00">Generates Formatted Output</text>
</g>
</g>
</svg>
