<?xml version="1.0" encoding="UTF-8" standalone="no"?>
<!DOCTYPE svg PUBLIC "-//W3C//DTD SVG 1.1//EN"
 "http://www.w3.org/Graphics/SVG/1.1/DTD/svg11.dtd">
<!-- Generated by graphviz version 2.44.1 (20201121.0304)
 -->
<!-- Title: G Pages: 1 -->
<svg width="470pt" height="374pt"
 viewBox="0.00 0.00 470.00 374.00" xmlns="http://www.w3.org/2000/svg" xmlns:xlink="http://www.w3.org/1999/xlink"><style>
  * {
    fill: transparent !important;
    stroke: #1f1f1f !important;
    stroke-width: 1 !important;
  }
  polygon:not(.cluster *, .node *, .edge *, text) {
    stroke: transparent !important;
  }
  text {
    font-size: 10px !important;
    font-family: monospace !important;
    fill: #1f1f1f !important;
    stroke: transparent !important;
    transform: translateY(-0.5em);
  }
</style>
<g id="graph0" class="graph" transform="scale(1 1) rotate(0) translate(4 370)">
<title>G</title>
<polygon fill="white" stroke="none" points="-4,4 -4,-370 466.42,-370 466.42,4 -4,4"/>
<!-- Fabric Agent -->
<g id="node1" class="node">
<title>Fabric Agent</title>
<polygon fill="lightblue" stroke="black" points="296.2,-366 197.7,-366 197.7,-330 296.2,-330 296.2,-366"/>
<text xml:space="preserve" text-anchor="middle" x="246.95" y="-339.95" font-family="Times,serif" font-size="14.00">Fabric Agent</text>
</g>
<!-- BrokerServiceClient -->
<g id="node2" class="node">
<title>BrokerServiceClient</title>
<polygon fill="lightblue" stroke="black" points="326.2,-284 167.7,-284 167.7,-248 326.2,-248 326.2,-284"/>
<text xml:space="preserve" text-anchor="middle" x="246.95" y="-257.95" font-family="Times,serif" font-size="14.00">BrokerServiceClient</text>
</g>
<!-- Fabric Agent&#45;&gt;BrokerServiceClient -->
<g id="edge1" class="edge">
<title>Fabric Agent&#45;&gt;BrokerServiceClient</title>
<path fill="none" stroke="black" d="M246.95,-329.64C246.95,-319.68 246.95,-306.93 246.95,-295.54"/>
<polygon fill="black" stroke="black" points="250.45,-295.84 246.95,-285.84 243.45,-295.84 250.45,-295.84"/>
<text xml:space="preserve" text-anchor="middle" x="314.45" y="-298.95" font-family="Times,serif" font-size="14.00">Calls gRPC methods</text>
</g>
<!-- BrokerServiceServer -->
<g id="node3" class="node">
<title>BrokerServiceServer</title>
<polygon fill="lightblue" stroke="black" points="198.2,-201 39.7,-201 39.7,-165 198.2,-165 198.2,-201"/>
<text xml:space="preserve" text-anchor="middle" x="118.95" y="-174.95" font-family="Times,serif" font-size="14.00">BrokerServiceServer</text>
</g>
<!-- BrokerServiceClient&#45;&gt;BrokerServiceServer -->
<g id="edge2" class="edge">
<title>BrokerServiceClient&#45;&gt;BrokerServiceServer</title>
<path fill="none" stroke="black" d="M219.49,-247.62C200.93,-235.88 176.21,-220.23 155.92,-207.39"/>
<polygon fill="black" stroke="black" points="157.97,-204.55 147.64,-202.16 154.22,-210.46 157.97,-204.55"/>
<text xml:space="preserve" text-anchor="middle" x="254.29" y="-215.95" font-family="Times,serif" font-size="14.00">gRPC Communication</text>
</g>
<!-- StructuredMessage -->
<g id="node5" class="node">
<title>StructuredMessage</title>
<polygon fill="lightblue" stroke="black" points="324.7,-36 181.2,-36 181.2,0 324.7,0 324.7,-36"/>
<text xml:space="preserve" text-anchor="middle" x="252.95" y="-9.95" font-family="Times,serif" font-size="14.00">StructuredMessage</text>
</g>
<!-- BrokerServiceClient&#45;&gt;StructuredMessage -->
<g id="edge5" class="edge">
<title>BrokerServiceClient&#45;&gt;StructuredMessage</title>
<path fill="none" stroke="black" d="M306.36,-247.57C314.11,-242.84 321.05,-236.84 325.95,-229.25 368.23,-163.7 367.6,-119.7 325.95,-53.75 323.49,-49.86 320.46,-46.39 317.05,-43.3"/>
<polygon fill="black" stroke="black" points="319.19,-40.53 309.1,-37.31 314.98,-46.12 319.19,-40.53"/>
<text xml:space="preserve" text-anchor="middle" x="409.92" y="-133.95" font-family="Times,serif" font-size="14.00">Sends/Receives</text>
</g>
<!-- BrokerService -->
<g id="node4" class="node">
<title>BrokerService</title>
<polygon fill="lightblue" stroke="black" points="194.7,-119 81.2,-119 81.2,-83 194.7,-83 194.7,-119"/>
<text xml:space="preserve" text-anchor="middle" x="137.95" y="-92.95" font-family="Times,serif" font-size="14.00">BrokerService</text>
</g>
<!-- BrokerServiceServer&#45;&gt;BrokerService -->
<g id="edge3" class="edge">
<title>BrokerServiceServer&#45;&gt;BrokerService</title>
<path fill="none" stroke="black" d="M123.07,-164.64C125.46,-154.58 128.53,-141.66 131.26,-130.18"/>
<polygon fill="black" stroke="black" points="134.58,-131.34 133.49,-120.8 127.77,-129.72 134.58,-131.34"/>
<text xml:space="preserve" text-anchor="middle" x="204.59" y="-133.95" font-family="Times,serif" font-size="14.00">Implements Interface</text>
</g>
<!-- BrokerService&#45;&gt;StructuredMessage -->
<g id="edge4" class="edge">
<title>BrokerService&#45;&gt;StructuredMessage</title>
<path fill="none" stroke="black" d="M162.62,-82.62C179.14,-70.99 201.11,-55.52 219.24,-42.75"/>
<polygon fill="black" stroke="black" points="220.92,-45.84 227.08,-37.22 216.89,-40.12 220.92,-45.84"/>
<text xml:space="preserve" text-anchor="middle" x="262.34" y="-50.95" font-family="Times,serif" font-size="14.00">Uses for Publish</text>
</g>
</g>
</svg>
