<?xml version="1.0" encoding="UTF-8" standalone="no"?>
<!DOCTYPE svg PUBLIC "-//W3C//DTD SVG 1.1//EN"
 "http://www.w3.org/Graphics/SVG/1.1/DTD/svg11.dtd">
<!-- Generated by graphviz version 2.44.1 (20201121.0304)
 -->
<!-- Title: G Pages: 1 -->
<svg width="518pt" height="518pt"
 viewBox="0.00 0.00 518.00 518.00" xmlns="http://www.w3.org/2000/svg" xmlns:xlink="http://www.w3.org/1999/xlink"><style>
  * {
    fill: transparent !important;
    stroke: #1f1f1f !important;
    stroke-width: 1 !important;
  }
  polygon:not(.cluster *, .node *, .edge *, text) {
    stroke: transparent !important;
  }
  text {
    font-size: 10px !important;
    font-family: monospace !important;
    fill: #1f1f1f !important;
    stroke: transparent !important;
    transform: translateY(-0.5em);
  }
</style>
<g id="graph0" class="graph" transform="scale(1 1) rotate(0) translate(4 514)">
<title>G</title>
<polygon fill="white" stroke="none" points="-4,4 -4,-514 514,-514 514,4 -4,4"/>
<g id="clust1" class="cluster">
<title>cluster_0</title>
<polygon fill="none" stroke="black" points="8,-16.22 8,-493.78 502,-493.78 502,-16.22 8,-16.22"/>
<text xml:space="preserve" text-anchor="middle" x="255" y="-476.48" font-family="Times,serif" font-size="14.00">Harness Configuration Management</text>
</g>
<!-- Local Operations -->
<g id="node1" class="node">
<title>Local Operations</title>
<polygon fill="lightblue" stroke="black" points="372.25,-421.22 123.75,-421.22 123.75,-385.22 372.25,-385.22 372.25,-421.22"/>
<text xml:space="preserve" text-anchor="middle" x="248" y="-400.42" font-family="Times,serif" font-size="14.00">Local Harness Configs</text>
<text xml:space="preserve" text-anchor="middle" x="248" y="-389.92" font-family="Times,serif" font-size="14.00">(List, Reset, Upgrade, Install)</text>
</g>
<!-- Remote Sources -->
<g id="node2" class="node">
<title>Remote Sources</title>
<polygon fill="lightblue" stroke="black" points="212,-254.22 16,-254.22 16,-218.22 212,-218.22 212,-254.22"/>
<text xml:space="preserve" text-anchor="middle" x="114" y="-228.17" font-family="Times,serif" font-size="14.00">Remote Repositories/URLs</text>
</g>
<!-- Local Operations&#45;&gt;Remote Sources -->
<g id="edge1" class="edge">
<title>Local Operations&#45;&gt;Remote Sources</title>
<path fill="none" stroke="black" d="M220.02,-384.92C199.3,-370.97 171.57,-349.71 153,-325.47 139.15,-307.39 129.01,-283.61 122.54,-265.3"/>
<polygon fill="black" stroke="black" points="125.88,-264.24 119.39,-255.87 119.24,-266.46 125.88,-264.24"/>
<text xml:space="preserve" text-anchor="middle" x="198" y="-312.17" font-family="Times,serif" font-size="14.00">Install from</text>
</g>
<!-- Fabric Hub -->
<g id="node3" class="node">
<title>Fabric Hub</title>
<polygon fill="lightblue" stroke="black" points="346,-87.22 150,-87.22 150,-51.22 346,-51.22 346,-87.22"/>
<text xml:space="preserve" text-anchor="middle" x="248" y="-66.42" font-family="Times,serif" font-size="14.00">Fabric Hub</text>
<text xml:space="preserve" text-anchor="middle" x="248" y="-55.92" font-family="Times,serif" font-size="14.00">(Centralized Management)</text>
</g>
<!-- Local Operations&#45;&gt;Fabric Hub -->
<g id="edge2" class="edge">
<title>Local Operations&#45;&gt;Fabric Hub</title>
<path fill="none" stroke="black" d="M248,-384.84C248,-330.83 248,-165.56 248,-98.72"/>
<polygon fill="black" stroke="black" points="251.5,-98.95 248,-88.95 244.5,-98.95 251.5,-98.95"/>
<text xml:space="preserve" text-anchor="middle" x="300.5" y="-228.17" font-family="Times,serif" font-size="14.00">Sync/Push/Pull</text>
</g>
<!-- Remote Sources&#45;&gt;Fabric Hub -->
<g id="edge3" class="edge">
<title>Remote Sources&#45;&gt;Fabric Hub</title>
<path fill="none" stroke="black" d="M118.91,-218.01C124.85,-199.23 136.19,-168.91 153,-146.97 168.88,-126.24 191.48,-107.69 210.65,-94.02"/>
<polygon fill="black" stroke="black" points="212.55,-96.96 218.78,-88.38 208.56,-91.2 212.55,-96.96"/>
<text xml:space="preserve" text-anchor="middle" x="198" y="-144.17" font-family="Times,serif" font-size="14.00">Re&#45;import to</text>
</g>
<!-- Fabric Hub&#45;&gt;Local Operations -->
<g id="edge4" class="edge">
<title>Fabric Hub&#45;&gt;Local Operations</title>
<path fill="none" stroke="black" d="M266.81,-87.61C292.99,-113.22 339.17,-163.96 357,-218.22 377.41,-280.37 318.11,-344.12 279.14,-377.84"/>
<polygon fill="black" stroke="black" points="277.24,-374.86 271.85,-383.98 281.75,-380.21 277.24,-374.86"/>
<text xml:space="preserve" text-anchor="middle" x="413.66" y="-228.17" font-family="Times,serif" font-size="14.00">Sync/Pull/Show</text>
</g>
</g>
</svg>
