<?xml version="1.0" encoding="UTF-8" standalone="no"?>
<!DOCTYPE svg PUBLIC "-//W3C//DTD SVG 1.1//EN"
 "http://www.w3.org/Graphics/SVG/1.1/DTD/svg11.dtd">
<!-- Generated by graphviz version 2.44.1 (20201121.0304)
 -->
<!-- Title: G Pages: 1 -->
<svg width="624pt" height="624pt"
 viewBox="0.00 0.00 624.00 624.00" xmlns="http://www.w3.org/2000/svg" xmlns:xlink="http://www.w3.org/1999/xlink"><style>
  * {
    fill: transparent !important;
    stroke: #1f1f1f !important;
    stroke-width: 1 !important;
  }
  polygon:not(.cluster *, .node *, .edge *, text) {
    stroke: transparent !important;
  }
  text {
    font-size: 10px !important;
    font-family: monospace !important;
    fill: #1f1f1f !important;
    stroke: transparent !important;
    transform: translateY(-0.5em);
  }
</style>
<g id="graph0" class="graph" transform="scale(1 1) rotate(0) translate(4 619.5)">
<title>G</title>
<polygon fill="white" stroke="none" points="-4,4 -4,-619.5 619.5,-619.5 619.5,4 -4,4"/>
<!-- Node.js Koa Server -->
<g id="node1" class="node">
<title>Node.js Koa Server</title>
<polygon fill="lightblue" stroke="black" points="376.25,-594 225.25,-594 225.25,-558 376.25,-558 376.25,-594"/>
<text xml:space="preserve" text-anchor="middle" x="300.75" y="-573.2" font-family="Times,serif" font-size="14.00">Node.js Koa Server</text>
<text xml:space="preserve" text-anchor="middle" x="300.75" y="-562.7" font-family="Times,serif" font-size="14.00">(Retired)</text>
</g>
<!-- Go Web Server &amp; Hub API -->
<g id="node2" class="node">
<title>Go Web Server &amp; Hub API</title>
<polygon fill="lightblue" stroke="black" points="481,-415 292.5,-415 292.5,-379 481,-379 481,-415"/>
<text xml:space="preserve" text-anchor="middle" x="386.75" y="-394.2" font-family="Times,serif" font-size="14.00">Go Web Server &amp;</text>
<text xml:space="preserve" text-anchor="middle" x="386.75" y="-383.7" font-family="Times,serif" font-size="14.00">Hub API (Single Binary)</text>
</g>
<!-- Node.js Koa Server&#45;&gt;Go Web Server &amp; Hub API -->
<g id="edge1" class="edge">
<title>Node.js Koa Server&#45;&gt;Go Web Server &amp; Hub API</title>
<path fill="none" stroke="black" d="M309.15,-557.71C324.12,-526.91 355.49,-462.34 373.42,-425.43"/>
<polygon fill="black" stroke="black" points="376.43,-427.25 377.65,-416.73 370.13,-424.19 376.43,-427.25"/>
<text xml:space="preserve" text-anchor="middle" x="385" y="-478.95" font-family="Times,serif" font-size="14.00">Replaced By</text>
</g>
<!-- Remote Git Workspaces -->
<g id="node4" class="node">
<title>Remote Git Workspaces</title>
<polygon fill="lightblue" stroke="black" points="173.5,-236 0,-236 0,-200 173.5,-200 173.5,-236"/>
<text xml:space="preserve" text-anchor="middle" x="86.75" y="-209.95" font-family="Times,serif" font-size="14.00">Remote Git Workspaces</text>
</g>
<!-- Go Web Server &amp; Hub API&#45;&gt;Remote Git Workspaces -->
<g id="edge3" class="edge">
<title>Go Web Server &amp; Hub API&#45;&gt;Remote Git Workspaces</title>
<path fill="none" stroke="black" d="M357.16,-378.54C302.69,-346.41 186.56,-277.89 125.74,-242"/>
<polygon fill="black" stroke="black" points="127.81,-239.16 117.42,-237.09 124.25,-245.19 127.81,-239.16"/>
<text xml:space="preserve" text-anchor="middle" x="272" y="-299.95" font-family="Times,serif" font-size="14.00">Manages</text>
</g>
<!-- Unified Scheduling System -->
<g id="node5" class="node">
<title>Unified Scheduling System</title>
<polygon fill="lightblue" stroke="black" points="395.5,-236 192,-236 192,-200 395.5,-200 395.5,-236"/>
<text xml:space="preserve" text-anchor="middle" x="293.75" y="-209.95" font-family="Times,serif" font-size="14.00">Unified Scheduling System</text>
</g>
<!-- Go Web Server &amp; Hub API&#45;&gt;Unified Scheduling System -->
<g id="edge4" class="edge">
<title>Go Web Server &amp; Hub API&#45;&gt;Unified Scheduling System</title>
<path fill="none" stroke="black" d="M377.43,-378.59C368.49,-361.86 354.64,-335.86 342.75,-313.25 330.93,-290.77 317.64,-265.19 307.89,-246.36"/>
<polygon fill="black" stroke="black" points="311.13,-245.01 303.43,-237.74 304.92,-248.23 311.13,-245.01"/>
<text xml:space="preserve" text-anchor="middle" x="380.25" y="-299.95" font-family="Times,serif" font-size="14.00">Integrates</text>
</g>
<!-- Agent State Model -->
<g id="node6" class="node">
<title>Agent State Model</title>
<polygon fill="lightblue" stroke="black" points="472,-57 253.5,-57 253.5,-21 472,-21 472,-57"/>
<text xml:space="preserve" text-anchor="middle" x="362.75" y="-30.95" font-family="Times,serif" font-size="14.00">Canonical Agent State Model</text>
</g>
<!-- Go Web Server &amp; Hub API&#45;&gt;Agent State Model -->
<g id="edge5" class="edge">
<title>Go Web Server &amp; Hub API&#45;&gt;Agent State Model</title>
<path fill="none" stroke="black" d="M395.29,-378.76C402.91,-362.38 413.48,-336.8 417.75,-313.25 434.08,-223.13 396.2,-116.92 375.34,-67.66"/>
<polygon fill="black" stroke="black" points="378.61,-66.39 371.42,-58.61 372.19,-69.17 378.61,-66.39"/>
<text xml:space="preserve" text-anchor="middle" x="446.39" y="-209.95" font-family="Times,serif" font-size="14.00">Manages</text>
</g>
<!-- Clients (Web UI, CLI) -->
<g id="node7" class="node">
<title>Clients (Web UI, CLI)</title>
<polygon fill="lightblue" stroke="black" points="615.5,-236 502,-236 502,-200 615.5,-200 615.5,-236"/>
<text xml:space="preserve" text-anchor="middle" x="558.75" y="-215.2" font-family="Times,serif" font-size="14.00">Clients</text>
<text xml:space="preserve" text-anchor="middle" x="558.75" y="-204.7" font-family="Times,serif" font-size="14.00">(Web UI, CLI)</text>
</g>
<!-- Go Web Server &amp; Hub API&#45;&gt;Clients (Web UI, CLI) -->
<g id="edge6" class="edge">
<title>Go Web Server &amp; Hub API&#45;&gt;Clients (Web UI, CLI)</title>
<path fill="none" stroke="black" d="M403.56,-378.71C434,-347.38 498.4,-281.11 533.92,-244.55"/>
<polygon fill="black" stroke="black" points="536.36,-247.06 540.82,-237.45 531.34,-242.18 536.36,-247.06"/>
<text xml:space="preserve" text-anchor="middle" x="529" y="-299.95" font-family="Times,serif" font-size="14.00">Serves /api/v1/</text>
</g>
<!-- NATS Message Broker -->
<g id="node3" class="node">
<title>NATS Message Broker</title>
<polygon fill="lightblue" stroke="black" points="553,-594 394.5,-594 394.5,-558 553,-558 553,-594"/>
<text xml:space="preserve" text-anchor="middle" x="473.75" y="-573.2" font-family="Times,serif" font-size="14.00">NATS Message Broker</text>
<text xml:space="preserve" text-anchor="middle" x="473.75" y="-562.7" font-family="Times,serif" font-size="14.00">(Retired)</text>
</g>
<!-- NATS Message Broker&#45;&gt;Go Web Server &amp; Hub API -->
<g id="edge2" class="edge">
<title>NATS Message Broker&#45;&gt;Go Web Server &amp; Hub API</title>
<path fill="none" stroke="black" d="M466.09,-557.69C457.69,-538.87 443.67,-507.98 430.75,-481.75 421.34,-462.66 410.18,-441.43 401.45,-425.12"/>
<polygon fill="black" stroke="black" points="404.65,-423.67 396.83,-416.52 398.48,-426.99 404.65,-423.67"/>
<text xml:space="preserve" text-anchor="middle" x="499.38" y="-478.95" font-family="Times,serif" font-size="14.00">Consolidated Into</text>
</g>
<!-- Unified Scheduling System&#45;&gt;Agent State Model -->
<g id="edge7" class="edge">
<title>Unified Scheduling System&#45;&gt;Agent State Model</title>
<path fill="none" stroke="black" d="M300.49,-199.71C312.45,-169.04 337.45,-104.89 351.87,-67.9"/>
<polygon fill="black" stroke="black" points="355.06,-69.36 355.43,-58.77 348.54,-66.82 355.06,-69.36"/>
<text xml:space="preserve" text-anchor="middle" x="358.25" y="-120.95" font-family="Times,serif" font-size="14.00">Monitors</text>
</g>
</g>
</svg>
