<?xml version="1.0" encoding="UTF-8" standalone="no"?>
<!DOCTYPE svg PUBLIC "-//W3C//DTD SVG 1.1//EN"
 "http://www.w3.org/Graphics/SVG/1.1/DTD/svg11.dtd">
<!-- Generated by graphviz version 2.44.1 (20201121.0304)
 -->
<!-- Title: G Pages: 1 -->
<svg width="475pt" height="374pt"
 viewBox="0.00 0.00 475.00 374.00" xmlns="http://www.w3.org/2000/svg" xmlns:xlink="http://www.w3.org/1999/xlink"><style>
  * {
    fill: transparent !important;
    stroke: #1f1f1f !important;
    stroke-width: 1 !important;
  }
  polygon:not(.cluster *, .node *, .edge *, text) {
    stroke: transparent !important;
  }
  text {
    font-size: 10px !important;
    font-family: monospace !important;
    fill: #1f1f1f !important;
    stroke: transparent !important;
    transform: translateY(-0.5em);
  }
</style>
<g id="graph0" class="graph" transform="scale(1 1) rotate(0) translate(4 370)">
<title>G</title>
<polygon fill="white" stroke="none" points="-4,4 -4,-370 470.63,-370 470.63,4 -4,4"/>
<!-- Scion CLI -->
<g id="node1" class="node">
<title>Scion CLI</title>
<g id="a_node1"><a xlink:title="User interface for managing agents and sandboxes.">
<polygon fill="lightblue" stroke="black" points="297.88,-366 214.38,-366 214.38,-330 297.88,-330 297.88,-366"/>
<text xml:space="preserve" text-anchor="middle" x="256.13" y="-339.95" font-family="Times,serif" font-size="14.00">Scion CLI</text>
</a>
</g>
</g>
<!-- Sandbox Runtime -->
<g id="node2" class="node">
<title>Sandbox Runtime</title>
<g id="a_node2"><a xlink:title="Manages container execution (Docker, Podman, Apple Container).">
<polygon fill="lightblue" stroke="black" points="233.38,-201 104.88,-201 104.88,-165 233.38,-165 233.38,-201"/>
<text xml:space="preserve" text-anchor="middle" x="169.13" y="-174.95" font-family="Times,serif" font-size="14.00">Sandbox Runtime</text>
</a>
</g>
</g>
<!-- Scion CLI&#45;&gt;Sandbox Runtime -->
<g id="edge1" class="edge">
<title>Scion CLI&#45;&gt;Sandbox Runtime</title>
<path fill="none" stroke="black" d="M214.11,-338.82C184.05,-330.53 145.66,-314.42 126.63,-284 111.9,-260.46 128.17,-230.92 144.65,-210.07"/>
<polygon fill="black" stroke="black" points="147.18,-212.51 150.91,-202.59 141.81,-208.01 147.18,-212.51"/>
<text xml:space="preserve" text-anchor="middle" x="152.88" y="-257.95" font-family="Times,serif" font-size="14.00">manages</text>
</g>
<!-- scion&#45;agent.json -->
<g id="node7" class="node">
<title>scion&#45;agent.json</title>
<g id="a_node7"><a xlink:title="Agent configuration, including runtime and mount settings.">
<polygon fill="lightblue" stroke="black" points="324.13,-284 188.13,-284 188.13,-248 324.13,-248 324.13,-284"/>
<text xml:space="preserve" text-anchor="middle" x="256.13" y="-257.95" font-family="Times,serif" font-size="14.00">scion&#45;agent.json</text>
</a>
</g>
</g>
<!-- Scion CLI&#45;&gt;scion&#45;agent.json -->
<g id="edge6" class="edge">
<title>Scion CLI&#45;&gt;scion&#45;agent.json</title>
<path fill="none" stroke="black" d="M256.13,-329.64C256.13,-319.68 256.13,-306.93 256.13,-295.54"/>
<polygon fill="black" stroke="black" points="259.63,-295.84 256.13,-285.84 252.63,-295.84 259.63,-295.84"/>
<text xml:space="preserve" text-anchor="middle" x="293.63" y="-298.95" font-family="Times,serif" font-size="14.00">configures</text>
</g>
<!-- Apple Container CLI -->
<g id="node3" class="node">
<title>Apple Container CLI</title>
<g id="a_node3"><a xlink:title="macOS native container runtime (Virtualization.framework).">
<polygon fill="lightblue" stroke="black" points="308.38,-119 149.88,-119 149.88,-83 308.38,-83 308.38,-119"/>
<text xml:space="preserve" text-anchor="middle" x="229.13" y="-92.95" font-family="Times,serif" font-size="14.00">Apple Container CLI</text>
</a>
</g>
</g>
<!-- Sandbox Runtime&#45;&gt;Apple Container CLI -->
<g id="edge2" class="edge">
<title>Sandbox Runtime&#45;&gt;Apple Container CLI</title>
<path fill="none" stroke="black" d="M184.22,-164.58C188.8,-159.12 193.77,-153.01 198.13,-147.25 202.58,-141.37 207.18,-134.91 211.42,-128.75"/>
<polygon fill="black" stroke="black" points="214.16,-130.95 216.88,-120.71 208.37,-127.02 214.16,-130.95"/>
<text xml:space="preserve" text-anchor="middle" x="261.49" y="-133.95" font-family="Times,serif" font-size="14.00">uses (on macOS)</text>
</g>
<!-- Agent Container -->
<g id="node4" class="node">
<title>Agent Container</title>
<g id="a_node4"><a xlink:title="Isolated environment running the Gemini CLI.">
<polygon fill="lightblue" stroke="black" points="129.38,-119 0.88,-119 0.88,-83 129.38,-83 129.38,-119"/>
<text xml:space="preserve" text-anchor="middle" x="65.13" y="-92.95" font-family="Times,serif" font-size="14.00">Agent Container</text>
</a>
</g>
</g>
<!-- Sandbox Runtime&#45;&gt;Agent Container -->
<g id="edge3" class="edge">
<title>Sandbox Runtime&#45;&gt;Agent Container</title>
<path fill="none" stroke="black" d="M104.71,-168.62C93.16,-163.61 82.24,-156.72 74.13,-147.25 70.13,-142.58 67.72,-136.64 66.31,-130.61"/>
<polygon fill="black" stroke="black" points="69.77,-130.12 64.88,-120.72 62.85,-131.12 69.77,-130.12"/>
<text xml:space="preserve" text-anchor="middle" x="134.13" y="-133.95" font-family="Times,serif" font-size="14.00">deploys/controls</text>
</g>
<!-- Tmux Session -->
<g id="node5" class="node">
<title>Tmux Session</title>
<g id="a_node5"><a xlink:title="Enables persistent, re&#45;attachable sessions within containers.">
<polygon fill="lightblue" stroke="black" points="365.13,-36 259.13,-36 259.13,0 365.13,0 365.13,-36"/>
<text xml:space="preserve" text-anchor="middle" x="312.13" y="-9.95" font-family="Times,serif" font-size="14.00">Tmux Session</text>
</a>
</g>
</g>
<!-- Agent Container&#45;&gt;Tmux Session -->
<g id="edge4" class="edge">
<title>Agent Container&#45;&gt;Tmux Session</title>
<path fill="none" stroke="black" d="M129.81,-85.51C133.64,-84.66 137.44,-83.82 141.13,-83 179.33,-74.56 190.41,-77.74 227.13,-64.25 243.17,-58.36 259.95,-49.96 274.32,-42"/>
<polygon fill="black" stroke="black" points="276.04,-45.05 283,-37.06 272.58,-38.96 276.04,-45.05"/>
<text xml:space="preserve" text-anchor="middle" x="270.15" y="-50.95" font-family="Times,serif" font-size="14.00">hosts</text>
</g>
<!-- Host Filesystem -->
<g id="node6" class="node">
<title>Host Filesystem</title>
<g id="a_node6"><a xlink:title="Host machine&#39;s file system, providing workspace mounts.">
<polygon fill="lightblue" stroke="black" points="129.38,-36 0.88,-36 0.88,0 129.38,0 129.38,-36"/>
<text xml:space="preserve" text-anchor="middle" x="65.13" y="-9.95" font-family="Times,serif" font-size="14.00">Host Filesystem</text>
</a>
</g>
</g>
<!-- Agent Container&#45;&gt;Host Filesystem -->
<g id="edge5" class="edge">
<title>Agent Container&#45;&gt;Host Filesystem</title>
<path fill="none" stroke="black" d="M65.13,-82.82C65.13,-72.69 65.13,-59.6 65.13,-47.92"/>
<polygon fill="black" stroke="black" points="68.63,-47.95 65.13,-37.95 61.63,-47.95 68.63,-47.95"/>
<text xml:space="preserve" text-anchor="middle" x="143.88" y="-50.95" font-family="Times,serif" font-size="14.00">mounts workspace from</text>
</g>
<!-- Tmux Session&#45;&gt;Scion CLI -->
<g id="edge8" class="edge">
<title>Tmux Session&#45;&gt;Scion CLI</title>
<path fill="none" stroke="black" d="M327.3,-36.32C339.33,-51.88 354.13,-75.92 354.13,-100 354.13,-267 354.13,-267 354.13,-267 354.13,-288.81 350.43,-296.7 335.13,-312.25 327.73,-319.78 318.41,-325.8 308.79,-330.57"/>
<polygon fill="black" stroke="black" points="307.39,-327.36 299.7,-334.65 310.26,-333.75 307.39,-327.36"/>
<text xml:space="preserve" text-anchor="middle" x="410.38" y="-174.95" font-family="Times,serif" font-size="14.00">re&#45;attaches via</text>
</g>
<!-- scion&#45;agent.json&#45;&gt;Sandbox Runtime -->
<g id="edge7" class="edge">
<title>scion&#45;agent.json&#45;&gt;Sandbox Runtime</title>
<path fill="none" stroke="black" d="M237.68,-247.82C225.54,-236.52 209.44,-221.53 195.9,-208.92"/>
<polygon fill="black" stroke="black" points="198.67,-206.72 188.96,-202.46 193.9,-211.84 198.67,-206.72"/>
<text xml:space="preserve" text-anchor="middle" x="252.74" y="-215.95" font-family="Times,serif" font-size="14.00">configures</text>
</g>
</g>
</svg>
