<?xml version="1.0" encoding="UTF-8" standalone="no"?>
<!DOCTYPE svg PUBLIC "-//W3C//DTD SVG 1.1//EN"
 "http://www.w3.org/Graphics/SVG/1.1/DTD/svg11.dtd">
<!-- Generated by graphviz version 2.44.1 (20201121.0304)
 -->
<!-- Title: G Pages: 1 -->
<svg width="710pt" height="660pt"
 viewBox="0.00 0.00 710.00 660.00" xmlns="http://www.w3.org/2000/svg" xmlns:xlink="http://www.w3.org/1999/xlink"><style>
  * {
    fill: transparent !important;
    stroke: #1f1f1f !important;
    stroke-width: 1 !important;
  }
  polygon:not(.cluster *, .node *, .edge *, text) {
    stroke: transparent !important;
  }
  text {
    font-size: 10px !important;
    font-family: monospace !important;
    fill: #1f1f1f !important;
    stroke: transparent !important;
    transform: translateY(-0.5em);
  }
</style>
<g id="graph0" class="graph" transform="scale(1 1) rotate(0) translate(4 656)">
<title>G</title>
<polygon fill="white" stroke="none" points="-4,4 -4,-656 705.68,-656 705.68,4 -4,4"/>
<!-- TemplateDir -->
<g id="node1" class="node">
<title>TemplateDir</title>
<polygon fill="lightblue" stroke="black" points="299.25,-627 148.25,-627 148.25,-591 299.25,-591 299.25,-627"/>
<text xml:space="preserve" text-anchor="middle" x="223.75" y="-600.95" font-family="Helvetica,sans-Serif" font-size="14.00">Template Directory</text>
</g>
<!-- FabricAgentYaml -->
<g id="node2" class="node">
<title>FabricAgentYaml</title>
<polygon fill="lightblue" stroke="black" points="245.75,-453 109.75,-453 109.75,-417 245.75,-417 245.75,-453"/>
<text xml:space="preserve" text-anchor="middle" x="177.75" y="-426.95" font-family="Helvetica,sans-Serif" font-size="14.00">fabric&#45;agent.yaml</text>
</g>
<!-- TemplateDir&#45;&gt;FabricAgentYaml -->
<g id="edge1" class="edge">
<title>TemplateDir&#45;&gt;FabricAgentYaml</title>
<path fill="none" stroke="#263238" d="M219.09,-590.56C211.13,-560.81 194.87,-500.01 185.28,-464.17"/>
<polygon fill="#263238" stroke="#263238" points="188.78,-463.7 182.82,-454.95 182.02,-465.51 188.78,-463.7"/>
</g>
<!-- AgentsMd -->
<g id="node3" class="node">
<title>AgentsMd</title>
<polygon fill="lightblue" stroke="black" points="83.5,-453 0,-453 0,-417 83.5,-417 83.5,-453"/>
<text xml:space="preserve" text-anchor="middle" x="41.75" y="-426.95" font-family="Helvetica,sans-Serif" font-size="14.00">agents.md</text>
</g>
<!-- TemplateDir&#45;&gt;AgentsMd -->
<g id="edge2" class="edge">
<title>TemplateDir&#45;&gt;AgentsMd</title>
<path fill="none" stroke="#263238" d="M205.3,-590.56C172.87,-559.91 105.55,-496.3 68.19,-460.98"/>
<polygon fill="#263238" stroke="#263238" points="71.02,-458.85 61.35,-454.52 66.22,-463.94 71.02,-458.85"/>
</g>
<!-- SystemPromptMd -->
<g id="node4" class="node">
<title>SystemPromptMd</title>
<polygon fill="lightblue" stroke="black" points="652,-453 433.5,-453 433.5,-417 652,-417 652,-453"/>
<text xml:space="preserve" text-anchor="middle" x="542.75" y="-426.95" font-family="Helvetica,sans-Serif" font-size="14.00">system&#45;prompt.md (Optional)</text>
</g>
<!-- TemplateDir&#45;&gt;SystemPromptMd -->
<g id="edge3" class="edge">
<title>TemplateDir&#45;&gt;SystemPromptMd</title>
<path fill="none" stroke="#263238" d="M256.09,-590.56C314.13,-559.27 435.9,-493.61 500.47,-458.8"/>
<polygon fill="#263238" stroke="#263238" points="501.85,-462.03 508.99,-454.2 498.53,-455.87 501.85,-462.03"/>
</g>
<!-- SkillsDir -->
<g id="node5" class="node">
<title>SkillsDir</title>
<polygon fill="lightblue" stroke="black" points="415.25,-453 264.25,-453 264.25,-417 415.25,-417 415.25,-453"/>
<text xml:space="preserve" text-anchor="middle" x="339.75" y="-426.95" font-family="Helvetica,sans-Serif" font-size="14.00">skills/ (Optional)</text>
</g>
<!-- TemplateDir&#45;&gt;SkillsDir -->
<g id="edge4" class="edge">
<title>TemplateDir&#45;&gt;SkillsDir</title>
<path fill="none" stroke="#263238" d="M235.51,-590.56C255.83,-560.43 297.65,-498.43 321.68,-462.79"/>
<polygon fill="#263238" stroke="#263238" points="324.42,-464.99 327.11,-454.74 318.62,-461.07 324.42,-464.99"/>
</g>
<!-- OrchestratorAgent -->
<g id="node6" class="node">
<title>OrchestratorAgent</title>
<polygon fill="lightblue" stroke="black" points="423.25,-257 272.25,-257 272.25,-221 423.25,-221 423.25,-257"/>
<text xml:space="preserve" text-anchor="middle" x="347.75" y="-230.95" font-family="Helvetica,sans-Serif" font-size="14.00">Orchestrator Agent</text>
</g>
<!-- FabricAgentYaml&#45;&gt;OrchestratorAgent -->
<g id="edge6" class="edge">
<title>FabricAgentYaml&#45;&gt;OrchestratorAgent</title>
<path fill="none" stroke="#263238" d="M184.25,-416.77C192.88,-395.33 209.67,-358.3 231.75,-331.75 254.22,-304.74 285.81,-280.39 310.35,-263.57"/>
<polygon fill="#263238" stroke="#263238" points="312.1,-266.61 318.46,-258.13 308.2,-260.8 312.1,-266.61"/>
<text xml:space="preserve" text-anchor="middle" x="284.25" y="-332.75" font-family="Helvetica,sans-Serif" font-size="10.00">defines config</text>
</g>
<!-- WorkerAgents -->
<g id="node7" class="node">
<title>WorkerAgents</title>
<polygon fill="lightblue" stroke="black" points="366,-61 237.5,-61 237.5,-25 366,-25 366,-61"/>
<text xml:space="preserve" text-anchor="middle" x="301.75" y="-34.95" font-family="Helvetica,sans-Serif" font-size="14.00">Worker Agent(s)</text>
</g>
<!-- FabricAgentYaml&#45;&gt;WorkerAgents -->
<g id="edge7" class="edge">
<title>FabricAgentYaml&#45;&gt;WorkerAgents</title>
<path fill="none" stroke="#263238" d="M171.4,-416.55C158.89,-379.37 134.31,-290.13 158.75,-221 181.2,-157.48 237.21,-100.04 272.09,-68.77"/>
<polygon fill="#263238" stroke="#263238" points="274.14,-71.62 279.34,-62.39 269.52,-66.37 274.14,-71.62"/>
<text xml:space="preserve" text-anchor="middle" x="211.25" y="-234.75" font-family="Helvetica,sans-Serif" font-size="10.00">defines config</text>
</g>
<!-- AgentsMd&#45;&gt;OrchestratorAgent -->
<g id="edge8" class="edge">
<title>AgentsMd&#45;&gt;OrchestratorAgent</title>
<path fill="none" stroke="#263238" d="M51.57,-416.52C64.94,-394.13 90.84,-355.39 122.25,-331.75 166.1,-298.75 223.48,-275.62 269.38,-260.84"/>
<polygon fill="#263238" stroke="#263238" points="270.25,-264.24 278.74,-257.9 268.15,-257.56 270.25,-264.24"/>
<text xml:space="preserve" text-anchor="middle" x="171" y="-332.75" font-family="Helvetica,sans-Serif" font-size="10.00">sets behavior</text>
</g>
<!-- AgentsMd&#45;&gt;WorkerAgents -->
<g id="edge9" class="edge">
<title>AgentsMd&#45;&gt;WorkerAgents</title>
<path fill="none" stroke="#263238" d="M37.48,-416.65C29.08,-378.53 14.12,-285.72 49.25,-221 91.29,-143.55 183.67,-92.52 244.27,-65.95"/>
<polygon fill="#263238" stroke="#263238" points="245.62,-69.18 253.43,-62.03 242.86,-62.75 245.62,-69.18"/>
<text xml:space="preserve" text-anchor="middle" x="98" y="-234.75" font-family="Helvetica,sans-Serif" font-size="10.00">sets behavior</text>
</g>
<!-- SystemPromptMd&#45;&gt;OrchestratorAgent -->
<g id="edge10" class="edge">
<title>SystemPromptMd&#45;&gt;OrchestratorAgent</title>
<path fill="none" stroke="#263238" d="M527.79,-416.51C509.82,-395.75 478.5,-360.35 449.75,-331.75 426.06,-308.19 397.72,-282.91 376.93,-264.86"/>
<polygon fill="#263238" stroke="#263238" points="379.23,-262.23 369.38,-258.35 374.66,-267.53 379.23,-262.23"/>
<text xml:space="preserve" text-anchor="middle" x="510.14" y="-332.75" font-family="Helvetica,sans-Serif" font-size="10.00">frames persona</text>
</g>
<!-- SystemPromptMd&#45;&gt;WorkerAgents -->
<g id="edge11" class="edge">
<title>SystemPromptMd&#45;&gt;WorkerAgents</title>
<path fill="none" stroke="#263238" d="M553.56,-416.62C575.56,-378.83 620.61,-287.27 585.75,-221 542.43,-138.64 442.13,-90.05 373.12,-65.21"/>
<polygon fill="#263238" stroke="#263238" points="374.35,-61.94 363.75,-61.93 372.03,-68.54 374.35,-61.94"/>
<text xml:space="preserve" text-anchor="middle" x="649.18" y="-234.75" font-family="Helvetica,sans-Serif" font-size="10.00">frames persona</text>
</g>
<!-- SkillsDir&#45;&gt;OrchestratorAgent -->
<g id="edge13" class="edge">
<title>SkillsDir&#45;&gt;OrchestratorAgent</title>
<path fill="none" stroke="#263238" d="M339.57,-416.62C339.44,-396.27 339.47,-361.55 340.75,-331.75 341.66,-310.51 343.52,-286.56 345.09,-268.46"/>
<polygon fill="#263238" stroke="#263238" points="348.55,-269.01 345.96,-258.74 341.58,-268.38 348.55,-269.01"/>
<text xml:space="preserve" text-anchor="middle" x="393.25" y="-332.75" font-family="Helvetica,sans-Serif" font-size="10.00">provides tools</text>
</g>
<!-- SkillsDir&#45;&gt;WorkerAgents -->
<g id="edge12" class="edge">
<title>SkillsDir&#45;&gt;WorkerAgents</title>
<path fill="none" stroke="#263238" d="M371.92,-416.6C397.24,-400.9 430.68,-375.23 445.75,-342.25 483.9,-258.78 489.89,-216.22 445.75,-135.75 428.01,-103.41 393.49,-80.83 362.7,-66.17"/>
<polygon fill="#263238" stroke="#263238" points="364.36,-63.08 353.81,-62.12 361.46,-69.45 364.36,-63.08"/>
<text xml:space="preserve" text-anchor="middle" x="529.15" y="-234.75" font-family="Helvetica,sans-Serif" font-size="10.00">provides tools</text>
</g>
<!-- OrchestratorAgent&#45;&gt;WorkerAgents -->
<g id="edge5" class="edge">
<title>OrchestratorAgent&#45;&gt;WorkerAgents</title>
<path fill="none" stroke="#263238" d="M336.43,-220.6C325.54,-202.76 309.79,-173.81 303.25,-146.25 297.46,-121.85 297.6,-93.24 298.89,-72.5"/>
<polygon fill="#263238" stroke="#263238" points="302.36,-73.03 299.63,-62.8 295.38,-72.5 302.36,-73.03"/>
<text xml:space="preserve" text-anchor="middle" x="374.5" y="-136.75" font-family="Helvetica,sans-Serif" font-size="10.00">manages/coordinates</text>
</g>
</g>
</svg>
