<?xml version="1.0" encoding="UTF-8" standalone="no"?>
<!DOCTYPE svg PUBLIC "-//W3C//DTD SVG 1.1//EN"
 "http://www.w3.org/Graphics/SVG/1.1/DTD/svg11.dtd">
<!-- Generated by graphviz version 2.44.1 (20201121.0304)
 -->
<!-- Title: G Pages: 1 -->
<svg width="392pt" height="392pt"
 viewBox="0.00 0.00 392.00 392.00" xmlns="http://www.w3.org/2000/svg" xmlns:xlink="http://www.w3.org/1999/xlink"><style>
  * {
    fill: transparent !important;
    stroke: #1f1f1f !important;
    stroke-width: 1 !important;
  }
  polygon:not(.cluster *, .node *, .edge *, text) {
    stroke: transparent !important;
  }
  text {
    font-size: 10px !important;
    font-family: monospace !important;
    fill: #1f1f1f !important;
    stroke: transparent !important;
    transform: translateY(-0.5em);
  }
</style>
<g id="graph0" class="graph" transform="scale(1 1) rotate(0) translate(4 387.5)">
<title>G</title>
<polygon fill="white" stroke="none" points="-4,4 -4,-387.5 387.5,-387.5 387.5,4 -4,4"/>
<!-- User identifies bug -->
<g id="node1" class="node">
<title>User identifies bug</title>
<polygon fill="lightblue" stroke="black" points="271,-374 112.5,-374 112.5,-338 271,-338 271,-374"/>
<text xml:space="preserve" text-anchor="middle" x="191.75" y="-347.95" font-family="Times,serif" font-size="14.00">User identifies bug</text>
</g>
<!-- User fills out bug_report.md template -->
<g id="node2" class="node">
<title>User fills out bug_report.md template</title>
<polygon fill="lightblue" stroke="black" points="338.5,-265 45,-265 45,-229 338.5,-229 338.5,-265"/>
<text xml:space="preserve" text-anchor="middle" x="191.75" y="-238.95" font-family="Times,serif" font-size="14.00">User fills out bug_report.md template</text>
</g>
<!-- User identifies bug&#45;&gt;User fills out bug_report.md template -->
<g id="edge1" class="edge">
<title>User identifies bug&#45;&gt;User fills out bug_report.md template</title>
<path fill="none" stroke="black" d="M191.75,-337.81C191.75,-321.27 191.75,-295.98 191.75,-276.44"/>
<polygon fill="black" stroke="black" points="195.25,-276.66 191.75,-266.66 188.25,-276.66 195.25,-276.66"/>
</g>
<!-- Gather Bug Information -->
<g id="node3" class="node">
<title>Gather Bug Information</title>
<polygon fill="lightblue" stroke="black" points="383.5,-155 0,-155 0,-119 383.5,-119 383.5,-155"/>
<text xml:space="preserve" text-anchor="middle" x="191.75" y="-134.2" font-family="Times,serif" font-size="14.00">Gather Bug Information</text>
<text xml:space="preserve" text-anchor="middle" x="191.75" y="-123.7" font-family="Times,serif" font-size="14.00">(Description, Steps, Behavior, Logs, Environment)</text>
</g>
<!-- User fills out bug_report.md template&#45;&gt;Gather Bug Information -->
<g id="edge2" class="edge">
<title>User fills out bug_report.md template&#45;&gt;Gather Bug Information</title>
<path fill="none" stroke="black" d="M191.75,-228.65C191.75,-211.96 191.75,-186.42 191.75,-166.7"/>
<polygon fill="black" stroke="black" points="195.25,-166.82 191.75,-156.82 188.25,-166.82 195.25,-166.82"/>
</g>
<!-- Submission to Issue Tracker -->
<g id="node4" class="node">
<title>Submission to Issue Tracker</title>
<polygon fill="lightblue" stroke="black" points="301,-45 82.5,-45 82.5,-9 301,-9 301,-45"/>
<text xml:space="preserve" text-anchor="middle" x="191.75" y="-18.95" font-family="Times,serif" font-size="14.00">Submission to Issue Tracker</text>
</g>
<!-- Gather Bug Information&#45;&gt;Submission to Issue Tracker -->
<g id="edge3" class="edge">
<title>Gather Bug Information&#45;&gt;Submission to Issue Tracker</title>
<path fill="none" stroke="black" d="M191.75,-118.65C191.75,-101.96 191.75,-76.42 191.75,-56.7"/>
<polygon fill="black" stroke="black" points="195.25,-56.82 191.75,-46.82 188.25,-56.82 195.25,-56.82"/>
</g>
</g>
</svg>
