<?xml version="1.0" encoding="UTF-8" standalone="no"?>
<!DOCTYPE svg PUBLIC "-//W3C//DTD SVG 1.1//EN"
 "http://www.w3.org/Graphics/SVG/1.1/DTD/svg11.dtd">
<!-- Generated by graphviz version 2.44.1 (20201121.0304)
 -->
<!-- Title: G Pages: 1 -->
<svg width="949pt" height="785pt"
 viewBox="0.00 0.00 949.00 785.00" xmlns="http://www.w3.org/2000/svg" xmlns:xlink="http://www.w3.org/1999/xlink"><style>
  * {
    fill: transparent !important;
    stroke: #1f1f1f !important;
    stroke-width: 1 !important;
  }
  polygon:not(.cluster *, .node *, .edge *, text) {
    stroke: transparent !important;
  }
  text {
    font-size: 10px !important;
    font-family: monospace !important;
    fill: #1f1f1f !important;
    stroke: transparent !important;
    transform: translateY(-0.5em);
  }
</style>
<g id="graph0" class="graph" transform="scale(1 1) rotate(0) translate(4 780.5)">
<title>G</title>
<polygon fill="white" stroke="none" points="-4,4 -4,-780.5 944.75,-780.5 944.75,4 -4,4"/>
<!-- scion_harness.py (Canonical Library) -->
<g id="node1" class="node">
<title>scion_harness.py (Canonical Library)</title>
<polygon fill="lightblue" stroke="black" points="590.75,-769 454.75,-769 454.75,-733 590.75,-733 590.75,-769"/>
<text xml:space="preserve" text-anchor="middle" x="522.75" y="-748.2" font-family="Times,serif" font-size="14.00">scion_harness.py</text>
<text xml:space="preserve" text-anchor="middle" x="522.75" y="-737.7" font-family="Times,serif" font-size="14.00">(Shared Library)</text>
</g>
<!-- gen/main.go (Vendor Tool) -->
<g id="node2" class="node">
<title>gen/main.go (Vendor Tool)</title>
<polygon fill="lightblue" stroke="black" points="486.75,-649 350.75,-649 350.75,-613 486.75,-613 486.75,-649"/>
<text xml:space="preserve" text-anchor="middle" x="418.75" y="-628.2" font-family="Times,serif" font-size="14.00">gen/main.go</text>
<text xml:space="preserve" text-anchor="middle" x="418.75" y="-617.7" font-family="Times,serif" font-size="14.00">(Vendoring Tool)</text>
</g>
<!-- scion_harness.py (Canonical Library)&#45;&gt;gen/main.go (Vendor Tool) -->
<g id="edge1" class="edge">
<title>scion_harness.py (Canonical Library)&#45;&gt;gen/main.go (Vendor Tool)</title>
<path fill="none" stroke="black" d="M471.55,-732.58C454.48,-724.23 437.07,-712.43 426.25,-696.25 419.32,-685.89 416.99,-672.43 416.57,-660.51"/>
<polygon fill="black" stroke="black" points="420.07,-660.83 416.68,-650.79 413.07,-660.75 420.07,-660.83"/>
<text xml:space="preserve" text-anchor="middle" x="467.5" y="-682.95" font-family="Times,serif" font-size="14.00">Vendored By</text>
</g>
<!-- Agent Harness (provision.py) -->
<g id="node3" class="node">
<title>Agent Harness (provision.py)</title>
<polygon fill="lightblue" stroke="black" points="727.5,-529.75 224,-529.75 224,-490.25 727.5,-490.25 727.5,-529.75"/>
<text xml:space="preserve" text-anchor="middle" x="475.75" y="-512.45" font-family="Times,serif" font-size="14.00">Agent&#45;Specific</text>
<text xml:space="preserve" text-anchor="middle" x="475.75" y="-501.95" font-family="Times,serif" font-size="14.00">provision.py Scripts</text>
<text xml:space="preserve" text-anchor="middle" x="475.75" y="-491.45" font-family="Times,serif" font-size="14.00">(e.g., Antigravity, Claude, Codex, Copilot, Gemini&#45;CLI, Opencode)</text>
</g>
<!-- gen/main.go (Vendor Tool)&#45;&gt;Agent Harness (provision.py) -->
<g id="edge2" class="edge">
<title>gen/main.go (Vendor Tool)&#45;&gt;Agent Harness (provision.py)</title>
<path fill="none" stroke="black" d="M423.81,-612.69C427.86,-599.75 434.03,-581.77 441.25,-566.75 445.64,-557.61 451.16,-548.07 456.48,-539.53"/>
<polygon fill="black" stroke="black" points="459.3,-541.62 461.75,-531.31 453.41,-537.84 459.3,-541.62"/>
<text xml:space="preserve" text-anchor="middle" x="475" y="-563.95" font-family="Times,serif" font-size="14.00">Generates</text>
</g>
<!-- Agent Harness (capture_auth.py) -->
<g id="node4" class="node">
<title>Agent Harness (capture_auth.py)</title>
<polygon fill="lightblue" stroke="black" points="563.5,-167.75 0,-167.75 0,-128.25 563.5,-128.25 563.5,-167.75"/>
<text xml:space="preserve" text-anchor="middle" x="281.75" y="-150.45" font-family="Times,serif" font-size="14.00">Agent&#45;Specific</text>
<text xml:space="preserve" text-anchor="middle" x="281.75" y="-139.95" font-family="Times,serif" font-size="14.00">capture_auth.py Scripts</text>
<text xml:space="preserve" text-anchor="middle" x="281.75" y="-129.45" font-family="Times,serif" font-size="14.00">(e.g., Antigravity, Claude, Codex, Copilot, Gemini&#45;CLI, Hermes, Opencode)</text>
</g>
<!-- gen/main.go (Vendor Tool)&#45;&gt;Agent Harness (capture_auth.py) -->
<g id="edge3" class="edge">
<title>gen/main.go (Vendor Tool)&#45;&gt;Agent Harness (capture_auth.py)</title>
<path fill="none" stroke="black" d="M350.6,-617.32C261.53,-598.78 116.75,-560.94 116.75,-511 116.75,-511 116.75,-511 116.75,-268 116.75,-221.02 161.31,-190.73 204.11,-172.47"/>
<polygon fill="black" stroke="black" points="205.29,-175.77 213.24,-168.77 202.65,-169.29 205.29,-175.77"/>
<text xml:space="preserve" text-anchor="middle" x="150.5" y="-379.95" font-family="Times,serif" font-size="14.00">Generates</text>
</g>
<!-- Agent Harness (provision.py)&#45;&gt;scion_harness.py (Canonical Library) -->
<g id="edge4" class="edge">
<title>Agent Harness (provision.py)&#45;&gt;scion_harness.py (Canonical Library)</title>
<path fill="none" stroke="black" d="M490.02,-530.08C496.94,-540.39 504.62,-553.66 508.75,-566.75 525.34,-619.38 525.9,-684.54 524.52,-721.27"/>
<polygon fill="black" stroke="black" points="521.04,-720.92 524.07,-731.07 528.03,-721.24 521.04,-720.92"/>
<text xml:space="preserve" text-anchor="middle" x="568.29" y="-622.95" font-family="Times,serif" font-size="14.00">Imports/Uses</text>
</g>
<!-- Auth Mechanisms -->
<g id="node5" class="node">
<title>Auth Mechanisms</title>
<polygon fill="lightblue" stroke="black" points="776.5,-44 423,-44 423,-8 776.5,-8 776.5,-44"/>
<text xml:space="preserve" text-anchor="middle" x="599.75" y="-23.2" font-family="Times,serif" font-size="14.00">Authentication Mechanisms</text>
<text xml:space="preserve" text-anchor="middle" x="599.75" y="-12.7" font-family="Times,serif" font-size="14.00">(API Key, OAuth Token, Vertex AI, Auth Files)</text>
</g>
<!-- Agent Harness (provision.py)&#45;&gt;Auth Mechanisms -->
<g id="edge6" class="edge">
<title>Agent Harness (provision.py)&#45;&gt;Auth Mechanisms</title>
<path fill="none" stroke="black" d="M581.13,-489.79C634.34,-473.37 687.75,-443.35 687.75,-389 687.75,-389 687.75,-389 687.75,-147 687.75,-108.18 657.42,-73.58 632.38,-51.63"/>
<polygon fill="black" stroke="black" points="634.86,-49.14 624.95,-45.38 630.35,-54.5 634.86,-49.14"/>
<text xml:space="preserve" text-anchor="middle" x="755.25" y="-260.95" font-family="Times,serif" font-size="14.00">Selects/Configures</text>
</g>
<!-- Configuration &amp; Outputs -->
<g id="node6" class="node">
<title>Configuration &amp; Outputs</title>
<polygon fill="lightblue" stroke="black" points="660,-406 291.5,-406 291.5,-370 660,-370 660,-406"/>
<text xml:space="preserve" text-anchor="middle" x="475.75" y="-385.2" font-family="Times,serif" font-size="14.00">Configuration &amp; Outputs</text>
<text xml:space="preserve" text-anchor="middle" x="475.75" y="-374.7" font-family="Times,serif" font-size="14.00">(e.g., .json, .toml, Instructions, MCP Servers)</text>
</g>
<!-- Agent Harness (provision.py)&#45;&gt;Configuration &amp; Outputs -->
<g id="edge7" class="edge">
<title>Agent Harness (provision.py)&#45;&gt;Configuration &amp; Outputs</title>
<path fill="none" stroke="black" d="M475.75,-489.99C475.75,-470.58 475.75,-440.22 475.75,-417.85"/>
<polygon fill="black" stroke="black" points="479.25,-417.88 475.75,-407.88 472.25,-417.88 479.25,-417.88"/>
<text xml:space="preserve" text-anchor="middle" x="502" y="-439.95" font-family="Times,serif" font-size="14.00">Manages</text>
</g>
<!-- Agent Harness (capture_auth.py)&#45;&gt;scion_harness.py (Canonical Library) -->
<g id="edge5" class="edge">
<title>Agent Harness (capture_auth.py)&#45;&gt;scion_harness.py (Canonical Library)</title>
<path fill="none" stroke="black" d="M450.93,-168.22C618.65,-189.65 850.75,-226.75 850.75,-268 850.75,-632 850.75,-632 850.75,-632 850.75,-684.61 699.46,-720.19 602.37,-737.6"/>
<polygon fill="black" stroke="black" points="601.84,-734.14 592.6,-739.32 603.06,-741.03 601.84,-734.14"/>
<text xml:space="preserve" text-anchor="middle" x="895.75" y="-439.95" font-family="Times,serif" font-size="14.00">Imports/Uses</text>
</g>
<!-- Agent Harness (capture_auth.py)&#45;&gt;Auth Mechanisms -->
<g id="edge8" class="edge">
<title>Agent Harness (capture_auth.py)&#45;&gt;Auth Mechanisms</title>
<path fill="none" stroke="black" d="M332.49,-127.85C389.85,-106.21 483.02,-71.05 542.82,-48.48"/>
<polygon fill="black" stroke="black" points="544.05,-51.76 552.17,-44.96 541.57,-45.21 544.05,-51.76"/>
<text xml:space="preserve" text-anchor="middle" x="480.28" y="-77.95" font-family="Times,serif" font-size="14.00">Captures</text>
</g>
<!-- Scion Tool -->
<g id="node7" class="node">
<title>Scion Tool</title>
<polygon fill="lightblue" stroke="black" points="519,-287 270.5,-287 270.5,-251 519,-251 519,-287"/>
<text xml:space="preserve" text-anchor="middle" x="394.75" y="-266.2" font-family="Times,serif" font-size="14.00">Scion Tool</text>
<text xml:space="preserve" text-anchor="middle" x="394.75" y="-255.7" font-family="Times,serif" font-size="14.00">(harness provision, secret set)</text>
</g>
<!-- Agent Harness (capture_auth.py)&#45;&gt;Scion Tool -->
<g id="edge9" class="edge">
<title>Agent Harness (capture_auth.py)&#45;&gt;Scion Tool</title>
<path fill="none" stroke="black" d="M276.95,-168.25C274.57,-182.37 273.83,-201.43 282.75,-215.25 291.14,-228.26 303.67,-238.12 317.36,-245.58"/>
<polygon fill="black" stroke="black" points="315.61,-248.62 326.12,-249.93 318.72,-242.35 315.61,-248.62"/>
<text xml:space="preserve" text-anchor="middle" x="327.75" y="-201.95" font-family="Times,serif" font-size="14.00">Delegates To</text>
</g>
<!-- Auth Mechanisms&#45;&gt;Scion Tool -->
<g id="edge10" class="edge">
<title>Auth Mechanisms&#45;&gt;Scion Tool</title>
<path fill="none" stroke="black" d="M600.86,-44.39C601.78,-72.91 599.78,-130.18 572.75,-167.75 545.77,-205.25 500.16,-230.54 461.87,-246.34"/>
<polygon fill="black" stroke="black" points="460.69,-243.04 452.69,-249.99 463.28,-249.55 460.69,-243.04"/>
<text xml:space="preserve" text-anchor="middle" x="621.16" y="-139.95" font-family="Times,serif" font-size="14.00">Utilizes</text>
</g>
<!-- Configuration &amp; Outputs&#45;&gt;Scion Tool -->
<g id="edge11" class="edge">
<title>Configuration &amp; Outputs&#45;&gt;Scion Tool</title>
<path fill="none" stroke="black" d="M463.8,-369.74C450.46,-350.47 428.71,-319.05 413.19,-296.63"/>
<polygon fill="black" stroke="black" points="416.18,-294.81 407.61,-288.58 410.43,-298.79 416.18,-294.81"/>
<text xml:space="preserve" text-anchor="middle" x="501.43" y="-320.95" font-family="Times,serif" font-size="14.00">Consumes/Produces</text>
</g>
<!-- Scion Tool&#45;&gt;Agent Harness (provision.py) -->
<g id="edge12" class="edge">
<title>Scion Tool&#45;&gt;Agent Harness (provision.py)</title>
<path fill="none" stroke="black" d="M341.05,-287.47C280.6,-310.15 195.12,-353.16 230.25,-406 257.38,-446.8 304.13,-471.47 349.61,-486.38"/>
<polygon fill="black" stroke="black" points="348.48,-489.69 359.06,-489.32 350.56,-483.01 348.48,-489.69"/>
<text xml:space="preserve" text-anchor="middle" x="256.5" y="-379.95" font-family="Times,serif" font-size="14.00">Invokes</text>
</g>
<!-- Scion Tool&#45;&gt;Agent Harness (capture_auth.py) -->
<g id="edge13" class="edge">
<title>Scion Tool&#45;&gt;Agent Harness (capture_auth.py)</title>
<path fill="none" stroke="black" d="M392.01,-250.6C389.13,-236.94 383.47,-218.06 372.75,-204.75 362.84,-192.44 349.43,-182.15 335.95,-173.89"/>
<polygon fill="black" stroke="black" points="337.9,-170.97 327.49,-168.99 334.39,-177.03 337.9,-170.97"/>
<text xml:space="preserve" text-anchor="middle" x="405.08" y="-201.95" font-family="Times,serif" font-size="14.00">Invokes</text>
</g>
</g>
</svg>
