<?xml version="1.0" encoding="UTF-8" standalone="no"?>
<!DOCTYPE svg PUBLIC "-//W3C//DTD SVG 1.1//EN"
 "http://www.w3.org/Graphics/SVG/1.1/DTD/svg11.dtd">
<!-- Generated by graphviz version 2.44.1 (20201121.0304)
 -->
<!-- Title: G Pages: 1 -->
<svg width="970pt" height="970pt"
 viewBox="0.00 0.00 970.00 970.00" xmlns="http://www.w3.org/2000/svg" xmlns:xlink="http://www.w3.org/1999/xlink"><style>
  * {
    fill: transparent !important;
    stroke: #1f1f1f !important;
    stroke-width: 1 !important;
  }
  polygon:not(.cluster *, .node *, .edge *, text) {
    stroke: transparent !important;
  }
  text {
    font-size: 10px !important;
    font-family: monospace !important;
    fill: #1f1f1f !important;
    stroke: transparent !important;
    transform: translateY(-0.5em);
  }
</style>
<g id="graph0" class="graph" transform="scale(1 1) rotate(0) translate(4 965.75)">
<title>G</title>
<polygon fill="white" stroke="none" points="-4,4 -4,-965.75 965.75,-965.75 965.75,4 -4,4"/>
<!-- Agent -->
<g id="node1" class="node">
<title>Agent</title>
<polygon fill="lightblue" stroke="black" points="643,-894 522,-894 522,-858 643,-858 643,-894"/>
<text xml:space="preserve" text-anchor="middle" x="582.5" y="-867.95" font-family="Times,serif" font-size="14.00">Agent Instance</text>
</g>
<!-- States -->
<g id="node2" class="node">
<title>States</title>
<polygon fill="lightblue" stroke="black" points="451,-499 0,-499 0,-463 451,-463 451,-499"/>
<text xml:space="preserve" text-anchor="middle" x="225.5" y="-472.95" font-family="Times,serif" font-size="14.00">Key States (WAITING_FOR_INPUT, COMPLETED, LIMITS_EXCEEDED)</text>
</g>
<!-- Agent&#45;&gt;States -->
<g id="edge1" class="edge">
<title>Agent&#45;&gt;States</title>
<path fill="none" stroke="black" d="M566.7,-857.61C509.9,-795.08 315.91,-581.53 248.67,-507.51"/>
<polygon fill="black" stroke="black" points="251.45,-505.36 242.14,-500.31 246.27,-510.07 251.45,-505.36"/>
<text xml:space="preserve" text-anchor="middle" x="475.25" y="-669.95" font-family="Times,serif" font-size="14.00">transitions through</text>
</g>
<!-- SoftDelete -->
<g id="node3" class="node">
<title>SoftDelete</title>
<polygon fill="lightblue" stroke="black" points="695.5,-499 469.5,-499 469.5,-463 695.5,-463 695.5,-499"/>
<text xml:space="preserve" text-anchor="middle" x="582.5" y="-472.95" font-family="Times,serif" font-size="14.00">Soft&#45;Delete (Archive, Purge)</text>
</g>
<!-- Agent&#45;&gt;SoftDelete -->
<g id="edge2" class="edge">
<title>Agent&#45;&gt;SoftDelete</title>
<path fill="none" stroke="black" d="M582.5,-857.61C582.5,-795.85 582.5,-586.72 582.5,-510.28"/>
<polygon fill="black" stroke="black" points="586,-510.71 582.5,-500.71 579,-510.71 586,-510.71"/>
<text xml:space="preserve" text-anchor="middle" x="616.25" y="-669.95" font-family="Times,serif" font-size="14.00">undergoes</text>
</g>
<!-- Isolation -->
<g id="node4" class="node">
<title>Isolation</title>
<polygon fill="lightblue" stroke="black" points="961.75,-499 713.25,-499 713.25,-463 961.75,-463 961.75,-499"/>
<text xml:space="preserve" text-anchor="middle" x="837.5" y="-472.95" font-family="Times,serif" font-size="14.00">Isolation (tmpfs Shadow Mounts)</text>
</g>
<!-- Agent&#45;&gt;Isolation -->
<g id="edge3" class="edge">
<title>Agent&#45;&gt;Isolation</title>
<path fill="none" stroke="black" d="M593.79,-857.61C634.19,-795.34 771.79,-583.26 820.36,-508.42"/>
<polygon fill="black" stroke="black" points="823.01,-510.76 825.52,-500.46 817.14,-506.95 823.01,-510.76"/>
<text xml:space="preserve" text-anchor="middle" x="747.5" y="-669.95" font-family="Times,serif" font-size="14.00">secured by</text>
</g>
<!-- LifecycleLogger -->
<g id="node5" class="node">
<title>LifecycleLogger</title>
<polygon fill="lightblue" stroke="black" points="695.5,-104 469.5,-104 469.5,-68 695.5,-68 695.5,-104"/>
<text xml:space="preserve" text-anchor="middle" x="582.5" y="-77.95" font-family="Times,serif" font-size="14.00">Structured Lifecycle Logging</text>
</g>
<!-- States&#45;&gt;LifecycleLogger -->
<g id="edge4" class="edge">
<title>States&#45;&gt;LifecycleLogger</title>
<path fill="none" stroke="black" d="M241.3,-462.61C298.1,-400.08 492.09,-186.53 559.33,-112.51"/>
<polygon fill="black" stroke="black" points="561.73,-115.07 565.86,-105.31 556.55,-110.36 561.73,-115.07"/>
<text xml:space="preserve" text-anchor="middle" x="430.25" y="-275.95" font-family="Times,serif" font-size="14.00">updates</text>
</g>
<!-- SoftDelete&#45;&gt;LifecycleLogger -->
<g id="edge5" class="edge">
<title>SoftDelete&#45;&gt;LifecycleLogger</title>
<path fill="none" stroke="black" d="M582.5,-462.61C582.5,-400.85 582.5,-191.72 582.5,-115.28"/>
<polygon fill="black" stroke="black" points="586,-115.71 582.5,-105.71 579,-115.71 586,-115.71"/>
<text xml:space="preserve" text-anchor="middle" x="635" y="-275.95" font-family="Times,serif" font-size="14.00">records events</text>
</g>
<!-- Isolation&#45;&gt;LifecycleLogger -->
<g id="edge6" class="edge">
<title>Isolation&#45;&gt;LifecycleLogger</title>
<path fill="none" stroke="black" d="M826.21,-462.61C785.81,-400.34 648.21,-188.26 599.64,-113.42"/>
<polygon fill="black" stroke="black" points="602.86,-111.95 594.48,-105.46 596.99,-115.76 602.86,-111.95"/>
<text xml:space="preserve" text-anchor="middle" x="755" y="-275.95" font-family="Times,serif" font-size="14.00">monitored by</text>
</g>
</g>
</svg>
