<?xml version="1.0" encoding="UTF-8" standalone="no"?>
<!DOCTYPE svg PUBLIC "-//W3C//DTD SVG 1.1//EN"
 "http://www.w3.org/Graphics/SVG/1.1/DTD/svg11.dtd">
<!-- Generated by graphviz version 2.44.1 (20201121.0304)
 -->
<!-- Title: G Pages: 1 -->
<svg width="783pt" height="783pt"
 viewBox="0.00 0.00 783.00 783.00" xmlns="http://www.w3.org/2000/svg" xmlns:xlink="http://www.w3.org/1999/xlink"><style>
  * {
    fill: transparent !important;
    stroke: #1f1f1f !important;
    stroke-width: 1 !important;
  }
  polygon:not(.cluster *, .node *, .edge *, text) {
    stroke: transparent !important;
  }
  text {
    font-size: 10px !important;
    font-family: monospace !important;
    fill: #1f1f1f !important;
    stroke: transparent !important;
    transform: translateY(-0.5em);
  }
</style>
<g id="graph0" class="graph" transform="scale(1 1) rotate(0) translate(4 779)">
<title>G</title>
<polygon fill="white" stroke="none" points="-4,4 -4,-779 779,-779 779,4 -4,4"/>
<g id="clust1" class="cluster">
<title>cluster_daemon</title>
<polygon fill="none" stroke="black" points="348,-23.13 348,-465.58 767,-465.58 767,-23.13 348,-23.13"/>
<text xml:space="preserve" text-anchor="middle" x="557.5" y="-448.28" font-family="Times,serif" font-size="14.00">Daemon Process Management</text>
</g>
<g id="clust2" class="cluster">
<title>cluster_onboarding</title>
<polygon fill="none" stroke="black" points="8,-261.71 8,-751.87 340,-751.87 340,-261.71 8,-261.71"/>
<text xml:space="preserve" text-anchor="middle" x="174" y="-734.57" font-family="Times,serif" font-size="14.00">Onboarding Wizard Logic</text>
</g>
<!-- OnboardingWizard -->
<g id="node1" class="node">
<title>OnboardingWizard</title>
<polygon fill="lightblue" stroke="black" points="332,-641.13 16,-641.13 16,-605.13 332,-605.13 332,-641.13"/>
<text xml:space="preserve" text-anchor="middle" x="174" y="-620.33" font-family="Times,serif" font-size="14.00">Onboarding Wizard</text>
<text xml:space="preserve" text-anchor="middle" x="174" y="-609.83" font-family="Times,serif" font-size="14.00">(web/src/components/pages/onboarding.ts)</text>
</g>
<!-- SessionStorage -->
<g id="node2" class="node">
<title>SessionStorage</title>
<polygon fill="lightblue" stroke="black" points="260.75,-355.13 87.25,-355.13 87.25,-319.13 260.75,-319.13 260.75,-355.13"/>
<text xml:space="preserve" text-anchor="middle" x="174" y="-334.33" font-family="Times,serif" font-size="14.00">sessionStorage</text>
<text xml:space="preserve" text-anchor="middle" x="174" y="-323.83" font-family="Times,serif" font-size="14.00">(&#39;onboardingStarted&#39;)</text>
</g>
<!-- OnboardingWizard&#45;&gt;SessionStorage -->
<g id="edge1" class="edge">
<title>OnboardingWizard&#45;&gt;SessionStorage</title>
<path fill="none" stroke="black" d="M174,-604.8C174,-557.46 174,-425.66 174,-366.96"/>
<polygon fill="black" stroke="black" points="177.5,-367.12 174,-357.12 170.5,-367.12 177.5,-367.12"/>
<text xml:space="preserve" text-anchor="middle" x="207.75" y="-496.08" font-family="Times,serif" font-size="14.00">uses/sets</text>
</g>
<!-- ServerStart -->
<g id="node3" class="node">
<title>ServerStart</title>
<polygon fill="lightblue" stroke="black" points="537.5,-355.13 356.5,-355.13 356.5,-319.13 537.5,-319.13 537.5,-355.13"/>
<text xml:space="preserve" text-anchor="middle" x="447" y="-334.33" font-family="Times,serif" font-size="14.00">scion server start</text>
<text xml:space="preserve" text-anchor="middle" x="447" y="-323.83" font-family="Times,serif" font-size="14.00">(cmd/server_daemon.go)</text>
</g>
<!-- OnboardingWizard&#45;&gt;ServerStart -->
<g id="edge5" class="edge">
<title>OnboardingWizard&#45;&gt;ServerStart</title>
<path fill="none" stroke="black" d="M190.67,-604.8C237.02,-556.57 367.67,-420.66 422.4,-363.73"/>
<polygon fill="black" stroke="black" points="424.75,-366.33 429.16,-356.7 419.7,-361.48 424.75,-366.33"/>
<text xml:space="preserve" text-anchor="middle" x="334.8" y="-496.08" font-family="Times,serif" font-size="14.00">initial setup</text>
</g>
<!-- PortProber -->
<g id="node4" class="node">
<title>PortProber</title>
<polygon fill="lightblue" stroke="black" points="574.25,-116.13 385.75,-116.13 385.75,-80.13 574.25,-80.13 574.25,-116.13"/>
<text xml:space="preserve" text-anchor="middle" x="480" y="-95.33" font-family="Times,serif" font-size="14.00">Port Conflict Detection</text>
<text xml:space="preserve" text-anchor="middle" x="480" y="-84.83" font-family="Times,serif" font-size="14.00">(pkg/daemon/daemon.go)</text>
</g>
<!-- ServerStart&#45;&gt;PortProber -->
<g id="edge2" class="edge">
<title>ServerStart&#45;&gt;PortProber</title>
<path fill="none" stroke="black" d="M449.43,-318.71C455.06,-278.22 469.09,-177.47 476.01,-127.77"/>
<polygon fill="black" stroke="black" points="479.45,-128.47 477.36,-118.09 472.52,-127.51 479.45,-128.47"/>
<text xml:space="preserve" text-anchor="middle" x="489.75" y="-209.08" font-family="Times,serif" font-size="14.00">invokes</text>
</g>
<!-- ServerStopForce -->
<g id="node5" class="node">
<title>ServerStopForce</title>
<polygon fill="lightblue" stroke="black" points="758.75,-355.13 555.25,-355.13 555.25,-319.13 758.75,-319.13 758.75,-355.13"/>
<text xml:space="preserve" text-anchor="middle" x="657" y="-334.33" font-family="Times,serif" font-size="14.00">scion server stop &#45;&#45;force</text>
<text xml:space="preserve" text-anchor="middle" x="657" y="-323.83" font-family="Times,serif" font-size="14.00">(cmd/server_daemon.go)</text>
</g>
<!-- ServerStopForce&#45;&gt;PortProber -->
<g id="edge3" class="edge">
<title>ServerStopForce&#45;&gt;PortProber</title>
<path fill="none" stroke="black" d="M643.98,-318.71C613.3,-277.62 536.26,-174.47 499.77,-125.6"/>
<polygon fill="black" stroke="black" points="502.73,-123.72 493.94,-117.8 497.12,-127.91 502.73,-123.72"/>
<text xml:space="preserve" text-anchor="middle" x="594.75" y="-209.08" font-family="Times,serif" font-size="14.00">invokes</text>
</g>
<!-- OSLevelTools -->
<g id="node6" class="node">
<title>OSLevelTools</title>
<polygon fill="lightblue" stroke="black" points="691.25,-116.13 622.75,-116.13 622.75,-80.13 691.25,-80.13 691.25,-116.13"/>
<text xml:space="preserve" text-anchor="middle" x="657" y="-90.08" font-family="Times,serif" font-size="14.00">lsof/ss</text>
</g>
<!-- ServerStopForce&#45;&gt;OSLevelTools -->
<g id="edge4" class="edge">
<title>ServerStopForce&#45;&gt;OSLevelTools</title>
<path fill="none" stroke="black" d="M657,-318.71C657,-278.3 657,-177.89 657,-128.09"/>
<polygon fill="black" stroke="black" points="660.5,-128.1 657,-118.1 653.5,-128.1 660.5,-128.1"/>
<text xml:space="preserve" text-anchor="middle" x="672" y="-209.08" font-family="Times,serif" font-size="14.00">uses</text>
</g>
</g>
</svg>
