<?xml version="1.0" encoding="UTF-8" standalone="no"?>
<!DOCTYPE svg PUBLIC "-//W3C//DTD SVG 1.1//EN"
 "http://www.w3.org/Graphics/SVG/1.1/DTD/svg11.dtd">
<!-- Generated by graphviz version 2.44.1 (20201121.0304)
 -->
<!-- Title: G Pages: 1 -->
<svg width="580pt" height="580pt"
 viewBox="0.00 0.00 580.00 580.00" xmlns="http://www.w3.org/2000/svg" xmlns:xlink="http://www.w3.org/1999/xlink"><style>
  * {
    fill: transparent !important;
    stroke: #1f1f1f !important;
    stroke-width: 1 !important;
  }
  polygon:not(.cluster *, .node *, .edge *, text) {
    stroke: transparent !important;
  }
  text {
    font-size: 10px !important;
    font-family: monospace !important;
    fill: #1f1f1f !important;
    stroke: transparent !important;
    transform: translateY(-0.5em);
  }
</style>
<g id="graph0" class="graph" transform="scale(1 1) rotate(0) translate(4 576.25)">
<title>G</title>
<polygon fill="white" stroke="none" points="-4,4 -4,-576.25 576.25,-576.25 576.25,4 -4,4"/>
<!-- NewManagerForProfile -->
<g id="node1" class="node">
<title>NewManagerForProfile</title>
<polygon fill="lightblue" stroke="black" points="430.75,-554 219.75,-554 219.75,-518 430.75,-518 430.75,-554"/>
<text xml:space="preserve" text-anchor="middle" x="325.25" y="-527.95" font-family="Times,serif" font-size="14.00">agent.NewManagerForProfile</text>
</g>
<!-- Manager -->
<g id="node2" class="node">
<title>Manager</title>
<polygon fill="lightblue" stroke="black" points="382,-387 268.5,-387 268.5,-351 382,-351 382,-387"/>
<text xml:space="preserve" text-anchor="middle" x="325.25" y="-366.2" font-family="Times,serif" font-size="14.00">agent.Manager</text>
<text xml:space="preserve" text-anchor="middle" x="325.25" y="-355.7" font-family="Times,serif" font-size="14.00">(Interface)</text>
</g>
<!-- NewManagerForProfile&#45;&gt;Manager -->
<g id="edge1" class="edge">
<title>NewManagerForProfile&#45;&gt;Manager</title>
<path fill="none" stroke="black" d="M325.25,-517.65C325.25,-489.31 325.25,-432.78 325.25,-398.48"/>
<polygon fill="black" stroke="black" points="328.75,-398.87 325.25,-388.87 321.75,-398.87 328.75,-398.87"/>
<text xml:space="preserve" text-anchor="middle" x="351.5" y="-444.95" font-family="Times,serif" font-size="14.00">returns</text>
</g>
<!-- AgentManager -->
<g id="node3" class="node">
<title>AgentManager</title>
<polygon fill="lightblue" stroke="black" points="164.75,-221 13.75,-221 13.75,-185 164.75,-185 164.75,-221"/>
<text xml:space="preserve" text-anchor="middle" x="89.25" y="-200.2" font-family="Times,serif" font-size="14.00">agent.AgentManager</text>
<text xml:space="preserve" text-anchor="middle" x="89.25" y="-189.7" font-family="Times,serif" font-size="14.00">(Standard Agents)</text>
</g>
<!-- NewManagerForProfile&#45;&gt;AgentManager -->
<g id="edge4" class="edge">
<title>NewManagerForProfile&#45;&gt;AgentManager</title>
<path fill="none" stroke="black" d="M271.57,-517.55C216.15,-496.37 132.55,-454.81 94.25,-387 66.82,-338.43 74.65,-270.45 82.29,-232.49"/>
<polygon fill="black" stroke="black" points="85.7,-233.28 84.39,-222.77 78.85,-231.8 85.7,-233.28"/>
<text xml:space="preserve" text-anchor="middle" x="176.75" y="-360.95" font-family="Times,serif" font-size="14.00">creates if not managed</text>
</g>
<!-- ManagedAgentManager -->
<g id="node4" class="node">
<title>ManagedAgentManager</title>
<polygon fill="lightblue" stroke="black" points="453,-221 249.5,-221 249.5,-185 453,-185 453,-221"/>
<text xml:space="preserve" text-anchor="middle" x="351.25" y="-200.2" font-family="Times,serif" font-size="14.00">agent.ManagedAgentManager</text>
<text xml:space="preserve" text-anchor="middle" x="351.25" y="-189.7" font-family="Times,serif" font-size="14.00">(Cloud&#45;Managed Agents)</text>
</g>
<!-- NewManagerForProfile&#45;&gt;ManagedAgentManager -->
<g id="edge5" class="edge">
<title>NewManagerForProfile&#45;&gt;ManagedAgentManager</title>
<path fill="none" stroke="black" d="M342.2,-517.7C355.42,-503.11 373.03,-481.02 382.25,-458.25 410.36,-388.86 399.35,-365.95 404.25,-291.25 404.56,-286.59 405.64,-285.21 404.25,-280.75 398.4,-261.98 386.18,-243.75 374.94,-229.77"/>
<polygon fill="black" stroke="black" points="377.86,-227.81 368.75,-222.4 372.5,-232.31 377.86,-227.81"/>
<text xml:space="preserve" text-anchor="middle" x="470.11" y="-360.95" font-family="Times,serif" font-size="14.00">creates if managed</text>
</g>
<!-- Manager&#45;&gt;AgentManager -->
<g id="edge2" class="edge">
<title>Manager&#45;&gt;AgentManager</title>
<path fill="none" stroke="black" stroke-dasharray="5,2" d="M300.44,-350.76C258.04,-321.29 171.55,-261.19 123.45,-227.77"/>
<polygon fill="black" stroke="black" points="125.53,-224.95 115.32,-222.12 121.54,-230.7 125.53,-224.95"/>
<text xml:space="preserve" text-anchor="middle" x="251.83" y="-277.95" font-family="Times,serif" font-size="14.00">implements</text>
</g>
<!-- Manager&#45;&gt;ManagedAgentManager -->
<g id="edge3" class="edge">
<title>Manager&#45;&gt;ManagedAgentManager</title>
<path fill="none" stroke="black" stroke-dasharray="5,2" d="M324.86,-350.82C324.74,-333.14 325.3,-304.84 329.25,-280.75 331.94,-264.34 336.94,-246.46 341.49,-232.09"/>
<polygon fill="black" stroke="black" points="344.73,-233.45 344.52,-222.85 338.08,-231.26 344.73,-233.45"/>
<text xml:space="preserve" text-anchor="middle" x="366.75" y="-277.95" font-family="Times,serif" font-size="14.00">implements</text>
</g>
<!-- Runtime -->
<g id="node5" class="node">
<title>Runtime</title>
<polygon fill="lightblue" stroke="black" points="128.5,-54 0,-54 0,-18 128.5,-18 128.5,-54"/>
<text xml:space="preserve" text-anchor="middle" x="64.25" y="-27.95" font-family="Times,serif" font-size="14.00">runtime.Runtime</text>
</g>
<!-- AgentManager&#45;&gt;Runtime -->
<g id="edge6" class="edge">
<title>AgentManager&#45;&gt;Runtime</title>
<path fill="none" stroke="black" d="M82.23,-184.67C76.41,-169.34 68.57,-146.21 65.25,-125.25 62.13,-105.55 61.92,-83.06 62.47,-65.72"/>
<polygon fill="black" stroke="black" points="65.96,-66.03 62.9,-55.89 58.97,-65.72 65.96,-66.03"/>
<text xml:space="preserve" text-anchor="middle" x="80.25" y="-111.95" font-family="Times,serif" font-size="14.00">uses</text>
</g>
<!-- AgentInfoFiles -->
<g id="node6" class="node">
<title>AgentInfoFiles</title>
<polygon fill="lightblue" stroke="black" points="297.75,-54 146.75,-54 146.75,-18 297.75,-18 297.75,-54"/>
<text xml:space="preserve" text-anchor="middle" x="222.25" y="-33.2" font-family="Times,serif" font-size="14.00">agent&#45;info.json</text>
<text xml:space="preserve" text-anchor="middle" x="222.25" y="-22.7" font-family="Times,serif" font-size="14.00">(Status Reporting)</text>
</g>
<!-- AgentManager&#45;&gt;AgentInfoFiles -->
<g id="edge7" class="edge">
<title>AgentManager&#45;&gt;AgentInfoFiles</title>
<path fill="none" stroke="black" d="M91.99,-184.53C95.6,-165.83 103.38,-136 118.75,-114.75 134.78,-92.59 158.97,-73.92 179.93,-60.44"/>
<polygon fill="black" stroke="black" points="181.67,-63.48 188.32,-55.23 177.97,-57.53 181.67,-63.48"/>
<text xml:space="preserve" text-anchor="middle" x="145" y="-111.95" font-family="Times,serif" font-size="14.00">updates</text>
</g>
<!-- ManagedAgentManager&#45;&gt;Runtime -->
<g id="edge10" class="edge">
<title>ManagedAgentManager&#45;&gt;Runtime</title>
<path fill="none" stroke="black" d="M309.93,-184.58C276.82,-170.08 229.57,-148.18 190.25,-125.25 156.7,-105.69 120.61,-79.87 95.69,-61.22"/>
<polygon fill="black" stroke="black" points="98.01,-58.59 87.92,-55.36 93.8,-64.18 98.01,-58.59"/>
<text xml:space="preserve" text-anchor="middle" x="257.75" y="-111.95" font-family="Times,serif" font-size="14.00">uses for Provision</text>
</g>
<!-- ManagedAgentManager&#45;&gt;AgentInfoFiles -->
<g id="edge9" class="edge">
<title>ManagedAgentManager&#45;&gt;AgentInfoFiles</title>
<path fill="none" stroke="black" d="M350.33,-184.52C348.6,-165.81 343.6,-135.97 329.25,-114.75 313.8,-91.91 289.29,-73.38 267.63,-60.16"/>
<polygon fill="black" stroke="black" points="269.62,-57.27 259.23,-55.22 266.08,-63.3 269.62,-57.27"/>
<text xml:space="preserve" text-anchor="middle" x="361.56" y="-111.95" font-family="Times,serif" font-size="14.00">updates</text>
</g>
<!-- ManagedAgentBackend -->
<g id="node7" class="node">
<title>ManagedAgentBackend</title>
<polygon fill="lightblue" stroke="black" points="572.25,-54 316.25,-54 316.25,-18 572.25,-18 572.25,-54"/>
<text xml:space="preserve" text-anchor="middle" x="444.25" y="-33.2" font-family="Times,serif" font-size="14.00">managedagent.ManagedAgentBackend</text>
<text xml:space="preserve" text-anchor="middle" x="444.25" y="-22.7" font-family="Times,serif" font-size="14.00">(Google, etc.)</text>
</g>
<!-- ManagedAgentManager&#45;&gt;ManagedAgentBackend -->
<g id="edge8" class="edge">
<title>ManagedAgentManager&#45;&gt;ManagedAgentBackend</title>
<path fill="none" stroke="black" d="M366.19,-184.58C378.56,-169.56 396.03,-146.94 408.25,-125.25 419.11,-105.97 428.45,-82.76 434.89,-64.98"/>
<polygon fill="black" stroke="black" points="438.17,-66.2 438.19,-55.6 431.57,-63.87 438.17,-66.2"/>
<text xml:space="preserve" text-anchor="middle" x="458.13" y="-111.95" font-family="Times,serif" font-size="14.00">delegates to</text>
</g>
</g>
</svg>
