<?xml version="1.0" encoding="UTF-8" standalone="no"?>
<!DOCTYPE svg PUBLIC "-//W3C//DTD SVG 1.1//EN"
 "http://www.w3.org/Graphics/SVG/1.1/DTD/svg11.dtd">
<!-- Generated by graphviz version 2.44.1 (20201121.0304)
 -->
<!-- Title: G Pages: 1 -->
<svg width="490pt" height="490pt"
 viewBox="0.00 0.00 490.00 490.00" xmlns="http://www.w3.org/2000/svg" xmlns:xlink="http://www.w3.org/1999/xlink"><style>
  * {
    fill: transparent !important;
    stroke: #1f1f1f !important;
    stroke-width: 1 !important;
  }
  polygon:not(.cluster *, .node *, .edge *, text) {
    stroke: transparent !important;
  }
  text {
    font-size: 10px !important;
    font-family: monospace !important;
    fill: #1f1f1f !important;
    stroke: transparent !important;
    transform: translateY(-0.5em);
  }
</style>
<g id="graph0" class="graph" transform="scale(1 1) rotate(0) translate(4 485.5)">
<title>G</title>
<polygon fill="white" stroke="none" points="-4,4 -4,-485.5 485.5,-485.5 485.5,4 -4,4"/>
<!-- Dealer Agent -->
<g id="node1" class="node">
<title>Dealer Agent</title>
<polygon fill="lightblue" stroke="black" points="194.75,-454 88.75,-454 88.75,-418 194.75,-418 194.75,-454"/>
<text xml:space="preserve" text-anchor="middle" x="141.75" y="-427.95" font-family="Times,serif" font-size="14.00">Dealer Agent</text>
</g>
<!-- Player Agents -->
<g id="node2" class="node">
<title>Player Agents</title>
<polygon fill="lightblue" stroke="black" points="113.5,-247 0,-247 0,-211 113.5,-211 113.5,-247"/>
<text xml:space="preserve" text-anchor="middle" x="56.75" y="-226.2" font-family="Times,serif" font-size="14.00">Player Agents</text>
<text xml:space="preserve" text-anchor="middle" x="56.75" y="-215.7" font-family="Times,serif" font-size="14.00">(2+)</text>
</g>
<!-- Dealer Agent&#45;&gt;Player Agents -->
<g id="edge1" class="edge">
<title>Dealer Agent&#45;&gt;Player Agents</title>
<path fill="none" stroke="black" d="M134.5,-417.52C119.76,-381.97 86.17,-300.96 68.35,-257.99"/>
<polygon fill="black" stroke="black" points="71.62,-256.73 64.56,-248.83 65.16,-259.41 71.62,-256.73"/>
</g>
<!-- Auditor Agent -->
<g id="node3" class="node">
<title>Auditor Agent</title>
<polygon fill="lightblue" stroke="black" points="176.5,-63 63,-63 63,-27 176.5,-27 176.5,-63"/>
<text xml:space="preserve" text-anchor="middle" x="119.75" y="-36.95" font-family="Times,serif" font-size="14.00">Auditor Agent</text>
</g>
<!-- Dealer Agent&#45;&gt;Auditor Agent -->
<g id="edge2" class="edge">
<title>Dealer Agent&#45;&gt;Auditor Agent</title>
<path fill="none" stroke="black" d="M140.76,-417.53C137.29,-356.21 125.65,-150.38 121.36,-74.45"/>
<polygon fill="black" stroke="black" points="124.88,-74.72 120.82,-64.93 117.89,-75.11 124.88,-74.72"/>
</g>
<!-- ADK Fabric Agent -->
<g id="node4" class="node">
<title>ADK Fabric Agent</title>
<polygon fill="lightblue" stroke="black" points="373.5,-247 230,-247 230,-211 373.5,-211 373.5,-247"/>
<text xml:space="preserve" text-anchor="middle" x="301.75" y="-226.2" font-family="Times,serif" font-size="14.00">ADK Fabric Agent</text>
<text xml:space="preserve" text-anchor="middle" x="301.75" y="-215.7" font-family="Times,serif" font-size="14.00">(Lifecycle Mgmt.)</text>
</g>
<!-- Dealer Agent&#45;&gt;ADK Fabric Agent -->
<g id="edge6" class="edge">
<title>Dealer Agent&#45;&gt;ADK Fabric Agent</title>
<path fill="none" stroke="black" d="M143.17,-417.59C145.73,-395.09 152.77,-355.53 171.75,-327.75 193.55,-295.84 229.2,-270.11 257.66,-253.07"/>
<polygon fill="black" stroke="black" points="259.19,-256.23 266.08,-248.18 255.68,-250.18 259.19,-256.23"/>
<text xml:space="preserve" text-anchor="middle" x="246.75" y="-324.95" font-family="Times,serif" font-size="14.00">manages/orchestrates</text>
</g>
<!-- Player Agents&#45;&gt;Auditor Agent -->
<g id="edge3" class="edge">
<title>Player Agents&#45;&gt;Auditor Agent</title>
<path fill="none" stroke="black" d="M62.79,-210.55C73.7,-179.02 96.79,-112.32 109.98,-74.23"/>
<polygon fill="black" stroke="black" points="113.27,-75.42 113.23,-64.83 106.65,-73.13 113.27,-75.42"/>
</g>
<!-- Fan&#45;out Parallel -->
<g id="node5" class="node">
<title>Fan&#45;out Parallel</title>
<polygon fill="lightblue" stroke="black" points="349.75,-63 213.75,-63 213.75,-27 349.75,-27 349.75,-63"/>
<text xml:space="preserve" text-anchor="middle" x="281.75" y="-42.2" font-family="Times,serif" font-size="14.00">Fan&#45;out Parallel</text>
<text xml:space="preserve" text-anchor="middle" x="281.75" y="-31.7" font-family="Times,serif" font-size="14.00">Orchestration</text>
</g>
<!-- ADK Fabric Agent&#45;&gt;Fan&#45;out Parallel -->
<g id="edge4" class="edge">
<title>ADK Fabric Agent&#45;&gt;Fan&#45;out Parallel</title>
<path fill="none" stroke="black" d="M299.83,-210.55C296.38,-179.16 289.1,-112.89 284.91,-74.72"/>
<polygon fill="black" stroke="black" points="288.4,-74.46 283.83,-64.9 281.44,-75.23 288.4,-74.46"/>
</g>
<!-- Sequence Orchestration -->
<g id="node6" class="node">
<title>Sequence Orchestration</title>
<polygon fill="lightblue" stroke="black" points="481.5,-63 368,-63 368,-27 481.5,-27 481.5,-63"/>
<text xml:space="preserve" text-anchor="middle" x="424.75" y="-42.2" font-family="Times,serif" font-size="14.00">Sequence</text>
<text xml:space="preserve" text-anchor="middle" x="424.75" y="-31.7" font-family="Times,serif" font-size="14.00">Orchestration</text>
</g>
<!-- ADK Fabric Agent&#45;&gt;Sequence Orchestration -->
<g id="edge5" class="edge">
<title>ADK Fabric Agent&#45;&gt;Sequence Orchestration</title>
<path fill="none" stroke="black" d="M313.54,-210.55C335.13,-178.62 381.1,-110.59 406.66,-72.77"/>
<polygon fill="black" stroke="black" points="409.44,-74.9 412.14,-64.65 403.65,-70.98 409.44,-74.9"/>
</g>
<!-- Amp Harness -->
<g id="node7" class="node">
<title>Amp Harness</title>
<polygon fill="lightblue" stroke="black" points="441.5,-454 238,-454 238,-418 441.5,-418 441.5,-454"/>
<text xml:space="preserve" text-anchor="middle" x="339.75" y="-433.2" font-family="Times,serif" font-size="14.00">Amp Harness</text>
<text xml:space="preserve" text-anchor="middle" x="339.75" y="-422.7" font-family="Times,serif" font-size="14.00">(Third&#45;party Integration)</text>
</g>
<!-- Amp Harness&#45;&gt;ADK Fabric Agent -->
<g id="edge7" class="edge">
<title>Amp Harness&#45;&gt;ADK Fabric Agent</title>
<path fill="none" stroke="black" d="M338.1,-417.82C335.92,-396.56 331.67,-359.31 325.75,-327.75 321.32,-304.14 314.73,-277.7 309.57,-258.28"/>
<polygon fill="black" stroke="black" points="312.96,-257.38 306.98,-248.64 306.2,-259.21 312.96,-257.38"/>
</g>
</g>
</svg>
