<?xml version="1.0" encoding="UTF-8" standalone="no"?>
<!DOCTYPE svg PUBLIC "-//W3C//DTD SVG 1.1//EN"
 "http://www.w3.org/Graphics/SVG/1.1/DTD/svg11.dtd">
<!-- Generated by graphviz version 2.44.1 (20201121.0304)
 -->
<!-- Title: G Pages: 1 -->
<svg width="548pt" height="457pt"
 viewBox="0.00 0.00 548.00 457.00" xmlns="http://www.w3.org/2000/svg" xmlns:xlink="http://www.w3.org/1999/xlink"><style>
  * {
    fill: transparent !important;
    stroke: #1f1f1f !important;
    stroke-width: 1 !important;
  }
  polygon:not(.cluster *, .node *, .edge *, text) {
    stroke: transparent !important;
  }
  text {
    font-size: 10px !important;
    font-family: monospace !important;
    fill: #1f1f1f !important;
    stroke: transparent !important;
    transform: translateY(-0.5em);
  }
</style>
<g id="graph0" class="graph" transform="scale(1 1) rotate(0) translate(4 452.5)">
<title>G</title>
<polygon fill="white" stroke="none" points="-4,4 -4,-452.5 543.67,-452.5 543.67,4 -4,4"/>
<!-- Log Files -->
<g id="node1" class="node">
<title>Log Files</title>
<polygon fill="lightblue" stroke="black" points="329.17,-449 245.67,-449 245.67,-413 329.17,-413 329.17,-449"/>
<text xml:space="preserve" text-anchor="middle" x="287.42" y="-422.95" font-family="Times,serif" font-size="14.00">Log Files</text>
</g>
<!-- Log Parser -->
<g id="node2" class="node">
<title>Log Parser</title>
<polygon fill="lightblue" stroke="black" points="366.67,-366 208.17,-366 208.17,-330 366.67,-330 366.67,-366"/>
<text xml:space="preserve" text-anchor="middle" x="287.42" y="-345.2" font-family="Times,serif" font-size="14.00">Log Parser</text>
<text xml:space="preserve" text-anchor="middle" x="287.42" y="-334.7" font-family="Times,serif" font-size="14.00">(logparser package)</text>
</g>
<!-- Log Files&#45;&gt;Log Parser -->
<g id="edge1" class="edge">
<title>Log Files&#45;&gt;Log Parser</title>
<path fill="none" stroke="black" d="M287.42,-412.82C287.42,-402.69 287.42,-389.6 287.42,-377.92"/>
<polygon fill="black" stroke="black" points="290.92,-377.95 287.42,-367.95 283.92,-377.95 290.92,-377.95"/>
<text xml:space="preserve" text-anchor="middle" x="306.17" y="-380.95" font-family="Times,serif" font-size="14.00">Reads</text>
</g>
<!-- Playback Engine -->
<g id="node3" class="node">
<title>Playback Engine</title>
<polygon fill="lightblue" stroke="black" points="362.92,-284 211.92,-284 211.92,-248 362.92,-248 362.92,-284"/>
<text xml:space="preserve" text-anchor="middle" x="287.42" y="-263.2" font-family="Times,serif" font-size="14.00">Playback Engine</text>
<text xml:space="preserve" text-anchor="middle" x="287.42" y="-252.7" font-family="Times,serif" font-size="14.00">(playback package)</text>
</g>
<!-- Log Parser&#45;&gt;Playback Engine -->
<g id="edge2" class="edge">
<title>Log Parser&#45;&gt;Playback Engine</title>
<path fill="none" stroke="black" d="M287.42,-329.64C287.42,-319.68 287.42,-306.93 287.42,-295.54"/>
<polygon fill="black" stroke="black" points="290.92,-295.84 287.42,-285.84 283.92,-295.84 290.92,-295.84"/>
<text xml:space="preserve" text-anchor="middle" x="388.67" y="-298.95" font-family="Times,serif" font-size="14.00">Generates Manifest &amp; Events</text>
</g>
<!-- Web Server -->
<g id="node4" class="node">
<title>Web Server</title>
<polygon fill="lightblue" stroke="black" points="355.42,-201 219.42,-201 219.42,-165 355.42,-165 355.42,-201"/>
<text xml:space="preserve" text-anchor="middle" x="287.42" y="-180.2" font-family="Times,serif" font-size="14.00">Web Server</text>
<text xml:space="preserve" text-anchor="middle" x="287.42" y="-169.7" font-family="Times,serif" font-size="14.00">(server package)</text>
</g>
<!-- Playback Engine&#45;&gt;Web Server -->
<g id="edge3" class="edge">
<title>Playback Engine&#45;&gt;Web Server</title>
<path fill="none" stroke="black" d="M287.42,-247.82C287.42,-237.69 287.42,-224.6 287.42,-212.92"/>
<polygon fill="black" stroke="black" points="290.92,-212.95 287.42,-202.95 283.92,-212.95 290.92,-212.95"/>
<text xml:space="preserve" text-anchor="middle" x="373.67" y="-215.95" font-family="Times,serif" font-size="14.00">Streams Events &amp; Status</text>
</g>
<!-- Web Frontend -->
<g id="node5" class="node">
<title>Web Frontend</title>
<polygon fill="lightblue" stroke="black" points="160.42,-119 54.42,-119 54.42,-83 160.42,-83 160.42,-119"/>
<text xml:space="preserve" text-anchor="middle" x="107.42" y="-92.95" font-family="Times,serif" font-size="14.00">Web Frontend</text>
</g>
<!-- Web Server&#45;&gt;Web Frontend -->
<g id="edge4" class="edge">
<title>Web Server&#45;&gt;Web Frontend</title>
<path fill="none" stroke="black" d="M248.36,-164.64C221.56,-152.73 185.78,-136.83 156.98,-124.03"/>
<polygon fill="black" stroke="black" points="158.65,-120.94 148.09,-120.08 155.81,-127.34 158.65,-120.94"/>
<text xml:space="preserve" text-anchor="middle" x="256.94" y="-133.95" font-family="Times,serif" font-size="14.00">Serves Assets</text>
</g>
<!-- Browser -->
<g id="node6" class="node">
<title>Browser</title>
<polygon fill="lightblue" stroke="black" points="289.67,-36 221.17,-36 221.17,0 289.67,0 289.67,-36"/>
<text xml:space="preserve" text-anchor="middle" x="255.42" y="-9.95" font-family="Times,serif" font-size="14.00">Browser</text>
</g>
<!-- Web Server&#45;&gt;Browser -->
<g id="edge5" class="edge">
<title>Web Server&#45;&gt;Browser</title>
<path fill="none" stroke="black" d="M309.79,-164.66C339.77,-139.3 386.28,-91.05 359.42,-53.75 346.12,-35.29 322.57,-26.49 301.24,-22.36"/>
<polygon fill="black" stroke="black" points="301.95,-18.93 291.52,-20.79 300.84,-25.84 301.95,-18.93"/>
<text xml:space="preserve" text-anchor="middle" x="453.42" y="-92.95" font-family="Times,serif" font-size="14.00">WebSocket Communication</text>
</g>
<!-- Web Frontend&#45;&gt;Browser -->
<g id="edge6" class="edge">
<title>Web Frontend&#45;&gt;Browser</title>
<path fill="none" stroke="black" d="M139.17,-82.62C160.84,-70.76 189.8,-54.91 213.39,-42"/>
<polygon fill="black" stroke="black" points="215.05,-45.09 222.14,-37.21 211.68,-38.94 215.05,-45.09"/>
<text xml:space="preserve" text-anchor="middle" x="272.78" y="-50.95" font-family="Times,serif" font-size="14.00">Displays Visualization</text>
</g>
</g>
</svg>
