<?xml version="1.0" encoding="UTF-8" standalone="no"?>
<!DOCTYPE svg PUBLIC "-//W3C//DTD SVG 1.1//EN"
 "http://www.w3.org/Graphics/SVG/1.1/DTD/svg11.dtd">
<!-- Generated by graphviz version 2.44.1 (20201121.0304)
 -->
<!-- Title: G Pages: 1 -->
<svg width="537pt" height="467pt"
 viewBox="0.00 0.00 537.00 467.00" xmlns="http://www.w3.org/2000/svg" xmlns:xlink="http://www.w3.org/1999/xlink"><style>
  * {
    fill: transparent !important;
    stroke: #1f1f1f !important;
    stroke-width: 1 !important;
  }
  polygon:not(.cluster *, .node *, .edge *, text) {
    stroke: transparent !important;
  }
  text {
    font-size: 10px !important;
    font-family: monospace !important;
    fill: #1f1f1f !important;
    stroke: transparent !important;
    transform: translateY(-0.5em);
  }
</style>
<g id="graph0" class="graph" transform="scale(1 1) rotate(0) translate(4 463)">
<title>G</title>
<polygon fill="white" stroke="none" points="-4,4 -4,-463 532.81,-463 532.81,4 -4,4"/>
<!-- External A2A Client -->
<g id="node1" class="node">
<title>External A2A Client</title>
<polygon fill="lightblue" stroke="black" points="321.27,-459 162.77,-459 162.77,-423 321.27,-423 321.27,-459"/>
<text xml:space="preserve" text-anchor="middle" x="242.02" y="-432.95" font-family="Helvetica,sans-Serif" font-size="14.00">External A2A Client</text>
</g>
<!-- A2A Protocol Server -->
<g id="node2" class="node">
<title>A2A Protocol Server</title>
<polygon fill="lightblue" stroke="black" points="321.27,-366 162.77,-366 162.77,-330 321.27,-330 321.27,-366"/>
<text xml:space="preserve" text-anchor="middle" x="242.02" y="-345.2" font-family="Helvetica,sans-Serif" font-size="14.00">A2A Protocol Server</text>
<text xml:space="preserve" text-anchor="middle" x="242.02" y="-334.7" font-family="Helvetica,sans-Serif" font-size="14.00">(SDK&#45;based)</text>
</g>
<!-- External A2A Client&#45;&gt;A2A Protocol Server -->
<g id="edge1" class="edge">
<title>External A2A Client&#45;&gt;A2A Protocol Server</title>
<path fill="none" stroke="black" d="M211.14,-422.82C205.24,-418.03 199.87,-412.25 196.52,-405.5 192.36,-397.14 192.42,-392.89 196.52,-384.5 198.28,-380.88 200.62,-377.52 203.3,-374.43"/>
<polygon fill="black" stroke="black" points="205.73,-376.95 210.5,-367.49 200.87,-371.91 205.73,-376.95"/>
<text xml:space="preserve" text-anchor="middle" x="252.77" y="-392.2" font-family="Times,serif" font-size="14.00">A2A Requests</text>
<text xml:space="preserve" text-anchor="middle" x="252.77" y="-381.7" font-family="Times,serif" font-size="14.00">(JSON&#45;RPC/gRPC)</text>
</g>
<!-- A2A Protocol Server&#45;&gt;External A2A Client -->
<g id="edge9" class="edge">
<title>A2A Protocol Server&#45;&gt;External A2A Client</title>
<path fill="none" stroke="black" d="M290.55,-366.34C297.91,-371.09 304.54,-377.06 309.02,-384.5 313.83,-392.5 313.88,-397.53 309.02,-405.5 306.77,-409.18 304,-412.48 300.86,-415.45"/>
<polygon fill="black" stroke="black" points="298.75,-412.66 293.04,-421.59 303.07,-418.16 298.75,-412.66"/>
<text xml:space="preserve" text-anchor="middle" x="361.39" y="-386.95" font-family="Times,serif" font-size="14.00">A2A Responses</text>
</g>
<!-- Core Bridge Logic -->
<g id="node3" class="node">
<title>Core Bridge Logic</title>
<polygon fill="lightblue" stroke="black" points="340.02,-284 144.02,-284 144.02,-248 340.02,-248 340.02,-284"/>
<text xml:space="preserve" text-anchor="middle" x="242.02" y="-263.2" font-family="Helvetica,sans-Serif" font-size="14.00">Core Bridge Logic</text>
<text xml:space="preserve" text-anchor="middle" x="242.02" y="-252.7" font-family="Helvetica,sans-Serif" font-size="14.00">(Hub Routing &amp; Contexts)</text>
</g>
<!-- A2A Protocol Server&#45;&gt;Core Bridge Logic -->
<g id="edge2" class="edge">
<title>A2A Protocol Server&#45;&gt;Core Bridge Logic</title>
<path fill="none" stroke="black" d="M212.58,-329.87C206.7,-324.98 201.33,-319.08 198.02,-312.25 194.5,-305 196.64,-298.17 201.47,-292.14"/>
<polygon fill="black" stroke="black" points="203.61,-294.94 208.37,-285.47 198.74,-289.91 203.61,-294.94"/>
<text xml:space="preserve" text-anchor="middle" x="250.52" y="-298.95" font-family="Times,serif" font-size="14.00">Task Execution</text>
</g>
<!-- Core Bridge Logic&#45;&gt;A2A Protocol Server -->
<g id="edge8" class="edge">
<title>Core Bridge Logic&#45;&gt;A2A Protocol Server</title>
<path fill="none" stroke="black" d="M290.1,-284.45C301.94,-291.64 309.58,-300.96 303.02,-312.25 300.77,-316.11 297.92,-319.58 294.68,-322.69"/>
<polygon fill="black" stroke="black" points="292.75,-319.75 287.14,-328.74 297.13,-325.21 292.75,-319.75"/>
<text xml:space="preserve" text-anchor="middle" x="342.93" y="-298.95" font-family="Times,serif" font-size="14.00">SDK Events</text>
</g>
<!-- Fabric Hub API -->
<g id="node4" class="node">
<title>Fabric Hub API</title>
<polygon fill="lightblue" stroke="black" points="130.77,-201 17.27,-201 17.27,-165 130.77,-165 130.77,-201"/>
<text xml:space="preserve" text-anchor="middle" x="74.02" y="-174.95" font-family="Helvetica,sans-Serif" font-size="14.00">Fabric Hub API</text>
</g>
<!-- Core Bridge Logic&#45;&gt;Fabric Hub API -->
<g id="edge3" class="edge">
<title>Core Bridge Logic&#45;&gt;Fabric Hub API</title>
<path fill="none" stroke="black" d="M168.28,-247.55C153.64,-242.67 138.72,-236.63 125.52,-229.25 115.9,-223.88 106.51,-216.48 98.43,-209.22"/>
<polygon fill="black" stroke="black" points="101.02,-206.85 91.34,-202.54 96.22,-211.94 101.02,-206.85"/>
<text xml:space="preserve" text-anchor="middle" x="181.77" y="-215.95" font-family="Times,serif" font-size="14.00">Fabric API Calls</text>
</g>
<!-- State Store\n(SQLite) -->
<g id="node7" class="node">
<title>State Store\n(SQLite)</title>
<polygon fill="lightblue" stroke="black" points="291.27,-201 192.77,-201 192.77,-165 291.27,-165 291.27,-201"/>
<text xml:space="preserve" text-anchor="middle" x="242.02" y="-180.2" font-family="Helvetica,sans-Serif" font-size="14.00">State Store</text>
<text xml:space="preserve" text-anchor="middle" x="242.02" y="-169.7" font-family="Helvetica,sans-Serif" font-size="14.00">(SQLite)</text>
</g>
<!-- Core Bridge Logic&#45;&gt;State Store\n(SQLite) -->
<g id="edge7" class="edge">
<title>Core Bridge Logic&#45;&gt;State Store\n(SQLite)</title>
<path fill="none" stroke="black" d="M242.02,-247.82C242.02,-237.69 242.02,-224.6 242.02,-212.92"/>
<polygon fill="black" stroke="black" points="245.52,-212.95 242.02,-202.95 238.52,-212.95 245.52,-212.95"/>
<text xml:space="preserve" text-anchor="middle" x="317.02" y="-215.95" font-family="Times,serif" font-size="14.00">Task/Context Mapping</text>
</g>
<!-- Fabric Agent -->
<g id="node5" class="node">
<title>Fabric Agent</title>
<polygon fill="lightblue" stroke="black" points="268.27,-119 169.77,-119 169.77,-83 268.27,-83 268.27,-119"/>
<text xml:space="preserve" text-anchor="middle" x="219.02" y="-92.95" font-family="Helvetica,sans-Serif" font-size="14.00">Fabric Agent</text>
</g>
<!-- Fabric Hub API&#45;&gt;Fabric Agent -->
<g id="edge4" class="edge">
<title>Fabric Hub API&#45;&gt;Fabric Agent</title>
<path fill="none" stroke="black" d="M105.48,-164.64C126.59,-152.99 154.63,-137.52 177.56,-124.87"/>
<polygon fill="black" stroke="black" points="178.97,-128.09 186.04,-120.19 175.59,-121.96 178.97,-128.09"/>
<text xml:space="preserve" text-anchor="middle" x="185.2" y="-133.95" font-family="Times,serif" font-size="14.00">Messages</text>
</g>
<!-- Broker Plugin Server -->
<g id="node6" class="node">
<title>Broker Plugin Server</title>
<polygon fill="lightblue" stroke="black" points="434.02,-36 268.02,-36 268.02,0 434.02,0 434.02,-36"/>
<text xml:space="preserve" text-anchor="middle" x="351.02" y="-9.95" font-family="Helvetica,sans-Serif" font-size="14.00">Broker Plugin Server</text>
</g>
<!-- Fabric Agent&#45;&gt;Broker Plugin Server -->
<g id="edge5" class="edge">
<title>Fabric Agent&#45;&gt;Broker Plugin Server</title>
<path fill="none" stroke="black" d="M247.33,-82.62C266.56,-70.83 292.2,-55.09 313.18,-42.22"/>
<polygon fill="black" stroke="black" points="314.76,-45.35 321.46,-37.14 311.1,-39.39 314.76,-45.35"/>
<text xml:space="preserve" text-anchor="middle" x="345.42" y="-50.95" font-family="Times,serif" font-size="14.00">Agent Messages</text>
</g>
<!-- Broker Plugin Server&#45;&gt;Core Bridge Logic -->
<g id="edge6" class="edge">
<title>Broker Plugin Server&#45;&gt;Core Bridge Logic</title>
<path fill="none" stroke="black" d="M386.59,-36.48C392.8,-41.2 398.41,-46.93 402.02,-53.75 438.49,-122.75 445.67,-169.03 396.02,-229.25 389.14,-237.59 371.91,-244.18 351.36,-249.31"/>
<polygon fill="black" stroke="black" points="350.77,-245.86 341.82,-251.52 352.35,-252.68 350.77,-245.86"/>
<text xml:space="preserve" text-anchor="middle" x="480.06" y="-133.95" font-family="Times,serif" font-size="14.00">Broker Events</text>
</g>
</g>
</svg>
