<?xml version="1.0" encoding="UTF-8" standalone="no"?>
<!DOCTYPE svg PUBLIC "-//W3C//DTD SVG 1.1//EN"
 "http://www.w3.org/Graphics/SVG/1.1/DTD/svg11.dtd">
<!-- Generated by graphviz version 2.44.1 (20201121.0304)
 -->
<!-- Title: G Pages: 1 -->
<svg width="479pt" height="374pt"
 viewBox="0.00 0.00 479.00 374.00" xmlns="http://www.w3.org/2000/svg" xmlns:xlink="http://www.w3.org/1999/xlink"><style>
  * {
    fill: transparent !important;
    stroke: #1f1f1f !important;
    stroke-width: 1 !important;
  }
  polygon:not(.cluster *, .node *, .edge *, text) {
    stroke: transparent !important;
  }
  text {
    font-size: 10px !important;
    font-family: monospace !important;
    fill: #1f1f1f !important;
    stroke: transparent !important;
    transform: translateY(-0.5em);
  }
</style>
<g id="graph0" class="graph" transform="scale(1 1) rotate(0) translate(4 370)">
<title>G</title>
<polygon fill="white" stroke="none" points="-4,4 -4,-370 474.99,-370 474.99,4 -4,4"/>
<!-- User Browser -->
<g id="node1" class="node">
<title>User Browser</title>
<polygon fill="lightblue" stroke="black" points="321.49,-366 170.49,-366 170.49,-330 321.49,-330 321.49,-366"/>
<text xml:space="preserve" text-anchor="middle" x="245.99" y="-339.95" font-family="Times,serif" font-size="14.00">User Browser (SPA)</text>
</g>
<!-- Lit/Shoelace UI -->
<g id="node2" class="node">
<title>Lit/Shoelace UI</title>
<polygon fill="lightblue" stroke="black" points="258.49,-284 47.49,-284 47.49,-248 258.49,-248 258.49,-284"/>
<text xml:space="preserve" text-anchor="middle" x="152.99" y="-257.95" font-family="Times,serif" font-size="14.00">Lit/Shoelace UI Components</text>
</g>
<!-- User Browser&#45;&gt;Lit/Shoelace UI -->
<g id="edge1" class="edge">
<title>User Browser&#45;&gt;Lit/Shoelace UI</title>
<path fill="none" stroke="black" d="M225.81,-329.64C212.9,-318.53 195.94,-303.94 181.64,-291.64"/>
<polygon fill="black" stroke="black" points="184.15,-289.18 174.28,-285.31 179.58,-294.49 184.15,-289.18"/>
<text xml:space="preserve" text-anchor="middle" x="231.31" y="-298.95" font-family="Times,serif" font-size="14.00">Renders</text>
</g>
<!-- StateManager -->
<g id="node3" class="node">
<title>StateManager</title>
<polygon fill="lightblue" stroke="black" points="247.49,-201 36.49,-201 36.49,-165 247.49,-165 247.49,-201"/>
<text xml:space="preserve" text-anchor="middle" x="141.99" y="-174.95" font-family="Times,serif" font-size="14.00">StateManager (Client&#45;side)</text>
</g>
<!-- Lit/Shoelace UI&#45;&gt;StateManager -->
<g id="edge2" class="edge">
<title>Lit/Shoelace UI&#45;&gt;StateManager</title>
<path fill="none" stroke="black" d="M150.66,-247.82C149.27,-237.58 147.47,-224.33 145.87,-212.55"/>
<polygon fill="black" stroke="black" points="149.38,-212.37 144.57,-202.93 142.44,-213.31 149.38,-212.37"/>
<text xml:space="preserve" text-anchor="middle" x="162.82" y="-215.95" font-family="Times,serif" font-size="14.00">Uses</text>
</g>
<!-- SSEClient -->
<g id="node4" class="node">
<title>SSEClient</title>
<polygon fill="lightblue" stroke="black" points="220.24,-119 31.74,-119 31.74,-83 220.24,-83 220.24,-119"/>
<text xml:space="preserve" text-anchor="middle" x="125.99" y="-92.95" font-family="Times,serif" font-size="14.00">SSEClient (Client&#45;side)</text>
</g>
<!-- StateManager&#45;&gt;SSEClient -->
<g id="edge3" class="edge">
<title>StateManager&#45;&gt;SSEClient</title>
<path fill="none" stroke="black" d="M138.52,-164.64C136.53,-154.68 133.98,-141.93 131.7,-130.54"/>
<polygon fill="black" stroke="black" points="135.15,-129.93 129.76,-120.81 128.29,-131.3 135.15,-129.93"/>
<text xml:space="preserve" text-anchor="middle" x="161.2" y="-133.95" font-family="Times,serif" font-size="14.00">Manages</text>
</g>
<!-- Go Backend -->
<g id="node5" class="node">
<title>Go Backend</title>
<polygon fill="lightblue" stroke="black" points="331.74,-36 128.24,-36 128.24,0 331.74,0 331.74,-36"/>
<text xml:space="preserve" text-anchor="middle" x="229.99" y="-9.95" font-family="Times,serif" font-size="14.00">Go Backend (scion binary)</text>
</g>
<!-- SSEClient&#45;&gt;Go Backend -->
<g id="edge4" class="edge">
<title>SSEClient&#45;&gt;Go Backend</title>
<path fill="none" stroke="black" d="M144.88,-82.78C154.93,-73.84 167.64,-62.91 179.49,-53.75 184.11,-50.18 189.07,-46.55 194.01,-43.04"/>
<polygon fill="black" stroke="black" points="195.95,-45.95 202.15,-37.36 191.95,-40.21 195.95,-45.95"/>
<text xml:space="preserve" text-anchor="middle" x="250.74" y="-50.95" font-family="Times,serif" font-size="14.00">Connects to /events</text>
</g>
<!-- Go Backend&#45;&gt;User Browser -->
<g id="edge5" class="edge">
<title>Go Backend&#45;&gt;User Browser</title>
<path fill="none" stroke="black" d="M298.29,-36.46C307.1,-40.98 315.35,-46.64 321.99,-53.75 336.66,-69.44 335.99,-78.52 335.99,-100 335.99,-267 335.99,-267 335.99,-267 335.99,-291.63 316.93,-310.54 296.34,-323.77"/>
<polygon fill="black" stroke="black" points="294.61,-320.73 287.82,-328.86 298.2,-326.74 294.61,-320.73"/>
<text xml:space="preserve" text-anchor="middle" x="403.49" y="-174.95" font-family="Times,serif" font-size="14.00">Serves Assets, API</text>
</g>
</g>
</svg>
