<?xml version="1.0" encoding="UTF-8" standalone="no"?>
<!DOCTYPE svg PUBLIC "-//W3C//DTD SVG 1.1//EN"
 "http://www.w3.org/Graphics/SVG/1.1/DTD/svg11.dtd">
<!-- Generated by graphviz version 2.44.1 (20201121.0304)
 -->
<!-- Title: G Pages: 1 -->
<svg width="1237pt" height="1237pt"
 viewBox="0.00 0.00 1237.00 1237.00" xmlns="http://www.w3.org/2000/svg" xmlns:xlink="http://www.w3.org/1999/xlink"><style>
  * {
    fill: transparent !important;
    stroke: #1f1f1f !important;
    stroke-width: 1 !important;
  }
  polygon:not(.cluster *, .node *, .edge *, text) {
    stroke: transparent !important;
  }
  text {
    font-size: 10px !important;
    font-family: monospace !important;
    fill: #1f1f1f !important;
    stroke: transparent !important;
    transform: translateY(-0.5em);
  }
</style>
<g id="graph0" class="graph" transform="scale(1 1) rotate(0) translate(4 1233)">
<title>G</title>
<polygon fill="white" stroke="none" points="-4,4 -4,-1233 1233,-1233 1233,4 -4,4"/>
<!-- gce&#45;demo&#45;deploy.sh -->
<g id="node1" class="node">
<title>gce&#45;demo&#45;deploy.sh</title>
<polygon fill="lightblue" stroke="black" points="737,-1042 578.5,-1042 578.5,-1006 737,-1006 737,-1042"/>
<text xml:space="preserve" text-anchor="middle" x="657.75" y="-1021.2" font-family="Times,serif" font-size="14.00">gce&#45;demo&#45;deploy.sh</text>
<text xml:space="preserve" text-anchor="middle" x="657.75" y="-1010.7" font-family="Times,serif" font-size="14.00">(Main Orchestrator)</text>
</g>
<!-- gce&#45;demo&#45;preflight.sh -->
<g id="node2" class="node">
<title>gce&#45;demo&#45;preflight.sh</title>
<polygon fill="lightblue" stroke="black" points="173.5,-223 0,-223 0,-187 173.5,-187 173.5,-223"/>
<text xml:space="preserve" text-anchor="middle" x="86.75" y="-202.2" font-family="Times,serif" font-size="14.00">gce&#45;demo&#45;preflight.sh</text>
<text xml:space="preserve" text-anchor="middle" x="86.75" y="-191.7" font-family="Times,serif" font-size="14.00">(Preflight Checks)</text>
</g>
<!-- gce&#45;demo&#45;deploy.sh&#45;&gt;gce&#45;demo&#45;preflight.sh -->
<g id="edge1" class="edge">
<title>gce&#45;demo&#45;deploy.sh&#45;&gt;gce&#45;demo&#45;preflight.sh</title>
<path fill="none" stroke="black" d="M645.56,-1005.56C572.62,-901.2 194.14,-359.65 105.39,-232.67"/>
<polygon fill="black" stroke="black" points="108.29,-230.71 99.69,-224.52 102.55,-234.72 108.29,-230.71"/>
</g>
<!-- gce&#45;demo&#45;provision.sh -->
<g id="node3" class="node">
<title>gce&#45;demo&#45;provision.sh</title>
<polygon fill="lightblue" stroke="black" points="432.25,-223 191.25,-223 191.25,-187 432.25,-187 432.25,-223"/>
<text xml:space="preserve" text-anchor="middle" x="311.75" y="-202.2" font-family="Times,serif" font-size="14.00">gce&#45;demo&#45;provision.sh</text>
<text xml:space="preserve" text-anchor="middle" x="311.75" y="-191.7" font-family="Times,serif" font-size="14.00">(Provision GCE Infrastructure)</text>
</g>
<!-- gce&#45;demo&#45;deploy.sh&#45;&gt;gce&#45;demo&#45;provision.sh -->
<g id="edge2" class="edge">
<title>gce&#45;demo&#45;deploy.sh&#45;&gt;gce&#45;demo&#45;provision.sh</title>
<path fill="none" stroke="black" d="M650.36,-1005.56C606.3,-901.51 378.2,-362.9 323.53,-233.82"/>
<polygon fill="black" stroke="black" points="326.78,-232.52 319.66,-224.67 320.33,-235.25 326.78,-232.52"/>
</g>
<!-- gce&#45;demo&#45;telemetry&#45;sa.sh -->
<g id="node4" class="node">
<title>gce&#45;demo&#45;telemetry&#45;sa.sh</title>
<polygon fill="lightblue" stroke="black" points="646.75,-223 450.75,-223 450.75,-187 646.75,-187 646.75,-223"/>
<text xml:space="preserve" text-anchor="middle" x="548.75" y="-202.2" font-family="Times,serif" font-size="14.00">gce&#45;demo&#45;telemetry&#45;sa.sh</text>
<text xml:space="preserve" text-anchor="middle" x="548.75" y="-191.7" font-family="Times,serif" font-size="14.00">(Create Telemetry SA)</text>
</g>
<!-- gce&#45;demo&#45;deploy.sh&#45;&gt;gce&#45;demo&#45;telemetry&#45;sa.sh -->
<g id="edge3" class="edge">
<title>gce&#45;demo&#45;deploy.sh&#45;&gt;gce&#45;demo&#45;telemetry&#45;sa.sh</title>
<path fill="none" stroke="black" d="M655.42,-1005.56C641.57,-901.72 569.97,-365.07 552.57,-234.61"/>
<polygon fill="black" stroke="black" points="556.05,-234.23 551.26,-224.78 549.11,-235.15 556.05,-234.23"/>
</g>
<!-- gce&#45;demo&#45;setup&#45;repo.sh -->
<g id="node5" class="node">
<title>gce&#45;demo&#45;setup&#45;repo.sh</title>
<polygon fill="lightblue" stroke="black" points="868.5,-223 665,-223 665,-187 868.5,-187 868.5,-223"/>
<text xml:space="preserve" text-anchor="middle" x="766.75" y="-202.2" font-family="Times,serif" font-size="14.00">gce&#45;demo&#45;setup&#45;repo.sh</text>
<text xml:space="preserve" text-anchor="middle" x="766.75" y="-191.7" font-family="Times,serif" font-size="14.00">(Setup Remote Repository)</text>
</g>
<!-- gce&#45;demo&#45;deploy.sh&#45;&gt;gce&#45;demo&#45;setup&#45;repo.sh -->
<g id="edge4" class="edge">
<title>gce&#45;demo&#45;deploy.sh&#45;&gt;gce&#45;demo&#45;setup&#45;repo.sh</title>
<path fill="none" stroke="black" d="M660.08,-1005.56C673.93,-901.72 745.53,-365.07 762.93,-234.61"/>
<polygon fill="black" stroke="black" points="766.39,-235.15 764.24,-224.78 759.45,-234.23 766.39,-235.15"/>
</g>
<!-- gce&#45;certs.sh -->
<g id="node6" class="node">
<title>gce&#45;certs.sh</title>
<polygon fill="lightblue" stroke="black" points="1052.75,-223 886.75,-223 886.75,-187 1052.75,-187 1052.75,-223"/>
<text xml:space="preserve" text-anchor="middle" x="969.75" y="-202.2" font-family="Times,serif" font-size="14.00">gce&#45;certs.sh</text>
<text xml:space="preserve" text-anchor="middle" x="969.75" y="-191.7" font-family="Times,serif" font-size="14.00">(DNS &amp; Certificates)</text>
</g>
<!-- gce&#45;demo&#45;deploy.sh&#45;&gt;gce&#45;certs.sh -->
<g id="edge5" class="edge">
<title>gce&#45;demo&#45;deploy.sh&#45;&gt;gce&#45;certs.sh</title>
<path fill="none" stroke="black" d="M664.41,-1005.56C704.15,-901.51 909.83,-362.9 959.12,-233.82"/>
<polygon fill="black" stroke="black" points="962.31,-235.28 962.61,-224.69 955.77,-232.79 962.31,-235.28"/>
</g>
<!-- gce&#45;start&#45;hub.sh -->
<g id="node7" class="node">
<title>gce&#45;start&#45;hub.sh</title>
<polygon fill="lightblue" stroke="black" points="1229,-223 1070.5,-223 1070.5,-187 1229,-187 1229,-223"/>
<text xml:space="preserve" text-anchor="middle" x="1149.75" y="-202.2" font-family="Times,serif" font-size="14.00">gce&#45;start&#45;hub.sh</text>
<text xml:space="preserve" text-anchor="middle" x="1149.75" y="-191.7" font-family="Times,serif" font-size="14.00">(Build &amp; Start Hub)</text>
</g>
<!-- gce&#45;demo&#45;deploy.sh&#45;&gt;gce&#45;start&#45;hub.sh -->
<g id="edge6" class="edge">
<title>gce&#45;demo&#45;deploy.sh&#45;&gt;gce&#45;start&#45;hub.sh</title>
<path fill="none" stroke="black" d="M668.25,-1005.56C731.04,-901.3 1056.57,-360.74 1133.46,-233.05"/>
<polygon fill="black" stroke="black" points="1136.4,-234.95 1138.56,-224.58 1130.41,-231.34 1136.4,-234.95"/>
</g>
</g>
</svg>
