<?xml version="1.0" encoding="UTF-8" standalone="no"?>
<!DOCTYPE svg PUBLIC "-//W3C//DTD SVG 1.1//EN"
 "http://www.w3.org/Graphics/SVG/1.1/DTD/svg11.dtd">
<!-- Generated by graphviz version 2.44.1 (20201121.0304)
 -->
<!-- Title: G Pages: 1 -->
<svg width="1168pt" height="1167pt"
 viewBox="0.00 0.00 1168.00 1167.00" xmlns="http://www.w3.org/2000/svg" xmlns:xlink="http://www.w3.org/1999/xlink"><style>
  * {
    fill: transparent !important;
    stroke: #1f1f1f !important;
    stroke-width: 1 !important;
  }
  polygon:not(.cluster *, .node *, .edge *, text) {
    stroke: transparent !important;
  }
  text {
    font-size: 10px !important;
    font-family: monospace !important;
    fill: #1f1f1f !important;
    stroke: transparent !important;
    transform: translateY(-0.5em);
  }
</style>
<g id="graph0" class="graph" transform="scale(1 1) rotate(0) translate(4 1163.5)">
<title>G</title>
<polygon fill="white" stroke="none" points="-4,4 -4,-1163.5 1163.5,-1163.5 1163.5,4 -4,4"/>
<g id="clust1" class="cluster">
<title>cluster_operations</title>
<polygon fill="#f0f0f0" stroke="black" points="131.5,-39.73 131.5,-389.81 1151.5,-389.81 1151.5,-39.73 131.5,-39.73"/>
<text xml:space="preserve" text-anchor="middle" x="641.5" y="-372.51" font-family="Times,serif" font-size="14.00">Agent Management Operations</text>
</g>
<!-- GoClient -->
<g id="node1" class="node">
<title>GoClient</title>
<polygon fill="lightblue" stroke="black" points="695.5,-1087.73 499.5,-1087.73 499.5,-1051.73 695.5,-1051.73 695.5,-1087.73"/>
<text xml:space="preserve" text-anchor="middle" x="597.5" y="-1061.68" font-family="Times,serif" font-size="14.00">Go Client (brokerclient)</text>
</g>
<!-- RuntimeBroker -->
<g id="node2" class="node">
<title>RuntimeBroker</title>
<polygon fill="lightblue" stroke="black" points="658,-678.73 537,-678.73 537,-642.73 658,-642.73 658,-678.73"/>
<text xml:space="preserve" text-anchor="middle" x="597.5" y="-652.68" font-family="Times,serif" font-size="14.00">Runtime Broker</text>
</g>
<!-- GoClient&#45;&gt;RuntimeBroker -->
<g id="edge1" class="edge">
<title>GoClient&#45;&gt;RuntimeBroker</title>
<path fill="none" stroke="black" d="M597.5,-1051.24C597.5,-987.83 597.5,-769.62 597.5,-690.59"/>
<polygon fill="black" stroke="black" points="601,-690.66 597.5,-680.66 594,-690.66 601,-690.66"/>
<text xml:space="preserve" text-anchor="middle" x="631.25" y="-857.68" font-family="Times,serif" font-size="14.00">API Calls</text>
</g>
<!-- AgentInstance -->
<g id="node3" class="node">
<title>AgentInstance</title>
<polygon fill="lightblue" stroke="black" points="121,-186.73 0,-186.73 0,-150.73 121,-150.73 121,-186.73"/>
<text xml:space="preserve" text-anchor="middle" x="60.5" y="-160.68" font-family="Times,serif" font-size="14.00">Agent Instance</text>
</g>
<!-- RuntimeBroker&#45;&gt;AgentInstance -->
<g id="edge2" class="edge">
<title>RuntimeBroker&#45;&gt;AgentInstance</title>
<path fill="none" stroke="black" d="M577.31,-642.4C537.48,-608.15 446.17,-529.17 371,-460.98 264.19,-364.07 139.8,-245.67 86.69,-194.85"/>
<polygon fill="black" stroke="black" points="89.24,-192.44 79.6,-188.06 84.4,-197.5 89.24,-192.44"/>
<text xml:space="preserve" text-anchor="middle" x="419.75" y="-447.68" font-family="Times,serif" font-size="14.00">Manages Agent</text>
</g>
<!-- Lifecycle -->
<g id="node4" class="node">
<title>Lifecycle</title>
<polygon fill="lightblue" stroke="black" points="447.75,-186.73 139.25,-186.73 139.25,-150.73 447.75,-150.73 447.75,-186.73"/>
<text xml:space="preserve" text-anchor="middle" x="293.5" y="-160.68" font-family="Times,serif" font-size="14.00">Lifecycle (Create, Start, Stop, Delete)</text>
</g>
<!-- RuntimeBroker&#45;&gt;Lifecycle -->
<g id="edge3" class="edge">
<title>RuntimeBroker&#45;&gt;Lifecycle</title>
<path fill="none" stroke="black" d="M586.68,-642.29C541.25,-569.06 365.73,-286.16 310.35,-196.88"/>
<polygon fill="black" stroke="black" points="313.39,-195.15 305.15,-188.5 307.44,-198.84 313.39,-195.15"/>
</g>
<!-- Messaging -->
<g id="node5" class="node">
<title>Messaging</title>
<polygon fill="lightblue" stroke="black" points="729.25,-186.73 465.75,-186.73 465.75,-150.73 729.25,-150.73 729.25,-186.73"/>
<text xml:space="preserve" text-anchor="middle" x="597.5" y="-160.68" font-family="Times,serif" font-size="14.00">Messaging (SendStructuredMessage)</text>
</g>
<!-- RuntimeBroker&#45;&gt;Messaging -->
<g id="edge4" class="edge">
<title>RuntimeBroker&#45;&gt;Messaging</title>
<path fill="none" stroke="black" d="M597.5,-642.29C597.5,-569.51 597.5,-289.6 597.5,-198.53"/>
<polygon fill="black" stroke="black" points="601,-198.72 597.5,-188.73 594,-198.73 601,-198.72"/>
</g>
<!-- Execution -->
<g id="node6" class="node">
<title>Execution</title>
<polygon fill="lightblue" stroke="black" points="883.5,-186.73 747.5,-186.73 747.5,-150.73 883.5,-150.73 883.5,-186.73"/>
<text xml:space="preserve" text-anchor="middle" x="815.5" y="-160.68" font-family="Times,serif" font-size="14.00">Execution (Exec)</text>
</g>
<!-- RuntimeBroker&#45;&gt;Execution -->
<g id="edge5" class="edge">
<title>RuntimeBroker&#45;&gt;Execution</title>
<path fill="none" stroke="black" d="M605.26,-642.29C637.74,-569.29 762.93,-287.88 803.05,-197.7"/>
<polygon fill="black" stroke="black" points="806.24,-199.15 807.11,-188.59 799.84,-196.31 806.24,-199.15"/>
</g>
<!-- Monitoring -->
<g id="node7" class="node">
<title>Monitoring</title>
<polygon fill="lightblue" stroke="black" points="1143,-186.73 902,-186.73 902,-150.73 1143,-150.73 1143,-186.73"/>
<text xml:space="preserve" text-anchor="middle" x="1022.5" y="-160.68" font-family="Times,serif" font-size="14.00">Monitoring (GetLogs, GetStats)</text>
</g>
<!-- RuntimeBroker&#45;&gt;Monitoring -->
<g id="edge6" class="edge">
<title>RuntimeBroker&#45;&gt;Monitoring</title>
<path fill="none" stroke="black" d="M612.63,-642.29C676.39,-568.77 923.51,-283.86 999.88,-195.8"/>
<polygon fill="black" stroke="black" points="1002.43,-198.2 1006.34,-188.35 997.15,-193.62 1002.43,-198.2"/>
</g>
</g>
</svg>
