<?xml version="1.0" encoding="UTF-8" standalone="no"?>
<!DOCTYPE svg PUBLIC "-//W3C//DTD SVG 1.1//EN"
 "http://www.w3.org/Graphics/SVG/1.1/DTD/svg11.dtd">
<!-- Generated by graphviz version 2.44.1 (20201121.0304)
 -->
<!-- Title: G Pages: 1 -->
<svg width="488pt" height="460pt"
 viewBox="0.00 0.00 488.00 460.00" xmlns="http://www.w3.org/2000/svg" xmlns:xlink="http://www.w3.org/1999/xlink"><style>
  * {
    fill: transparent !important;
    stroke: #1f1f1f !important;
    stroke-width: 1 !important;
  }
  polygon:not(.cluster *, .node *, .edge *, text) {
    stroke: transparent !important;
  }
  text {
    font-size: 10px !important;
    font-family: monospace !important;
    fill: #1f1f1f !important;
    stroke: transparent !important;
    transform: translateY(-0.5em);
  }
</style>
<g id="graph0" class="graph" transform="scale(1 1) rotate(0) translate(4 456)">
<title>G</title>
<polygon fill="white" stroke="none" points="-4,4 -4,-456 484.01,-456 484.01,4 -4,4"/>
<!-- theme.css -->
<g id="node1" class="node">
<title>theme.css</title>
<polygon fill="lightblue" stroke="black" points="230.75,-398.75 49.75,-398.75 49.75,-359.25 230.75,-359.25 230.75,-398.75"/>
<text xml:space="preserve" text-anchor="middle" x="140.25" y="-381.45" font-family="Times,serif" font-size="14.00">theme.css</text>
<text xml:space="preserve" text-anchor="middle" x="140.25" y="-370.95" font-family="Times,serif" font-size="14.00">(Core CSS Properties,</text>
<text xml:space="preserve" text-anchor="middle" x="140.25" y="-360.45" font-family="Times,serif" font-size="14.00">Light/Dark Mode Logic)</text>
</g>
<!-- Shoelace Components -->
<g id="node2" class="node">
<title>Shoelace Components</title>
<polygon fill="lightblue" stroke="black" points="158.5,-85 0,-85 0,-49 158.5,-49 158.5,-85"/>
<text xml:space="preserve" text-anchor="middle" x="79.25" y="-58.95" font-family="Times,serif" font-size="14.00">Shoelace Components</text>
</g>
<!-- theme.css&#45;&gt;Shoelace Components -->
<g id="edge1" class="edge">
<title>theme.css&#45;&gt;Shoelace Components</title>
<path fill="none" stroke="black" d="M130.09,-358.92C115.67,-330.67 89.95,-275.61 80.25,-225.25 71.69,-180.8 73.8,-127.96 76.35,-96.25"/>
<polygon fill="black" stroke="black" points="79.8,-96.96 77.19,-86.7 72.82,-96.35 79.8,-96.96"/>
<text xml:space="preserve" text-anchor="middle" x="155.25" y="-211.95" font-family="Times,serif" font-size="14.00">Maps to SL Variables</text>
</g>
<!-- Web UI Elements -->
<g id="node3" class="node">
<title>Web UI Elements</title>
<polygon fill="lightblue" stroke="black" points="380.5,-85 252,-85 252,-49 380.5,-49 380.5,-85"/>
<text xml:space="preserve" text-anchor="middle" x="316.25" y="-58.95" font-family="Times,serif" font-size="14.00">Web UI Elements</text>
</g>
<!-- theme.css&#45;&gt;Web UI Elements -->
<g id="edge2" class="edge">
<title>theme.css&#45;&gt;Web UI Elements</title>
<path fill="none" stroke="black" d="M151.81,-358.82C169.14,-329.99 202.74,-273.7 230.25,-225.25 256.06,-179.79 285.04,-126.27 301.9,-94.85"/>
<polygon fill="black" stroke="black" points="304.78,-96.89 306.42,-86.42 298.61,-93.58 304.78,-96.89"/>
<text xml:space="preserve" text-anchor="middle" x="287.5" y="-211.95" font-family="Times,serif" font-size="14.00">Applies Styles</text>
</g>
<!-- utilities.css -->
<g id="node4" class="node">
<title>utilities.css</title>
<polygon fill="lightblue" stroke="black" points="452,-397 308.5,-397 308.5,-361 452,-361 452,-397"/>
<text xml:space="preserve" text-anchor="middle" x="380.25" y="-376.2" font-family="Times,serif" font-size="14.00">utilities.css</text>
<text xml:space="preserve" text-anchor="middle" x="380.25" y="-365.7" font-family="Times,serif" font-size="14.00">(Utility Classes)</text>
</g>
<!-- utilities.css&#45;&gt;Web UI Elements -->
<g id="edge3" class="edge">
<title>utilities.css&#45;&gt;Web UI Elements</title>
<path fill="none" stroke="black" d="M378.75,-360.7C375.97,-330.75 369.27,-267.37 358.25,-214.75 349.48,-172.85 335.05,-125.39 325.6,-96.07"/>
<polygon fill="black" stroke="black" points="329.02,-95.28 322.59,-86.85 322.37,-97.45 329.02,-95.28"/>
<text xml:space="preserve" text-anchor="middle" x="420.01" y="-211.95" font-family="Times,serif" font-size="14.00">Provides Classes</text>
</g>
</g>
</svg>
