<?xml version="1.0" encoding="UTF-8" standalone="no"?>
<!DOCTYPE svg PUBLIC "-//W3C//DTD SVG 1.1//EN"
 "http://www.w3.org/Graphics/SVG/1.1/DTD/svg11.dtd">
<!-- Generated by graphviz version 2.44.1 (20201121.0304)
 -->
<!-- Title: G Pages: 1 -->
<svg width="583pt" height="554pt"
 viewBox="0.00 0.00 583.00 554.00" xmlns="http://www.w3.org/2000/svg" xmlns:xlink="http://www.w3.org/1999/xlink"><style>
  * {
    fill: transparent !important;
    stroke: #1f1f1f !important;
    stroke-width: 1 !important;
  }
  polygon:not(.cluster *, .node *, .edge *, text) {
    stroke: transparent !important;
  }
  text {
    font-size: 10px !important;
    font-family: monospace !important;
    fill: #1f1f1f !important;
    stroke: transparent !important;
    transform: translateY(-0.5em);
  }
</style>
<g id="graph0" class="graph" transform="scale(1 1) rotate(0) translate(4 550.5)">
<title>G</title>
<polygon fill="white" stroke="none" points="-4,4 -4,-550.5 578.52,-550.5 578.52,4 -4,4"/>
<!-- Client -->
<g id="node1" class="node">
<title>Client</title>
<polygon fill="lightblue" stroke="black" points="394.27,-530 333.27,-530 333.27,-494 394.27,-494 394.27,-530"/>
<text xml:space="preserve" text-anchor="middle" x="363.77" y="-503.95" font-family="Times,serif" font-size="14.00">Client</text>
</g>
<!-- ConfigureRequest -->
<g id="node2" class="node">
<title>ConfigureRequest</title>
<polygon fill="lightblue" stroke="black" points="381.52,-374 28.02,-374 28.02,-338 381.52,-338 381.52,-374"/>
<text xml:space="preserve" text-anchor="middle" x="204.77" y="-347.95" font-family="Times,serif" font-size="14.00">{ConfigureRequest|config: map&lt;string,string&gt;}</text>
</g>
<!-- Client&#45;&gt;ConfigureRequest -->
<g id="edge1" class="edge">
<title>Client&#45;&gt;ConfigureRequest</title>
<path fill="none" stroke="black" d="M345.84,-493.63C317.66,-466.34 262.88,-413.28 230.5,-381.92"/>
<polygon fill="black" stroke="black" points="233.1,-379.56 223.48,-375.12 228.23,-384.59 233.1,-379.56"/>
<text xml:space="preserve" text-anchor="middle" x="322.79" y="-425.95" font-family="Times,serif" font-size="14.00">Configure</text>
</g>
<!-- GetInfoRequest -->
<g id="node5" class="node">
<title>GetInfoRequest</title>
<polygon fill="lightblue" stroke="black" points="520.27,-374 399.27,-374 399.27,-338 520.27,-338 520.27,-374"/>
<text xml:space="preserve" text-anchor="middle" x="459.77" y="-347.95" font-family="Times,serif" font-size="14.00">GetInfoRequest</text>
</g>
<!-- Client&#45;&gt;GetInfoRequest -->
<g id="edge5" class="edge">
<title>Client&#45;&gt;GetInfoRequest</title>
<path fill="none" stroke="black" d="M374.6,-493.63C391.32,-466.8 423.57,-415.08 443.23,-383.54"/>
<polygon fill="black" stroke="black" points="446.01,-385.69 448.33,-375.35 440.07,-381.99 446.01,-385.69"/>
<text xml:space="preserve" text-anchor="middle" x="440.9" y="-425.95" font-family="Times,serif" font-size="14.00">GetInfo</text>
</g>
<!-- BrokerService -->
<g id="node3" class="node">
<title>BrokerService</title>
<polygon fill="lightblue" stroke="black" points="359.52,-236 246.02,-236 246.02,-200 359.52,-200 359.52,-236"/>
<text xml:space="preserve" text-anchor="middle" x="302.77" y="-209.95" font-family="Times,serif" font-size="14.00">BrokerService</text>
</g>
<!-- ConfigureRequest&#45;&gt;BrokerService -->
<g id="edge2" class="edge">
<title>ConfigureRequest&#45;&gt;BrokerService</title>
<path fill="none" stroke="black" d="M217.18,-337.78C233.97,-314.48 264.08,-272.7 283.74,-245.42"/>
<polygon fill="black" stroke="black" points="286.57,-247.47 289.58,-237.31 280.89,-243.38 286.57,-247.47"/>
</g>
<!-- ConfigureResponse -->
<g id="node4" class="node">
<title>ConfigureResponse</title>
<polygon fill="lightblue" stroke="black" points="272.52,-75 129.02,-75 129.02,-39 272.52,-39 272.52,-75"/>
<text xml:space="preserve" text-anchor="middle" x="200.77" y="-48.95" font-family="Times,serif" font-size="14.00">ConfigureResponse</text>
</g>
<!-- BrokerService&#45;&gt;ConfigureResponse -->
<g id="edge3" class="edge">
<title>BrokerService&#45;&gt;ConfigureResponse</title>
<path fill="none" stroke="black" d="M291.66,-199.68C273.88,-171.96 238.9,-117.44 217.9,-84.7"/>
<polygon fill="black" stroke="black" points="221.03,-83.1 212.69,-76.57 215.14,-86.88 221.03,-83.1"/>
</g>
<!-- GetInfoResponse -->
<g id="node6" class="node">
<title>GetInfoResponse</title>
<polygon fill="lightblue" stroke="black" points="574.52,-87.25 341.02,-87.25 341.02,-26.75 574.52,-26.75 574.52,-87.25"/>
<text xml:space="preserve" text-anchor="middle" x="457.77" y="-69.95" font-family="Times,serif" font-size="14.00">{GetInfoResponse|name: string</text>
<text xml:space="preserve" text-anchor="middle" x="457.77" y="-59.45" font-family="Times,serif" font-size="14.00">version: string</text>
<text xml:space="preserve" text-anchor="middle" x="457.77" y="-48.95" font-family="Times,serif" font-size="14.00">min_scion_version: string</text>
<text xml:space="preserve" text-anchor="middle" x="457.77" y="-38.45" font-family="Times,serif" font-size="14.00">channel_id: string</text>
<text xml:space="preserve" text-anchor="middle" x="457.77" y="-27.95" font-family="Times,serif" font-size="14.00">capabilities: []string}</text>
</g>
<!-- BrokerService&#45;&gt;GetInfoResponse -->
<g id="edge7" class="edge">
<title>BrokerService&#45;&gt;GetInfoResponse</title>
<path fill="none" stroke="black" d="M319.66,-199.68C343.81,-174.9 388.87,-128.68 420.95,-95.78"/>
<polygon fill="black" stroke="black" points="423.27,-98.41 427.74,-88.8 418.26,-93.52 423.27,-98.41"/>
</g>
<!-- ConfigureResponse&#45;&gt;Client -->
<g id="edge4" class="edge">
<title>ConfigureResponse&#45;&gt;Client</title>
<path fill="none" stroke="black" d="M176.64,-75.32C111.99,-123.86 -55.37,-264.79 18.77,-374 87.83,-475.73 245.58,-501.92 321.47,-508.66"/>
<polygon fill="black" stroke="black" points="321.16,-512.15 331.41,-509.47 321.72,-505.17 321.16,-512.15"/>
</g>
<!-- GetInfoRequest&#45;&gt;BrokerService -->
<g id="edge6" class="edge">
<title>GetInfoRequest&#45;&gt;BrokerService</title>
<path fill="none" stroke="black" d="M439.89,-337.78C412.28,-313.86 362.21,-270.49 330.82,-243.3"/>
<polygon fill="black" stroke="black" points="333.49,-240.98 323.64,-237.08 328.91,-246.27 333.49,-240.98"/>
</g>
<!-- GetInfoResponse&#45;&gt;Client -->
<g id="edge8" class="edge">
<title>GetInfoResponse&#45;&gt;Client</title>
<path fill="none" stroke="black" d="M475.8,-87.58C508.06,-144.51 568.8,-272.66 529.77,-374 507.86,-430.9 446.44,-470.92 404.78,-492.47"/>
<polygon fill="black" stroke="black" points="403.37,-489.26 396,-496.87 406.51,-495.51 403.37,-489.26"/>
</g>
</g>
</svg>
