<?xml version="1.0" encoding="UTF-8" standalone="no"?>
<!DOCTYPE svg PUBLIC "-//W3C//DTD SVG 1.1//EN"
 "http://www.w3.org/Graphics/SVG/1.1/DTD/svg11.dtd">
<!-- Generated by graphviz version 2.44.1 (20201121.0304)
 -->
<!-- Title: G Pages: 1 -->
<svg width="554pt" height="554pt"
 viewBox="0.00 0.00 554.00 554.00" xmlns="http://www.w3.org/2000/svg" xmlns:xlink="http://www.w3.org/1999/xlink"><style>
  * {
    fill: transparent !important;
    stroke: #1f1f1f !important;
    stroke-width: 1 !important;
  }
  polygon:not(.cluster *, .node *, .edge *, text) {
    stroke: transparent !important;
  }
  text {
    font-size: 10px !important;
    font-family: monospace !important;
    fill: #1f1f1f !important;
    stroke: transparent !important;
    transform: translateY(-0.5em);
  }
</style>
<g id="graph0" class="graph" transform="scale(1 1) rotate(0) translate(4 549.5)">
<title>G</title>
<polygon fill="white" stroke="none" points="-4,4 -4,-549.5 549.5,-549.5 549.5,4 -4,4"/>
<!-- SkillResolver -->
<g id="node1" class="node">
<title>SkillResolver</title>
<polygon fill="lightblue" stroke="black" points="470.5,-529 267,-529 267,-493 470.5,-493 470.5,-529"/>
<text xml:space="preserve" text-anchor="middle" x="368.75" y="-502.95" font-family="Times,serif" font-size="14.00">SkillResolver (Interface)</text>
</g>
<!-- CachingSkillResolver -->
<g id="node2" class="node">
<title>CachingSkillResolver</title>
<polygon fill="lightblue" stroke="black" points="451.75,-370 285.75,-370 285.75,-334 451.75,-334 451.75,-370"/>
<text xml:space="preserve" text-anchor="middle" x="368.75" y="-343.95" font-family="Times,serif" font-size="14.00">CachingSkillResolver</text>
</g>
<!-- SkillResolver&#45;&gt;CachingSkillResolver -->
<g id="edge1" class="edge">
<title>SkillResolver&#45;&gt;CachingSkillResolver</title>
<path fill="none" stroke="black" d="M368.75,-492.6C368.75,-465.84 368.75,-414.29 368.75,-381.87"/>
<polygon fill="black" stroke="black" points="372.25,-381.99 368.75,-371.99 365.25,-381.99 372.25,-381.99"/>
<text xml:space="preserve" text-anchor="middle" x="421.25" y="-422.95" font-family="Times,serif" font-size="14.00">implemented by</text>
</g>
<!-- SpecificResolvers -->
<g id="node3" class="node">
<title>SpecificResolvers</title>
<polygon fill="lightblue" stroke="black" points="354.25,-211 203.25,-211 203.25,-175 354.25,-175 354.25,-211"/>
<text xml:space="preserve" text-anchor="middle" x="278.75" y="-190.2" font-family="Times,serif" font-size="14.00">Specific Resolvers</text>
<text xml:space="preserve" text-anchor="middle" x="278.75" y="-179.7" font-family="Times,serif" font-size="14.00">(GCP, GitHub, Hub)</text>
</g>
<!-- CachingSkillResolver&#45;&gt;SpecificResolvers -->
<g id="edge2" class="edge">
<title>CachingSkillResolver&#45;&gt;SpecificResolvers</title>
<path fill="none" stroke="black" d="M339.72,-333.52C321.21,-320.7 298.56,-301.5 286.75,-278.25 278.13,-261.28 276.19,-239.91 276.37,-222.94"/>
<polygon fill="black" stroke="black" points="279.86,-223.12 276.75,-212.99 272.87,-222.85 279.86,-223.12"/>
<text xml:space="preserve" text-anchor="middle" x="361.75" y="-264.95" font-family="Times,serif" font-size="14.00">wraps / delegates to</text>
</g>
<!-- TemplateCache -->
<g id="node4" class="node">
<title>TemplateCache</title>
<polygon fill="lightblue" stroke="black" points="545.5,-211 372,-211 372,-175 545.5,-175 545.5,-211"/>
<text xml:space="preserve" text-anchor="middle" x="458.75" y="-190.2" font-family="Times,serif" font-size="14.00">Skill Content Cache</text>
<text xml:space="preserve" text-anchor="middle" x="458.75" y="-179.7" font-family="Times,serif" font-size="14.00">(templatecache.Cache)</text>
</g>
<!-- CachingSkillResolver&#45;&gt;TemplateCache -->
<g id="edge3" class="edge">
<title>CachingSkillResolver&#45;&gt;TemplateCache</title>
<path fill="none" stroke="black" d="M389.83,-333.65C405,-320.07 424.82,-299.9 436.75,-278.25 446.29,-260.93 451.83,-239.31 454.96,-222.31"/>
<polygon fill="black" stroke="black" points="458.34,-223.32 456.51,-212.88 451.43,-222.18 458.34,-223.32"/>
<text xml:space="preserve" text-anchor="middle" x="455.94" y="-264.95" font-family="Times,serif" font-size="14.00">uses</text>
</g>
<!-- GitHubResolutionCache -->
<g id="node5" class="node">
<title>GitHubResolutionCache</title>
<polygon fill="lightblue" stroke="black" points="173.5,-53 0,-53 0,-17 173.5,-17 173.5,-53"/>
<text xml:space="preserve" text-anchor="middle" x="86.75" y="-26.95" font-family="Times,serif" font-size="14.00">GitHubResolutionCache</text>
</g>
<!-- SpecificResolvers&#45;&gt;GitHubResolutionCache -->
<g id="edge4" class="edge">
<title>SpecificResolvers&#45;&gt;GitHubResolutionCache</title>
<path fill="none" stroke="black" d="M231.47,-174.59C202.63,-162.3 166.33,-143.67 139.75,-119.25 122.72,-103.6 108.91,-81.31 99.67,-63.73"/>
<polygon fill="black" stroke="black" points="102.81,-62.21 95.19,-54.85 96.56,-65.35 102.81,-62.21"/>
<text xml:space="preserve" text-anchor="middle" x="207.25" y="-105.95" font-family="Times,serif" font-size="14.00">uses (GitHub only)</text>
</g>
<!-- URIParsing -->
<g id="node6" class="node">
<title>URIParsing</title>
<polygon fill="lightblue" stroke="black" points="365.5,-53 192,-53 192,-17 365.5,-17 365.5,-53"/>
<text xml:space="preserve" text-anchor="middle" x="278.75" y="-32.2" font-family="Times,serif" font-size="14.00">URI Parsing</text>
<text xml:space="preserve" text-anchor="middle" x="278.75" y="-21.7" font-family="Times,serif" font-size="14.00">(gcp_uri, github_uri)</text>
</g>
<!-- SpecificResolvers&#45;&gt;URIParsing -->
<g id="edge5" class="edge">
<title>SpecificResolvers&#45;&gt;URIParsing</title>
<path fill="none" stroke="black" d="M278.75,-174.71C278.75,-148.12 278.75,-96.9 278.75,-64.69"/>
<polygon fill="black" stroke="black" points="282.25,-64.88 278.75,-54.88 275.25,-64.88 282.25,-64.88"/>
<text xml:space="preserve" text-anchor="middle" x="293.75" y="-105.95" font-family="Times,serif" font-size="14.00">uses</text>
</g>
<!-- SecurityChecks -->
<g id="node7" class="node">
<title>SecurityChecks</title>
<polygon fill="lightblue" stroke="black" points="512,-53 383.5,-53 383.5,-17 512,-17 512,-53"/>
<text xml:space="preserve" text-anchor="middle" x="447.75" y="-32.2" font-family="Times,serif" font-size="14.00">Security Checks</text>
<text xml:space="preserve" text-anchor="middle" x="447.75" y="-21.7" font-family="Times,serif" font-size="14.00">(GCP Resolver)</text>
</g>
<!-- SpecificResolvers&#45;&gt;SecurityChecks -->
<g id="edge6" class="edge">
<title>SpecificResolvers&#45;&gt;SecurityChecks</title>
<path fill="none" stroke="black" d="M297.48,-174.71C327.43,-147.07 386.22,-92.8 420.72,-60.95"/>
<polygon fill="black" stroke="black" points="422.85,-63.75 427.82,-54.39 418.1,-58.61 422.85,-63.75"/>
<text xml:space="preserve" text-anchor="middle" x="439.57" y="-105.95" font-family="Times,serif" font-size="14.00">includes (GCP only)</text>
</g>
</g>
</svg>
