<?xml version="1.0" encoding="UTF-8" standalone="no"?>
<!DOCTYPE svg PUBLIC "-//W3C//DTD SVG 1.1//EN"
 "http://www.w3.org/Graphics/SVG/1.1/DTD/svg11.dtd">
<!-- Generated by graphviz version 2.44.1 (20201121.0304)
 -->
<!-- Title: G Pages: 1 -->
<svg width="1014pt" height="735pt"
 viewBox="0.00 0.00 1014.00 735.00" xmlns="http://www.w3.org/2000/svg" xmlns:xlink="http://www.w3.org/1999/xlink"><style>
  * {
    fill: transparent !important;
    stroke: #1f1f1f !important;
    stroke-width: 1 !important;
  }
  polygon:not(.cluster *, .node *, .edge *, text) {
    stroke: transparent !important;
  }
  text {
    font-size: 10px !important;
    font-family: monospace !important;
    fill: #1f1f1f !important;
    stroke: transparent !important;
    transform: translateY(-0.5em);
  }
</style>
<g id="graph0" class="graph" transform="scale(1 1) rotate(0) translate(4 731.25)">
<title>G</title>
<polygon fill="white" stroke="none" points="-4,4 -4,-731.25 1010.14,-731.25 1010.14,4 -4,4"/>
<!-- Slack App -->
<g id="node1" class="node">
<title>Slack App</title>
<g id="a_node1"><a xlink:href="https://api.slack.com/" xlink:title="Slack App">
<polygon fill="lightblue" stroke="black" stroke-width="2" points="85.75,-701 2.25,-701 2.25,-665 85.75,-665 85.75,-701"/>
<text xml:space="preserve" text-anchor="middle" x="44" y="-674.95" font-family="Times,serif" font-size="14.00">Slack App</text>
</a>
</g>
</g>
<!-- eventServer -->
<g id="node2" class="node">
<title>eventServer</title>
<polygon fill="lightblue" stroke="black" stroke-width="2" points="279.25,-497 180.75,-497 180.75,-461 279.25,-461 279.25,-497"/>
<text xml:space="preserve" text-anchor="middle" x="230" y="-470.95" font-family="Times,serif" font-size="14.00">eventServer</text>
</g>
<!-- Slack App&#45;&gt;eventServer -->
<g id="edge1" class="edge">
<title>Slack App&#45;&gt;eventServer</title>
<path fill="none" stroke="black" d="M86.45,-674.78C133.3,-664.3 206.5,-639.9 240,-586.25 254.52,-562.99 248.91,-531.12 241.59,-508.36"/>
<polygon fill="black" stroke="black" points="244.96,-507.38 238.33,-499.12 238.36,-509.71 244.96,-507.38"/>
<text xml:space="preserve" text-anchor="middle" x="349.92" y="-572.95" font-family="Times,serif" font-size="14.00">Events/Commands/Interactions</text>
</g>
<!-- eventServer&#45;&gt;Slack App -->
<g id="edge2" class="edge">
<title>eventServer&#45;&gt;Slack App</title>
<path fill="none" stroke="black" d="M179.76,-490.04C134.65,-502 71.04,-526.86 41,-575.75 26.77,-598.91 29.91,-630.6 35.14,-653.34"/>
<polygon fill="black" stroke="black" points="31.71,-654.05 37.61,-662.85 38.49,-652.29 31.71,-654.05"/>
<text xml:space="preserve" text-anchor="middle" x="138.5" y="-572.95" font-family="Times,serif" font-size="14.00">Messages/Ephemeral Replies</text>
</g>
<!-- SlackBroker -->
<g id="node3" class="node">
<title>SlackBroker</title>
<polygon fill="lightblue" stroke="black" stroke-width="2" points="445,-293 189,-293 189,-257 445,-257 445,-293"/>
<text xml:space="preserve" text-anchor="middle" x="317" y="-266.95" font-family="Times,serif" font-size="14.00">SlackBroker (fabric&#45;slack plugin)</text>
</g>
<!-- eventServer&#45;&gt;SlackBroker -->
<g id="edge4" class="edge">
<title>eventServer&#45;&gt;SlackBroker</title>
<path fill="none" stroke="black" d="M237.72,-460.07C252.88,-424.89 286.62,-346.53 304.82,-304.29"/>
<polygon fill="black" stroke="black" points="307.96,-305.84 308.7,-295.28 301.53,-303.08 307.96,-305.84"/>
<text xml:space="preserve" text-anchor="middle" x="359.75" y="-368.95" font-family="Times,serif" font-size="14.00">Deliver Inbound Message</text>
</g>
<!-- SQLite Store -->
<g id="node5" class="node">
<title>SQLite Store</title>
<polygon fill="lightblue" stroke="black" stroke-width="2" points="106,-63 0,-63 0,-27 106,-27 106,-63"/>
<text xml:space="preserve" text-anchor="middle" x="53" y="-36.95" font-family="Times,serif" font-size="14.00">SQLite Store</text>
</g>
<!-- eventServer&#45;&gt;SQLite Store -->
<g id="edge8" class="edge">
<title>eventServer&#45;&gt;SQLite Store</title>
<path fill="none" stroke="black" d="M201.21,-460.18C157.68,-431.33 76.81,-369.79 45,-293 14.5,-219.37 32.48,-122.54 44.64,-74.95"/>
<polygon fill="black" stroke="black" points="47.98,-75.98 47.18,-65.42 41.22,-74.18 47.98,-75.98"/>
<text xml:space="preserve" text-anchor="middle" x="112.5" y="-266.95" font-family="Times,serif" font-size="14.00">Read/Write Context</text>
</g>
<!-- SlackBroker&#45;&gt;Slack App -->
<g id="edge3" class="edge">
<title>SlackBroker&#45;&gt;Slack App</title>
<path fill="none" stroke="black" d="M272.36,-293.93C211.9,-320.7 105.41,-377.11 52,-461 14.14,-520.46 26.47,-608.3 36.47,-653.23"/>
<polygon fill="black" stroke="black" points="33.01,-653.8 38.71,-662.73 39.82,-652.19 33.01,-653.8"/>
<text xml:space="preserve" text-anchor="middle" x="112" y="-470.95" font-family="Times,serif" font-size="14.00">Publish Messages</text>
</g>
<!-- Fabric Hub API -->
<g id="node4" class="node">
<title>Fabric Hub API</title>
<polygon fill="lightblue" stroke="black" stroke-width="2" points="502.75,-63 389.25,-63 389.25,-27 502.75,-27 502.75,-63"/>
<text xml:space="preserve" text-anchor="middle" x="446" y="-36.95" font-family="Times,serif" font-size="14.00">Fabric Hub API</text>
</g>
<!-- SlackBroker&#45;&gt;Fabric Hub API -->
<g id="edge5" class="edge">
<title>SlackBroker&#45;&gt;Fabric Hub API</title>
<path fill="none" stroke="black" d="M300.01,-256.38C278.26,-231.6 245.73,-185.45 266.5,-149.5 290.37,-108.18 337.7,-81.9 377.76,-66.15"/>
<polygon fill="black" stroke="black" points="378.76,-69.52 386.89,-62.72 376.3,-62.97 378.76,-69.52"/>
<text xml:space="preserve" text-anchor="middle" x="345.25" y="-157.2" font-family="Times,serif" font-size="14.00">List Agents/Projects,</text>
<text xml:space="preserve" text-anchor="middle" x="345.25" y="-146.7" font-family="Times,serif" font-size="14.00">Deliver Inbound</text>
</g>
<!-- SlackBroker&#45;&gt;SQLite Store -->
<g id="edge7" class="edge">
<title>SlackBroker&#45;&gt;SQLite Store</title>
<path fill="none" stroke="black" d="M231.31,-256.01C181.28,-241.2 120.85,-215.13 83.5,-170.5 60.98,-143.59 54.63,-102.6 53.07,-75.09"/>
<polygon fill="black" stroke="black" points="56.58,-75.22 52.72,-65.36 49.59,-75.48 56.58,-75.22"/>
<text xml:space="preserve" text-anchor="middle" x="169.75" y="-151.95" font-family="Times,serif" font-size="14.00">Read/Write Config/State</text>
</g>
<!-- Fabric Agent -->
<g id="node6" class="node">
<title>Fabric Agent</title>
<polygon fill="lightblue" stroke="black" stroke-width="2" points="727.25,-701 628.75,-701 628.75,-665 727.25,-665 727.25,-701"/>
<text xml:space="preserve" text-anchor="middle" x="678" y="-674.95" font-family="Times,serif" font-size="14.00">Fabric Agent</text>
</g>
<!-- SlackBroker&#45;&gt;Fabric Agent -->
<g id="edge10" class="edge">
<title>SlackBroker&#45;&gt;Fabric Agent</title>
<path fill="none" stroke="black" stroke-dasharray="1,5" d="M445.77,-287.14C558.41,-299.87 709.71,-325.25 747,-371.75 815.52,-457.21 736.28,-596.69 697.24,-655.02"/>
<polygon fill="black" stroke="black" points="694.5,-652.82 691.76,-663.05 700.29,-656.77 694.5,-652.82"/>
<text xml:space="preserve" text-anchor="middle" x="889.89" y="-470.95" font-family="Times,serif" font-size="14.00">Logical communication (via Hub)</text>
</g>
<!-- Fabric Hub API&#45;&gt;SlackBroker -->
<g id="edge6" class="edge">
<title>Fabric Hub API&#45;&gt;SlackBroker</title>
<path fill="none" stroke="black" d="M446.23,-63.6C445.85,-88.76 442.44,-135.81 424,-170.5 406.9,-202.68 376.18,-230.8 352.03,-249.58"/>
<polygon fill="black" stroke="black" points="350.21,-246.57 344.35,-255.4 354.43,-252.16 350.21,-246.57"/>
<text xml:space="preserve" text-anchor="middle" x="499.73" y="-151.95" font-family="Times,serif" font-size="14.00">Agent/Project Data</text>
</g>
<!-- Fabric Agent&#45;&gt;Fabric Hub API -->
<g id="edge9" class="edge">
<title>Fabric Agent&#45;&gt;Fabric Hub API</title>
<path fill="none" stroke="black" d="M678.55,-664.42C679.97,-594.05 677.68,-327.97 571,-149.5 550.89,-115.86 515.73,-88.22 487.81,-69.99"/>
<polygon fill="black" stroke="black" points="489.87,-67.15 479.55,-64.75 486.12,-73.07 489.87,-67.15"/>
<text xml:space="preserve" text-anchor="middle" x="728.42" y="-368.95" font-family="Times,serif" font-size="14.00">Register/Communicate</text>
</g>
</g>
</svg>
