<?xml version="1.0" encoding="UTF-8" standalone="no"?>
<!DOCTYPE svg PUBLIC "-//W3C//DTD SVG 1.1//EN"
 "http://www.w3.org/Graphics/SVG/1.1/DTD/svg11.dtd">
<!-- Generated by graphviz version 2.44.1 (20201121.0304)
 -->
<!-- Title: G Pages: 1 -->
<svg width="414pt" height="414pt"
 viewBox="0.00 0.00 414.00 414.00" xmlns="http://www.w3.org/2000/svg" xmlns:xlink="http://www.w3.org/1999/xlink"><style>
  * {
    fill: transparent !important;
    stroke: #1f1f1f !important;
    stroke-width: 1 !important;
  }
  polygon:not(.cluster *, .node *, .edge *, text) {
    stroke: transparent !important;
  }
  text {
    font-size: 10px !important;
    font-family: monospace !important;
    fill: #1f1f1f !important;
    stroke: transparent !important;
    transform: translateY(-0.5em);
  }
</style>
<g id="graph0" class="graph" transform="scale(1 1) rotate(0) translate(4 410)">
<title>G</title>
<polygon fill="white" stroke="none" points="-4,4 -4,-410 410,-410 410,4 -4,4"/>
<!-- Generic MCP Configs -->
<g id="node1" class="node">
<title>Generic MCP Configs</title>
<polygon fill="lightblue" stroke="black" points="282.25,-404 123.75,-404 123.75,-368 282.25,-368 282.25,-404"/>
<text xml:space="preserve" text-anchor="middle" x="203" y="-377.95" font-family="Times,serif" font-size="14.00">Generic MCP Configs</text>
</g>
<!-- fabric_harness.py -->
<g id="node2" class="node">
<title>fabric_harness.py</title>
<polygon fill="lightblue" stroke="black" points="406,-313 0,-313 0,-277 406,-277 406,-313"/>
<text xml:space="preserve" text-anchor="middle" x="203" y="-286.95" font-family="Times,serif" font-size="14.00">fabric_harness.py (MCP Translation &amp; Standardization)</text>
</g>
<!-- Generic MCP Configs&#45;&gt;fabric_harness.py -->
<g id="edge1" class="edge">
<title>Generic MCP Configs&#45;&gt;fabric_harness.py</title>
<path fill="none" stroke="black" d="M203,-367.84C203,-355.61 203,-338.87 203,-324.63"/>
<polygon fill="black" stroke="black" points="206.5,-324.92 203,-314.92 199.5,-324.92 206.5,-324.92"/>
<text xml:space="preserve" text-anchor="middle" x="221.75" y="-331.95" font-family="Times,serif" font-size="14.00">Input</text>
</g>
<!-- Agent Provisioners -->
<g id="node3" class="node">
<title>Agent Provisioners</title>
<polygon fill="lightblue" stroke="black" points="323.5,-221 82.5,-221 82.5,-185 323.5,-185 323.5,-221"/>
<text xml:space="preserve" text-anchor="middle" x="203" y="-200.2" font-family="Times,serif" font-size="14.00">Agent&#45;Specific Provisioners</text>
<text xml:space="preserve" text-anchor="middle" x="203" y="-189.7" font-family="Times,serif" font-size="14.00">(e.g., Copilot, Codex, Claude)</text>
</g>
<!-- fabric_harness.py&#45;&gt;Agent Provisioners -->
<g id="edge2" class="edge">
<title>fabric_harness.py&#45;&gt;Agent Provisioners</title>
<path fill="none" stroke="black" d="M203,-276.65C203,-264.2 203,-247.14 203,-232.68"/>
<polygon fill="black" stroke="black" points="206.5,-232.81 203,-222.81 199.5,-232.81 206.5,-232.81"/>
<text xml:space="preserve" text-anchor="middle" x="281.75" y="-240.95" font-family="Times,serif" font-size="14.00">Translates &amp; Provides</text>
</g>
<!-- Agent Config Files -->
<g id="node4" class="node">
<title>Agent Config Files</title>
<polygon fill="lightblue" stroke="black" points="304.75,-129 101.25,-129 101.25,-93 304.75,-93 304.75,-129"/>
<text xml:space="preserve" text-anchor="middle" x="203" y="-102.95" font-family="Times,serif" font-size="14.00">Agent Native Config Files</text>
</g>
<!-- Agent Provisioners&#45;&gt;Agent Config Files -->
<g id="edge3" class="edge">
<title>Agent Provisioners&#45;&gt;Agent Config Files</title>
<path fill="none" stroke="black" d="M203,-184.65C203,-172.2 203,-155.14 203,-140.68"/>
<polygon fill="black" stroke="black" points="206.5,-140.81 203,-130.81 199.5,-140.81 206.5,-140.81"/>
<text xml:space="preserve" text-anchor="middle" x="278" y="-148.95" font-family="Times,serif" font-size="14.00">Writes Native Config</text>
</g>
<!-- Agent Runtime -->
<g id="node5" class="node">
<title>Agent Runtime</title>
<polygon fill="lightblue" stroke="black" points="259.75,-38 146.25,-38 146.25,-2 259.75,-2 259.75,-38"/>
<text xml:space="preserve" text-anchor="middle" x="203" y="-11.95" font-family="Times,serif" font-size="14.00">Agent Runtime</text>
</g>
<!-- Agent Config Files&#45;&gt;Agent Runtime -->
<g id="edge4" class="edge">
<title>Agent Config Files&#45;&gt;Agent Runtime</title>
<path fill="none" stroke="black" d="M203,-92.84C203,-80.61 203,-63.87 203,-49.63"/>
<polygon fill="black" stroke="black" points="206.5,-49.92 203,-39.92 199.5,-49.92 206.5,-49.92"/>
<text xml:space="preserve" text-anchor="middle" x="244.25" y="-57.95" font-family="Times,serif" font-size="14.00">Consumed by</text>
</g>
</g>
</svg>
