<?xml version="1.0" encoding="UTF-8" standalone="no"?>
<!DOCTYPE svg PUBLIC "-//W3C//DTD SVG 1.1//EN"
 "http://www.w3.org/Graphics/SVG/1.1/DTD/svg11.dtd">
<!-- Generated by graphviz version 2.44.1 (20201121.0304)
 -->
<!-- Title: G Pages: 1 -->
<svg width="833pt" height="833pt"
 viewBox="0.00 0.00 833.00 833.00" xmlns="http://www.w3.org/2000/svg" xmlns:xlink="http://www.w3.org/1999/xlink"><style>
  * {
    fill: transparent !important;
    stroke: #1f1f1f !important;
    stroke-width: 1 !important;
  }
  polygon:not(.cluster *, .node *, .edge *, text) {
    stroke: transparent !important;
  }
  text {
    font-size: 10px !important;
    font-family: monospace !important;
    fill: #1f1f1f !important;
    stroke: transparent !important;
    transform: translateY(-0.5em);
  }
</style>
<g id="graph0" class="graph" transform="scale(1 1) rotate(0) translate(4 828.75)">
<title>G</title>
<polygon fill="white" stroke="none" points="-4,4 -4,-828.75 828.75,-828.75 828.75,4 -4,4"/>
<!-- Fabrictool (PID 1) -->
<g id="node1" class="node">
<title>Fabrictool (PID 1)</title>
<polygon fill="lightblue" stroke="black" points="483,-792 339.5,-792 339.5,-756 483,-756 483,-792"/>
<text xml:space="preserve" text-anchor="middle" x="411.25" y="-771.2" font-family="Times,serif" font-size="14.00">Fabrictool (PID 1)</text>
<text xml:space="preserve" text-anchor="middle" x="411.25" y="-760.7" font-family="Times,serif" font-size="14.00">(Supervisor)</text>
</g>
<!-- Child Process (Harness) -->
<g id="node2" class="node">
<title>Child Process (Harness)</title>
<polygon fill="lightblue" stroke="black" points="428,-561 314.5,-561 314.5,-525 428,-525 428,-561"/>
<text xml:space="preserve" text-anchor="middle" x="371.25" y="-540.2" font-family="Times,serif" font-size="14.00">Child Process</text>
<text xml:space="preserve" text-anchor="middle" x="371.25" y="-529.7" font-family="Times,serif" font-size="14.00">(Harness)</text>
</g>
<!-- Fabrictool (PID 1)&#45;&gt;Child Process (Harness) -->
<g id="edge1" class="edge">
<title>Fabrictool (PID 1)&#45;&gt;Child Process (Harness)</title>
<path fill="none" stroke="black" d="M400.88,-755.68C389.06,-734.84 370.45,-698.38 363.25,-664.25 356.72,-633.29 360.7,-596.93 365.05,-572.37"/>
<polygon fill="black" stroke="black" points="368.43,-573.3 366.88,-562.82 361.56,-571.98 368.43,-573.3"/>
<text xml:space="preserve" text-anchor="middle" x="400.75" y="-650.95" font-family="Times,serif" font-size="14.00">Supervises</text>
</g>
<!-- Fabric Hub -->
<g id="node3" class="node">
<title>Fabric Hub</title>
<polygon fill="lightblue" stroke="black" points="158.5,-68 0,-68 0,-32 158.5,-32 158.5,-68"/>
<text xml:space="preserve" text-anchor="middle" x="79.25" y="-47.2" font-family="Times,serif" font-size="14.00">Fabric Hub</text>
<text xml:space="preserve" text-anchor="middle" x="79.25" y="-36.7" font-family="Times,serif" font-size="14.00">(Remote Management)</text>
</g>
<!-- Fabrictool (PID 1)&#45;&gt;Fabric Hub -->
<g id="edge2" class="edge">
<title>Fabrictool (PID 1)&#45;&gt;Fabric Hub</title>
<path fill="none" stroke="black" d="M382.17,-755.64C311.22,-711.2 131.05,-585.27 76.75,-422.5 36,-300.36 60.33,-142.8 73.01,-79.34"/>
<polygon fill="black" stroke="black" points="76.4,-80.26 74.99,-69.75 69.54,-78.84 76.4,-80.26"/>
<text xml:space="preserve" text-anchor="middle" x="133" y="-409.2" font-family="Times,serif" font-size="14.00">Reports Status,</text>
<text xml:space="preserve" text-anchor="middle" x="133" y="-398.7" font-family="Times,serif" font-size="14.00">Manages Auth</text>
</g>
<!-- Local State &amp; Secrets -->
<g id="node4" class="node">
<title>Local State &amp; Secrets</title>
<polygon fill="lightblue" stroke="black" points="552.75,-300 431.75,-300 431.75,-264 552.75,-264 552.75,-300"/>
<text xml:space="preserve" text-anchor="middle" x="492.25" y="-279.2" font-family="Times,serif" font-size="14.00">Local State &amp;</text>
<text xml:space="preserve" text-anchor="middle" x="492.25" y="-268.7" font-family="Times,serif" font-size="14.00">Staged Secrets</text>
</g>
<!-- Fabrictool (PID 1)&#45;&gt;Local State &amp; Secrets -->
<g id="edge3" class="edge">
<title>Fabrictool (PID 1)&#45;&gt;Local State &amp; Secrets</title>
<path fill="none" stroke="black" d="M467.27,-755.56C509.13,-739.25 563.38,-710.36 589.25,-664.25 657.26,-543 555.79,-373.53 511.36,-309.18"/>
<polygon fill="black" stroke="black" points="514.48,-307.54 505.87,-301.36 508.75,-311.56 514.48,-307.54"/>
<text xml:space="preserve" text-anchor="middle" x="638.07" y="-534.95" font-family="Times,serif" font-size="14.00">Manages</text>
</g>
<!-- Git Repository -->
<g id="node5" class="node">
<title>Git Repository</title>
<polygon fill="lightblue" stroke="black" points="566.75,-561 445.75,-561 445.75,-525 566.75,-525 566.75,-561"/>
<text xml:space="preserve" text-anchor="middle" x="506.25" y="-534.95" font-family="Times,serif" font-size="14.00">Git Repository</text>
</g>
<!-- Fabrictool (PID 1)&#45;&gt;Git Repository -->
<g id="edge4" class="edge">
<title>Fabrictool (PID 1)&#45;&gt;Git Repository</title>
<path fill="none" stroke="black" d="M418.39,-755.79C434.69,-716.5 474.76,-619.91 494.65,-571.95"/>
<polygon fill="black" stroke="black" points="497.85,-573.39 498.45,-562.81 491.38,-570.71 497.85,-573.39"/>
<text xml:space="preserve" text-anchor="middle" x="522.5" y="-650.95" font-family="Times,serif" font-size="14.00">Clones/Configures</text>
</g>
<!-- Lifecycle Hooks -->
<g id="node6" class="node">
<title>Lifecycle Hooks</title>
<polygon fill="lightblue" stroke="black" points="824.75,-561 673.75,-561 673.75,-525 824.75,-525 824.75,-561"/>
<text xml:space="preserve" text-anchor="middle" x="749.25" y="-540.2" font-family="Times,serif" font-size="14.00">Lifecycle Hooks</text>
<text xml:space="preserve" text-anchor="middle" x="749.25" y="-529.7" font-family="Times,serif" font-size="14.00">(Pre/Post/Session)</text>
</g>
<!-- Fabrictool (PID 1)&#45;&gt;Lifecycle Hooks -->
<g id="edge5" class="edge">
<title>Fabrictool (PID 1)&#45;&gt;Lifecycle Hooks</title>
<path fill="none" stroke="black" d="M451.31,-755.55C494.12,-736.07 563.14,-702.25 617.25,-664.25 658.05,-635.6 699.68,-595.49 725,-569.62"/>
<polygon fill="black" stroke="black" points="727.43,-572.14 731.88,-562.52 722.41,-567.27 727.43,-572.14"/>
<text xml:space="preserve" text-anchor="middle" x="655.2" y="-650.95" font-family="Times,serif" font-size="14.00">Invokes</text>
</g>
<!-- Metadata &amp; Services -->
<g id="node7" class="node">
<title>Metadata &amp; Services</title>
<polygon fill="lightblue" stroke="black" points="316,-300 172.5,-300 172.5,-264 316,-264 316,-300"/>
<text xml:space="preserve" text-anchor="middle" x="244.25" y="-279.2" font-family="Times,serif" font-size="14.00">Metadata Server &amp;</text>
<text xml:space="preserve" text-anchor="middle" x="244.25" y="-268.7" font-family="Times,serif" font-size="14.00">Sidecar Services</text>
</g>
<!-- Fabrictool (PID 1)&#45;&gt;Metadata &amp; Services -->
<g id="edge6" class="edge">
<title>Fabrictool (PID 1)&#45;&gt;Metadata &amp; Services</title>
<path fill="none" stroke="black" d="M383.15,-755.68C334.86,-724.04 237.7,-651.72 200.25,-561 164.55,-474.53 206.86,-361.91 230.46,-310.62"/>
<polygon fill="black" stroke="black" points="233.56,-312.25 234.67,-301.72 227.23,-309.26 233.56,-312.25"/>
<text xml:space="preserve" text-anchor="middle" x="252.75" y="-534.95" font-family="Times,serif" font-size="14.00">Starts/Manages</text>
</g>
<!-- Child Process (Harness)&#45;&gt;Local State &amp; Secrets -->
<g id="edge7" class="edge">
<title>Child Process (Harness)&#45;&gt;Local State &amp; Secrets</title>
<path fill="none" stroke="black" d="M379.38,-524.6C399.96,-480.55 454.26,-364.32 479.29,-310.75"/>
<polygon fill="black" stroke="black" points="482.46,-312.23 483.52,-301.69 476.11,-309.27 482.46,-312.23"/>
<text xml:space="preserve" text-anchor="middle" x="465.38" y="-403.95" font-family="Times,serif" font-size="14.00">Accesses</text>
</g>
<!-- Child Process (Harness)&#45;&gt;Metadata &amp; Services -->
<g id="edge8" class="edge">
<title>Child Process (Harness)&#45;&gt;Metadata &amp; Services</title>
<path fill="none" stroke="black" d="M362.72,-524.6C341.08,-480.46 283.88,-363.83 257.69,-310.42"/>
<polygon fill="black" stroke="black" points="260.95,-309.12 253.41,-301.68 254.67,-312.2 260.95,-309.12"/>
<text xml:space="preserve" text-anchor="middle" x="341.56" y="-403.95" font-family="Times,serif" font-size="14.00">Utilizes</text>
</g>
<!-- Local State &amp; Secrets&#45;&gt;Fabric Hub -->
<g id="edge10" class="edge">
<title>Local State &amp; Secrets&#45;&gt;Fabric Hub</title>
<path fill="none" stroke="black" d="M460.87,-263.52C387.22,-222.51 203.27,-120.07 120.62,-74.04"/>
<polygon fill="black" stroke="black" points="122.35,-70.99 111.91,-69.19 118.94,-77.11 122.35,-70.99"/>
<text xml:space="preserve" text-anchor="middle" x="349.5" y="-157.95" font-family="Times,serif" font-size="14.00">Relayed by Broker</text>
</g>
<!-- Lifecycle Hooks&#45;&gt;Local State &amp; Secrets -->
<g id="edge9" class="edge">
<title>Lifecycle Hooks&#45;&gt;Local State &amp; Secrets</title>
<path fill="none" stroke="black" d="M733.71,-524.83C709.35,-498.05 660.46,-444.91 617.25,-401.5 584.27,-368.37 544.96,-331.51 519.34,-307.84"/>
<polygon fill="black" stroke="black" points="522.05,-305.57 512.32,-301.36 517.3,-310.71 522.05,-305.57"/>
<text xml:space="preserve" text-anchor="middle" x="665.64" y="-403.95" font-family="Times,serif" font-size="14.00">Modifies</text>
</g>
</g>
</svg>
