<?xml version="1.0" encoding="UTF-8" standalone="no"?>
<!DOCTYPE svg PUBLIC "-//W3C//DTD SVG 1.1//EN"
 "http://www.w3.org/Graphics/SVG/1.1/DTD/svg11.dtd">
<!-- Generated by graphviz version 2.44.1 (20201121.0304)
 -->
<!-- Title: G Pages: 1 -->
<svg width="592pt" height="592pt"
 viewBox="0.00 0.00 592.00 592.00" xmlns="http://www.w3.org/2000/svg" xmlns:xlink="http://www.w3.org/1999/xlink"><style>
  * {
    fill: transparent !important;
    stroke: #1f1f1f !important;
    stroke-width: 1 !important;
  }
  polygon:not(.cluster *, .node *, .edge *, text) {
    stroke: transparent !important;
  }
  text {
    font-size: 10px !important;
    font-family: monospace !important;
    fill: #1f1f1f !important;
    stroke: transparent !important;
    transform: translateY(-0.5em);
  }
</style>
<g id="graph0" class="graph" transform="scale(1 1) rotate(0) translate(4 587.5)">
<title>G</title>
<polygon fill="white" stroke="none" points="-4,4 -4,-587.5 587.5,-587.5 587.5,4 -4,4"/>
<!-- fabric_harness.py (Canonical) -->
<g id="node1" class="node">
<title>fabric_harness.py (Canonical)</title>
<polygon fill="lightblue" stroke="black" points="154.75,-395.75 18.75,-395.75 18.75,-356.25 154.75,-356.25 154.75,-395.75"/>
<text xml:space="preserve" text-anchor="middle" x="86.75" y="-378.45" font-family="Times,serif" font-size="14.00">harnesses/</text>
<text xml:space="preserve" text-anchor="middle" x="86.75" y="-367.95" font-family="Times,serif" font-size="14.00">fabric_harness.py</text>
<text xml:space="preserve" text-anchor="middle" x="86.75" y="-357.45" font-family="Times,serif" font-size="14.00">(Canonical)</text>
</g>
<!-- go generate -->
<g id="node2" class="node">
<title>go generate</title>
<polygon fill="lightblue" stroke="black" points="173.5,-222 0,-222 0,-186 173.5,-186 173.5,-222"/>
<text xml:space="preserve" text-anchor="middle" x="86.75" y="-201.2" font-family="Times,serif" font-size="14.00">harnesses/gen/main.go</text>
<text xml:space="preserve" text-anchor="middle" x="86.75" y="-190.7" font-family="Times,serif" font-size="14.00">(go generate tool)</text>
</g>
<!-- fabric_harness.py (Canonical)&#45;&gt;go generate -->
<g id="edge1" class="edge">
<title>fabric_harness.py (Canonical)&#45;&gt;go generate</title>
<path fill="none" stroke="black" d="M86.75,-355.83C86.75,-326 86.75,-268.31 86.75,-233.56"/>
<polygon fill="black" stroke="black" points="90.25,-233.83 86.75,-223.83 83.25,-233.83 90.25,-233.83"/>
<text xml:space="preserve" text-anchor="middle" x="124.25" y="-279.95" font-family="Times,serif" font-size="14.00">Source for</text>
</g>
<!-- Vendored fabric_harness.py -->
<g id="node3" class="node">
<title>Vendored fabric_harness.py</title>
<polygon fill="lightblue" stroke="black" points="269.75,-55 133.75,-55 133.75,-19 269.75,-19 269.75,-55"/>
<text xml:space="preserve" text-anchor="middle" x="201.75" y="-34.2" font-family="Times,serif" font-size="14.00">Vendored</text>
<text xml:space="preserve" text-anchor="middle" x="201.75" y="-23.7" font-family="Times,serif" font-size="14.00">fabric_harness.py</text>
</g>
<!-- go generate&#45;&gt;Vendored fabric_harness.py -->
<g id="edge2" class="edge">
<title>go generate&#45;&gt;Vendored fabric_harness.py</title>
<path fill="none" stroke="black" d="M90.83,-185.66C95.77,-167.03 105.32,-137.1 120.25,-114.75 133.55,-94.84 152.92,-76.32 169.44,-62.46"/>
<polygon fill="black" stroke="black" points="171.56,-65.25 177.1,-56.22 167.14,-59.83 171.56,-65.25"/>
<text xml:space="preserve" text-anchor="middle" x="154" y="-111.95" font-family="Times,serif" font-size="14.00">Generates</text>
</g>
<!-- Harness Bundles (e.g., opencode, codex) -->
<g id="node4" class="node">
<title>Harness Bundles (e.g., opencode, codex)</title>
<polygon fill="lightblue" stroke="black" points="319.5,-565 116,-565 116,-529 319.5,-529 319.5,-565"/>
<text xml:space="preserve" text-anchor="middle" x="217.75" y="-544.2" font-family="Times,serif" font-size="14.00">Harness Bundles</text>
<text xml:space="preserve" text-anchor="middle" x="217.75" y="-533.7" font-family="Times,serif" font-size="14.00">(e.g., opencode/, codex/)</text>
</g>
<!-- Harness Bundles (e.g., opencode, codex)&#45;&gt;Vendored fabric_harness.py -->
<g id="edge6" class="edge">
<title>Harness Bundles (e.g., opencode, codex)&#45;&gt;Vendored fabric_harness.py</title>
<path fill="none" stroke="black" d="M217.2,-528.51C214.84,-453.71 205.6,-160.22 202.66,-66.75"/>
<polygon fill="black" stroke="black" points="206.16,-66.81 202.35,-56.93 199.16,-67.03 206.16,-66.81"/>
<text xml:space="preserve" text-anchor="middle" x="239.75" y="-279.95" font-family="Times,serif" font-size="14.00">Contains</text>
</g>
<!-- Bundle File Structure -->
<g id="node5" class="node">
<title>Bundle File Structure</title>
<polygon fill="lightblue" stroke="black" points="583.5,-394 230,-394 230,-358 583.5,-358 583.5,-394"/>
<text xml:space="preserve" text-anchor="middle" x="406.75" y="-373.2" font-family="Times,serif" font-size="14.00">Bundle File Structure</text>
<text xml:space="preserve" text-anchor="middle" x="406.75" y="-362.7" font-family="Times,serif" font-size="14.00">(config.yaml, provision.py, Dockerfile, etc.)</text>
</g>
<!-- Harness Bundles (e.g., opencode, codex)&#45;&gt;Bundle File Structure -->
<g id="edge3" class="edge">
<title>Harness Bundles (e.g., opencode, codex)&#45;&gt;Bundle File Structure</title>
<path fill="none" stroke="black" d="M237.26,-528.55C271.02,-498.36 340.41,-436.32 379.12,-401.71"/>
<polygon fill="black" stroke="black" points="381.09,-404.64 386.21,-395.36 376.43,-399.42 381.09,-404.64"/>
<text xml:space="preserve" text-anchor="middle" x="342.25" y="-454.95" font-family="Times,serif" font-size="14.00">Contains</text>
</g>
<!-- Provisioner Script -->
<g id="node6" class="node">
<title>Provisioner Script</title>
<polygon fill="lightblue" stroke="black" points="435.75,-222 329.75,-222 329.75,-186 435.75,-186 435.75,-222"/>
<text xml:space="preserve" text-anchor="middle" x="382.75" y="-195.95" font-family="Times,serif" font-size="14.00">provision.py</text>
</g>
<!-- Bundle File Structure&#45;&gt;Provisioner Script -->
<g id="edge4" class="edge">
<title>Bundle File Structure&#45;&gt;Provisioner Script</title>
<path fill="none" stroke="black" d="M404.32,-357.76C400.18,-328.49 391.76,-268.79 386.75,-233.31"/>
<polygon fill="black" stroke="black" points="390.26,-233.19 385.4,-223.78 383.33,-234.17 390.26,-233.19"/>
<text xml:space="preserve" text-anchor="middle" x="424.75" y="-279.95" font-family="Times,serif" font-size="14.00">Includes</text>
</g>
<!-- Provisioner Script&#45;&gt;Vendored fabric_harness.py -->
<g id="edge5" class="edge">
<title>Provisioner Script&#45;&gt;Vendored fabric_harness.py</title>
<path fill="none" stroke="black" d="M363.72,-185.65C331.54,-156.32 266.25,-96.8 229.14,-62.97"/>
<polygon fill="black" stroke="black" points="231.66,-60.53 221.91,-56.38 226.95,-65.7 231.66,-60.53"/>
<text xml:space="preserve" text-anchor="middle" x="318.5" y="-111.95" font-family="Times,serif" font-size="14.00">Imports</text>
</g>
<!-- Container Runtime -->
<g id="node7" class="node">
<title>Container Runtime</title>
<polygon fill="lightblue" stroke="black" points="454.5,-55 311,-55 311,-19 454.5,-19 454.5,-55"/>
<text xml:space="preserve" text-anchor="middle" x="382.75" y="-28.95" font-family="Times,serif" font-size="14.00">Container Runtime</text>
</g>
<!-- Provisioner Script&#45;&gt;Container Runtime -->
<g id="edge7" class="edge">
<title>Provisioner Script&#45;&gt;Container Runtime</title>
<path fill="none" stroke="black" d="M382.75,-185.65C382.75,-157.31 382.75,-100.78 382.75,-66.48"/>
<polygon fill="black" stroke="black" points="386.25,-66.87 382.75,-56.87 379.25,-66.87 386.25,-66.87"/>
<text xml:space="preserve" text-anchor="middle" x="424" y="-111.95" font-family="Times,serif" font-size="14.00">Executes in</text>
</g>
</g>
</svg>
