<?xml version="1.0" encoding="UTF-8" standalone="no"?>
<!DOCTYPE svg PUBLIC "-//W3C//DTD SVG 1.1//EN"
 "http://www.w3.org/Graphics/SVG/1.1/DTD/svg11.dtd">
<!-- Generated by graphviz version 2.44.1 (20201121.0304)
 -->
<!-- Title: G Pages: 1 -->
<svg width="492pt" height="492pt"
 viewBox="0.00 0.00 492.00 492.00" xmlns="http://www.w3.org/2000/svg" xmlns:xlink="http://www.w3.org/1999/xlink"><style>
  * {
    fill: transparent !important;
    stroke: #1f1f1f !important;
    stroke-width: 1 !important;
  }
  polygon:not(.cluster *, .node *, .edge *, text) {
    stroke: transparent !important;
  }
  text {
    font-size: 10px !important;
    font-family: monospace !important;
    fill: #1f1f1f !important;
    stroke: transparent !important;
    transform: translateY(-0.5em);
  }
</style>
<g id="graph0" class="graph" transform="scale(1 1) rotate(0) translate(4 488)">
<title>G</title>
<polygon fill="white" stroke="none" points="-4,4 -4,-488 488,-488 488,4 -4,4"/>
<!-- 2026&#45;02&#45;19: Hub&#45;First Git Workspaces -->
<g id="node1" class="node">
<title>2026&#45;02&#45;19: Hub&#45;First Git Workspaces</title>
<polygon fill="lightblue" stroke="black" points="259,-475 63,-475 63,-439 259,-439 259,-475"/>
<text xml:space="preserve" text-anchor="middle" x="161" y="-454.2" font-family="Times,serif" font-size="14.00">2026&#45;02&#45;19</text>
<text xml:space="preserve" text-anchor="middle" x="161" y="-443.7" font-family="Times,serif" font-size="14.00">Hub&#45;First Git Workspaces</text>
</g>
<!-- 2026&#45;02&#45;23: Hub&#45;Managed Groves -->
<g id="node2" class="node">
<title>2026&#45;02&#45;23: Hub&#45;Managed Groves</title>
<polygon fill="lightblue" stroke="black" points="236.5,-368 85.5,-368 85.5,-332 236.5,-332 236.5,-368"/>
<text xml:space="preserve" text-anchor="middle" x="161" y="-347.2" font-family="Times,serif" font-size="14.00">2026&#45;02&#45;23</text>
<text xml:space="preserve" text-anchor="middle" x="161" y="-336.7" font-family="Times,serif" font-size="14.00">Hub&#45;Managed Groves</text>
</g>
<!-- 2026&#45;02&#45;19: Hub&#45;First Git Workspaces&#45;&gt;2026&#45;02&#45;23: Hub&#45;Managed Groves -->
<g id="edge1" class="edge">
<title>2026&#45;02&#45;19: Hub&#45;First Git Workspaces&#45;&gt;2026&#45;02&#45;23: Hub&#45;Managed Groves</title>
<path fill="none" stroke="black" d="M161,-438.66C161,-422.7 161,-398.72 161,-379.87"/>
<polygon fill="black" stroke="black" points="164.5,-379.88 161,-369.88 157.5,-379.88 164.5,-379.88"/>
</g>
<!-- 2026&#45;03&#45;14: Unified Grove IDs (UUID) -->
<g id="node3" class="node">
<title>2026&#45;03&#45;14: Unified Grove IDs (UUID)</title>
<polygon fill="lightblue" stroke="black" points="196,-260 0,-260 0,-224 196,-224 196,-260"/>
<text xml:space="preserve" text-anchor="middle" x="98" y="-239.2" font-family="Times,serif" font-size="14.00">2026&#45;03&#45;14</text>
<text xml:space="preserve" text-anchor="middle" x="98" y="-228.7" font-family="Times,serif" font-size="14.00">Unified Grove IDs (UUID)</text>
</g>
<!-- 2026&#45;02&#45;23: Hub&#45;Managed Groves&#45;&gt;2026&#45;03&#45;14: Unified Grove IDs (UUID) -->
<g id="edge2" class="edge">
<title>2026&#45;02&#45;23: Hub&#45;Managed Groves&#45;&gt;2026&#45;03&#45;14: Unified Grove IDs (UUID)</title>
<path fill="none" stroke="black" d="M150.88,-331.97C140.97,-315.3 125.72,-289.65 114.14,-270.16"/>
<polygon fill="black" stroke="black" points="117.2,-268.45 109.08,-261.64 111.18,-272.03 117.2,-268.45"/>
</g>
<!-- 2026&#45;03&#45;28: Hybrid Git&#45;Workspace Groves -->
<g id="node4" class="node">
<title>2026&#45;03&#45;28: Hybrid Git&#45;Workspace Groves</title>
<polygon fill="lightblue" stroke="black" points="270.25,-152 51.75,-152 51.75,-116 270.25,-116 270.25,-152"/>
<text xml:space="preserve" text-anchor="middle" x="161" y="-131.2" font-family="Times,serif" font-size="14.00">2026&#45;03&#45;28</text>
<text xml:space="preserve" text-anchor="middle" x="161" y="-120.7" font-family="Times,serif" font-size="14.00">Hybrid Git&#45;Workspace Groves</text>
</g>
<!-- 2026&#45;02&#45;23: Hub&#45;Managed Groves&#45;&gt;2026&#45;03&#45;28: Hybrid Git&#45;Workspace Groves -->
<g id="edge3" class="edge">
<title>2026&#45;02&#45;23: Hub&#45;Managed Groves&#45;&gt;2026&#45;03&#45;28: Hybrid Git&#45;Workspace Groves</title>
<path fill="none" stroke="black" d="M172.68,-331.52C183.49,-314.21 198.8,-286.52 205,-260 213.1,-225.35 195.34,-186.93 180.02,-161.95"/>
<polygon fill="black" stroke="black" points="183.08,-160.23 174.72,-153.71 177.19,-164.02 183.08,-160.23"/>
</g>
<!-- 2026&#45;03&#45;14: Unified Grove IDs (UUID)&#45;&gt;2026&#45;03&#45;28: Hybrid Git&#45;Workspace Groves -->
<g id="edge4" class="edge">
<title>2026&#45;03&#45;14: Unified Grove IDs (UUID)&#45;&gt;2026&#45;03&#45;28: Hybrid Git&#45;Workspace Groves</title>
<path fill="none" stroke="black" d="M108.12,-223.97C118.03,-207.3 133.28,-181.65 144.86,-162.16"/>
<polygon fill="black" stroke="black" points="147.82,-164.03 149.92,-153.64 141.8,-160.45 147.82,-164.03"/>
</g>
<!-- 2026&#45;03&#45;31: Grove Workspace Sync (WebDAV) -->
<g id="node6" class="node">
<title>2026&#45;03&#45;31: Grove Workspace Sync (WebDAV)</title>
<polygon fill="lightblue" stroke="black" points="389.75,-45 156.25,-45 156.25,-9 389.75,-9 389.75,-45"/>
<text xml:space="preserve" text-anchor="middle" x="273" y="-24.2" font-family="Times,serif" font-size="14.00">2026&#45;03&#45;31</text>
<text xml:space="preserve" text-anchor="middle" x="273" y="-13.7" font-family="Times,serif" font-size="14.00">Grove Workspace Sync (WebDAV)</text>
</g>
<!-- 2026&#45;03&#45;28: Hybrid Git&#45;Workspace Groves&#45;&gt;2026&#45;03&#45;31: Grove Workspace Sync (WebDAV) -->
<g id="edge6" class="edge">
<title>2026&#45;03&#45;28: Hybrid Git&#45;Workspace Groves&#45;&gt;2026&#45;03&#45;31: Grove Workspace Sync (WebDAV)</title>
<path fill="none" stroke="black" d="M179.49,-115.66C197.65,-98.64 225.55,-72.49 246.15,-53.18"/>
<polygon fill="black" stroke="black" points="248.47,-55.79 253.37,-46.4 243.68,-50.69 248.47,-55.79"/>
</g>
<!-- 2026&#45;03&#45;12: Grove Shared Directories -->
<g id="node5" class="node">
<title>2026&#45;03&#45;12: Grove Shared Directories</title>
<polygon fill="lightblue" stroke="black" points="484,-152 288,-152 288,-116 484,-116 484,-152"/>
<text xml:space="preserve" text-anchor="middle" x="386" y="-131.2" font-family="Times,serif" font-size="14.00">2026&#45;03&#45;12</text>
<text xml:space="preserve" text-anchor="middle" x="386" y="-120.7" font-family="Times,serif" font-size="14.00">Grove Shared Directories</text>
</g>
<!-- 2026&#45;03&#45;12: Grove Shared Directories&#45;&gt;2026&#45;03&#45;31: Grove Workspace Sync (WebDAV) -->
<g id="edge5" class="edge">
<title>2026&#45;03&#45;12: Grove Shared Directories&#45;&gt;2026&#45;03&#45;31: Grove Workspace Sync (WebDAV)</title>
<path fill="none" stroke="black" d="M367.34,-115.66C349.02,-98.64 320.88,-72.49 300.09,-53.18"/>
<polygon fill="black" stroke="black" points="302.5,-50.64 292.8,-46.39 297.74,-55.77 302.5,-50.64"/>
</g>
</g>
</svg>
