<?xml version="1.0" encoding="UTF-8" standalone="no"?>
<!DOCTYPE svg PUBLIC "-//W3C//DTD SVG 1.1//EN"
 "http://www.w3.org/Graphics/SVG/1.1/DTD/svg11.dtd">
<!-- Generated by graphviz version 2.44.1 (20201121.0304)
 -->
<!-- Title: G Pages: 1 -->
<svg width="928pt" height="928pt"
 viewBox="0.00 0.00 928.00 928.00" xmlns="http://www.w3.org/2000/svg" xmlns:xlink="http://www.w3.org/1999/xlink"><style>
  * {
    fill: transparent !important;
    stroke: #1f1f1f !important;
    stroke-width: 1 !important;
  }
  polygon:not(.cluster *, .node *, .edge *, text) {
    stroke: transparent !important;
  }
  text {
    font-size: 10px !important;
    font-family: monospace !important;
    fill: #1f1f1f !important;
    stroke: transparent !important;
    transform: translateY(-0.5em);
  }
</style>
<g id="graph0" class="graph" transform="scale(1 1) rotate(0) translate(4 923.75)">
<title>G</title>
<polygon fill="white" stroke="none" points="-4,4 -4,-923.75 923.75,-923.75 923.75,4 -4,4"/>
<!-- User &amp; External Clients -->
<g id="node1" class="node">
<title>User &amp; External Clients</title>
<polygon fill="lightblue" stroke="black" points="528,-916 339.5,-916 339.5,-880 528,-880 528,-916"/>
<text xml:space="preserve" text-anchor="middle" x="433.75" y="-889.95" font-family="Arial" font-size="14.00" fill="white">User &amp; External Clients</text>
</g>
<!-- Fabric CLI -->
<g id="node2" class="node">
<title>Fabric CLI</title>
<polygon fill="lightblue" stroke="black" points="413.25,-741 232.25,-741 232.25,-705 413.25,-705 413.25,-741"/>
<text xml:space="preserve" text-anchor="middle" x="322.75" y="-720.2" font-family="Arial" font-size="14.00">Fabric CLI</text>
<text xml:space="preserve" text-anchor="middle" x="322.75" y="-709.7" font-family="Arial" font-size="14.00">(Management Interface)</text>
</g>
<!-- User &amp; External Clients&#45;&gt;Fabric CLI -->
<g id="edge1" class="edge">
<title>User &amp; External Clients&#45;&gt;Fabric CLI</title>
<path fill="none" stroke="#333333" stroke-width="2" d="M376.38,-879.6C376.38,-879.6 376.38,-754.44 376.38,-754.44"/>
<polygon fill="#333333" stroke="#333333" stroke-width="2" points="379.88,-754.44 376.38,-744.44 372.88,-754.44 379.88,-754.44"/>
</g>
<!-- Fabric Web UI -->
<g id="node3" class="node">
<title>Fabric Web UI</title>
<polygon fill="lightblue" stroke="black" points="606.25,-741 485.25,-741 485.25,-705 606.25,-705 606.25,-741"/>
<text xml:space="preserve" text-anchor="middle" x="545.75" y="-720.2" font-family="Arial" font-size="14.00">Fabric Web UI</text>
<text xml:space="preserve" text-anchor="middle" x="545.75" y="-709.7" font-family="Arial" font-size="14.00">(Frontend SPA)</text>
</g>
<!-- User &amp; External Clients&#45;&gt;Fabric Web UI -->
<g id="edge2" class="edge">
<title>User &amp; External Clients&#45;&gt;Fabric Web UI</title>
<path fill="none" stroke="#333333" stroke-width="2" d="M506.62,-879.6C506.62,-879.6 506.62,-754.44 506.62,-754.44"/>
<polygon fill="#333333" stroke="#333333" stroke-width="2" points="510.13,-754.44 506.63,-744.44 503.13,-754.44 510.13,-754.44"/>
</g>
<!-- Fabric Hub -->
<g id="node4" class="node">
<title>Fabric Hub</title>
<polygon fill="lightblue" stroke="black" points="565.5,-565 302,-565 302,-529 565.5,-529 565.5,-565"/>
<text xml:space="preserve" text-anchor="middle" x="433.75" y="-544.2" font-family="Arial" font-size="14.00">Fabric Hub</text>
<text xml:space="preserve" text-anchor="middle" x="433.75" y="-533.7" font-family="Arial" font-size="14.00">(Control Plane, API, Auth, State)</text>
</g>
<!-- Fabric CLI&#45;&gt;Fabric Hub -->
<g id="edge3" class="edge">
<title>Fabric CLI&#45;&gt;Fabric Hub</title>
<path fill="none" stroke="#333333" stroke-width="2" d="M357.62,-691.8C357.62,-691.8 357.62,-578.36 357.62,-578.36"/>
<polygon fill="#333333" stroke="#333333" stroke-width="2" points="354.13,-691.8 357.63,-701.8 361.13,-691.8 354.13,-691.8"/>
<polygon fill="#333333" stroke="#333333" stroke-width="2" points="361.13,-578.36 357.63,-568.36 354.13,-578.36 361.13,-578.36"/>
</g>
<!-- Fabric Web UI&#45;&gt;Fabric Hub -->
<g id="edge4" class="edge">
<title>Fabric Web UI&#45;&gt;Fabric Hub</title>
<path fill="none" stroke="#333333" stroke-width="2" d="M525.38,-691.8C525.38,-691.8 525.38,-578.36 525.38,-578.36"/>
<polygon fill="#333333" stroke="#333333" stroke-width="2" points="521.88,-691.8 525.38,-701.8 528.88,-691.8 521.88,-691.8"/>
<polygon fill="#333333" stroke="#333333" stroke-width="2" points="528.88,-578.36 525.38,-568.36 521.88,-578.36 528.88,-578.36"/>
</g>
<!-- Runtime Broker -->
<g id="node5" class="node">
<title>Runtime Broker</title>
<polygon fill="lightblue" stroke="black" points="203.5,-390 0,-390 0,-354 203.5,-354 203.5,-390"/>
<text xml:space="preserve" text-anchor="middle" x="101.75" y="-369.2" font-family="Arial" font-size="14.00">Runtime Broker</text>
<text xml:space="preserve" text-anchor="middle" x="101.75" y="-358.7" font-family="Arial" font-size="14.00">(Agent Execution Manager)</text>
</g>
<!-- Fabric Hub&#45;&gt;Runtime Broker -->
<g id="edge5" class="edge">
<title>Fabric Hub&#45;&gt;Runtime Broker</title>
<path fill="none" stroke="#333333" stroke-width="2" d="M288.55,-547C288.55,-547 101.75,-547 101.75,-547 101.75,-547 101.75,-403.42 101.75,-403.42"/>
<polygon fill="#333333" stroke="#333333" stroke-width="2" points="288.55,-550.5 298.55,-547 288.55,-543.5 288.55,-550.5"/>
<polygon fill="#333333" stroke="#333333" stroke-width="2" points="105.25,-403.42 101.75,-393.42 98.25,-403.42 105.25,-403.42"/>
</g>
<!-- Data &amp; Secrets Store -->
<g id="node6" class="node">
<title>Data &amp; Secrets Store</title>
<polygon fill="lightblue" stroke="black" points="919.75,-390 663.75,-390 663.75,-354 919.75,-354 919.75,-390"/>
<text xml:space="preserve" text-anchor="middle" x="791.75" y="-369.2" font-family="Arial" font-size="14.00">Persistent Storage &amp; Secrets</text>
<text xml:space="preserve" text-anchor="middle" x="791.75" y="-358.7" font-family="Arial" font-size="14.00">(DB, Cache, GCS, Secret Manager)</text>
</g>
<!-- Fabric Hub&#45;&gt;Data &amp; Secrets Store -->
<g id="edge6" class="edge">
<title>Fabric Hub&#45;&gt;Data &amp; Secrets Store</title>
<path fill="none" stroke="#333333" stroke-width="2" d="M578.81,-547C578.81,-547 791.75,-547 791.75,-547 791.75,-547 791.75,-403.42 791.75,-403.42"/>
<polygon fill="#333333" stroke="#333333" stroke-width="2" points="578.81,-543.5 568.81,-547 578.81,-550.5 578.81,-543.5"/>
<polygon fill="#333333" stroke="#333333" stroke-width="2" points="795.25,-403.42 791.75,-393.42 788.25,-403.42 795.25,-403.42"/>
</g>
<!-- External Integrations -->
<g id="node7" class="node">
<title>External Integrations</title>
<polygon fill="lightblue" stroke="black" points="591.75,-390 275.75,-390 275.75,-354 591.75,-354 591.75,-390"/>
<text xml:space="preserve" text-anchor="middle" x="433.75" y="-369.2" font-family="Arial" font-size="14.00">External Integrations</text>
<text xml:space="preserve" text-anchor="middle" x="433.75" y="-358.7" font-family="Arial" font-size="14.00">(GitHub, GCP APIs, Messaging, Telemetry)</text>
</g>
<!-- Fabric Hub&#45;&gt;External Integrations -->
<g id="edge7" class="edge">
<title>Fabric Hub&#45;&gt;External Integrations</title>
<path fill="none" stroke="#333333" stroke-width="2" d="M433.75,-515.58C433.75,-515.58 433.75,-403.44 433.75,-403.44"/>
<polygon fill="#333333" stroke="#333333" stroke-width="2" points="430.25,-515.58 433.75,-525.58 437.25,-515.58 430.25,-515.58"/>
<polygon fill="#333333" stroke="#333333" stroke-width="2" points="437.25,-403.44 433.75,-393.44 430.25,-403.44 437.25,-403.44"/>
</g>
<!-- Container Runtimes -->
<g id="node8" class="node">
<title>Container Runtimes</title>
<polygon fill="lightblue" stroke="black" points="273.25,-215 32.25,-215 32.25,-179 273.25,-179 273.25,-215"/>
<text xml:space="preserve" text-anchor="middle" x="152.75" y="-194.2" font-family="Arial" font-size="14.00">Container Runtimes</text>
<text xml:space="preserve" text-anchor="middle" x="152.75" y="-183.7" font-family="Arial" font-size="14.00">(Docker, K8s, Apple Container)</text>
</g>
<!-- Runtime Broker&#45;&gt;Container Runtimes -->
<g id="edge8" class="edge">
<title>Runtime Broker&#45;&gt;Container Runtimes</title>
<path fill="none" stroke="#333333" stroke-width="2" d="M117.88,-353.6C117.88,-353.6 117.88,-228.44 117.88,-228.44"/>
<polygon fill="#333333" stroke="#333333" stroke-width="2" points="121.38,-228.44 117.88,-218.44 114.38,-228.44 121.38,-228.44"/>
</g>
<!-- Fabric Agents -->
<g id="node9" class="node">
<title>Fabric Agents</title>
<polygon fill="lightblue" stroke="black" points="473.25,-40 202.25,-40 202.25,-4 473.25,-4 473.25,-40"/>
<text xml:space="preserve" text-anchor="middle" x="337.75" y="-19.2" font-family="Arial" font-size="14.00">Fabric Agents</text>
<text xml:space="preserve" text-anchor="middle" x="337.75" y="-8.7" font-family="Arial" font-size="14.00">(LLM Workers, Isolated Containers)</text>
</g>
<!-- Container Runtimes&#45;&gt;Fabric Agents -->
<g id="edge9" class="edge">
<title>Container Runtimes&#45;&gt;Fabric Agents</title>
<path fill="none" stroke="#333333" stroke-width="2" d="M237.75,-178.6C237.75,-178.6 237.75,-53.44 237.75,-53.44"/>
<polygon fill="#333333" stroke="#333333" stroke-width="2" points="241.25,-53.44 237.75,-43.44 234.25,-53.44 241.25,-53.44"/>
</g>
<!-- Fabric Agents&#45;&gt;External Integrations -->
<g id="edge11" class="edge">
<title>Fabric Agents&#45;&gt;External Integrations</title>
<path fill="none" stroke="#333333" stroke-width="2" d="M374.5,-40.32C374.5,-40.32 374.5,-340.83 374.5,-340.83"/>
<polygon fill="#333333" stroke="#333333" stroke-width="2" points="371,-340.83 374.5,-350.83 378,-340.83 371,-340.83"/>
</g>
<!-- Harness &amp; Skills -->
<g id="node10" class="node">
<title>Harness &amp; Skills</title>
<polygon fill="lightblue" stroke="black" points="794,-40 545.5,-40 545.5,-4 794,-4 794,-40"/>
<text xml:space="preserve" text-anchor="middle" x="669.75" y="-19.2" font-family="Arial" font-size="14.00">Harness &amp; Skills Layer</text>
<text xml:space="preserve" text-anchor="middle" x="669.75" y="-8.7" font-family="Arial" font-size="14.00">(LLM Agnosticism, Provisioning)</text>
</g>
<!-- Fabric Agents&#45;&gt;Harness &amp; Skills -->
<g id="edge10" class="edge">
<title>Fabric Agents&#45;&gt;Harness &amp; Skills</title>
<path fill="none" stroke="#333333" stroke-width="2" d="M486.77,-22C486.77,-22 532.15,-22 532.15,-22"/>
<polygon fill="#333333" stroke="#333333" stroke-width="2" points="486.77,-18.5 476.77,-22 486.77,-25.5 486.77,-18.5"/>
<polygon fill="#333333" stroke="#333333" stroke-width="2" points="532.15,-25.5 542.15,-22 532.15,-18.5 532.15,-25.5"/>
</g>
<!-- Harness &amp; Skills&#45;&gt;Data &amp; Secrets Store -->
<g id="edge12" class="edge">
<title>Harness &amp; Skills&#45;&gt;Data &amp; Secrets Store</title>
<path fill="none" stroke="#333333" stroke-width="2" d="M728.88,-53.35C728.88,-53.35 728.88,-340.83 728.88,-340.83"/>
<polygon fill="#333333" stroke="#333333" stroke-width="2" points="732.38,-53.35 728.88,-43.35 725.38,-53.35 732.38,-53.35"/>
<polygon fill="#333333" stroke="#333333" stroke-width="2" points="725.38,-340.83 728.88,-350.83 732.38,-340.83 725.38,-340.83"/>
</g>
<!-- Harness &amp; Skills&#45;&gt;External Integrations -->
<g id="edge13" class="edge">
<title>Harness &amp; Skills&#45;&gt;External Integrations</title>
<path fill="none" stroke="#333333" stroke-width="2" d="M568.62,-53.35C568.62,-53.35 568.62,-340.83 568.62,-340.83"/>
<polygon fill="#333333" stroke="#333333" stroke-width="2" points="572.13,-53.35 568.63,-43.35 565.13,-53.35 572.13,-53.35"/>
<polygon fill="#333333" stroke="#333333" stroke-width="2" points="565.13,-340.83 568.63,-350.83 572.13,-340.83 565.13,-340.83"/>
</g>
</g>
</svg>
