<?xml version="1.0" encoding="UTF-8" standalone="no"?>
<!DOCTYPE svg PUBLIC "-//W3C//DTD SVG 1.1//EN"
 "http://www.w3.org/Graphics/SVG/1.1/DTD/svg11.dtd">
<!-- Generated by graphviz version 2.44.1 (20201121.0304)
 -->
<!-- Title: G Pages: 1 -->
<svg width="879pt" height="879pt"
 viewBox="0.00 0.00 879.00 879.00" xmlns="http://www.w3.org/2000/svg" xmlns:xlink="http://www.w3.org/1999/xlink"><style>
  * {
    fill: transparent !important;
    stroke: #1f1f1f !important;
    stroke-width: 1 !important;
  }
  polygon:not(.cluster *, .node *, .edge *, text) {
    stroke: transparent !important;
  }
  text {
    font-size: 10px !important;
    font-family: monospace !important;
    fill: #1f1f1f !important;
    stroke: transparent !important;
    transform: translateY(-0.5em);
  }
</style>
<g id="graph0" class="graph" transform="scale(1 1) rotate(0) translate(4 875.25)">
<title>G</title>
<polygon fill="white" stroke="none" points="-4,4 -4,-875.25 875.25,-875.25 875.25,4 -4,4"/>
<!-- setup&#45;cloud&#45;build.sh -->
<g id="node1" class="node">
<title>setup&#45;cloud&#45;build.sh</title>
<polygon fill="lightblue" stroke="black" points="348,-757 152,-757 152,-721 348,-721 348,-757"/>
<text xml:space="preserve" text-anchor="middle" x="250" y="-736.2" font-family="Times,serif" font-size="14.00">setup&#45;cloud&#45;build.sh</text>
<text xml:space="preserve" text-anchor="middle" x="250" y="-725.7" font-family="Times,serif" font-size="14.00">(Configures Cloud Build)</text>
</g>
<!-- GCP APIs -->
<g id="node2" class="node">
<title>GCP APIs</title>
<polygon fill="lightblue" stroke="black" points="256,-150 0,-150 0,-114 256,-114 256,-150"/>
<text xml:space="preserve" text-anchor="middle" x="128" y="-129.2" font-family="Times,serif" font-size="14.00">GCP APIs</text>
<text xml:space="preserve" text-anchor="middle" x="128" y="-118.7" font-family="Times,serif" font-size="14.00">(Cloud Build, Artifact Registry)</text>
</g>
<!-- setup&#45;cloud&#45;build.sh&#45;&gt;GCP APIs -->
<g id="edge1" class="edge">
<title>setup&#45;cloud&#45;build.sh&#45;&gt;GCP APIs</title>
<path fill="none" stroke="black" d="M246.69,-720.66C237.75,-673.85 212.25,-541.03 190,-430.75 170.04,-331.83 145.33,-214.66 134.08,-161.62"/>
<polygon fill="black" stroke="black" points="137.52,-160.97 132.02,-151.92 130.68,-162.43 137.52,-160.97"/>
<text xml:space="preserve" text-anchor="middle" x="217.91" y="-427.95" font-family="Times,serif" font-size="14.00">Enables</text>
</g>
<!-- Artifact Registry -->
<g id="node3" class="node">
<title>Artifact Registry</title>
<polygon fill="lightblue" stroke="black" points="563,-150 367,-150 367,-114 563,-114 563,-150"/>
<text xml:space="preserve" text-anchor="middle" x="465" y="-123.95" font-family="Times,serif" font-size="14.00">Google Artifact Registry</text>
</g>
<!-- setup&#45;cloud&#45;build.sh&#45;&gt;Artifact Registry -->
<g id="edge2" class="edge">
<title>setup&#45;cloud&#45;build.sh&#45;&gt;Artifact Registry</title>
<path fill="none" stroke="black" d="M249.47,-720.79C248.54,-673.22 249.44,-536.46 285.5,-430.75 322.85,-321.27 404.88,-208.84 443.76,-159.23"/>
<polygon fill="black" stroke="black" points="446.31,-161.64 449.77,-151.63 440.82,-157.3 446.31,-161.64"/>
<text xml:space="preserve" text-anchor="middle" x="409.25" y="-427.95" font-family="Times,serif" font-size="14.00">Creates Repo &amp; Grants Permissions</text>
</g>
<!-- verify&#45;registry.sh -->
<g id="node4" class="node">
<title>verify&#45;registry.sh</title>
<polygon fill="lightblue" stroke="black" points="871.25,-757 652.75,-757 652.75,-721 871.25,-721 871.25,-757"/>
<text xml:space="preserve" text-anchor="middle" x="762" y="-736.2" font-family="Times,serif" font-size="14.00">verify&#45;registry.sh</text>
<text xml:space="preserve" text-anchor="middle" x="762" y="-725.7" font-family="Times,serif" font-size="14.00">(Validates Registry Access)</text>
</g>
<!-- verify&#45;registry.sh&#45;&gt;Artifact Registry -->
<g id="edge3" class="edge">
<title>verify&#45;registry.sh&#45;&gt;Artifact Registry</title>
<path fill="none" stroke="black" d="M758.12,-720.73C747.03,-672.99 712.71,-535.84 662,-430.75 610.25,-323.5 525.22,-209.53 486.01,-159.33"/>
<polygon fill="black" stroke="black" points="488.89,-157.33 479.96,-151.63 483.39,-161.66 488.89,-157.33"/>
<text xml:space="preserve" text-anchor="middle" x="759.46" y="-427.95" font-family="Times,serif" font-size="14.00">Checks Repo &amp; Permissions</text>
</g>
<!-- Cloud Build -->
<g id="node5" class="node">
<title>Cloud Build</title>
<polygon fill="lightblue" stroke="black" points="634.5,-757 483.5,-757 483.5,-721 634.5,-721 634.5,-757"/>
<text xml:space="preserve" text-anchor="middle" x="559" y="-730.95" font-family="Times,serif" font-size="14.00">Google Cloud Build</text>
</g>
<!-- Cloud Build&#45;&gt;Artifact Registry -->
<g id="edge4" class="edge">
<title>Cloud Build&#45;&gt;Artifact Registry</title>
<path fill="none" stroke="black" d="M558.76,-720.56C557.9,-673.51 554.02,-540.13 537,-430.75 521.34,-330.11 488.81,-213.41 473.42,-161"/>
<polygon fill="black" stroke="black" points="476.86,-160.3 470.67,-151.7 470.15,-162.28 476.86,-160.3"/>
<text xml:space="preserve" text-anchor="middle" x="598.24" y="-427.95" font-family="Times,serif" font-size="14.00">Pushes Images To</text>
</g>
<!-- GCP Project -->
<g id="node6" class="node">
<title>GCP Project</title>
<polygon fill="lightblue" stroke="black" points="133.25,-757 34.75,-757 34.75,-721 133.25,-721 133.25,-757"/>
<text xml:space="preserve" text-anchor="middle" x="84" y="-730.95" font-family="Times,serif" font-size="14.00">GCP Project</text>
</g>
<!-- GCP Project&#45;&gt;GCP APIs -->
<g id="edge5" class="edge">
<title>GCP Project&#45;&gt;GCP APIs</title>
<path fill="none" stroke="black" d="M78.78,-720.66C65.35,-673.84 31.68,-541 46.5,-430.75 60.14,-329.27 98.81,-213.43 117.56,-161.18"/>
<polygon fill="black" stroke="black" points="120.81,-162.46 120.93,-151.87 114.23,-160.08 120.81,-162.46"/>
<text xml:space="preserve" text-anchor="middle" x="87.75" y="-427.95" font-family="Times,serif" font-size="14.00">Operates On</text>
</g>
<!-- GCP Project&#45;&gt;Artifact Registry -->
<g id="edge6" class="edge">
<title>GCP Project&#45;&gt;Artifact Registry</title>
<path fill="none" stroke="black" d="M84.09,-720.78C85.04,-672.01 92.75,-530.09 148.5,-430.75 219.06,-305.03 360.64,-201.09 427.9,-156.46"/>
<polygon fill="black" stroke="black" points="429.56,-159.56 436,-151.15 425.72,-153.71 429.56,-159.56"/>
<text xml:space="preserve" text-anchor="middle" x="167.25" y="-427.95" font-family="Times,serif" font-size="14.00">Hosts</text>
</g>
</g>
</svg>
