<?xml version="1.0" encoding="UTF-8" standalone="no"?>
<!DOCTYPE svg PUBLIC "-//W3C//DTD SVG 1.1//EN"
 "http://www.w3.org/Graphics/SVG/1.1/DTD/svg11.dtd">
<!-- Generated by graphviz version 2.44.1 (20201121.0304)
 -->
<!-- Title: G Pages: 1 -->
<svg width="316pt" height="255pt"
 viewBox="0.00 0.00 316.00 255.00" xmlns="http://www.w3.org/2000/svg" xmlns:xlink="http://www.w3.org/1999/xlink"><style>
  * {
    fill: transparent !important;
    stroke: #1f1f1f !important;
    stroke-width: 1 !important;
  }
  polygon:not(.cluster *, .node *, .edge *, text) {
    stroke: transparent !important;
  }
  text {
    font-size: 10px !important;
    font-family: monospace !important;
    fill: #1f1f1f !important;
    stroke: transparent !important;
    transform: translateY(-0.5em);
  }
</style>
<g id="graph0" class="graph" transform="scale(1 1) rotate(0) translate(4 250.5)">
<title>G</title>
<polygon fill="white" stroke="none" points="-4,4 -4,-250.5 311.68,-250.5 311.68,4 -4,4"/>
<!-- Agent -->
<g id="node1" class="node">
<title>Agent</title>
<polygon fill="lightblue" stroke="black" points="162.16,-247 108.16,-247 108.16,-211 162.16,-211 162.16,-247"/>
<text xml:space="preserve" text-anchor="middle" x="135.16" y="-220.95" font-family="Times,serif" font-size="14.00">Agent</text>
</g>
<!-- BrokerService -->
<g id="node2" class="node">
<title>BrokerService</title>
<polygon fill="lightblue" stroke="black" points="130.91,-164 17.41,-164 17.41,-128 130.91,-128 130.91,-164"/>
<text xml:space="preserve" text-anchor="middle" x="74.16" y="-137.95" font-family="Times,serif" font-size="14.00">BrokerService</text>
</g>
<!-- Agent&#45;&gt;BrokerService -->
<g id="edge1" class="edge">
<title>Agent&#45;&gt;BrokerService</title>
<path fill="none" stroke="black" d="M108.02,-211.49C100.92,-206.1 93.81,-199.58 88.66,-192.25 85.13,-187.23 82.43,-181.31 80.37,-175.44"/>
<polygon fill="black" stroke="black" points="83.75,-174.52 77.59,-165.9 77.03,-176.48 83.75,-174.52"/>
<text xml:space="preserve" text-anchor="middle" x="152.41" y="-178.95" font-family="Times,serif" font-size="14.00">Publish/Subscribe</text>
</g>
<!-- StructuredMessage -->
<g id="node3" class="node">
<title>StructuredMessage</title>
<polygon fill="lightblue" stroke="black" points="223.91,-81.75 80.41,-81.75 80.41,-0.25 223.91,-0.25 223.91,-81.75"/>
<text xml:space="preserve" text-anchor="middle" x="152.16" y="-64.45" font-family="Times,serif" font-size="14.00">StructuredMessage</text>
<text xml:space="preserve" text-anchor="middle" x="152.16" y="-53.95" font-family="Times,serif" font-size="14.00">&#45;&#45;&#45;</text>
<text xml:space="preserve" text-anchor="middle" x="152.16" y="-43.45" font-family="Times,serif" font-size="14.00">Topic</text>
<text xml:space="preserve" text-anchor="middle" x="152.16" y="-32.95" font-family="Times,serif" font-size="14.00">Timestamp</text>
<text xml:space="preserve" text-anchor="middle" x="152.16" y="-22.45" font-family="Times,serif" font-size="14.00">Sender</text>
<text xml:space="preserve" text-anchor="middle" x="152.16" y="-11.95" font-family="Times,serif" font-size="14.00">Recipient</text>
<text xml:space="preserve" text-anchor="middle" x="152.16" y="-1.45" font-family="Times,serif" font-size="14.00">Msg</text>
</g>
<!-- BrokerService&#45;&gt;StructuredMessage -->
<g id="edge2" class="edge">
<title>BrokerService&#45;&gt;StructuredMessage</title>
<path fill="none" stroke="black" d="M87.39,-127.53C95.09,-117.36 105.21,-103.99 115.16,-90.86"/>
<polygon fill="black" stroke="black" points="117.83,-93.13 121.08,-83.05 112.25,-88.9 117.83,-93.13"/>
<text xml:space="preserve" text-anchor="middle" x="132.42" y="-96.95" font-family="Times,serif" font-size="14.00">Handles</text>
</g>
<!-- StructuredMessage&#45;&gt;Agent -->
<g id="edge3" class="edge">
<title>StructuredMessage&#45;&gt;Agent</title>
<path fill="none" stroke="black" d="M189.97,-82.17C214.77,-113.58 238.76,-157.57 216.16,-192.25 206.54,-207 189.31,-215.71 173.21,-220.83"/>
<polygon fill="black" stroke="black" points="172.51,-217.39 163.81,-223.43 174.38,-224.14 172.51,-217.39"/>
<text xml:space="preserve" text-anchor="middle" x="266.43" y="-137.95" font-family="Times,serif" font-size="14.00">Received by</text>
</g>
</g>
</svg>
