<?xml version="1.0" encoding="UTF-8" standalone="no"?>
<!DOCTYPE svg PUBLIC "-//W3C//DTD SVG 1.1//EN"
 "http://www.w3.org/Graphics/SVG/1.1/DTD/svg11.dtd">
<!-- Generated by graphviz version 2.44.1 (20201121.0304)
 -->
<!-- Title: G Pages: 1 -->
<svg width="519pt" height="489pt"
 viewBox="0.00 0.00 519.00 489.00" xmlns="http://www.w3.org/2000/svg" xmlns:xlink="http://www.w3.org/1999/xlink"><style>
  * {
    fill: transparent !important;
    stroke: #1f1f1f !important;
    stroke-width: 1 !important;
  }
  polygon:not(.cluster *, .node *, .edge *, text) {
    stroke: transparent !important;
  }
  text {
    font-size: 10px !important;
    font-family: monospace !important;
    fill: #1f1f1f !important;
    stroke: transparent !important;
    transform: translateY(-0.5em);
  }
</style>
<g id="graph0" class="graph" transform="scale(1 1) rotate(0) translate(4 485)">
<title>G</title>
<polygon fill="white" stroke="none" points="-4,4 -4,-485 514.87,-485 514.87,4 -4,4"/>
<g id="clust1" class="cluster">
<title>cluster_client_testing</title>
<polygon fill="#ffffff" stroke="#cbd5e1" points="8,-152.16 8,-464.66 250,-464.66 250,-152.16 8,-152.16"/>
<text xml:space="preserve" text-anchor="middle" x="129" y="-447.36" font-family="Times,serif" font-size="14.00">Client&#45;side Testing</text>
</g>
<g id="clust2" class="cluster">
<title>cluster_server_testing</title>
<polygon fill="#ffffff" stroke="#cbd5e1" points="305,-320.67 305,-464.66 473,-464.66 473,-320.67 305,-320.67"/>
<text xml:space="preserve" text-anchor="middle" x="389" y="-447.36" font-family="Times,serif" font-size="14.00">Server&#45;side Testing</text>
</g>
<!-- Playwright Test (JS) -->
<g id="node1" class="node">
<title>Playwright Test (JS)</title>
<polygon fill="lightblue" stroke="black" points="242,-392 16,-392 16,-356 242,-356 242,-392"/>
<text xml:space="preserve" text-anchor="middle" x="129" y="-371.2" font-family="Helvetica,sans-Serif" font-size="14.00">Playwright Test</text>
<text xml:space="preserve" text-anchor="middle" x="129" y="-360.7" font-family="Helvetica,sans-Serif" font-size="14.00">(realtime&#45;lifecycle&#45;test.js)</text>
</g>
<!-- Browser UI -->
<g id="node2" class="node">
<title>Browser UI</title>
<polygon fill="lightblue" stroke="black" points="196.25,-223 67.75,-223 67.75,-187 196.25,-187 196.25,-223"/>
<text xml:space="preserve" text-anchor="middle" x="132" y="-202.2" font-family="Helvetica,sans-Serif" font-size="14.00">Browser UI</text>
<text xml:space="preserve" text-anchor="middle" x="132" y="-191.7" font-family="Helvetica,sans-Serif" font-size="14.00">(Scion Web App)</text>
</g>
<!-- Playwright Test (JS)&#45;&gt;Browser UI -->
<g id="edge1" class="edge">
<title>Playwright Test (JS)&#45;&gt;Browser UI</title>
<path fill="none" stroke="#334155" d="M129.12,-355.75C129.27,-337.96 129.55,-309.41 130,-284.75 130.31,-268.03 130.78,-249.31 131.18,-234.32"/>
<polygon fill="#334155" stroke="#334155" points="134.67,-234.81 131.45,-224.72 127.67,-234.62 134.67,-234.81"/>
<text xml:space="preserve" text-anchor="middle" x="182.5" y="-281.95" font-family="Times,serif" font-size="14.00">interacts with</text>
</g>
<!-- Scion Server (Hub API) -->
<g id="node3" class="node">
<title>Scion Server (Hub API)</title>
<polygon fill="lightblue" stroke="black" points="364,-223 258,-223 258,-187 364,-187 364,-223"/>
<text xml:space="preserve" text-anchor="middle" x="311" y="-202.2" font-family="Helvetica,sans-Serif" font-size="14.00">Scion Server</text>
<text xml:space="preserve" text-anchor="middle" x="311" y="-191.7" font-family="Helvetica,sans-Serif" font-size="14.00">(Hub API)</text>
</g>
<!-- Playwright Test (JS)&#45;&gt;Scion Server (Hub API) -->
<g id="edge2" class="edge">
<title>Playwright Test (JS)&#45;&gt;Scion Server (Hub API)</title>
<path fill="none" stroke="#334155" d="M156.02,-355.74C178.28,-340.95 210.1,-318.41 235,-295.25 255.81,-275.89 276.54,-251.1 291.07,-232.55"/>
<polygon fill="#334155" stroke="#334155" points="293.81,-234.74 297.15,-224.69 288.27,-230.46 293.81,-234.74"/>
<text xml:space="preserve" text-anchor="middle" x="277.88" y="-281.95" font-family="Times,serif" font-size="14.00">API calls</text>
</g>
<!-- SSE Endpoint (/events) -->
<g id="node4" class="node">
<title>SSE Endpoint (/events)</title>
<polygon fill="lightblue" stroke="black" points="349,-55 243,-55 243,-19 349,-19 349,-55"/>
<text xml:space="preserve" text-anchor="middle" x="296" y="-34.2" font-family="Helvetica,sans-Serif" font-size="14.00">SSE Endpoint</text>
<text xml:space="preserve" text-anchor="middle" x="296" y="-23.7" font-family="Helvetica,sans-Serif" font-size="14.00">(/events)</text>
</g>
<!-- Browser UI&#45;&gt;SSE Endpoint (/events) -->
<g id="edge3" class="edge">
<title>Browser UI&#45;&gt;SSE Endpoint (/events)</title>
<path fill="none" stroke="#334155" d="M133.02,-186.64C134.97,-167.44 140.62,-136.5 157,-115.75 176.75,-90.74 206.9,-72.48 234.08,-59.98"/>
<polygon fill="#334155" stroke="#334155" points="235.19,-63.31 242.93,-56.07 232.37,-56.9 235.19,-63.31"/>
<text xml:space="preserve" text-anchor="middle" x="224.5" y="-112.95" font-family="Times,serif" font-size="14.00">SSEClient connects</text>
</g>
<!-- Scion Server (Hub API)&#45;&gt;SSE Endpoint (/events) -->
<g id="edge6" class="edge">
<title>Scion Server (Hub API)&#45;&gt;SSE Endpoint (/events)</title>
<path fill="none" stroke="#334155" d="M306.99,-186.51C303.6,-170.83 298.99,-147.14 297,-126.25 295.11,-106.39 294.89,-83.91 295.12,-66.61"/>
<polygon fill="#334155" stroke="#334155" points="298.62,-66.87 295.32,-56.81 291.62,-66.73 298.62,-66.87"/>
<text xml:space="preserve" text-anchor="middle" x="357" y="-112.95" font-family="Times,serif" font-size="14.00">publishes events</text>
</g>
<!-- cURL Test (Shell) -->
<g id="node5" class="node">
<title>cURL Test (Shell)</title>
<polygon fill="lightblue" stroke="black" points="464.5,-392 313.5,-392 313.5,-356 464.5,-356 464.5,-392"/>
<text xml:space="preserve" text-anchor="middle" x="389" y="-371.2" font-family="Helvetica,sans-Serif" font-size="14.00">cURL Test</text>
<text xml:space="preserve" text-anchor="middle" x="389" y="-360.7" font-family="Helvetica,sans-Serif" font-size="14.00">(sse&#45;curl&#45;test.sh)</text>
</g>
<!-- cURL Test (Shell)&#45;&gt;Scion Server (Hub API) -->
<g id="edge4" class="edge">
<title>cURL Test (Shell)&#45;&gt;Scion Server (Hub API)</title>
<path fill="none" stroke="#334155" d="M379.74,-355.55C371.53,-339.9 359.34,-316.22 349.5,-295.25 339.93,-274.85 329.87,-251.45 322.43,-233.73"/>
<polygon fill="#334155" stroke="#334155" points="325.73,-232.53 318.65,-224.65 319.26,-235.23 325.73,-232.53"/>
<text xml:space="preserve" text-anchor="middle" x="383.25" y="-281.95" font-family="Times,serif" font-size="14.00">API calls</text>
</g>
<!-- cURL Test (Shell)&#45;&gt;SSE Endpoint (/events) -->
<g id="edge5" class="edge">
<title>cURL Test (Shell)&#45;&gt;SSE Endpoint (/events)</title>
<path fill="none" stroke="#334155" d="M397.29,-355.75C416.85,-312.35 461.03,-196.38 417,-115.75 403.44,-90.92 378.18,-72.84 354.23,-60.39"/>
<polygon fill="#334155" stroke="#334155" points="355.96,-57.34 345.44,-56.07 352.87,-63.63 355.96,-57.34"/>
<text xml:space="preserve" text-anchor="middle" x="473.37" y="-196.95" font-family="Times,serif" font-size="14.00">listens to</text>
</g>
</g>
</svg>
