<?xml version="1.0" encoding="UTF-8" standalone="no"?>
<!DOCTYPE svg PUBLIC "-//W3C//DTD SVG 1.1//EN"
 "http://www.w3.org/Graphics/SVG/1.1/DTD/svg11.dtd">
<!-- Generated by graphviz version 2.44.1 (20201121.0304)
 -->
<!-- Title: G Pages: 1 -->
<svg width="637pt" height="572pt"
 viewBox="0.00 0.00 637.00 572.00" xmlns="http://www.w3.org/2000/svg" xmlns:xlink="http://www.w3.org/1999/xlink"><style>
  * {
    fill: transparent !important;
    stroke: #1f1f1f !important;
    stroke-width: 1 !important;
  }
  polygon:not(.cluster *, .node *, .edge *, text) {
    stroke: transparent !important;
  }
  text {
    font-size: 10px !important;
    font-family: monospace !important;
    fill: #1f1f1f !important;
    stroke: transparent !important;
    transform: translateY(-0.5em);
  }
</style>
<g id="graph0" class="graph" transform="scale(1 1) rotate(0) translate(4 568.25)">
<title>G</title>
<polygon fill="white" stroke="none" points="-4,4 -4,-568.25 632.89,-568.25 632.89,4 -4,4"/>
<!-- harnesses/fabric_harness.py (Canonical) -->
<g id="node1" class="node">
<title>harnesses/fabric_harness.py (Canonical)</title>
<polygon fill="lightblue" stroke="black" points="478.25,-382 267.25,-382 267.25,-346 478.25,-346 478.25,-382"/>
<text xml:space="preserve" text-anchor="middle" x="372.75" y="-361.2" font-family="Times,serif" font-size="14.00">harnesses/fabric_harness.py</text>
<text xml:space="preserve" text-anchor="middle" x="372.75" y="-350.7" font-family="Times,serif" font-size="14.00">(Canonical Library)</text>
</g>
<!-- harnesses/gen/main.go -->
<g id="node2" class="node">
<title>harnesses/gen/main.go</title>
<polygon fill="lightblue" stroke="black" points="455.5,-218 282,-218 282,-182 455.5,-182 455.5,-218"/>
<text xml:space="preserve" text-anchor="middle" x="368.75" y="-197.2" font-family="Times,serif" font-size="14.00">harnesses/gen/main.go</text>
<text xml:space="preserve" text-anchor="middle" x="368.75" y="-186.7" font-family="Times,serif" font-size="14.00">(Generator)</text>
</g>
<!-- harnesses/fabric_harness.py (Canonical)&#45;&gt;harnesses/gen/main.go -->
<g id="edge1" class="edge">
<title>harnesses/fabric_harness.py (Canonical)&#45;&gt;harnesses/gen/main.go</title>
<path fill="none" stroke="black" d="M372.1,-345.55C371.54,-330.2 370.75,-307.24 370.25,-287.25 369.76,-267.97 369.39,-246.27 369.13,-229.46"/>
<polygon fill="black" stroke="black" points="372.64,-229.65 368.99,-219.7 365.64,-229.75 372.64,-229.65"/>
<text xml:space="preserve" text-anchor="middle" x="434" y="-273.95" font-family="Times,serif" font-size="14.00">reads source from</text>
</g>
<!-- harnesses/*/fabric_harness.py (Vendored) -->
<g id="node3" class="node">
<title>harnesses/*/fabric_harness.py (Vendored)</title>
<polygon fill="lightblue" stroke="black" points="474.75,-54 248.75,-54 248.75,-18 474.75,-18 474.75,-54"/>
<text xml:space="preserve" text-anchor="middle" x="361.75" y="-33.2" font-family="Times,serif" font-size="14.00">harnesses/*/fabric_harness.py</text>
<text xml:space="preserve" text-anchor="middle" x="361.75" y="-22.7" font-family="Times,serif" font-size="14.00">(Vendored Library Copies)</text>
</g>
<!-- harnesses/gen/main.go&#45;&gt;harnesses/*/fabric_harness.py (Vendored) -->
<g id="edge2" class="edge">
<title>harnesses/gen/main.go&#45;&gt;harnesses/*/fabric_harness.py (Vendored)</title>
<path fill="none" stroke="black" d="M367.21,-181.57C365.92,-166.22 364.15,-143.27 363.25,-123.25 362.38,-103.99 362.01,-82.28 361.85,-65.47"/>
<polygon fill="black" stroke="black" points="365.35,-65.68 361.78,-55.7 358.35,-65.73 365.35,-65.68"/>
<text xml:space="preserve" text-anchor="middle" x="434.5" y="-109.95" font-family="Times,serif" font-size="14.00">writes generated to</text>
</g>
<!-- harnesses/*/provision.py &amp; capture_auth.py -->
<g id="node4" class="node">
<title>harnesses/*/provision.py &amp; capture_auth.py</title>
<polygon fill="lightblue" stroke="black" points="263.5,-218 0,-218 0,-182 263.5,-182 263.5,-218"/>
<text xml:space="preserve" text-anchor="middle" x="131.75" y="-197.2" font-family="Times,serif" font-size="14.00">harnesses/*/provision.py &amp;</text>
<text xml:space="preserve" text-anchor="middle" x="131.75" y="-186.7" font-family="Times,serif" font-size="14.00">capture_auth.py (Harness Scripts)</text>
</g>
<!-- harnesses/*/provision.py &amp; capture_auth.py&#45;&gt;harnesses/*/fabric_harness.py (Vendored) -->
<g id="edge3" class="edge">
<title>harnesses/*/provision.py &amp; capture_auth.py&#45;&gt;harnesses/*/fabric_harness.py (Vendored)</title>
<path fill="none" stroke="black" d="M156.36,-181.66C197.67,-152.57 281.01,-93.87 327.83,-60.89"/>
<polygon fill="black" stroke="black" points="329.57,-63.95 335.73,-55.33 325.54,-58.23 329.57,-63.95"/>
<text xml:space="preserve" text-anchor="middle" x="279.9" y="-109.95" font-family="Times,serif" font-size="14.00">imports</text>
</g>
<!-- harnesses/vendored_lib_test.go -->
<g id="node5" class="node">
<title>harnesses/vendored_lib_test.go</title>
<polygon fill="lightblue" stroke="black" points="564.25,-546 323.25,-546 323.25,-510 564.25,-510 564.25,-546"/>
<text xml:space="preserve" text-anchor="middle" x="443.75" y="-525.2" font-family="Times,serif" font-size="14.00">harnesses/vendored_lib_test.go</text>
<text xml:space="preserve" text-anchor="middle" x="443.75" y="-514.7" font-family="Times,serif" font-size="14.00">(Consistency Test)</text>
</g>
<!-- harnesses/vendored_lib_test.go&#45;&gt;harnesses/fabric_harness.py (Canonical) -->
<g id="edge4" class="edge">
<title>harnesses/vendored_lib_test.go&#45;&gt;harnesses/fabric_harness.py (Canonical)</title>
<path fill="none" stroke="black" d="M426.33,-509.69C412.98,-495.31 395.27,-473.66 385.75,-451.25 378,-432.99 374.77,-410.84 373.48,-393.55"/>
<polygon fill="black" stroke="black" points="376.98,-393.51 372.93,-383.72 369.99,-393.9 376.98,-393.51"/>
<text xml:space="preserve" text-anchor="middle" x="445.75" y="-437.95" font-family="Times,serif" font-size="14.00">compares against</text>
</g>
<!-- harnesses/vendored_lib_test.go&#45;&gt;harnesses/*/fabric_harness.py (Vendored) -->
<g id="edge5" class="edge">
<title>harnesses/vendored_lib_test.go&#45;&gt;harnesses/*/fabric_harness.py (Vendored)</title>
<path fill="none" stroke="black" d="M463.94,-509.71C478.67,-495.68 497.46,-474.46 505.75,-451.25 556.34,-309.57 583.52,-241.53 505.75,-112.75 490.54,-87.56 463.86,-70.33 437.57,-58.75"/>
<polygon fill="black" stroke="black" points="439.13,-55.6 428.55,-55.01 436.45,-62.07 439.13,-55.6"/>
<text xml:space="preserve" text-anchor="middle" x="591.39" y="-273.95" font-family="Times,serif" font-size="14.00">reads from</text>
</g>
</g>
</svg>
