<?xml version="1.0" encoding="UTF-8" standalone="no"?>
<!DOCTYPE svg PUBLIC "-//W3C//DTD SVG 1.1//EN"
 "http://www.w3.org/Graphics/SVG/1.1/DTD/svg11.dtd">
<!-- Generated by graphviz version 2.44.1 (20201121.0304)
 -->
<!-- Title: G Pages: 1 -->
<svg width="440pt" height="440pt"
 viewBox="0.00 0.00 440.00 440.00" xmlns="http://www.w3.org/2000/svg" xmlns:xlink="http://www.w3.org/1999/xlink"><style>
  * {
    fill: transparent !important;
    stroke: #1f1f1f !important;
    stroke-width: 1 !important;
  }
  polygon:not(.cluster *, .node *, .edge *, text) {
    stroke: transparent !important;
  }
  text {
    font-size: 10px !important;
    font-family: monospace !important;
    fill: #1f1f1f !important;
    stroke: transparent !important;
    transform: translateY(-0.5em);
  }
</style>
<g id="graph0" class="graph" transform="scale(1 1) rotate(0) translate(4 436.25)">
<title>G</title>
<polygon fill="white" stroke="none" points="-4,4 -4,-436.25 436.25,-436.25 436.25,4 -4,4"/>
<!-- Backend Server -->
<g id="node1" class="node">
<title>Backend Server</title>
<polygon fill="lightblue" stroke="black" points="307.75,-423 186.75,-423 186.75,-387 307.75,-387 307.75,-423"/>
<text xml:space="preserve" text-anchor="middle" x="247.25" y="-396.95" font-family="Times,serif" font-size="14.00">Backend Server</text>
</g>
<!-- SSEClient -->
<g id="node2" class="node">
<title>SSEClient</title>
<polygon fill="lightblue" stroke="black" points="349,-297 145.5,-297 145.5,-261 349,-261 349,-297"/>
<text xml:space="preserve" text-anchor="middle" x="247.25" y="-270.95" font-family="Times,serif" font-size="14.00">SSEClient (sse&#45;client.ts)</text>
</g>
<!-- Backend Server&#45;&gt;SSEClient -->
<g id="edge1" class="edge">
<title>Backend Server&#45;&gt;SSEClient</title>
<path fill="none" stroke="black" d="M247.25,-386.76C247.25,-366.61 247.25,-332.94 247.25,-308.8"/>
<polygon fill="black" stroke="black" points="250.75,-309.01 247.25,-299.01 243.75,-309.01 250.75,-309.01"/>
<text xml:space="preserve" text-anchor="middle" x="281" y="-333.95" font-family="Times,serif" font-size="14.00">Sends SSE</text>
</g>
<!-- StateManager -->
<g id="node3" class="node">
<title>StateManager</title>
<polygon fill="lightblue" stroke="black" points="270.5,-171 82,-171 82,-135 270.5,-135 270.5,-171"/>
<text xml:space="preserve" text-anchor="middle" x="176.25" y="-144.95" font-family="Times,serif" font-size="14.00">StateManager (state.ts)</text>
</g>
<!-- SSEClient&#45;&gt;StateManager -->
<g id="edge2" class="edge">
<title>SSEClient&#45;&gt;StateManager</title>
<path fill="none" stroke="black" d="M215.47,-260.71C201.21,-251.12 185.81,-237.77 177.75,-221.25 171.96,-209.4 170.99,-194.92 171.71,-182.44"/>
<polygon fill="black" stroke="black" points="175.17,-183.03 172.67,-172.74 168.2,-182.34 175.17,-183.03"/>
<text xml:space="preserve" text-anchor="middle" x="241.5" y="-207.95" font-family="Times,serif" font-size="14.00">Dispatches Events</text>
</g>
<!-- DebugEventLog -->
<g id="node5" class="node">
<title>DebugEventLog</title>
<polygon fill="lightblue" stroke="black" points="432.25,-45 206.25,-45 206.25,-9 432.25,-9 432.25,-45"/>
<text xml:space="preserve" text-anchor="middle" x="319.25" y="-18.95" font-family="Times,serif" font-size="14.00">DebugEventLog (debug&#45;log.ts)</text>
</g>
<!-- SSEClient&#45;&gt;DebugEventLog -->
<g id="edge5" class="edge">
<title>SSEClient&#45;&gt;DebugEventLog</title>
<path fill="none" stroke="black" d="M272.04,-260.69C284.28,-250.68 297.96,-236.97 305.25,-221.25 330.27,-167.3 327.41,-95.7 323.25,-56.56"/>
<polygon fill="black" stroke="black" points="326.74,-56.3 322.09,-46.79 319.79,-57.13 326.74,-56.3"/>
<text xml:space="preserve" text-anchor="middle" x="366.23" y="-144.95" font-family="Times,serif" font-size="14.00">Logs Events</text>
</g>
<!-- UI Components -->
<g id="node4" class="node">
<title>UI Components</title>
<polygon fill="lightblue" stroke="black" points="188.5,-45 0,-45 0,-9 188.5,-9 188.5,-45"/>
<text xml:space="preserve" text-anchor="middle" x="94.25" y="-18.95" font-family="Times,serif" font-size="14.00">UI Components (main.ts)</text>
</g>
<!-- StateManager&#45;&gt;UI Components -->
<g id="edge3" class="edge">
<title>StateManager&#45;&gt;UI Components</title>
<path fill="none" stroke="black" d="M140.03,-134.61C124.57,-125.21 107.99,-112.05 98.75,-95.25 92.38,-83.67 90.76,-69.22 90.93,-56.69"/>
<polygon fill="black" stroke="black" points="94.41,-57.11 91.47,-46.93 87.42,-56.72 94.41,-57.11"/>
<text xml:space="preserve" text-anchor="middle" x="147.5" y="-81.95" font-family="Times,serif" font-size="14.00">Updates State</text>
</g>
<!-- StateManager&#45;&gt;DebugEventLog -->
<g id="edge4" class="edge">
<title>StateManager&#45;&gt;DebugEventLog</title>
<path fill="none" stroke="black" d="M185.38,-134.7C193.69,-120.12 207.05,-99.34 222.75,-84.75 237.02,-71.49 254.9,-59.92 271.38,-50.74"/>
<polygon fill="black" stroke="black" points="272.94,-53.88 280.09,-46.06 269.62,-47.72 272.94,-53.88"/>
<text xml:space="preserve" text-anchor="middle" x="264" y="-81.95" font-family="Times,serif" font-size="14.00">Logs Events</text>
</g>
</g>
</svg>
