<?xml version="1.0" encoding="UTF-8" standalone="no"?>
<!DOCTYPE svg PUBLIC "-//W3C//DTD SVG 1.1//EN"
 "http://www.w3.org/Graphics/SVG/1.1/DTD/svg11.dtd">
<!-- Generated by graphviz version 2.44.1 (20201121.0304)
 -->
<!-- Title: G Pages: 1 -->
<svg width="530pt" height="530pt"
 viewBox="0.00 0.00 530.00 530.00" xmlns="http://www.w3.org/2000/svg" xmlns:xlink="http://www.w3.org/1999/xlink"><style>
  * {
    fill: transparent !important;
    stroke: #1f1f1f !important;
    stroke-width: 1 !important;
  }
  polygon:not(.cluster *, .node *, .edge *, text) {
    stroke: transparent !important;
  }
  text {
    font-size: 10px !important;
    font-family: monospace !important;
    fill: #1f1f1f !important;
    stroke: transparent !important;
    transform: translateY(-0.5em);
  }
</style>
<g id="graph0" class="graph" transform="scale(1 1) rotate(0) translate(4 526.25)">
<title>G</title>
<polygon fill="white" stroke="none" points="-4,4 -4,-526.25 526.25,-526.25 526.25,4 -4,4"/>
<!-- build&#45;images.sh -->
<g id="node1" class="node">
<title>build&#45;images.sh</title>
<polygon fill="lightblue" stroke="black" points="249.75,-496 121.25,-496 121.25,-460 249.75,-460 249.75,-496"/>
<text xml:space="preserve" text-anchor="middle" x="185.5" y="-475.2" font-family="Times,serif" font-size="14.00">build&#45;images.sh</text>
<text xml:space="preserve" text-anchor="middle" x="185.5" y="-464.7" font-family="Times,serif" font-size="14.00">(Orchestrator)</text>
</g>
<!-- lib/targets.sh -->
<g id="node2" class="node">
<title>lib/targets.sh</title>
<polygon fill="lightblue" stroke="black" points="181,-266 0,-266 0,-230 181,-230 181,-266"/>
<text xml:space="preserve" text-anchor="middle" x="90.5" y="-245.2" font-family="Times,serif" font-size="14.00">lib/targets.sh</text>
<text xml:space="preserve" text-anchor="middle" x="90.5" y="-234.7" font-family="Times,serif" font-size="14.00">(Image DAG &amp; Metadata)</text>
</g>
<!-- build&#45;images.sh&#45;&gt;lib/targets.sh -->
<g id="edge1" class="edge">
<title>build&#45;images.sh&#45;&gt;lib/targets.sh</title>
<path fill="none" stroke="black" d="M178.36,-459.86C162.06,-420.75 121.99,-324.58 102.1,-276.83"/>
<polygon fill="black" stroke="black" points="105.38,-275.62 98.31,-267.73 98.92,-278.31 105.38,-275.62"/>
<text xml:space="preserve" text-anchor="middle" x="185.85" y="-360.2" font-family="Times,serif" font-size="14.00">Consults for</text>
<text xml:space="preserve" text-anchor="middle" x="185.85" y="-349.7" font-family="Times,serif" font-size="14.00">Build Plan</text>
</g>
<!-- Builder Backends -->
<g id="node3" class="node">
<title>Builder Backends</title>
<polygon fill="lightblue" stroke="black" points="522.25,-266 198.75,-266 198.75,-230 522.25,-230 522.25,-266"/>
<text xml:space="preserve" text-anchor="middle" x="360.5" y="-245.2" font-family="Times,serif" font-size="14.00">Builder Backends</text>
<text xml:space="preserve" text-anchor="middle" x="360.5" y="-234.7" font-family="Times,serif" font-size="14.00">(local&#45;docker, local&#45;podman, cloud&#45;build)</text>
</g>
<!-- build&#45;images.sh&#45;&gt;Builder Backends -->
<g id="edge2" class="edge">
<title>build&#45;images.sh&#45;&gt;Builder Backends</title>
<path fill="none" stroke="black" d="M198.65,-459.86C228.99,-420.33 304.05,-322.55 340.28,-275.34"/>
<polygon fill="black" stroke="black" points="342.96,-277.6 346.27,-267.54 337.41,-273.34 342.96,-277.6"/>
<text xml:space="preserve" text-anchor="middle" x="372" y="-354.95" font-family="Times,serif" font-size="14.00">Dispatches Build Requests</text>
</g>
<!-- Container Build Tools -->
<g id="node4" class="node">
<title>Container Build Tools</title>
<polygon fill="lightblue" stroke="black" points="458.5,-62 262.5,-62 262.5,-26 458.5,-26 458.5,-62"/>
<text xml:space="preserve" text-anchor="middle" x="360.5" y="-41.2" font-family="Times,serif" font-size="14.00">Container Build Tools</text>
<text xml:space="preserve" text-anchor="middle" x="360.5" y="-30.7" font-family="Times,serif" font-size="14.00">(Docker, Podman, gcloud)</text>
</g>
<!-- Builder Backends&#45;&gt;Container Build Tools -->
<g id="edge3" class="edge">
<title>Builder Backends&#45;&gt;Container Build Tools</title>
<path fill="none" stroke="black" d="M360.5,-229.78C360.5,-195.06 360.5,-116.34 360.5,-73.71"/>
<polygon fill="black" stroke="black" points="364,-73.98 360.5,-63.98 357,-73.98 364,-73.98"/>
<text xml:space="preserve" text-anchor="middle" x="424.25" y="-137.95" font-family="Times,serif" font-size="14.00">Executes Commands</text>
</g>
</g>
</svg>
