<?xml version="1.0" encoding="UTF-8" standalone="no"?>
<!DOCTYPE svg PUBLIC "-//W3C//DTD SVG 1.1//EN"
 "http://www.w3.org/Graphics/SVG/1.1/DTD/svg11.dtd">
<!-- Generated by graphviz version 2.44.1 (20201121.0304)
 -->
<!-- Title: G Pages: 1 -->
<svg width="396pt" height="355pt"
 viewBox="0.00 0.00 396.00 355.00" xmlns="http://www.w3.org/2000/svg" xmlns:xlink="http://www.w3.org/1999/xlink"><style>
  * {
    fill: transparent !important;
    stroke: #1f1f1f !important;
    stroke-width: 1 !important;
  }
  polygon:not(.cluster *, .node *, .edge *, text) {
    stroke: transparent !important;
  }
  text {
    font-size: 10px !important;
    font-family: monospace !important;
    fill: #1f1f1f !important;
    stroke: transparent !important;
    transform: translateY(-0.5em);
  }
</style>
<g id="graph0" class="graph" transform="scale(1 1) rotate(0) translate(4 351)">
<title>G</title>
<polygon fill="white" stroke="none" points="-4,4 -4,-351 391.56,-351 391.56,4 -4,4"/>
<!-- Start Sandbox Workflow -->
<g id="node1" class="node">
<title>Start Sandbox Workflow</title>
<polygon fill="lightblue" stroke="black" points="264,-347 83,-347 83,-311 264,-311 264,-347"/>
<text xml:space="preserve" text-anchor="middle" x="173.5" y="-320.95" font-family="Times,serif" font-size="14.00">Start Sandbox Workflow</text>
</g>
<!-- Local&#45;Only Operations -->
<g id="node2" class="node">
<title>Local&#45;Only Operations</title>
<polygon fill="lightblue" stroke="black" points="260.25,-265 86.75,-265 86.75,-229 260.25,-229 260.25,-265"/>
<text xml:space="preserve" text-anchor="middle" x="173.5" y="-238.95" font-family="Times,serif" font-size="14.00">Local&#45;Only Operations</text>
</g>
<!-- Start Sandbox Workflow&#45;&gt;Local&#45;Only Operations -->
<g id="edge1" class="edge">
<title>Start Sandbox Workflow&#45;&gt;Local&#45;Only Operations</title>
<path fill="none" stroke="black" d="M173.5,-310.64C173.5,-300.68 173.5,-287.93 173.5,-276.54"/>
<polygon fill="black" stroke="black" points="177,-276.84 173.5,-266.84 170,-276.84 177,-276.84"/>
<text xml:space="preserve" text-anchor="middle" x="211" y="-279.95" font-family="Times,serif" font-size="14.00">Air&#45;gapped</text>
</g>
<!-- Worktree&#45;Aware Branch Management -->
<g id="node3" class="node">
<title>Worktree&#45;Aware Branch Management</title>
<polygon fill="lightblue" stroke="black" points="301.5,-192 45.5,-192 45.5,-156 301.5,-156 301.5,-192"/>
<text xml:space="preserve" text-anchor="middle" x="173.5" y="-165.95" font-family="Times,serif" font-size="14.00">Worktree&#45;Aware Branch Management</text>
</g>
<!-- Local&#45;Only Operations&#45;&gt;Worktree&#45;Aware Branch Management -->
<g id="edge2" class="edge">
<title>Local&#45;Only Operations&#45;&gt;Worktree&#45;Aware Branch Management</title>
<path fill="none" stroke="black" d="M173.5,-228.81C173.5,-221.23 173.5,-212.1 173.5,-203.54"/>
<polygon fill="black" stroke="black" points="177,-203.54 173.5,-193.54 170,-203.54 177,-203.54"/>
</g>
<!-- Non&#45;Interactive Conflict Resolution -->
<g id="node4" class="node">
<title>Non&#45;Interactive Conflict Resolution</title>
<polygon fill="lightblue" stroke="black" points="312.75,-119 34.25,-119 34.25,-83 312.75,-83 312.75,-119"/>
<text xml:space="preserve" text-anchor="middle" x="173.5" y="-92.95" font-family="Times,serif" font-size="14.00">Non&#45;Interactive Conflict Resolution</text>
</g>
<!-- Worktree&#45;Aware Branch Management&#45;&gt;Non&#45;Interactive Conflict Resolution -->
<g id="edge3" class="edge">
<title>Worktree&#45;Aware Branch Management&#45;&gt;Non&#45;Interactive Conflict Resolution</title>
<path fill="none" stroke="black" d="M173.5,-155.81C173.5,-148.23 173.5,-139.1 173.5,-130.54"/>
<polygon fill="black" stroke="black" points="177,-130.54 173.5,-120.54 170,-130.54 177,-130.54"/>
</g>
<!-- Conflict Resolution Loop -->
<g id="node5" class="node">
<title>Conflict Resolution Loop</title>
<polygon fill="lightblue" stroke="black" points="271.5,-36 75.5,-36 75.5,0 271.5,0 271.5,-36"/>
<text xml:space="preserve" text-anchor="middle" x="173.5" y="-9.95" font-family="Times,serif" font-size="14.00">Conflict Resolution Loop</text>
</g>
<!-- Non&#45;Interactive Conflict Resolution&#45;&gt;Conflict Resolution Loop -->
<g id="edge4" class="edge">
<title>Non&#45;Interactive Conflict Resolution&#45;&gt;Conflict Resolution Loop</title>
<path fill="none" stroke="black" d="M128.34,-82.66C116.1,-75.15 107.85,-65.39 114.5,-53.75 116.63,-50.02 119.34,-46.65 122.41,-43.62"/>
<polygon fill="black" stroke="black" points="124.59,-46.35 130.1,-37.3 120.15,-40.95 124.59,-46.35"/>
<text xml:space="preserve" text-anchor="middle" x="182" y="-50.95" font-family="Times,serif" font-size="14.00">If conflicts occur</text>
</g>
<!-- Conflict Resolution Loop&#45;&gt;Non&#45;Interactive Conflict Resolution -->
<g id="edge5" class="edge">
<title>Conflict Resolution Loop&#45;&gt;Non&#45;Interactive Conflict Resolution</title>
<path fill="none" stroke="black" d="M231.03,-36.27C238.34,-40.82 244.87,-46.55 249.5,-53.75 255.26,-62.72 252.39,-70.22 245.12,-76.38"/>
<polygon fill="black" stroke="black" points="243.42,-73.31 236.98,-81.72 247.26,-79.17 243.42,-73.31"/>
<text xml:space="preserve" text-anchor="middle" x="320.06" y="-50.95" font-family="Times,serif" font-size="14.00">Resolve &amp; Continue</text>
</g>
</g>
</svg>
