<?xml version="1.0" encoding="UTF-8" standalone="no"?>
<!DOCTYPE svg PUBLIC "-//W3C//DTD SVG 1.1//EN"
 "http://www.w3.org/Graphics/SVG/1.1/DTD/svg11.dtd">
<!-- Generated by graphviz version 2.44.1 (20201121.0304)
 -->
<!-- Title: G Pages: 1 -->
<svg width="404pt" height="404pt"
 viewBox="0.00 0.00 404.00 404.00" xmlns="http://www.w3.org/2000/svg" xmlns:xlink="http://www.w3.org/1999/xlink"><style>
  * {
    fill: transparent !important;
    stroke: #1f1f1f !important;
    stroke-width: 1 !important;
  }
  polygon:not(.cluster *, .node *, .edge *, text) {
    stroke: transparent !important;
  }
  text {
    font-size: 10px !important;
    font-family: monospace !important;
    fill: #1f1f1f !important;
    stroke: transparent !important;
    transform: translateY(-0.5em);
  }
</style>
<g id="graph0" class="graph" transform="scale(1 1) rotate(0) translate(4 400)">
<title>G</title>
<polygon fill="white" stroke="none" points="-4,4 -4,-400 400,-400 400,4 -4,4"/>
<!-- Repository -->
<g id="node1" class="node">
<title>Repository</title>
<polygon fill="lightblue" stroke="black" points="281,-396 115,-396 115,-360 281,-360 281,-396"/>
<text xml:space="preserve" text-anchor="middle" x="198" y="-369.95" font-family="Times,serif" font-size="14.00">Repository Structure</text>
</g>
<!-- DataSources -->
<g id="node2" class="node">
<title>DataSources</title>
<polygon fill="lightblue" stroke="black" points="251,-324 145,-324 145,-288 251,-288 251,-324"/>
<text xml:space="preserve" text-anchor="middle" x="198" y="-297.95" font-family="Times,serif" font-size="14.00">Data Sources</text>
</g>
<!-- Repository&#45;&gt;DataSources -->
<g id="edge1" class="edge">
<title>Repository&#45;&gt;DataSources</title>
<path fill="none" stroke="black" d="M198,-359.7C198,-352.41 198,-343.73 198,-335.54"/>
<polygon fill="black" stroke="black" points="201.5,-335.62 198,-325.62 194.5,-335.62 201.5,-335.62"/>
</g>
<!-- IngestionProcessing -->
<g id="node3" class="node">
<title>IngestionProcessing</title>
<polygon fill="lightblue" stroke="black" points="288.5,-252 107.5,-252 107.5,-216 288.5,-216 288.5,-252"/>
<text xml:space="preserve" text-anchor="middle" x="198" y="-225.95" font-family="Times,serif" font-size="14.00">Ingestion &amp; Processing</text>
</g>
<!-- DataSources&#45;&gt;IngestionProcessing -->
<g id="edge2" class="edge">
<title>DataSources&#45;&gt;IngestionProcessing</title>
<path fill="none" stroke="black" d="M198,-287.7C198,-280.41 198,-271.73 198,-263.54"/>
<polygon fill="black" stroke="black" points="201.5,-263.62 198,-253.62 194.5,-263.62 201.5,-263.62"/>
</g>
<!-- DataStorage -->
<g id="node4" class="node">
<title>DataStorage</title>
<polygon fill="lightblue" stroke="black" points="251,-180 145,-180 145,-144 251,-144 251,-180"/>
<text xml:space="preserve" text-anchor="middle" x="198" y="-153.95" font-family="Times,serif" font-size="14.00">Data Storage</text>
</g>
<!-- IngestionProcessing&#45;&gt;DataStorage -->
<g id="edge3" class="edge">
<title>IngestionProcessing&#45;&gt;DataStorage</title>
<path fill="none" stroke="black" d="M198,-215.7C198,-208.41 198,-199.73 198,-191.54"/>
<polygon fill="black" stroke="black" points="201.5,-191.62 198,-181.62 194.5,-191.62 201.5,-191.62"/>
</g>
<!-- ModelsTraining -->
<g id="node5" class="node">
<title>ModelsTraining</title>
<polygon fill="lightblue" stroke="black" points="269.75,-108 126.25,-108 126.25,-72 269.75,-72 269.75,-108"/>
<text xml:space="preserve" text-anchor="middle" x="198" y="-81.95" font-family="Times,serif" font-size="14.00">Models &amp; Training</text>
</g>
<!-- DataStorage&#45;&gt;ModelsTraining -->
<g id="edge4" class="edge">
<title>DataStorage&#45;&gt;ModelsTraining</title>
<path fill="none" stroke="black" d="M198,-143.7C198,-136.41 198,-127.73 198,-119.54"/>
<polygon fill="black" stroke="black" points="201.5,-119.62 198,-109.62 194.5,-119.62 201.5,-119.62"/>
</g>
<!-- APIs -->
<g id="node6" class="node">
<title>APIs</title>
<polygon fill="lightblue" stroke="black" points="269.75,-36 126.25,-36 126.25,0 269.75,0 269.75,-36"/>
<text xml:space="preserve" text-anchor="middle" x="198" y="-9.95" font-family="Times,serif" font-size="14.00">APIs &amp; Deployment</text>
</g>
<!-- ModelsTraining&#45;&gt;APIs -->
<g id="edge5" class="edge">
<title>ModelsTraining&#45;&gt;APIs</title>
<path fill="none" stroke="black" d="M198,-71.7C198,-64.41 198,-55.73 198,-47.54"/>
<polygon fill="black" stroke="black" points="201.5,-47.62 198,-37.62 194.5,-47.62 201.5,-47.62"/>
</g>
</g>
</svg>
