<?xml version="1.0" encoding="UTF-8" standalone="no"?>
<!DOCTYPE svg PUBLIC "-//W3C//DTD SVG 1.1//EN"
 "http://www.w3.org/Graphics/SVG/1.1/DTD/svg11.dtd">
<!-- Generated by graphviz version 2.44.1 (20201121.0304)
 -->
<!-- Title: G Pages: 1 -->
<svg width="784pt" height="784pt"
 viewBox="0.00 0.00 784.00 784.00" xmlns="http://www.w3.org/2000/svg" xmlns:xlink="http://www.w3.org/1999/xlink"><style>
  * {
    fill: transparent !important;
    stroke: #1f1f1f !important;
    stroke-width: 1 !important;
  }
  polygon:not(.cluster *, .node *, .edge *, text) {
    stroke: transparent !important;
  }
  text {
    font-size: 10px !important;
    font-family: monospace !important;
    fill: #1f1f1f !important;
    stroke: transparent !important;
    transform: translateY(-0.5em);
  }
</style>
<g id="graph0" class="graph" transform="scale(1 1) rotate(0) translate(4 780.25)">
<title>G</title>
<polygon fill="white" stroke="none" points="-4,4 -4,-780.25 780.25,-780.25 780.25,4 -4,4"/>
<!-- UIComponent -->
<g id="node1" class="node">
<title>UIComponent</title>
<polygon fill="lightblue" stroke="black" points="508.25,-725 402.25,-725 402.25,-689 508.25,-689 508.25,-725"/>
<text xml:space="preserve" text-anchor="middle" x="455.25" y="-698.95" font-family="Times,serif" font-size="14.00">UI Component</text>
</g>
<!-- APIFetch -->
<g id="node2" class="node">
<title>APIFetch</title>
<polygon fill="lightblue" stroke="black" points="360.75,-406 269.75,-406 269.75,-370 360.75,-370 360.75,-406"/>
<text xml:space="preserve" text-anchor="middle" x="315.25" y="-379.95" font-family="Times,serif" font-size="14.00">apiFetch()</text>
</g>
<!-- UIComponent&#45;&gt;APIFetch -->
<g id="edge1" class="edge">
<title>UIComponent&#45;&gt;APIFetch</title>
<path fill="none" stroke="black" d="M447.52,-688.51C424.43,-636.22 355.8,-480.82 327.58,-416.92"/>
<polygon fill="black" stroke="black" points="330.81,-415.56 323.56,-407.83 324.4,-418.39 330.81,-415.56"/>
<text xml:space="preserve" text-anchor="middle" x="426.5" y="-538.95" font-family="Times,serif" font-size="14.00">API Request</text>
</g>
<!-- BackendAPI -->
<g id="node3" class="node">
<title>BackendAPI</title>
<polygon fill="lightblue" stroke="black" points="98.5,-88 0,-88 0,-52 98.5,-52 98.5,-88"/>
<text xml:space="preserve" text-anchor="middle" x="49.25" y="-61.95" font-family="Times,serif" font-size="14.00">Backend API</text>
</g>
<!-- APIFetch&#45;&gt;BackendAPI -->
<g id="edge2" class="edge">
<title>APIFetch&#45;&gt;BackendAPI</title>
<path fill="none" stroke="black" d="M269.47,-379.12C200.06,-364.43 70.36,-325.64 14.25,-234.25 -12,-191.49 13.25,-131.92 32.36,-97.82"/>
<polygon fill="black" stroke="black" points="35.25,-99.81 37.26,-89.41 29.2,-96.29 35.25,-99.81"/>
<text xml:space="preserve" text-anchor="middle" x="59.25" y="-220.95" font-family="Times,serif" font-size="14.00">HTTP Request</text>
</g>
<!-- LoginRedirect -->
<g id="node4" class="node">
<title>LoginRedirect</title>
<polygon fill="lightblue" stroke="black" points="298.5,-88 140,-88 140,-52 298.5,-52 298.5,-88"/>
<text xml:space="preserve" text-anchor="middle" x="219.25" y="-61.95" font-family="Times,serif" font-size="14.00">Login Page Redirect</text>
</g>
<!-- APIFetch&#45;&gt;LoginRedirect -->
<g id="edge4" class="edge">
<title>APIFetch&#45;&gt;LoginRedirect</title>
<path fill="none" stroke="black" d="M305.35,-369.76C289.92,-342.1 260.31,-285.69 244.75,-234.25 230.83,-188.23 224.21,-132.5 221.29,-99.5"/>
<polygon fill="black" stroke="black" points="224.78,-99.22 220.47,-89.54 217.81,-99.79 224.78,-99.22"/>
<text xml:space="preserve" text-anchor="middle" x="301" y="-220.95" font-family="Times,serif" font-size="14.00">on 401 Response</text>
</g>
<!-- AccessDeniedEvent -->
<g id="node5" class="node">
<title>AccessDeniedEvent</title>
<polygon fill="lightblue" stroke="black" points="475.5,-88 317,-88 317,-52 475.5,-52 475.5,-88"/>
<text xml:space="preserve" text-anchor="middle" x="396.25" y="-61.95" font-family="Times,serif" font-size="14.00">Access Denied Event</text>
</g>
<!-- APIFetch&#45;&gt;AccessDeniedEvent -->
<g id="edge5" class="edge">
<title>APIFetch&#45;&gt;AccessDeniedEvent</title>
<path fill="none" stroke="black" d="M320.96,-369.72C330.15,-341.54 348.48,-283.87 361.25,-234.25 373.34,-187.25 384.59,-131.89 390.92,-99.22"/>
<polygon fill="black" stroke="black" points="394.29,-100.23 392.74,-89.75 387.42,-98.91 394.29,-100.23"/>
<text xml:space="preserve" text-anchor="middle" x="419.71" y="-220.95" font-family="Times,serif" font-size="14.00">on 403 Response</text>
</g>
<!-- ErrorHandlers -->
<g id="node6" class="node">
<title>ErrorHandlers</title>
<polygon fill="lightblue" stroke="black" points="776.25,-88 520.25,-88 520.25,-52 776.25,-52 776.25,-88"/>
<text xml:space="preserve" text-anchor="middle" x="648.25" y="-67.2" font-family="Times,serif" font-size="14.00">Error Handlers</text>
<text xml:space="preserve" text-anchor="middle" x="648.25" y="-56.7" font-family="Times,serif" font-size="14.00">(extractApiError, parseApiError)</text>
</g>
<!-- APIFetch&#45;&gt;ErrorHandlers -->
<g id="edge6" class="edge">
<title>APIFetch&#45;&gt;ErrorHandlers</title>
<path fill="none" stroke="black" d="M334.19,-369.74C365.02,-341.59 427.85,-283.95 480.25,-234.25 531.17,-185.95 589.79,-128.58 622.58,-96.32"/>
<polygon fill="black" stroke="black" points="624.98,-98.87 629.65,-89.36 620.07,-93.88 624.98,-98.87"/>
<text xml:space="preserve" text-anchor="middle" x="553.14" y="-220.95" font-family="Times,serif" font-size="14.00">on Error Response</text>
</g>
<!-- BackendAPI&#45;&gt;APIFetch -->
<g id="edge3" class="edge">
<title>BackendAPI&#45;&gt;APIFetch</title>
<path fill="none" stroke="black" d="M56.61,-88.4C70.3,-119.6 101.87,-186.3 140.75,-234.25 182.94,-286.29 244.01,-335.21 281.59,-363.09"/>
<polygon fill="black" stroke="black" points="279.26,-365.72 289.39,-368.81 283.4,-360.07 279.26,-365.72"/>
<text xml:space="preserve" text-anchor="middle" x="189.5" y="-220.95" font-family="Times,serif" font-size="14.00">HTTP Response</text>
</g>
<!-- ErrorHandlers&#45;&gt;UIComponent -->
<g id="edge7" class="edge">
<title>ErrorHandlers&#45;&gt;UIComponent</title>
<path fill="none" stroke="black" d="M646.39,-88.36C642.94,-118.42 634.67,-181.94 621.25,-234.25 576.91,-407.08 496.79,-606.43 466.9,-678.35"/>
<polygon fill="black" stroke="black" points="463.76,-676.8 463.13,-687.38 470.22,-679.5 463.76,-676.8"/>
<text xml:space="preserve" text-anchor="middle" x="625.41" y="-379.95" font-family="Times,serif" font-size="14.00">ApiErrorInfo</text>
</g>
</g>
</svg>
