<?xml version="1.0" encoding="UTF-8" standalone="no"?>
<!DOCTYPE svg PUBLIC "-//W3C//DTD SVG 1.1//EN"
 "http://www.w3.org/Graphics/SVG/1.1/DTD/svg11.dtd">
<!-- Generated by graphviz version 2.44.1 (20201121.0304)
 -->
<!-- Title: G Pages: 1 -->
<svg width="534pt" height="453pt"
 viewBox="0.00 0.00 534.00 453.00" xmlns="http://www.w3.org/2000/svg" xmlns:xlink="http://www.w3.org/1999/xlink"><style>
  * {
    fill: transparent !important;
    stroke: #1f1f1f !important;
    stroke-width: 1 !important;
  }
  polygon:not(.cluster *, .node *, .edge *, text) {
    stroke: transparent !important;
  }
  text {
    font-size: 10px !important;
    font-family: monospace !important;
    fill: #1f1f1f !important;
    stroke: transparent !important;
    transform: translateY(-0.5em);
  }
</style>
<g id="graph0" class="graph" transform="scale(1 1) rotate(0) translate(4 448.75)">
<title>G</title>
<polygon fill="white" stroke="none" points="-4,4 -4,-448.75 530.29,-448.75 530.29,4 -4,4"/>
<!-- ClientEntryPoint -->
<g id="node1" class="node">
<title>ClientEntryPoint</title>
<polygon fill="lightblue" stroke="black" points="494.9,-435 321.4,-435 321.4,-399 494.9,-399 494.9,-435"/>
<text xml:space="preserve" text-anchor="middle" x="408.15" y="-414.2" font-family="Times,serif" font-size="14.00">client/main.ts</text>
<text xml:space="preserve" text-anchor="middle" x="408.15" y="-403.7" font-family="Times,serif" font-size="14.00">(Entry Point, Router)</text>
</g>
<!-- StateManager -->
<g id="node2" class="node">
<title>StateManager</title>
<polygon fill="lightblue" stroke="black" points="321.4,-305 192.9,-305 192.9,-269 321.4,-269 321.4,-305"/>
<text xml:space="preserve" text-anchor="middle" x="257.15" y="-284.2" font-family="Times,serif" font-size="14.00">client/state.ts</text>
<text xml:space="preserve" text-anchor="middle" x="257.15" y="-273.7" font-family="Times,serif" font-size="14.00">(State Manager)</text>
</g>
<!-- ClientEntryPoint&#45;&gt;StateManager -->
<g id="edge1" class="edge">
<title>ClientEntryPoint&#45;&gt;StateManager</title>
<path fill="none" stroke="black" d="M387.79,-398.74C361.67,-376.6 316.2,-338.05 286.39,-312.78"/>
<polygon fill="black" stroke="black" points="288.72,-310.17 278.83,-306.38 284.2,-315.51 288.72,-310.17"/>
<text xml:space="preserve" text-anchor="middle" x="374.68" y="-343.95" font-family="Times,serif" font-size="14.00">sets scope</text>
</g>
<!-- UIComponents -->
<g id="node3" class="node">
<title>UIComponents</title>
<polygon fill="lightblue" stroke="black" points="445.4,-176 316.9,-176 316.9,-140 445.4,-140 445.4,-176"/>
<text xml:space="preserve" text-anchor="middle" x="381.15" y="-155.2" font-family="Times,serif" font-size="14.00">components/</text>
<text xml:space="preserve" text-anchor="middle" x="381.15" y="-144.7" font-family="Times,serif" font-size="14.00">(UI Components)</text>
</g>
<!-- ClientEntryPoint&#45;&gt;UIComponents -->
<g id="edge2" class="edge">
<title>ClientEntryPoint&#45;&gt;UIComponents</title>
<path fill="none" stroke="black" d="M419.55,-398.62C441.4,-362.91 484.47,-279.38 454.15,-216.75 447.54,-203.07 435.93,-191.65 423.89,-182.67"/>
<polygon fill="black" stroke="black" points="426.14,-179.97 415.93,-177.15 422.15,-185.72 426.14,-179.97"/>
<text xml:space="preserve" text-anchor="middle" x="490.73" y="-278.95" font-family="Times,serif" font-size="14.00">renders</text>
</g>
<!-- StateManager&#45;&gt;UIComponents -->
<g id="edge7" class="edge">
<title>StateManager&#45;&gt;UIComponents</title>
<path fill="none" stroke="black" d="M274.14,-268.61C295.47,-246.76 332.23,-209.1 356.62,-184.13"/>
<polygon fill="black" stroke="black" points="358.84,-186.87 363.32,-177.27 353.83,-181.98 358.84,-186.87"/>
<text xml:space="preserve" text-anchor="middle" x="386.62" y="-213.95" font-family="Times,serif" font-size="14.00">dispatches events</text>
</g>
<!-- SSEClient -->
<g id="node4" class="node">
<title>SSEClient</title>
<polygon fill="lightblue" stroke="black" points="216.15,-176 50.15,-176 50.15,-140 216.15,-140 216.15,-176"/>
<text xml:space="preserve" text-anchor="middle" x="133.15" y="-155.2" font-family="Times,serif" font-size="14.00">client/sse&#45;client.ts</text>
<text xml:space="preserve" text-anchor="middle" x="133.15" y="-144.7" font-family="Times,serif" font-size="14.00">(SSE Client)</text>
</g>
<!-- StateManager&#45;&gt;SSEClient -->
<g id="edge3" class="edge">
<title>StateManager&#45;&gt;SSEClient</title>
<path fill="none" stroke="black" d="M192.65,-279.9C126.14,-272.13 29.03,-256.09 6.15,-227.25 -10.89,-205.76 9.93,-190.16 39.32,-179.35"/>
<polygon fill="black" stroke="black" points="40.24,-182.73 48.59,-176.21 37.99,-176.1 40.24,-182.73"/>
<text xml:space="preserve" text-anchor="middle" x="81.15" y="-213.95" font-family="Times,serif" font-size="14.00">connects/disconnects</text>
</g>
<!-- API -->
<g id="node5" class="node">
<title>API</title>
<polygon fill="lightblue" stroke="black" points="460.4,-46 301.9,-46 301.9,-10 460.4,-10 460.4,-46"/>
<text xml:space="preserve" text-anchor="middle" x="381.15" y="-25.2" font-family="Times,serif" font-size="14.00">client/api.ts</text>
<text xml:space="preserve" text-anchor="middle" x="381.15" y="-14.7" font-family="Times,serif" font-size="14.00">(API Fetch Wrapper)</text>
</g>
<!-- UIComponents&#45;&gt;API -->
<g id="edge6" class="edge">
<title>UIComponents&#45;&gt;API</title>
<path fill="none" stroke="black" d="M342.68,-139.55C321.27,-127.1 300.76,-108.88 310.65,-87.75 317.12,-73.95 328.59,-62.27 340.42,-53.04"/>
<polygon fill="black" stroke="black" points="342.21,-56.06 348.25,-47.36 338.1,-50.4 342.21,-56.06"/>
<text xml:space="preserve" text-anchor="middle" x="366.9" y="-84.95" font-family="Times,serif" font-size="14.00">invokes fetches</text>
</g>
<!-- SSEClient&#45;&gt;StateManager -->
<g id="edge4" class="edge">
<title>SSEClient&#45;&gt;StateManager</title>
<path fill="none" stroke="black" d="M142.7,-176.42C151.14,-190.94 164.4,-211.7 179.15,-227.25 191.39,-240.14 206.68,-252.32 220.47,-262.22"/>
<polygon fill="black" stroke="black" points="218.28,-264.96 228.49,-267.82 222.29,-259.22 218.28,-264.96"/>
<text xml:space="preserve" text-anchor="middle" x="246.65" y="-213.95" font-family="Times,serif" font-size="14.00">dispatches updates</text>
</g>
<!-- API&#45;&gt;UIComponents -->
<g id="edge5" class="edge">
<title>API&#45;&gt;UIComponents</title>
<path fill="none" stroke="black" d="M399.63,-46.12C409.89,-56.93 421.66,-71.83 427.15,-87.75 432.58,-103.49 423.78,-119.11 412.46,-131.52"/>
<polygon fill="black" stroke="black" points="410.07,-128.96 405.45,-138.49 415.01,-133.93 410.07,-128.96"/>
<text xml:space="preserve" text-anchor="middle" x="477.54" y="-84.95" font-family="Times,serif" font-size="14.00">data fetching</text>
</g>
</g>
</svg>
