<?xml version="1.0" encoding="UTF-8" standalone="no"?>
<!DOCTYPE svg PUBLIC "-//W3C//DTD SVG 1.1//EN"
 "http://www.w3.org/Graphics/SVG/1.1/DTD/svg11.dtd">
<!-- Generated by graphviz version 2.44.1 (20201121.0304)
 -->
<!-- Title: G Pages: 1 -->
<svg width="457pt" height="457pt"
 viewBox="0.00 0.00 457.00 457.00" xmlns="http://www.w3.org/2000/svg" xmlns:xlink="http://www.w3.org/1999/xlink"><style>
  * {
    fill: transparent !important;
    stroke: #1f1f1f !important;
    stroke-width: 1 !important;
  }
  polygon:not(.cluster *, .node *, .edge *, text) {
    stroke: transparent !important;
  }
  text {
    font-size: 10px !important;
    font-family: monospace !important;
    fill: #1f1f1f !important;
    stroke: transparent !important;
    transform: translateY(-0.5em);
  }
</style>
<g id="graph0" class="graph" transform="scale(1 1) rotate(0) translate(4 452.5)">
<title>G</title>
<polygon fill="white" stroke="none" points="-4,4 -4,-452.5 452.5,-452.5 452.5,4 -4,4"/>
<!-- LLMAgents -->
<g id="node1" class="node">
<title>LLMAgents</title>
<polygon fill="lightblue" stroke="black" points="412.25,-449 36.25,-449 36.25,-413 412.25,-413 412.25,-449"/>
<text xml:space="preserve" text-anchor="middle" x="224.25" y="-422.95" font-family="Arial" font-size="14.00">LLM Agents (Claude, Codex, Gemini CLI, OpenCode)</text>
</g>
<!-- StructuredObservabilityData -->
<g id="node2" class="node">
<title>StructuredObservabilityData</title>
<polygon fill="lightblue" stroke="black" points="378.5,-366 70,-366 70,-330 378.5,-330 378.5,-366"/>
<text xml:space="preserve" text-anchor="middle" x="224.25" y="-339.95" font-family="Arial" font-size="14.00">Structured Data (Metrics, Logs, Traces)</text>
</g>
<!-- LLMAgents&#45;&gt;StructuredObservabilityData -->
<g id="edge1" class="edge">
<title>LLMAgents&#45;&gt;StructuredObservabilityData</title>
<path fill="none" stroke="black" d="M224.25,-412.82C224.25,-402.69 224.25,-389.6 224.25,-377.92"/>
<polygon fill="black" stroke="black" points="227.75,-377.95 224.25,-367.95 220.75,-377.95 227.75,-377.95"/>
<text xml:space="preserve" text-anchor="middle" x="258" y="-380.95" font-family="Times,serif" font-size="14.00">Generates</text>
</g>
<!-- NormalizedSchema -->
<g id="node3" class="node">
<title>NormalizedSchema</title>
<polygon fill="lightblue" stroke="black" points="438.5,-284 10,-284 10,-248 438.5,-248 438.5,-284"/>
<text xml:space="preserve" text-anchor="middle" x="224.25" y="-257.95" font-family="Arial" font-size="14.00">Normalized Schema (Sessions, Turns, Events, Attributes)</text>
</g>
<!-- StructuredObservabilityData&#45;&gt;NormalizedSchema -->
<g id="edge2" class="edge">
<title>StructuredObservabilityData&#45;&gt;NormalizedSchema</title>
<path fill="none" stroke="black" d="M224.25,-329.64C224.25,-319.68 224.25,-306.93 224.25,-295.54"/>
<polygon fill="black" stroke="black" points="227.75,-295.84 224.25,-285.84 220.75,-295.84 227.75,-295.84"/>
<text xml:space="preserve" text-anchor="middle" x="261.75" y="-298.95" font-family="Times,serif" font-size="14.00">Adheres to</text>
</g>
<!-- PIIMasking -->
<g id="node4" class="node">
<title>PIIMasking</title>
<polygon fill="lightblue" stroke="black" points="273.5,-201 175,-201 175,-165 273.5,-165 273.5,-201"/>
<text xml:space="preserve" text-anchor="middle" x="224.25" y="-174.95" font-family="Arial" font-size="14.00">PII Masking</text>
</g>
<!-- NormalizedSchema&#45;&gt;PIIMasking -->
<g id="edge3" class="edge">
<title>NormalizedSchema&#45;&gt;PIIMasking</title>
<path fill="none" stroke="black" d="M224.25,-247.82C224.25,-237.69 224.25,-224.6 224.25,-212.92"/>
<polygon fill="black" stroke="black" points="227.75,-212.95 224.25,-202.95 220.75,-212.95 227.75,-212.95"/>
<text xml:space="preserve" text-anchor="middle" x="269.25" y="-215.95" font-family="Times,serif" font-size="14.00">Processed by</text>
</g>
<!-- CustomForwarder -->
<g id="node5" class="node">
<title>CustomForwarder</title>
<polygon fill="lightblue" stroke="black" points="311,-119 137.5,-119 137.5,-83 311,-83 311,-119"/>
<text xml:space="preserve" text-anchor="middle" x="224.25" y="-92.95" font-family="Arial" font-size="14.00">Custom OTel Forwarder</text>
</g>
<!-- PIIMasking&#45;&gt;CustomForwarder -->
<g id="edge4" class="edge">
<title>PIIMasking&#45;&gt;CustomForwarder</title>
<path fill="none" stroke="black" d="M224.25,-164.64C224.25,-154.68 224.25,-141.93 224.25,-130.54"/>
<polygon fill="black" stroke="black" points="227.75,-130.84 224.25,-120.84 220.75,-130.84 227.75,-130.84"/>
<text xml:space="preserve" text-anchor="middle" x="265.5" y="-133.95" font-family="Times,serif" font-size="14.00">Forwards to</text>
</g>
<!-- TelemetryBackends -->
<g id="node6" class="node">
<title>TelemetryBackends</title>
<polygon fill="lightblue" stroke="black" points="386,-36 62.5,-36 62.5,0 386,0 386,-36"/>
<text xml:space="preserve" text-anchor="middle" x="224.25" y="-9.95" font-family="Arial" font-size="14.00">Telemetry Backends (Jaeger, GCP, Console)</text>
</g>
<!-- CustomForwarder&#45;&gt;TelemetryBackends -->
<g id="edge5" class="edge">
<title>CustomForwarder&#45;&gt;TelemetryBackends</title>
<path fill="none" stroke="black" d="M224.25,-82.82C224.25,-72.69 224.25,-59.6 224.25,-47.92"/>
<polygon fill="black" stroke="black" points="227.75,-47.95 224.25,-37.95 220.75,-47.95 227.75,-47.95"/>
<text xml:space="preserve" text-anchor="middle" x="254.25" y="-50.95" font-family="Times,serif" font-size="14.00">Sends to</text>
</g>
</g>
</svg>
