<?xml version="1.0" encoding="UTF-8" standalone="no"?>
<!DOCTYPE svg PUBLIC "-//W3C//DTD SVG 1.1//EN"
 "http://www.w3.org/Graphics/SVG/1.1/DTD/svg11.dtd">
<!-- Generated by graphviz version 2.44.1 (20201121.0304)
 -->
<!-- Title: G Pages: 1 -->
<svg width="406pt" height="374pt"
 viewBox="0.00 0.00 406.00 374.00" xmlns="http://www.w3.org/2000/svg" xmlns:xlink="http://www.w3.org/1999/xlink"><style>
  * {
    fill: transparent !important;
    stroke: #1f1f1f !important;
    stroke-width: 1 !important;
  }
  polygon:not(.cluster *, .node *, .edge *, text) {
    stroke: transparent !important;
  }
  text {
    font-size: 10px !important;
    font-family: monospace !important;
    fill: #1f1f1f !important;
    stroke: transparent !important;
    transform: translateY(-0.5em);
  }
</style>
<g id="graph0" class="graph" transform="scale(1 1) rotate(0) translate(4 369.5)">
<title>G</title>
<polygon fill="white" stroke="none" points="-4,4 -4,-369.5 402.16,-369.5 402.16,4 -4,4"/>
<!-- CLI_Mode_Resolution -->
<g id="node1" class="node">
<title>CLI_Mode_Resolution</title>
<polygon fill="lightblue" stroke="black" points="287.25,-365 76.25,-365 76.25,-329 287.25,-329 287.25,-365"/>
<text xml:space="preserve" text-anchor="middle" x="181.75" y="-344.2" font-family="Times,serif" font-size="14.00">CLI Mode Resolution</text>
<text xml:space="preserve" text-anchor="middle" x="181.75" y="-333.7" font-family="Times,serif" font-size="14.00">(FABRIC_CLI_MODE, Settings)</text>
</g>
<!-- Command_Filtering -->
<g id="node2" class="node">
<title>Command_Filtering</title>
<polygon fill="lightblue" stroke="black" points="306,-280 57.5,-280 57.5,-244 306,-244 306,-280"/>
<text xml:space="preserve" text-anchor="middle" x="181.75" y="-259.2" font-family="Times,serif" font-size="14.00">Command Filtering</text>
<text xml:space="preserve" text-anchor="middle" x="181.75" y="-248.7" font-family="Times,serif" font-size="14.00">(Human, Assistant, Agent Modes)</text>
</g>
<!-- CLI_Mode_Resolution&#45;&gt;Command_Filtering -->
<g id="edge1" class="edge">
<title>CLI_Mode_Resolution&#45;&gt;Command_Filtering</title>
<path fill="none" stroke="#333333" d="M181.75,-328.8C181.75,-318.08 181.75,-304.01 181.75,-291.64"/>
<polygon fill="#333333" stroke="#333333" points="185.25,-291.97 181.75,-281.97 178.25,-291.97 185.25,-291.97"/>
<text xml:space="preserve" text-anchor="middle" x="264.25" y="-296.95" font-family="Times,serif" font-size="14.00">Determines active mode</text>
</g>
<!-- Shell_Completion_Trigger -->
<g id="node3" class="node">
<title>Shell_Completion_Trigger</title>
<polygon fill="lightblue" stroke="black" points="249.75,-196 113.75,-196 113.75,-160 249.75,-160 249.75,-196"/>
<text xml:space="preserve" text-anchor="middle" x="181.75" y="-175.2" font-family="Times,serif" font-size="14.00">Shell Completion</text>
<text xml:space="preserve" text-anchor="middle" x="181.75" y="-164.7" font-family="Times,serif" font-size="14.00">Request</text>
</g>
<!-- Command_Filtering&#45;&gt;Shell_Completion_Trigger -->
<g id="edge2" class="edge">
<title>Command_Filtering&#45;&gt;Shell_Completion_Trigger</title>
<path fill="none" stroke="#333333" d="M181.75,-243.61C181.75,-233.17 181.75,-219.64 181.75,-207.66"/>
<polygon fill="#333333" stroke="#333333" points="185.25,-207.88 181.75,-197.88 178.25,-207.88 185.25,-207.88"/>
<text xml:space="preserve" text-anchor="middle" x="249.25" y="-211.95" font-family="Times,serif" font-size="14.00">Restricts commands</text>
</g>
<!-- Local_Agent_Discovery -->
<g id="node4" class="node">
<title>Local_Agent_Discovery</title>
<polygon fill="lightblue" stroke="black" points="173.5,-111 0,-111 0,-75 173.5,-75 173.5,-111"/>
<text xml:space="preserve" text-anchor="middle" x="86.75" y="-90.2" font-family="Times,serif" font-size="14.00">Local Agent Discovery</text>
<text xml:space="preserve" text-anchor="middle" x="86.75" y="-79.7" font-family="Times,serif" font-size="14.00">(Project/Global Dirs)</text>
</g>
<!-- Shell_Completion_Trigger&#45;&gt;Local_Agent_Discovery -->
<g id="edge3" class="edge">
<title>Shell_Completion_Trigger&#45;&gt;Local_Agent_Discovery</title>
<path fill="none" stroke="#333333" d="M162.07,-159.8C148.53,-147.97 130.33,-132.08 115.22,-118.87"/>
<polygon fill="#333333" stroke="#333333" points="117.71,-116.4 107.88,-112.46 113.1,-121.67 117.71,-116.4"/>
<text xml:space="preserve" text-anchor="middle" x="173.69" y="-127.95" font-family="Times,serif" font-size="14.00">Initiates</text>
</g>
<!-- Hub_Agent_Fetch -->
<g id="node5" class="node">
<title>Hub_Agent_Fetch</title>
<polygon fill="lightblue" stroke="black" points="365.5,-111 192,-111 192,-75 365.5,-75 365.5,-111"/>
<text xml:space="preserve" text-anchor="middle" x="278.75" y="-90.2" font-family="Times,serif" font-size="14.00">Fabric Hub Agent Fetch</text>
<text xml:space="preserve" text-anchor="middle" x="278.75" y="-79.7" font-family="Times,serif" font-size="14.00">(with Caching)</text>
</g>
<!-- Shell_Completion_Trigger&#45;&gt;Hub_Agent_Fetch -->
<g id="edge4" class="edge">
<title>Shell_Completion_Trigger&#45;&gt;Hub_Agent_Fetch</title>
<path fill="none" stroke="#333333" d="M201.85,-159.8C215.67,-147.97 234.25,-132.08 249.68,-118.87"/>
<polygon fill="#333333" stroke="#333333" points="251.87,-121.61 257.19,-112.45 247.32,-116.29 251.87,-121.61"/>
<text xml:space="preserve" text-anchor="middle" x="315.66" y="-127.95" font-family="Times,serif" font-size="14.00">Initiates (if enabled)</text>
</g>
<!-- Completion_Output -->
<g id="node6" class="node">
<title>Completion_Output</title>
<polygon fill="lightblue" stroke="black" points="253.5,-36 110,-36 110,0 253.5,0 253.5,-36"/>
<text xml:space="preserve" text-anchor="middle" x="181.75" y="-15.2" font-family="Times,serif" font-size="14.00">Filtered &amp; Cached</text>
<text xml:space="preserve" text-anchor="middle" x="181.75" y="-4.7" font-family="Times,serif" font-size="14.00">Suggestions</text>
</g>
<!-- Local_Agent_Discovery&#45;&gt;Completion_Output -->
<g id="edge5" class="edge">
<title>Local_Agent_Discovery&#45;&gt;Completion_Output</title>
<path fill="none" stroke="#333333" d="M109.26,-74.7C121.48,-65.31 136.78,-53.56 150.17,-43.27"/>
<polygon fill="#333333" stroke="#333333" points="152.07,-46.22 157.87,-37.35 147.81,-40.67 152.07,-46.22"/>
</g>
<!-- Hub_Agent_Fetch&#45;&gt;Completion_Output -->
<g id="edge6" class="edge">
<title>Hub_Agent_Fetch&#45;&gt;Completion_Output</title>
<path fill="none" stroke="#333333" d="M255.76,-74.7C243.29,-65.31 227.67,-53.56 214,-43.27"/>
<polygon fill="#333333" stroke="#333333" points="216.21,-40.56 206.12,-37.34 212,-46.15 216.21,-40.56"/>
</g>
</g>
</svg>
