<?xml version="1.0" encoding="UTF-8" standalone="no"?>
<!DOCTYPE svg PUBLIC "-//W3C//DTD SVG 1.1//EN"
 "http://www.w3.org/Graphics/SVG/1.1/DTD/svg11.dtd">
<!-- Generated by graphviz version 2.44.1 (20201121.0304)
 -->
<!-- Title: G Pages: 1 -->
<svg width="731pt" height="731pt"
 viewBox="0.00 0.00 731.00 731.00" xmlns="http://www.w3.org/2000/svg" xmlns:xlink="http://www.w3.org/1999/xlink"><style>
  * {
    fill: transparent !important;
    stroke: #1f1f1f !important;
    stroke-width: 1 !important;
  }
  polygon:not(.cluster *, .node *, .edge *, text) {
    stroke: transparent !important;
  }
  text {
    font-size: 10px !important;
    font-family: monospace !important;
    fill: #1f1f1f !important;
    stroke: transparent !important;
    transform: translateY(-0.5em);
  }
</style>
<g id="graph0" class="graph" transform="scale(1 1) rotate(0) translate(4 726.75)">
<title>G</title>
<polygon fill="white" stroke="none" points="-4,4 -4,-726.75 726.75,-726.75 726.75,4 -4,4"/>
<g id="clust1" class="cluster">
<title>cluster_inputs</title>
<polygon fill="none" stroke="black" points="276.75,-481.83 276.75,-698.2 714.75,-698.2 714.75,-481.83 276.75,-481.83"/>
<text xml:space="preserve" text-anchor="middle" x="495.75" y="-680.9" font-family="Times,serif" font-size="14.00">Input Files (Scion Staged)</text>
</g>
<!-- Input Files (Scion Staged) -->
<g id="node1" class="node">
<title>Input Files (Scion Staged)</title>
<polygon fill="lightblue" stroke="black" points="267.25,-580 56.25,-580 56.25,-544 267.25,-544 267.25,-580"/>
<text xml:space="preserve" text-anchor="middle" x="161.75" y="-553.95" font-family="Times,serif" font-size="14.00">Input Files (Scion Staged)</text>
</g>
<!-- ProvisionContext -->
<g id="node2" class="node">
<title>ProvisionContext</title>
<polygon fill="lightblue" stroke="black" points="229.75,-326 93.75,-326 93.75,-290 229.75,-290 229.75,-326"/>
<text xml:space="preserve" text-anchor="middle" x="161.75" y="-299.95" font-family="Times,serif" font-size="14.00">ProvisionContext</text>
</g>
<!-- Input Files (Scion Staged)&#45;&gt;ProvisionContext -->
<g id="edge1" class="edge">
<title>Input Files (Scion Staged)&#45;&gt;ProvisionContext</title>
<path fill="none" stroke="black" d="M161.75,-543.68C161.75,-500.97 161.75,-390.27 161.75,-337.63"/>
<polygon fill="black" stroke="black" points="165.25,-337.96 161.75,-327.96 158.25,-337.96 165.25,-337.96"/>
<text xml:space="preserve" text-anchor="middle" x="188" y="-426.95" font-family="Times,serif" font-size="14.00">read by</text>
</g>
<!-- Target Instruction File -->
<g id="node3" class="node">
<title>Target Instruction File</title>
<polygon fill="lightblue" stroke="black" points="323.5,-73 0,-73 0,-37 323.5,-37 323.5,-73"/>
<text xml:space="preserve" text-anchor="middle" x="161.75" y="-46.95" font-family="Times,serif" font-size="14.00">Target Instruction File (e.g., AGENTS.md)</text>
</g>
<!-- ProvisionContext&#45;&gt;Target Instruction File -->
<g id="edge2" class="edge">
<title>ProvisionContext&#45;&gt;Target Instruction File</title>
<path fill="none" stroke="black" d="M161.75,-289.75C161.75,-247.3 161.75,-137.42 161.75,-84.85"/>
<polygon fill="black" stroke="black" points="165.25,-84.89 161.75,-74.89 158.25,-84.89 165.25,-84.89"/>
<text xml:space="preserve" text-anchor="middle" x="251.75" y="-173.95" font-family="Times,serif" font-size="14.00">projects instructions to</text>
</g>
<!-- Target Instruction File&#45;&gt;Target Instruction File -->
<g id="edge3" class="edge">
<title>Target Instruction File&#45;&gt;Target Instruction File</title>
<path fill="none" stroke="black" d="M218.35,-73.49C276.53,-84.54 341.5,-78.38 341.5,-55 341.5,-33.13 284.63,-26.32 229.66,-34.59"/>
<polygon fill="black" stroke="black" points="229.11,-31.13 219.84,-36.25 230.28,-38.03 229.11,-31.13"/>
<text xml:space="preserve" text-anchor="middle" x="435.25" y="-46.95" font-family="Times,serif" font-size="14.00">updates managed blocks in</text>
</g>
<!-- SKILL.md Files -->
<g id="node4" class="node">
<title>SKILL.md Files</title>
<polygon fill="lightblue" stroke="black" points="406.25,-580 285.25,-580 285.25,-544 406.25,-544 406.25,-580"/>
<text xml:space="preserve" text-anchor="middle" x="345.75" y="-553.95" font-family="Times,serif" font-size="14.00">SKILL.md Files</text>
</g>
<!-- instructions.md -->
<g id="node5" class="node">
<title>instructions.md</title>
<polygon fill="lightblue" stroke="black" points="553,-580 424.5,-580 424.5,-544 553,-544 553,-580"/>
<text xml:space="preserve" text-anchor="middle" x="488.75" y="-553.95" font-family="Times,serif" font-size="14.00">instructions.md</text>
</g>
<!-- system&#45;prompt.md -->
<g id="node6" class="node">
<title>system&#45;prompt.md</title>
<polygon fill="lightblue" stroke="black" points="706.75,-580 570.75,-580 570.75,-544 706.75,-544 706.75,-580"/>
<text xml:space="preserve" text-anchor="middle" x="638.75" y="-553.95" font-family="Times,serif" font-size="14.00">system&#45;prompt.md</text>
</g>
</g>
</svg>
