<?xml version="1.0" encoding="UTF-8" standalone="no"?>
<!DOCTYPE svg PUBLIC "-//W3C//DTD SVG 1.1//EN"
 "http://www.w3.org/Graphics/SVG/1.1/DTD/svg11.dtd">
<!-- Generated by graphviz version 2.44.1 (20201121.0304)
 -->
<!-- Title: G Pages: 1 -->
<svg width="457pt" height="457pt"
 viewBox="0.00 0.00 457.00 457.00" xmlns="http://www.w3.org/2000/svg" xmlns:xlink="http://www.w3.org/1999/xlink"><style>
  * {
    fill: transparent !important;
    stroke: #1f1f1f !important;
    stroke-width: 1 !important;
  }
  polygon:not(.cluster *, .node *, .edge *, text) {
    stroke: transparent !important;
  }
  text {
    font-size: 10px !important;
    font-family: monospace !important;
    fill: #1f1f1f !important;
    stroke: transparent !important;
    transform: translateY(-0.5em);
  }
</style>
<g id="graph0" class="graph" transform="scale(1 1) rotate(0) translate(4 452.5)">
<title>G</title>
<polygon fill="white" stroke="none" points="-4,4 -4,-452.5 452.5,-452.5 452.5,4 -4,4"/>
<!-- LocalFS -->
<g id="node1" class="node">
<title>LocalFS</title>
<polygon fill="lightblue" stroke="black" points="356.83,-449 220.83,-449 220.83,-413 356.83,-413 356.83,-449"/>
<text xml:space="preserve" text-anchor="middle" x="288.83" y="-422.95" font-family="Times,serif" font-size="14.00">Local Filesystem</text>
</g>
<!-- CLI -->
<g id="node2" class="node">
<title>CLI</title>
<polygon fill="lightblue" stroke="black" points="330.58,-366 247.08,-366 247.08,-330 330.58,-330 330.58,-366"/>
<text xml:space="preserve" text-anchor="middle" x="288.83" y="-339.95" font-family="Times,serif" font-size="14.00">Scion CLI</text>
</g>
<!-- LocalFS&#45;&gt;CLI -->
<g id="edge1" class="edge">
<title>LocalFS&#45;&gt;CLI</title>
<path fill="none" stroke="black" d="M288.83,-412.82C288.83,-402.69 288.83,-389.6 288.83,-377.92"/>
<polygon fill="black" stroke="black" points="292.33,-377.95 288.83,-367.95 285.33,-377.95 292.33,-377.95"/>
<text xml:space="preserve" text-anchor="middle" x="333.83" y="-380.95" font-family="Times,serif" font-size="14.00">Sync/Context</text>
</g>
<!-- K8sAPI -->
<g id="node3" class="node">
<title>K8sAPI</title>
<polygon fill="lightblue" stroke="black" points="277.58,-284 74.08,-284 74.08,-248 277.58,-248 277.58,-284"/>
<text xml:space="preserve" text-anchor="middle" x="175.83" y="-257.95" font-family="Times,serif" font-size="14.00">Kubernetes API/Controller</text>
</g>
<!-- CLI&#45;&gt;K8sAPI -->
<g id="edge2" class="edge">
<title>CLI&#45;&gt;K8sAPI</title>
<path fill="none" stroke="black" d="M264.31,-329.64C248.32,-318.32 227.23,-303.39 209.65,-290.94"/>
<polygon fill="black" stroke="black" points="211.72,-288.12 201.53,-285.2 207.67,-293.83 211.72,-288.12"/>
<text xml:space="preserve" text-anchor="middle" x="265.34" y="-298.95" font-family="Times,serif" font-size="14.00">Manages</text>
</g>
<!-- AgentPod -->
<g id="node5" class="node">
<title>AgentPod</title>
<polygon fill="lightblue" stroke="black" points="390.08,-119 231.58,-119 231.58,-83 390.08,-83 390.08,-119"/>
<text xml:space="preserve" text-anchor="middle" x="310.83" y="-92.95" font-family="Times,serif" font-size="14.00">Agent Pod (Runtime)</text>
</g>
<!-- CLI&#45;&gt;AgentPod -->
<g id="edge6" class="edge">
<title>CLI&#45;&gt;AgentPod</title>
<path fill="none" stroke="black" d="M296.11,-329.5C309.92,-295.26 339.47,-216.64 349.83,-147.25 350.52,-142.63 351.74,-141.01 349.83,-136.75 348.39,-133.54 346.49,-130.51 344.31,-127.67"/>
<polygon fill="black" stroke="black" points="346.96,-125.38 337.6,-120.41 341.82,-130.13 346.96,-125.38"/>
<text xml:space="preserve" text-anchor="middle" x="367.38" y="-215.95" font-family="Times,serif" font-size="14.00">Exec/Logs</text>
</g>
<!-- SandboxCR -->
<g id="node4" class="node">
<title>SandboxCR</title>
<polygon fill="lightblue" stroke="black" points="288.83,-201 152.83,-201 152.83,-165 288.83,-165 288.83,-201"/>
<text xml:space="preserve" text-anchor="middle" x="220.83" y="-180.2" font-family="Times,serif" font-size="14.00">Sandbox CRs</text>
<text xml:space="preserve" text-anchor="middle" x="220.83" y="-169.7" font-family="Times,serif" font-size="14.00">(Claim/Template)</text>
</g>
<!-- K8sAPI&#45;&gt;SandboxCR -->
<g id="edge3" class="edge">
<title>K8sAPI&#45;&gt;SandboxCR</title>
<path fill="none" stroke="black" d="M185.37,-247.82C191.24,-237.26 198.89,-223.49 205.58,-211.45"/>
<polygon fill="black" stroke="black" points="208.61,-213.2 210.41,-202.76 202.49,-209.8 208.61,-213.2"/>
<text xml:space="preserve" text-anchor="middle" x="234.77" y="-215.95" font-family="Times,serif" font-size="14.00">Interacts</text>
</g>
<!-- SandboxCR&#45;&gt;AgentPod -->
<g id="edge4" class="edge">
<title>SandboxCR&#45;&gt;AgentPod</title>
<path fill="none" stroke="black" d="M240.36,-164.64C252.86,-153.53 269.27,-138.94 283.11,-126.64"/>
<polygon fill="black" stroke="black" points="285.06,-129.59 290.21,-120.33 280.41,-124.36 285.06,-129.59"/>
<text xml:space="preserve" text-anchor="middle" x="308.72" y="-133.95" font-family="Times,serif" font-size="14.00">Provisions</text>
</g>
<!-- SCMSystem -->
<g id="node6" class="node">
<title>SCMSystem</title>
<polygon fill="lightblue" stroke="black" points="371.33,-36 250.33,-36 250.33,0 371.33,0 371.33,-36"/>
<text xml:space="preserve" text-anchor="middle" x="310.83" y="-15.2" font-family="Times,serif" font-size="14.00">SCM System</text>
<text xml:space="preserve" text-anchor="middle" x="310.83" y="-4.7" font-family="Times,serif" font-size="14.00">(e.g., GitHub)</text>
</g>
<!-- AgentPod&#45;&gt;SCMSystem -->
<g id="edge5" class="edge">
<title>AgentPod&#45;&gt;SCMSystem</title>
<path fill="none" stroke="black" d="M310.83,-82.82C310.83,-72.69 310.83,-59.6 310.83,-47.92"/>
<polygon fill="black" stroke="black" points="314.33,-47.95 310.83,-37.95 307.33,-47.95 314.33,-47.95"/>
<text xml:space="preserve" text-anchor="middle" x="344.58" y="-50.95" font-family="Times,serif" font-size="14.00">Git Clone</text>
</g>
</g>
</svg>
