<?xml version="1.0" encoding="UTF-8" standalone="no"?>
<!DOCTYPE svg PUBLIC "-//W3C//DTD SVG 1.1//EN"
 "http://www.w3.org/Graphics/SVG/1.1/DTD/svg11.dtd">
<!-- Generated by graphviz version 2.44.1 (20201121.0304)
 -->
<!-- Title: G Pages: 1 -->
<svg width="441pt" height="365pt"
 viewBox="0.00 0.00 441.00 365.00" xmlns="http://www.w3.org/2000/svg" xmlns:xlink="http://www.w3.org/1999/xlink"><style>
  * {
    fill: transparent !important;
    stroke: #1f1f1f !important;
    stroke-width: 1 !important;
  }
  polygon:not(.cluster *, .node *, .edge *, text) {
    stroke: transparent !important;
  }
  text {
    font-size: 10px !important;
    font-family: monospace !important;
    fill: #1f1f1f !important;
    stroke: transparent !important;
    transform: translateY(-0.5em);
  }
</style>
<g id="graph0" class="graph" transform="scale(1 1) rotate(0) translate(4 360.5)">
<title>G</title>
<polygon fill="white" stroke="none" points="-4,4 -4,-360.5 436.71,-360.5 436.71,4 -4,4"/>
<!-- TelegramUser -->
<g id="node1" class="node">
<title>TelegramUser</title>
<polygon fill="lightblue" stroke="black" points="175.6,-357 62.1,-357 62.1,-321 175.6,-321 175.6,-357"/>
<text xml:space="preserve" text-anchor="middle" x="118.85" y="-330.95" font-family="Times,serif" font-size="14.00">Telegram User</text>
</g>
<!-- TelegramBotAPI -->
<g id="node2" class="node">
<title>TelegramBotAPI</title>
<polygon fill="lightblue" stroke="black" points="186.85,-274 50.85,-274 50.85,-238 186.85,-238 186.85,-274"/>
<text xml:space="preserve" text-anchor="middle" x="118.85" y="-247.95" font-family="Times,serif" font-size="14.00">Telegram Bot API</text>
</g>
<!-- TelegramUser&#45;&gt;TelegramBotAPI -->
<g id="edge1" class="edge">
<title>TelegramUser&#45;&gt;TelegramBotAPI</title>
<path fill="none" stroke="black" d="M118.85,-320.82C118.85,-310.69 118.85,-297.6 118.85,-285.92"/>
<polygon fill="black" stroke="black" points="122.35,-285.95 118.85,-275.95 115.35,-285.95 122.35,-285.95"/>
<text xml:space="preserve" text-anchor="middle" x="205.1" y="-288.95" font-family="Times,serif" font-size="14.00">Sends/Receives messages</text>
</g>
<!-- TelegramPlugin -->
<g id="node3" class="node">
<title>TelegramPlugin</title>
<polygon fill="lightblue" stroke="black" points="183.1,-192 54.6,-192 54.6,-156 183.1,-156 183.1,-192"/>
<text xml:space="preserve" text-anchor="middle" x="118.85" y="-165.95" font-family="Times,serif" font-size="14.00">Telegram Plugin</text>
</g>
<!-- TelegramBotAPI&#45;&gt;TelegramPlugin -->
<g id="edge2" class="edge">
<title>TelegramBotAPI&#45;&gt;TelegramPlugin</title>
<path fill="none" stroke="black" d="M65.73,-237.59C58.63,-233.04 52.28,-227.35 47.85,-220.25 42.62,-211.87 45.1,-204.76 51.58,-198.84"/>
<polygon fill="black" stroke="black" points="53.35,-201.87 59.56,-193.29 49.35,-196.13 53.35,-201.87"/>
<text xml:space="preserve" text-anchor="middle" x="175.35" y="-206.95" font-family="Times,serif" font-size="14.00">Inbound messages (Polling/Webhook)</text>
</g>
<!-- TelegramPlugin&#45;&gt;TelegramBotAPI -->
<g id="edge3" class="edge">
<title>TelegramPlugin&#45;&gt;TelegramBotAPI</title>
<path fill="none" stroke="black" d="M183.6,-180.71C243.09,-187.3 319.69,-199.92 302.85,-220.25 289.3,-236.6 241.67,-245.31 198.27,-249.92"/>
<polygon fill="black" stroke="black" points="198.16,-246.42 188.56,-250.89 198.86,-253.38 198.16,-246.42"/>
<text xml:space="preserve" text-anchor="middle" x="368.96" y="-206.95" font-family="Times,serif" font-size="14.00">Outbound messages</text>
</g>
<!-- FabricHub -->
<g id="node4" class="node">
<title>FabricHub</title>
<polygon fill="lightblue" stroke="black" points="103.6,-109 20.1,-109 20.1,-73 103.6,-73 103.6,-109"/>
<text xml:space="preserve" text-anchor="middle" x="61.85" y="-82.95" font-family="Times,serif" font-size="14.00">Fabric Hub</text>
</g>
<!-- TelegramPlugin&#45;&gt;FabricHub -->
<g id="edge4" class="edge">
<title>TelegramPlugin&#45;&gt;FabricHub</title>
<path fill="none" stroke="black" d="M89.14,-155.8C82.39,-150.63 75.89,-144.39 71.35,-137.25 68.15,-132.21 66,-126.29 64.57,-120.41"/>
<polygon fill="black" stroke="black" points="68.08,-120.14 62.88,-110.91 61.19,-121.37 68.08,-120.14"/>
<text xml:space="preserve" text-anchor="middle" x="157.6" y="-123.95" font-family="Times,serif" font-size="14.00">Sends/Receives messages</text>
</g>
<!-- Database -->
<g id="node5" class="node">
<title>Database</title>
<polygon fill="lightblue" stroke="black" points="306.35,-36 95.35,-36 95.35,0 306.35,0 306.35,-36"/>
<text xml:space="preserve" text-anchor="middle" x="200.85" y="-9.95" font-family="Times,serif" font-size="14.00">Database (Postgres/SQLite)</text>
</g>
<!-- TelegramPlugin&#45;&gt;Database -->
<g id="edge5" class="edge">
<title>TelegramPlugin&#45;&gt;Database</title>
<path fill="none" stroke="black" d="M183.38,-161.92C209.79,-155.95 236,-147.66 243.85,-137.25 264.82,-109.44 242.99,-70.41 223.54,-44.92"/>
<polygon fill="black" stroke="black" points="226.49,-43 217.51,-37.37 221.02,-47.37 226.49,-43"/>
<text xml:space="preserve" text-anchor="middle" x="319.81" y="-82.95" font-family="Times,serif" font-size="14.00">Reads/Writes state</text>
</g>
<!-- FabricHub&#45;&gt;Database -->
<g id="edge6" class="edge">
<title>FabricHub&#45;&gt;Database</title>
<path fill="none" stroke="black" d="M95.85,-72.63C114.11,-63.31 136.84,-51.7 156.47,-41.67"/>
<polygon fill="black" stroke="black" points="158.05,-44.79 165.37,-37.12 154.87,-38.56 158.05,-44.79"/>
</g>
</g>
</svg>
