<?xml version="1.0" encoding="UTF-8" standalone="no"?>
<!DOCTYPE svg PUBLIC "-//W3C//DTD SVG 1.1//EN"
 "http://www.w3.org/Graphics/SVG/1.1/DTD/svg11.dtd">
<!-- Generated by graphviz version 2.44.1 (20201121.0304)
 -->
<!-- Title: G Pages: 1 -->
<svg width="603pt" height="564pt"
 viewBox="0.00 0.00 603.00 564.00" xmlns="http://www.w3.org/2000/svg" xmlns:xlink="http://www.w3.org/1999/xlink"><style>
  * {
    fill: transparent !important;
    stroke: #1f1f1f !important;
    stroke-width: 1 !important;
  }
  polygon:not(.cluster *, .node *, .edge *, text) {
    stroke: transparent !important;
  }
  text {
    font-size: 10px !important;
    font-family: monospace !important;
    fill: #1f1f1f !important;
    stroke: transparent !important;
    transform: translateY(-0.5em);
  }
</style>
<g id="graph0" class="graph" transform="scale(1 1) rotate(0) translate(4 560)">
<title>G</title>
<polygon fill="white" stroke="none" points="-4,4 -4,-560 599.49,-560 599.49,4 -4,4"/>
<!-- NFS_Server -->
<g id="node1" class="node">
<title>NFS_Server</title>
<polygon fill="lightblue" stroke="black" points="91,-377 0,-377 0,-341 91,-341 91,-377"/>
<text xml:space="preserve" text-anchor="middle" x="45.5" y="-350.95" font-family="Times,serif" font-size="14.00">NFS Server</text>
</g>
<!-- Persistent_Volume -->
<g id="node2" class="node">
<title>Persistent_Volume</title>
<polygon fill="lightblue" stroke="black" points="242.25,-215 68.75,-215 68.75,-179 242.25,-179 242.25,-215"/>
<text xml:space="preserve" text-anchor="middle" x="155.5" y="-188.95" font-family="Times,serif" font-size="14.00">PersistentVolume (PV)</text>
</g>
<!-- NFS_Server&#45;&gt;Persistent_Volume -->
<g id="edge1" class="edge">
<title>NFS_Server&#45;&gt;Persistent_Volume</title>
<path fill="none" stroke="black" d="M44.76,-340.74C44.75,-322.58 47.01,-293.77 59.5,-272.75 72.14,-251.47 93.33,-234 112.59,-221.32"/>
<polygon fill="black" stroke="black" points="114.26,-224.41 120.85,-216.12 110.53,-218.49 114.26,-224.41"/>
<text xml:space="preserve" text-anchor="middle" x="127" y="-269.95" font-family="Times,serif" font-size="14.00">Provisions Storage</text>
</g>
<!-- Kubernetes_Cluster -->
<g id="node3" class="node">
<title>Kubernetes_Cluster</title>
<polygon fill="lightblue" stroke="black" points="293,-53 142,-53 142,-17 293,-17 293,-53"/>
<text xml:space="preserve" text-anchor="middle" x="217.5" y="-26.95" font-family="Times,serif" font-size="14.00">Kubernetes Cluster</text>
</g>
<!-- Persistent_Volume&#45;&gt;Kubernetes_Cluster -->
<g id="edge2" class="edge">
<title>Persistent_Volume&#45;&gt;Kubernetes_Cluster</title>
<path fill="none" stroke="black" d="M162.25,-178.57C172.97,-150.92 193.96,-96.75 206.76,-63.73"/>
<polygon fill="black" stroke="black" points="209.86,-65.41 210.21,-54.82 203.33,-62.88 209.86,-65.41"/>
<text xml:space="preserve" text-anchor="middle" x="214.61" y="-107.95" font-family="Times,serif" font-size="14.00">Manages</text>
</g>
<!-- Persistent_Volume_Claim -->
<g id="node4" class="node">
<title>Persistent_Volume_Claim</title>
<polygon fill="lightblue" stroke="black" points="368.75,-377 150.25,-377 150.25,-341 368.75,-341 368.75,-377"/>
<text xml:space="preserve" text-anchor="middle" x="259.5" y="-350.95" font-family="Times,serif" font-size="14.00">PersistentVolumeClaim (PVC)</text>
</g>
<!-- Persistent_Volume_Claim&#45;&gt;Persistent_Volume -->
<g id="edge4" class="edge">
<title>Persistent_Volume_Claim&#45;&gt;Persistent_Volume</title>
<path fill="none" stroke="black" d="M245.81,-340.58C234.32,-325.68 217.7,-303.49 204.5,-283.25 192.14,-264.31 179.45,-242.13 170.08,-225.15"/>
<polygon fill="black" stroke="black" points="173.3,-223.75 165.43,-216.65 167.16,-227.1 173.3,-223.75"/>
<text xml:space="preserve" text-anchor="middle" x="234.5" y="-269.95" font-family="Times,serif" font-size="14.00">Binds to</text>
</g>
<!-- Persistent_Volume_Claim&#45;&gt;Kubernetes_Cluster -->
<g id="edge3" class="edge">
<title>Persistent_Volume_Claim&#45;&gt;Kubernetes_Cluster</title>
<path fill="none" stroke="black" d="M260.98,-340.8C262.2,-325.66 263.84,-303.01 264.5,-283.25 267.08,-206.11 262.45,-185.81 244.5,-110.75 240.7,-94.87 234.64,-77.69 229.23,-63.81"/>
<polygon fill="black" stroke="black" points="232.62,-62.86 225.64,-54.89 226.12,-65.47 232.62,-62.86"/>
<text xml:space="preserve" text-anchor="middle" x="294.01" y="-188.95" font-family="Times,serif" font-size="14.00">Requests</text>
</g>
<!-- Test_Pods -->
<g id="node5" class="node">
<title>Test_Pods</title>
<polygon fill="lightblue" stroke="black" points="545,-539 364,-539 364,-503 545,-503 545,-539"/>
<text xml:space="preserve" text-anchor="middle" x="454.5" y="-518.2" font-family="Times,serif" font-size="14.00">Test Pods</text>
<text xml:space="preserve" text-anchor="middle" x="454.5" y="-507.7" font-family="Times,serif" font-size="14.00">(e.g., nm2&#45;test&#45;pod&#45;a)</text>
</g>
<!-- Test_Pods&#45;&gt;Persistent_Volume_Claim -->
<g id="edge5" class="edge">
<title>Test_Pods&#45;&gt;Persistent_Volume_Claim</title>
<path fill="none" stroke="black" d="M433.26,-502.57C398.46,-474.02 329.2,-417.19 289.44,-384.57"/>
<polygon fill="black" stroke="black" points="291.83,-382 281.88,-378.37 287.39,-387.41 291.83,-382"/>
<text xml:space="preserve" text-anchor="middle" x="377.85" y="-431.95" font-family="Times,serif" font-size="14.00">Uses</text>
</g>
<!-- Scion_Agent -->
<g id="node6" class="node">
<title>Scion_Agent</title>
<polygon fill="lightblue" stroke="black" points="522.5,-377 386.5,-377 386.5,-341 522.5,-341 522.5,-377"/>
<text xml:space="preserve" text-anchor="middle" x="454.5" y="-356.2" font-family="Times,serif" font-size="14.00">Scion Agent</text>
<text xml:space="preserve" text-anchor="middle" x="454.5" y="-345.7" font-family="Times,serif" font-size="14.00">(Init Container)</text>
</g>
<!-- Test_Pods&#45;&gt;Scion_Agent -->
<g id="edge6" class="edge">
<title>Test_Pods&#45;&gt;Scion_Agent</title>
<path fill="none" stroke="black" d="M454.5,-502.57C454.5,-475.16 454.5,-421.69 454.5,-388.59"/>
<polygon fill="black" stroke="black" points="458,-388.92 454.5,-378.92 451,-388.92 458,-388.92"/>
<text xml:space="preserve" text-anchor="middle" x="484.5" y="-431.95" font-family="Times,serif" font-size="14.00">Contains</text>
</g>
<!-- Shared_Workspace -->
<g id="node7" class="node">
<title>Shared_Workspace</title>
<polygon fill="lightblue" stroke="black" points="556,-215 375,-215 375,-179 556,-179 556,-215"/>
<text xml:space="preserve" text-anchor="middle" x="465.5" y="-194.2" font-family="Times,serif" font-size="14.00">Shared Workspace</text>
<text xml:space="preserve" text-anchor="middle" x="465.5" y="-183.7" font-family="Times,serif" font-size="14.00">(NFS Mount at Subpath)</text>
</g>
<!-- Test_Pods&#45;&gt;Shared_Workspace -->
<g id="edge7" class="edge">
<title>Test_Pods&#45;&gt;Shared_Workspace</title>
<path fill="none" stroke="black" d="M473.55,-502.78C487.99,-488.68 507.22,-467.5 518.5,-445.25 551.94,-379.29 548,-356.71 556.5,-283.25 557.04,-278.61 558.49,-276.97 556.5,-272.75 546.38,-251.34 526.79,-234.01 508.38,-221.44"/>
<polygon fill="black" stroke="black" points="510.47,-218.63 500.18,-216.13 506.67,-224.5 510.47,-218.63"/>
<text xml:space="preserve" text-anchor="middle" x="572.99" y="-350.95" font-family="Times,serif" font-size="14.00">Mounts</text>
</g>
<!-- Scion_Agent&#45;&gt;Shared_Workspace -->
<g id="edge8" class="edge">
<title>Scion_Agent&#45;&gt;Shared_Workspace</title>
<path fill="none" stroke="black" d="M449.69,-340.67C445.54,-323.43 440.69,-296.23 444,-272.75 446.22,-256.98 450.96,-239.87 455.43,-226"/>
<polygon fill="black" stroke="black" points="458.7,-227.25 458.57,-216.65 452.07,-225.02 458.7,-227.25"/>
<text xml:space="preserve" text-anchor="middle" x="500.25" y="-269.95" font-family="Times,serif" font-size="14.00">Initializes Git</text>
</g>
</g>
</svg>
