<?xml version="1.0" encoding="UTF-8" standalone="no"?>
<!DOCTYPE svg PUBLIC "-//W3C//DTD SVG 1.1//EN"
 "http://www.w3.org/Graphics/SVG/1.1/DTD/svg11.dtd">
<!-- Generated by graphviz version 2.44.1 (20201121.0304)
 -->
<!-- Title: G Pages: 1 -->
<svg width="1106pt" height="1106pt"
 viewBox="0.00 0.00 1106.00 1106.00" xmlns="http://www.w3.org/2000/svg" xmlns:xlink="http://www.w3.org/1999/xlink"><style>
  * {
    fill: transparent !important;
    stroke: #1f1f1f !important;
    stroke-width: 1 !important;
  }
  polygon:not(.cluster *, .node *, .edge *, text) {
    stroke: transparent !important;
  }
  text {
    font-size: 10px !important;
    font-family: monospace !important;
    fill: #1f1f1f !important;
    stroke: transparent !important;
    transform: translateY(-0.5em);
  }
</style>
<g id="graph0" class="graph" transform="scale(1 1) rotate(0) translate(4 1102)">
<title>G</title>
<polygon fill="white" stroke="none" points="-4,4 -4,-1102 1102,-1102 1102,4 -4,4"/>
<!-- apitest_tool -->
<g id="node1" class="node">
<title>apitest_tool</title>
<polygon fill="lightblue" stroke="black" points="598.5,-1018 432.5,-1018 432.5,-982 598.5,-982 598.5,-1018"/>
<text xml:space="preserve" text-anchor="middle" x="515.5" y="-991.95" font-family="Times,serif" font-size="14.00">Apitest Tool (on VM)</text>
</g>
<!-- scion_hubs -->
<g id="node2" class="node">
<title>scion_hubs</title>
<polygon fill="lightblue" stroke="black" points="151,-567 0,-567 0,-531 151,-531 151,-567"/>
<text xml:space="preserve" text-anchor="middle" x="75.5" y="-540.95" font-family="Times,serif" font-size="14.00">Scion Hubs (A &amp; B)</text>
</g>
<!-- apitest_tool&#45;&gt;scion_hubs -->
<g id="edge1" class="edge">
<title>apitest_tool&#45;&gt;scion_hubs</title>
<path fill="none" stroke="black" d="M498.19,-981.69C461.2,-944.68 371.79,-855.05 297.5,-779.25 225.3,-705.59 140.7,-617.82 99.92,-575.42"/>
<polygon fill="black" stroke="black" points="102.64,-573.2 93.19,-568.42 97.6,-578.05 102.64,-573.2"/>
<text xml:space="preserve" text-anchor="middle" x="342.5" y="-765.95" font-family="Times,serif" font-size="14.00">API Requests</text>
</g>
<!-- phase1 -->
<g id="node4" class="node">
<title>phase1</title>
<polygon fill="lightblue" stroke="black" points="365.5,-567 169.5,-567 169.5,-531 365.5,-531 365.5,-567"/>
<text xml:space="preserve" text-anchor="middle" x="267.5" y="-540.95" font-family="Times,serif" font-size="14.00">1. Concurrent CRUD Storm</text>
</g>
<!-- apitest_tool&#45;&gt;phase1 -->
<g id="edge3" class="edge">
<title>apitest_tool&#45;&gt;phase1</title>
<path fill="none" stroke="black" d="M505.93,-981.67C468.07,-913.12 328.55,-660.54 282.42,-577.01"/>
<polygon fill="black" stroke="black" points="285.54,-575.42 277.64,-568.36 279.41,-578.8 285.54,-575.42"/>
</g>
<!-- phase2 -->
<g id="node5" class="node">
<title>phase2</title>
<polygon fill="lightblue" stroke="black" points="647.25,-567 383.75,-567 383.75,-531 647.25,-531 647.25,-567"/>
<text xml:space="preserve" text-anchor="middle" x="515.5" y="-540.95" font-family="Times,serif" font-size="14.00">2. Cross&#45;Replica Read&#45;After&#45;Write</text>
</g>
<!-- apitest_tool&#45;&gt;phase2 -->
<g id="edge4" class="edge">
<title>apitest_tool&#45;&gt;phase2</title>
<path fill="none" stroke="black" d="M515.5,-981.67C515.5,-913.47 515.5,-663.11 515.5,-578.3"/>
<polygon fill="black" stroke="black" points="519,-578.55 515.5,-568.55 512,-578.55 519,-578.55"/>
</g>
<!-- phase3 -->
<g id="node6" class="node">
<title>phase3</title>
<polygon fill="lightblue" stroke="black" points="929.25,-567 665.75,-567 665.75,-531 929.25,-531 929.25,-567"/>
<text xml:space="preserve" text-anchor="middle" x="797.5" y="-540.95" font-family="Times,serif" font-size="14.00">3. Concurrent Duplicate&#45;ID Create</text>
</g>
<!-- apitest_tool&#45;&gt;phase3 -->
<g id="edge5" class="edge">
<title>apitest_tool&#45;&gt;phase3</title>
<path fill="none" stroke="black" d="M526.38,-981.67C569.48,-913.05 728.4,-660.02 780.69,-576.76"/>
<polygon fill="black" stroke="black" points="783.64,-578.65 786,-568.32 777.71,-574.92 783.64,-578.65"/>
</g>
<!-- phase4 -->
<g id="node7" class="node">
<title>phase4</title>
<polygon fill="lightblue" stroke="black" points="1098,-567 947,-567 947,-531 1098,-531 1098,-567"/>
<text xml:space="preserve" text-anchor="middle" x="1022.5" y="-540.95" font-family="Times,serif" font-size="14.00">4. Idle&#45;then&#45;Burst</text>
</g>
<!-- apitest_tool&#45;&gt;phase4 -->
<g id="edge6" class="edge">
<title>apitest_tool&#45;&gt;phase4</title>
<path fill="none" stroke="black" d="M535.06,-981.67C613.17,-912.5 902.87,-655.95 994.51,-574.79"/>
<polygon fill="black" stroke="black" points="996.7,-577.53 1001.86,-568.28 992.05,-572.29 996.7,-577.53"/>
</g>
<!-- cloudsql_postgres -->
<g id="node3" class="node">
<title>cloudsql_postgres</title>
<polygon fill="lightblue" stroke="black" points="147.25,-116 3.75,-116 3.75,-80 147.25,-80 147.25,-116"/>
<text xml:space="preserve" text-anchor="middle" x="75.5" y="-89.95" font-family="Times,serif" font-size="14.00">CloudSQL Postgres</text>
</g>
<!-- scion_hubs&#45;&gt;cloudsql_postgres -->
<g id="edge2" class="edge">
<title>scion_hubs&#45;&gt;cloudsql_postgres</title>
<path fill="none" stroke="black" d="M75.5,-530.67C75.5,-462.47 75.5,-212.11 75.5,-127.3"/>
<polygon fill="black" stroke="black" points="79,-127.55 75.5,-117.55 72,-127.55 79,-127.55"/>
<text xml:space="preserve" text-anchor="middle" x="116.75" y="-315.95" font-family="Times,serif" font-size="14.00">Data Access</text>
</g>
</g>
</svg>
