<?xml version="1.0" encoding="UTF-8" standalone="no"?>
<!DOCTYPE svg PUBLIC "-//W3C//DTD SVG 1.1//EN"
 "http://www.w3.org/Graphics/SVG/1.1/DTD/svg11.dtd">
<!-- Generated by graphviz version 2.44.1 (20201121.0304)
 -->
<!-- Title: G Pages: 1 -->
<svg width="419pt" height="419pt"
 viewBox="0.00 0.00 419.00 419.00" xmlns="http://www.w3.org/2000/svg" xmlns:xlink="http://www.w3.org/1999/xlink"><style>
  * {
    fill: transparent !important;
    stroke: #1f1f1f !important;
    stroke-width: 1 !important;
  }
  polygon:not(.cluster *, .node *, .edge *, text) {
    stroke: transparent !important;
  }
  text {
    font-size: 10px !important;
    font-family: monospace !important;
    fill: #1f1f1f !important;
    stroke: transparent !important;
    transform: translateY(-0.5em);
  }
</style>
<g id="graph0" class="graph" transform="scale(1 1) rotate(0) translate(4 414.5)">
<title>G</title>
<polygon fill="white" stroke="none" points="-4,4 -4,-414.5 414.5,-414.5 414.5,4 -4,4"/>
<!-- Understand -->
<g id="node1" class="node">
<title>Understand</title>
<polygon fill="lightblue" stroke="black" points="242.81,-411 151.81,-411 151.81,-375 242.81,-375 242.81,-411"/>
<text xml:space="preserve" text-anchor="middle" x="197.31" y="-384.95" font-family="Times,serif" font-size="14.00">Understand</text>
</g>
<!-- Plan -->
<g id="node2" class="node">
<title>Plan</title>
<polygon fill="lightblue" stroke="black" points="224.31,-338 170.31,-338 170.31,-302 224.31,-302 224.31,-338"/>
<text xml:space="preserve" text-anchor="middle" x="197.31" y="-311.95" font-family="Times,serif" font-size="14.00">Plan</text>
</g>
<!-- Understand&#45;&gt;Plan -->
<g id="edge1" class="edge">
<title>Understand&#45;&gt;Plan</title>
<path fill="none" stroke="black" d="M197.31,-374.81C197.31,-367.23 197.31,-358.1 197.31,-349.54"/>
<polygon fill="black" stroke="black" points="200.81,-349.54 197.31,-339.54 193.81,-349.54 200.81,-349.54"/>
</g>
<!-- Implement -->
<g id="node3" class="node">
<title>Implement</title>
<polygon fill="lightblue" stroke="black" points="239.06,-265 155.56,-265 155.56,-229 239.06,-229 239.06,-265"/>
<text xml:space="preserve" text-anchor="middle" x="197.31" y="-238.95" font-family="Times,serif" font-size="14.00">Implement</text>
</g>
<!-- Plan&#45;&gt;Implement -->
<g id="edge2" class="edge">
<title>Plan&#45;&gt;Implement</title>
<path fill="none" stroke="black" d="M197.31,-301.81C197.31,-294.23 197.31,-285.1 197.31,-276.54"/>
<polygon fill="black" stroke="black" points="200.81,-276.54 197.31,-266.54 193.81,-276.54 200.81,-276.54"/>
</g>
<!-- Verify (Accuracy) -->
<g id="node4" class="node">
<title>Verify (Accuracy)</title>
<polygon fill="lightblue" stroke="black" points="218.06,-182 74.56,-182 74.56,-146 218.06,-146 218.06,-182"/>
<text xml:space="preserve" text-anchor="middle" x="146.31" y="-155.95" font-family="Times,serif" font-size="14.00">Verify (Accuracy)</text>
</g>
<!-- Implement&#45;&gt;Verify (Accuracy) -->
<g id="edge3" class="edge">
<title>Implement&#45;&gt;Verify (Accuracy)</title>
<path fill="none" stroke="black" d="M186.5,-228.82C179.78,-218.16 171,-204.22 163.37,-192.08"/>
<polygon fill="black" stroke="black" points="166.38,-190.31 158.09,-183.71 160.46,-194.04 166.38,-190.31"/>
</g>
<!-- Verify (Accuracy)&#45;&gt;Implement -->
<g id="edge6" class="edge">
<title>Verify (Accuracy)&#45;&gt;Implement</title>
<path fill="none" stroke="black" d="M162.27,-182.37C166.78,-187.73 171.5,-193.79 175.31,-199.75 179.06,-205.6 182.57,-212.19 185.64,-218.52"/>
<polygon fill="black" stroke="black" points="182.36,-219.76 189.72,-227.38 188.72,-216.84 182.36,-219.76"/>
<text xml:space="preserve" text-anchor="middle" x="214.73" y="-196.95" font-family="Times,serif" font-size="14.00">If issues</text>
</g>
<!-- Verify (Standards) -->
<g id="node5" class="node">
<title>Verify (Standards)</title>
<polygon fill="lightblue" stroke="black" points="331.81,-109 180.81,-109 180.81,-73 331.81,-73 331.81,-109"/>
<text xml:space="preserve" text-anchor="middle" x="256.31" y="-82.95" font-family="Times,serif" font-size="14.00">Verify (Standards)</text>
</g>
<!-- Verify (Accuracy)&#45;&gt;Verify (Standards) -->
<g id="edge4" class="edge">
<title>Verify (Accuracy)&#45;&gt;Verify (Standards)</title>
<path fill="none" stroke="black" d="M173.22,-145.63C187.2,-136.61 204.5,-125.44 219.68,-115.64"/>
<polygon fill="black" stroke="black" points="221.52,-118.62 228.03,-110.26 217.73,-112.74 221.52,-118.62"/>
</g>
<!-- Verify (Standards)&#45;&gt;Implement -->
<g id="edge7" class="edge">
<title>Verify (Standards)&#45;&gt;Implement</title>
<path fill="none" stroke="black" d="M260.43,-109.38C265.2,-133.68 270.29,-178.41 252.31,-210.25 249.98,-214.38 246.95,-218.11 243.52,-221.46"/>
<polygon fill="black" stroke="black" points="241.53,-218.57 236.06,-227.64 245.99,-223.96 241.53,-218.57"/>
<text xml:space="preserve" text-anchor="middle" x="298.69" y="-155.95" font-family="Times,serif" font-size="14.00">If issues</text>
</g>
<!-- Finalize -->
<g id="node6" class="node">
<title>Finalize</title>
<polygon fill="lightblue" stroke="black" points="294.31,-36 218.31,-36 218.31,0 294.31,0 294.31,-36"/>
<text xml:space="preserve" text-anchor="middle" x="256.31" y="-9.95" font-family="Times,serif" font-size="14.00">Finalize</text>
</g>
<!-- Verify (Standards)&#45;&gt;Finalize -->
<g id="edge5" class="edge">
<title>Verify (Standards)&#45;&gt;Finalize</title>
<path fill="none" stroke="black" d="M256.31,-72.81C256.31,-65.23 256.31,-56.1 256.31,-47.54"/>
<polygon fill="black" stroke="black" points="259.81,-47.54 256.31,-37.54 252.81,-47.54 259.81,-47.54"/>
</g>
</g>
</svg>
