<?xml version="1.0" encoding="UTF-8" standalone="no"?>
<!DOCTYPE svg PUBLIC "-//W3C//DTD SVG 1.1//EN"
 "http://www.w3.org/Graphics/SVG/1.1/DTD/svg11.dtd">
<!-- Generated by graphviz version 2.44.1 (20201121.0304)
 -->
<!-- Title: G Pages: 1 -->
<svg width="478pt" height="478pt"
 viewBox="0.00 0.00 478.00 478.00" xmlns="http://www.w3.org/2000/svg" xmlns:xlink="http://www.w3.org/1999/xlink"><style>
  * {
    fill: transparent !important;
    stroke: #1f1f1f !important;
    stroke-width: 1 !important;
  }
  polygon:not(.cluster *, .node *, .edge *, text) {
    stroke: transparent !important;
  }
  text {
    font-size: 10px !important;
    font-family: monospace !important;
    fill: #1f1f1f !important;
    stroke: transparent !important;
    transform: translateY(-0.5em);
  }
</style>
<g id="graph0" class="graph" transform="scale(1 1) rotate(0) translate(4 474)">
<title>G</title>
<polygon fill="white" stroke="none" points="-4,4 -4,-474 474,-474 474,4 -4,4"/>
<!-- User Input -->
<g id="node1" class="node">
<title>User Input</title>
<polygon fill="lightblue" stroke="black" points="183.25,-458 92.25,-458 92.25,-422 183.25,-422 183.25,-458"/>
<text xml:space="preserve" text-anchor="middle" x="137.75" y="-431.95" font-family="Times,serif" font-size="14.00">User Input</text>
</g>
<!-- Semantic Release Notes Agent -->
<g id="node2" class="node">
<title>Semantic Release Notes Agent</title>
<polygon fill="lightblue" stroke="black" points="398.75,-321 172.75,-321 172.75,-285 398.75,-285 398.75,-321"/>
<text xml:space="preserve" text-anchor="middle" x="285.75" y="-294.95" font-family="Times,serif" font-size="14.00">Semantic Release Notes Agent</text>
</g>
<!-- User Input&#45;&gt;Semantic Release Notes Agent -->
<g id="edge1" class="edge">
<title>User Input&#45;&gt;Semantic Release Notes Agent</title>
<path fill="none" stroke="black" d="M156.8,-421.63C182.66,-398.03 229.04,-355.72 258.56,-328.8"/>
<polygon fill="black" stroke="black" points="260.63,-331.65 265.66,-322.33 255.91,-326.48 260.63,-331.65"/>
<text xml:space="preserve" text-anchor="middle" x="242.44" y="-363.95" font-family="Times,serif" font-size="14.00">Prompts</text>
</g>
<!-- sciontool status ask_user -->
<g id="node4" class="node">
<title>sciontool status ask_user</title>
<polygon fill="lightblue" stroke="black" points="203.5,-185 0,-185 0,-149 203.5,-149 203.5,-185"/>
<text xml:space="preserve" text-anchor="middle" x="101.75" y="-158.95" font-family="Times,serif" font-size="14.00">sciontool status ask_user</text>
</g>
<!-- Semantic Release Notes Agent&#45;&gt;sciontool status ask_user -->
<g id="edge3" class="edge">
<title>Semantic Release Notes Agent&#45;&gt;sciontool status ask_user</title>
<path fill="none" stroke="black" d="M262.07,-284.76C229.73,-261.2 171.58,-218.85 134.91,-192.15"/>
<polygon fill="black" stroke="black" points="137,-189.34 126.85,-186.28 132.88,-195 137,-189.34"/>
<text xml:space="preserve" text-anchor="middle" x="229.27" y="-226.95" font-family="Times,serif" font-size="14.00">Executes</text>
</g>
<!-- sciontool status task_completed -->
<g id="node5" class="node">
<title>sciontool status task_completed</title>
<polygon fill="lightblue" stroke="black" points="470,-185 221.5,-185 221.5,-149 470,-149 470,-185"/>
<text xml:space="preserve" text-anchor="middle" x="345.75" y="-158.95" font-family="Times,serif" font-size="14.00">sciontool status task_completed</text>
</g>
<!-- Semantic Release Notes Agent&#45;&gt;sciontool status task_completed -->
<g id="edge5" class="edge">
<title>Semantic Release Notes Agent&#45;&gt;sciontool status task_completed</title>
<path fill="none" stroke="black" d="M293.47,-284.76C303.6,-262.14 321.48,-222.2 333.47,-195.42"/>
<polygon fill="black" stroke="black" points="336.55,-197.12 337.44,-186.56 330.16,-194.26 336.55,-197.12"/>
<text xml:space="preserve" text-anchor="middle" x="347.55" y="-226.95" font-family="Times,serif" font-size="14.00">Executes</text>
</g>
<!-- Git History -->
<g id="node3" class="node">
<title>Git History</title>
<polygon fill="lightblue" stroke="black" points="335,-458 236.5,-458 236.5,-422 335,-422 335,-458"/>
<text xml:space="preserve" text-anchor="middle" x="285.75" y="-431.95" font-family="Times,serif" font-size="14.00">Git History</text>
</g>
<!-- Git History&#45;&gt;Semantic Release Notes Agent -->
<g id="edge2" class="edge">
<title>Git History&#45;&gt;Semantic Release Notes Agent</title>
<path fill="none" stroke="black" d="M285.75,-421.63C285.75,-399.15 285.75,-359.68 285.75,-332.71"/>
<polygon fill="black" stroke="black" points="289.25,-332.82 285.75,-322.82 282.25,-332.82 289.25,-332.82"/>
<text xml:space="preserve" text-anchor="middle" x="315.75" y="-363.95" font-family="Times,serif" font-size="14.00">Analyzes</text>
</g>
<!-- sciontool status ask_user&#45;&gt;User Input -->
<g id="edge4" class="edge">
<title>sciontool status ask_user&#45;&gt;User Input</title>
<path fill="none" stroke="black" d="M101.93,-185.07C102.42,-213.43 104.27,-271.99 111.25,-321 115.66,-351.94 123.9,-386.79 130.02,-410.55"/>
<polygon fill="black" stroke="black" points="126.61,-411.32 132.54,-420.1 133.38,-409.54 126.61,-411.32"/>
<text xml:space="preserve" text-anchor="middle" x="137.5" y="-294.95" font-family="Times,serif" font-size="14.00">Queries</text>
</g>
<!-- Release Notes (CHANGELOG.md) -->
<g id="node6" class="node">
<title>Release Notes (CHANGELOG.md)</title>
<polygon fill="lightblue" stroke="black" points="458.75,-48 232.75,-48 232.75,-12 458.75,-12 458.75,-48"/>
<text xml:space="preserve" text-anchor="middle" x="345.75" y="-21.95" font-family="Times,serif" font-size="14.00">Release Notes (CHANGELOG.md)</text>
</g>
<!-- sciontool status task_completed&#45;&gt;Release Notes (CHANGELOG.md) -->
<g id="edge6" class="edge">
<title>sciontool status task_completed&#45;&gt;Release Notes (CHANGELOG.md)</title>
<path fill="none" stroke="black" d="M345.75,-148.63C345.75,-126.15 345.75,-86.68 345.75,-59.71"/>
<polygon fill="black" stroke="black" points="349.25,-59.82 345.75,-49.82 342.25,-59.82 349.25,-59.82"/>
<text xml:space="preserve" text-anchor="middle" x="379.5" y="-89.95" font-family="Times,serif" font-size="14.00">Generates</text>
</g>
</g>
</svg>
