<?xml version="1.0" encoding="UTF-8" standalone="no"?>
<!DOCTYPE svg PUBLIC "-//W3C//DTD SVG 1.1//EN"
 "http://www.w3.org/Graphics/SVG/1.1/DTD/svg11.dtd">
<!-- Generated by graphviz version 2.44.1 (20201121.0304)
 -->
<!-- Title: G Pages: 1 -->
<svg width="410pt" height="410pt"
 viewBox="0.00 0.00 410.00 410.00" xmlns="http://www.w3.org/2000/svg" xmlns:xlink="http://www.w3.org/1999/xlink"><style>
  * {
    fill: transparent !important;
    stroke: #1f1f1f !important;
    stroke-width: 1 !important;
  }
  polygon:not(.cluster *, .node *, .edge *, text) {
    stroke: transparent !important;
  }
  text {
    font-size: 10px !important;
    font-family: monospace !important;
    fill: #1f1f1f !important;
    stroke: transparent !important;
    transform: translateY(-0.5em);
  }
</style>
<g id="graph0" class="graph" transform="scale(1 1) rotate(0) translate(4 406.25)">
<title>G</title>
<polygon fill="white" stroke="none" points="-4,4 -4,-406.25 406.25,-406.25 406.25,4 -4,4"/>
<!-- Harness capture_auth.py -->
<g id="node1" class="node">
<title>Harness capture_auth.py</title>
<polygon fill="lightblue" stroke="black" points="327.25,-379.75 108.75,-379.75 108.75,-340.25 327.25,-340.25 327.25,-379.75"/>
<text xml:space="preserve" text-anchor="middle" x="218" y="-362.45" font-family="Times,serif" font-size="14.00">Harness&#45;Specific</text>
<text xml:space="preserve" text-anchor="middle" x="218" y="-351.95" font-family="Times,serif" font-size="14.00">capture_auth.py</text>
<text xml:space="preserve" text-anchor="middle" x="218" y="-341.45" font-family="Times,serif" font-size="14.00">(Antigravity, Claude, etc.)</text>
</g>
<!-- External Credential Sources -->
<g id="node2" class="node">
<title>External Credential Sources</title>
<polygon fill="lightblue" stroke="black" points="226,-216.75 0,-216.75 0,-177.25 226,-177.25 226,-216.75"/>
<text xml:space="preserve" text-anchor="middle" x="113" y="-199.45" font-family="Times,serif" font-size="14.00">External Credential</text>
<text xml:space="preserve" text-anchor="middle" x="113" y="-188.95" font-family="Times,serif" font-size="14.00">Sources</text>
<text xml:space="preserve" text-anchor="middle" x="113" y="-178.45" font-family="Times,serif" font-size="14.00">(Gnome Keyring, Tmux, Files)</text>
</g>
<!-- Harness capture_auth.py&#45;&gt;External Credential Sources -->
<g id="edge1" class="edge">
<title>Harness capture_auth.py&#45;&gt;External Credential Sources</title>
<path fill="none" stroke="black" d="M205.54,-339.9C187.23,-311.82 152.91,-259.2 131.6,-226.53"/>
<polygon fill="black" stroke="black" points="134.66,-224.81 126.27,-218.34 128.8,-228.63 134.66,-224.81"/>
</g>
<!-- fabric_harness.capture_auth_main() -->
<g id="node3" class="node">
<title>fabric_harness.capture_auth_main()</title>
<polygon fill="lightblue" stroke="black" points="402.25,-215 243.75,-215 243.75,-179 402.25,-179 402.25,-215"/>
<text xml:space="preserve" text-anchor="middle" x="323" y="-194.2" font-family="Times,serif" font-size="14.00">fabric_harness.</text>
<text xml:space="preserve" text-anchor="middle" x="323" y="-183.7" font-family="Times,serif" font-size="14.00">capture_auth_main()</text>
</g>
<!-- Harness capture_auth.py&#45;&gt;fabric_harness.capture_auth_main() -->
<g id="edge2" class="edge">
<title>Harness capture_auth.py&#45;&gt;fabric_harness.capture_auth_main()</title>
<path fill="none" stroke="black" d="M230.46,-339.9C249.16,-311.21 284.57,-256.92 305.75,-224.45"/>
<polygon fill="black" stroke="black" points="308.48,-226.68 311.01,-216.39 302.61,-222.85 308.48,-226.68"/>
</g>
<!-- fabrictool secret set -->
<g id="node4" class="node">
<title>fabrictool secret set</title>
<polygon fill="lightblue" stroke="black" points="263.5,-57 172.5,-57 172.5,-21 263.5,-21 263.5,-57"/>
<text xml:space="preserve" text-anchor="middle" x="218" y="-36.2" font-family="Times,serif" font-size="14.00">fabrictool</text>
<text xml:space="preserve" text-anchor="middle" x="218" y="-25.7" font-family="Times,serif" font-size="14.00">secret set</text>
</g>
<!-- External Credential Sources&#45;&gt;fabrictool secret set -->
<g id="edge4" class="edge">
<title>External Credential Sources&#45;&gt;fabrictool secret set</title>
<path fill="none" stroke="black" d="M125.88,-176.87C144.45,-149.27 178.86,-98.14 199.97,-66.79"/>
<polygon fill="black" stroke="black" points="202.79,-68.87 205.47,-58.62 196.98,-64.96 202.79,-68.87"/>
</g>
<!-- fabric_harness.capture_auth_main()&#45;&gt;fabrictool secret set -->
<g id="edge3" class="edge">
<title>fabric_harness.capture_auth_main()&#45;&gt;fabrictool secret set</title>
<path fill="none" stroke="black" d="M311.36,-178.71C293.07,-151.53 257.46,-98.63 235.9,-66.59"/>
<polygon fill="black" stroke="black" points="239.02,-64.97 230.54,-58.62 233.22,-68.87 239.02,-64.97"/>
</g>
</g>
</svg>
