<?xml version="1.0" encoding="UTF-8" standalone="no"?>
<!DOCTYPE svg PUBLIC "-//W3C//DTD SVG 1.1//EN"
 "http://www.w3.org/Graphics/SVG/1.1/DTD/svg11.dtd">
<!-- Generated by graphviz version 2.44.1 (20201121.0304)
 -->
<!-- Title: G Pages: 1 -->
<svg width="298pt" height="298pt"
 viewBox="0.00 0.00 298.00 298.00" xmlns="http://www.w3.org/2000/svg" xmlns:xlink="http://www.w3.org/1999/xlink"><style>
  * {
    fill: transparent !important;
    stroke: #1f1f1f !important;
    stroke-width: 1 !important;
  }
  polygon:not(.cluster *, .node *, .edge *, text) {
    stroke: transparent !important;
  }
  text {
    font-size: 10px !important;
    font-family: monospace !important;
    fill: #1f1f1f !important;
    stroke: transparent !important;
    transform: translateY(-0.5em);
  }
</style>
<g id="graph0" class="graph" transform="scale(1 1) rotate(0) translate(4 294.25)">
<title>G</title>
<polygon fill="white" stroke="none" points="-4,4 -4,-294.25 294.25,-294.25 294.25,4 -4,4"/>
<!-- Google Chat -->
<g id="node1" class="node">
<title>Google Chat</title>
<polygon fill="lightblue" stroke="black" points="143.5,-282 45,-282 45,-246 143.5,-246 143.5,-282"/>
<text xml:space="preserve" text-anchor="middle" x="94.25" y="-255.95" font-family="Times,serif" font-size="14.00">Google Chat</text>
</g>
<!-- Fabric Chat App -->
<g id="node2" class="node">
<title>Fabric Chat App</title>
<polygon fill="lightblue" stroke="black" points="188.5,-163 0,-163 0,-127 188.5,-127 188.5,-163"/>
<text xml:space="preserve" text-anchor="middle" x="94.25" y="-136.95" font-family="Times,serif" font-size="14.00">Fabric Chat App (Add&#45;on)</text>
</g>
<!-- Google Chat&#45;&gt;Fabric Chat App -->
<g id="edge1" class="edge">
<title>Google Chat&#45;&gt;Fabric Chat App</title>
<path fill="none" stroke="black" d="M94.25,-245.74C94.25,-227.07 94.25,-197.01 94.25,-174.77"/>
<polygon fill="black" stroke="black" points="97.75,-174.85 94.25,-164.85 90.75,-174.85 97.75,-174.85"/>
<text xml:space="preserve" text-anchor="middle" x="135.5" y="-196.95" font-family="Times,serif" font-size="14.00">HTTP Events</text>
</g>
<!-- Fabric Hub -->
<g id="node3" class="node">
<title>Fabric Hub</title>
<polygon fill="lightblue" stroke="black" points="98,-44 14.5,-44 14.5,-8 98,-8 98,-44"/>
<text xml:space="preserve" text-anchor="middle" x="56.25" y="-17.95" font-family="Times,serif" font-size="14.00">Fabric Hub</text>
</g>
<!-- Fabric Chat App&#45;&gt;Fabric Hub -->
<g id="edge2" class="edge">
<title>Fabric Chat App&#45;&gt;Fabric Hub</title>
<path fill="none" stroke="black" d="M56.23,-126.74C42.1,-118.22 27.61,-106.45 19.75,-91.25 13.08,-78.36 19.44,-64.31 28.61,-52.64"/>
<polygon fill="black" stroke="black" points="31.02,-55.2 35,-45.39 25.77,-50.58 31.02,-55.2"/>
<text xml:space="preserve" text-anchor="middle" x="46" y="-77.95" font-family="Times,serif" font-size="14.00">Hub API</text>
</g>
<!-- State DB -->
<g id="node4" class="node">
<title>State DB</title>
<polygon fill="lightblue" stroke="black" points="290.25,-44 214.25,-44 214.25,-8 290.25,-8 290.25,-44"/>
<text xml:space="preserve" text-anchor="middle" x="252.25" y="-17.95" font-family="Times,serif" font-size="14.00">State DB</text>
</g>
<!-- Fabric Chat App&#45;&gt;State DB -->
<g id="edge4" class="edge">
<title>Fabric Chat App&#45;&gt;State DB</title>
<path fill="none" stroke="black" d="M163.51,-126.59C184.68,-118.59 206.71,-107.21 223.25,-91.25 233.36,-81.49 240.24,-67.56 244.75,-55.16"/>
<polygon fill="black" stroke="black" points="248.02,-56.4 247.78,-45.81 241.37,-54.24 248.02,-56.4"/>
</g>
<!-- Fabric Hub&#45;&gt;Fabric Chat App -->
<g id="edge3" class="edge">
<title>Fabric Hub&#45;&gt;Fabric Chat App</title>
<path fill="none" stroke="black" d="M61.88,-44.33C68.01,-63.2 77.9,-93.65 85.13,-115.93"/>
<polygon fill="black" stroke="black" points="81.76,-116.87 88.18,-125.3 88.42,-114.7 81.76,-116.87"/>
<text xml:space="preserve" text-anchor="middle" x="147.64" y="-77.95" font-family="Times,serif" font-size="14.00">Broker Plugin (RPC)</text>
</g>
</g>
</svg>
