<?xml version="1.0" encoding="UTF-8" standalone="no"?>
<!DOCTYPE svg PUBLIC "-//W3C//DTD SVG 1.1//EN"
 "http://www.w3.org/Graphics/SVG/1.1/DTD/svg11.dtd">
<!-- Generated by graphviz version 2.44.1 (20201121.0304)
 -->
<!-- Title: G Pages: 1 -->
<svg width="498pt" height="498pt"
 viewBox="0.00 0.00 498.00 498.00" xmlns="http://www.w3.org/2000/svg" xmlns:xlink="http://www.w3.org/1999/xlink"><style>
  * {
    fill: transparent !important;
    stroke: #1f1f1f !important;
    stroke-width: 1 !important;
  }
  polygon:not(.cluster *, .node *, .edge *, text) {
    stroke: transparent !important;
  }
  text {
    font-size: 10px !important;
    font-family: monospace !important;
    fill: #1f1f1f !important;
    stroke: transparent !important;
    transform: translateY(-0.5em);
  }
</style>
<g id="graph0" class="graph" transform="scale(1 1) rotate(0) translate(4 494)">
<title>G</title>
<polygon fill="white" stroke="none" points="-4,4 -4,-494 494,-494 494,4 -4,4"/>
<!-- core&#45;base -->
<g id="node1" class="node">
<title>core&#45;base</title>
<polygon fill="lightblue" stroke="black" points="376.75,-464 203.25,-464 203.25,-428 376.75,-428 376.75,-464"/>
<text xml:space="preserve" text-anchor="middle" x="290" y="-443.2" font-family="Times,serif" font-size="14.00">core&#45;base</text>
<text xml:space="preserve" text-anchor="middle" x="290" y="-432.7" font-family="Times,serif" font-size="14.00">(System dependencies)</text>
</g>
<!-- fabric&#45;base -->
<g id="node2" class="node">
<title>fabric&#45;base</title>
<polygon fill="lightblue" stroke="black" points="384.25,-263 195.75,-263 195.75,-227 384.25,-227 384.25,-263"/>
<text xml:space="preserve" text-anchor="middle" x="290" y="-242.2" font-family="Times,serif" font-size="14.00">fabric&#45;base</text>
<text xml:space="preserve" text-anchor="middle" x="290" y="-231.7" font-family="Times,serif" font-size="14.00">(fabrictool, fabric user)</text>
</g>
<!-- core&#45;base&#45;&gt;fabric&#45;base -->
<g id="edge1" class="edge">
<title>core&#45;base&#45;&gt;fabric&#45;base</title>
<path fill="none" stroke="black" d="M290,-427.69C290,-393.43 290,-316.7 290,-274.75"/>
<polygon fill="black" stroke="black" points="293.5,-274.93 290,-264.93 286.5,-274.93 293.5,-274.93"/>
<text xml:space="preserve" text-anchor="middle" x="331.25" y="-337.95" font-family="Times,serif" font-size="14.00">builds upon</text>
</g>
<!-- harness_images -->
<g id="node3" class="node">
<title>harness_images</title>
<polygon fill="lightblue" stroke="black" points="196,-62 0,-62 0,-26 196,-26 196,-62"/>
<text xml:space="preserve" text-anchor="middle" x="98" y="-41.2" font-family="Times,serif" font-size="14.00">Harness Images</text>
<text xml:space="preserve" text-anchor="middle" x="98" y="-30.7" font-family="Times,serif" font-size="14.00">(from harnesses/&lt;name&gt;/)</text>
</g>
<!-- fabric&#45;base&#45;&gt;harness_images -->
<g id="edge2" class="edge">
<title>fabric&#45;base&#45;&gt;harness_images</title>
<path fill="none" stroke="black" d="M273.3,-226.69C239.4,-191.55 162.38,-111.72 122.68,-70.58"/>
<polygon fill="black" stroke="black" points="125.31,-68.27 115.85,-63.5 120.28,-73.13 125.31,-68.27"/>
<text xml:space="preserve" text-anchor="middle" x="235.25" y="-135.95" font-family="Times,serif" font-size="14.00">extends for</text>
</g>
<!-- hub -->
<g id="node4" class="node">
<title>hub</title>
<polygon fill="lightblue" stroke="black" points="365.5,-62 214.5,-62 214.5,-26 365.5,-26 365.5,-62"/>
<text xml:space="preserve" text-anchor="middle" x="290" y="-41.2" font-family="Times,serif" font-size="14.00">Hub</text>
<text xml:space="preserve" text-anchor="middle" x="290" y="-30.7" font-family="Times,serif" font-size="14.00">(Fabric hub server)</text>
</g>
<!-- fabric&#45;base&#45;&gt;hub -->
<g id="edge3" class="edge">
<title>fabric&#45;base&#45;&gt;hub</title>
<path fill="none" stroke="black" d="M290,-226.69C290,-192.43 290,-115.7 290,-73.75"/>
<polygon fill="black" stroke="black" points="293.5,-73.93 290,-63.93 286.5,-73.93 293.5,-73.93"/>
<text xml:space="preserve" text-anchor="middle" x="331.25" y="-135.95" font-family="Times,serif" font-size="14.00">extends for</text>
</g>
<!-- gemini -->
<g id="node5" class="node">
<title>gemini</title>
<polygon fill="lightblue" stroke="black" points="490,-62 384,-62 384,-26 490,-26 490,-62"/>
<text xml:space="preserve" text-anchor="middle" x="437" y="-41.2" font-family="Times,serif" font-size="14.00">Gemini</text>
<text xml:space="preserve" text-anchor="middle" x="437" y="-30.7" font-family="Times,serif" font-size="14.00">(Gemini CLI)</text>
</g>
<!-- fabric&#45;base&#45;&gt;gemini -->
<g id="edge4" class="edge">
<title>fabric&#45;base&#45;&gt;gemini</title>
<path fill="none" stroke="black" d="M308.27,-226.52C326.81,-208.25 355.74,-178.25 377,-149.25 395.06,-124.61 412.07,-94.09 423.34,-72.46"/>
<polygon fill="black" stroke="black" points="426.39,-74.16 427.84,-63.67 420.16,-70.97 426.39,-74.16"/>
<text xml:space="preserve" text-anchor="middle" x="423.9" y="-135.95" font-family="Times,serif" font-size="14.00">extends for</text>
</g>
</g>
</svg>
