<?xml version="1.0" encoding="UTF-8" standalone="no"?>
<!DOCTYPE svg PUBLIC "-//W3C//DTD SVG 1.1//EN"
 "http://www.w3.org/Graphics/SVG/1.1/DTD/svg11.dtd">
<!-- Generated by graphviz version 2.44.1 (20201121.0304)
 -->
<!-- Title: G Pages: 1 -->
<svg width="397pt" height="222pt"
 viewBox="0.00 0.00 397.00 222.00" xmlns="http://www.w3.org/2000/svg" xmlns:xlink="http://www.w3.org/1999/xlink"><style>
  * {
    fill: transparent !important;
    stroke: #1f1f1f !important;
    stroke-width: 1 !important;
  }
  polygon:not(.cluster *, .node *, .edge *, text) {
    stroke: transparent !important;
  }
  text {
    font-size: 10px !important;
    font-family: monospace !important;
    fill: #1f1f1f !important;
    stroke: transparent !important;
    transform: translateY(-0.5em);
  }
</style>
<g id="graph0" class="graph" transform="scale(1 1) rotate(0) translate(4 218)">
<title>G</title>
<polygon fill="white" stroke="none" points="-4,4 -4,-218 392.63,-218 392.63,4 -4,4"/>
<!-- Orchestrator -->
<g id="node1" class="node">
<title>Orchestrator</title>
<polygon fill="lightblue" stroke="black" points="214,-213 63,-213 63,-177 214,-177 214,-213"/>
<text xml:space="preserve" text-anchor="middle" x="138.5" y="-186.95" font-family="Times,serif" font-size="14.00">Orchestrator Agent</text>
</g>
<!-- WorkSequence -->
<g id="node2" class="node">
<title>WorkSequence</title>
<polygon fill="lightblue" stroke="black" points="91,-125 0,-125 0,-89 91,-89 91,-125"/>
<text xml:space="preserve" text-anchor="middle" x="45.5" y="-98.95" font-family="Times,serif" font-size="14.00">Work Items</text>
</g>
<!-- Orchestrator&#45;&gt;WorkSequence -->
<g id="edge1" class="edge">
<title>Orchestrator&#45;&gt;WorkSequence</title>
<path fill="none" stroke="black" d="M62.66,-179.14C51.58,-173.71 41.56,-166.32 34.5,-156.25 30.36,-150.34 30.12,-143.11 31.67,-136.07"/>
<polygon fill="black" stroke="black" points="34.91,-137.4 34.78,-126.81 28.28,-135.17 34.91,-137.4"/>
<text xml:space="preserve" text-anchor="middle" x="79.5" y="-142.95" font-family="Times,serif" font-size="14.00">Assigns Task</text>
</g>
<!-- Agent -->
<g id="node3" class="node">
<title>Agent</title>
<polygon fill="lightblue" stroke="black" points="184,-37 93,-37 93,-1 184,-1 184,-37"/>
<text xml:space="preserve" text-anchor="middle" x="138.5" y="-10.95" font-family="Times,serif" font-size="14.00">Task Agent</text>
</g>
<!-- Orchestrator&#45;&gt;Agent -->
<g id="edge4" class="edge">
<title>Orchestrator&#45;&gt;Agent</title>
<path fill="none" stroke="black" d="M138.5,-176.68C138.5,-146.72 138.5,-84.92 138.5,-48.53"/>
<polygon fill="black" stroke="black" points="142,-48.76 138.5,-38.76 135,-48.76 142,-48.76"/>
<text xml:space="preserve" text-anchor="middle" x="187.25" y="-98.95" font-family="Times,serif" font-size="14.00">Stops/Deletes</text>
</g>
<!-- WorkSequence&#45;&gt;Agent -->
<g id="edge2" class="edge">
<title>WorkSequence&#45;&gt;Agent</title>
<path fill="none" stroke="black" d="M49.06,-88.74C51.86,-78.72 56.63,-66.42 64.5,-57.75 69.83,-51.88 76.29,-46.78 83.14,-42.41"/>
<polygon fill="black" stroke="black" points="84.46,-45.69 91.35,-37.64 80.95,-39.64 84.46,-45.69"/>
<text xml:space="preserve" text-anchor="middle" x="94.5" y="-54.95" font-family="Times,serif" font-size="14.00">Performs</text>
</g>
<!-- Agent&#45;&gt;Orchestrator -->
<g id="edge3" class="edge">
<title>Agent&#45;&gt;Orchestrator</title>
<path fill="none" stroke="black" d="M181.98,-37.44C203.75,-48.66 228.07,-65.58 240.5,-89 248,-103.13 248,-110.87 240.5,-125 229.96,-144.85 210.88,-160.03 192.05,-171.03"/>
<polygon fill="black" stroke="black" points="190.39,-167.95 183.3,-175.83 193.75,-174.09 190.39,-167.95"/>
<text xml:space="preserve" text-anchor="middle" x="317.38" y="-98.95" font-family="Times,serif" font-size="14.00">Notifies Completion</text>
</g>
</g>
</svg>
