<?xml version="1.0" encoding="UTF-8" standalone="no"?>
<!DOCTYPE svg PUBLIC "-//W3C//DTD SVG 1.1//EN"
 "http://www.w3.org/Graphics/SVG/1.1/DTD/svg11.dtd">
<!-- Generated by graphviz version 2.44.1 (20201121.0304)
 -->
<!-- Title: G Pages: 1 -->
<svg width="684pt" height="503pt"
 viewBox="0.00 0.00 684.00 503.00" xmlns="http://www.w3.org/2000/svg" xmlns:xlink="http://www.w3.org/1999/xlink"><style>
  * {
    fill: transparent !important;
    stroke: #1f1f1f !important;
    stroke-width: 1 !important;
  }
  polygon:not(.cluster *, .node *, .edge *, text) {
    stroke: transparent !important;
  }
  text {
    font-size: 10px !important;
    font-family: monospace !important;
    fill: #1f1f1f !important;
    stroke: transparent !important;
    transform: translateY(-0.5em);
  }
</style>
<g id="graph0" class="graph" transform="scale(1 1) rotate(0) translate(4 498.5)">
<title>G</title>
<polygon fill="white" stroke="none" points="-4,4 -4,-498.5 679.5,-498.5 679.5,4 -4,4"/>
<!-- Discord Channels -->
<g id="node1" class="node">
<title>Discord Channels</title>
<polygon fill="lightblue" stroke="black" points="292.5,-493 156.5,-493 156.5,-457 292.5,-457 292.5,-493"/>
<text xml:space="preserve" text-anchor="middle" x="224.5" y="-466.95" font-family="Times,serif" font-size="14.00">Discord Channels</text>
</g>
<!-- Discord Gateway/API -->
<g id="node2" class="node">
<title>Discord Gateway/API</title>
<polygon fill="lightblue" stroke="black" points="303.75,-404 145.25,-404 145.25,-368 303.75,-368 303.75,-404"/>
<text xml:space="preserve" text-anchor="middle" x="224.5" y="-377.95" font-family="Times,serif" font-size="14.00">Discord Gateway/API</text>
</g>
<!-- Discord Channels&#45;&gt;Discord Gateway/API -->
<g id="edge1" class="edge">
<title>Discord Channels&#45;&gt;Discord Gateway/API</title>
<path fill="none" stroke="black" d="M175.54,-456.54C167.15,-451.32 159.53,-444.67 154.5,-436.25 148.44,-426.09 152.92,-417.49 161.97,-410.45"/>
<polygon fill="black" stroke="black" points="163.58,-413.58 170.12,-405.25 159.81,-407.68 163.58,-413.58"/>
<text xml:space="preserve" text-anchor="middle" x="214.5" y="-422.95" font-family="Times,serif" font-size="14.00">Inbound Messages</text>
</g>
<!-- Discord Gateway/API&#45;&gt;Discord Channels -->
<g id="edge9" class="edge">
<title>Discord Gateway/API&#45;&gt;Discord Channels</title>
<path fill="none" stroke="darkgreen" d="M259.62,-404.4C271.62,-412.89 280.64,-423.93 274.5,-436.25 272.11,-441.05 268.79,-445.4 264.98,-449.29"/>
<polygon fill="darkgreen" stroke="darkgreen" points="262.96,-446.42 257.77,-455.65 267.58,-451.67 262.96,-446.42"/>
<text xml:space="preserve" text-anchor="middle" x="340.23" y="-422.95" font-family="Times,serif" font-size="14.00">Outbound Messages</text>
</g>
<!-- Discord Bot Plugin -->
<g id="node3" class="node">
<title>Discord Bot Plugin</title>
<polygon fill="lightblue" stroke="black" points="213.25,-126 99.75,-126 99.75,-90 213.25,-90 213.25,-126"/>
<text xml:space="preserve" text-anchor="middle" x="156.5" y="-105.2" font-family="Times,serif" font-size="14.00">Discord Bot</text>
<text xml:space="preserve" text-anchor="middle" x="156.5" y="-94.7" font-family="Times,serif" font-size="14.00">(Plugin Mode)</text>
</g>
<!-- Discord Gateway/API&#45;&gt;Discord Bot Plugin -->
<g id="edge2" class="edge">
<title>Discord Gateway/API&#45;&gt;Discord Bot Plugin</title>
<path fill="none" stroke="black" d="M180.61,-367.52C138.31,-347.98 76.95,-311.88 50.5,-258.25 36.94,-230.74 -60.41,-307.87 58.5,-147.5 66.21,-137.11 77.14,-129.52 88.93,-123.98"/>
<polygon fill="black" stroke="black" points="90.16,-127.26 98.06,-120.2 87.48,-120.79 90.16,-127.26"/>
<text xml:space="preserve" text-anchor="middle" x="103" y="-244.95" font-family="Times,serif" font-size="14.00">Gateway Events</text>
</g>
<!-- Discord Bot Standalone -->
<g id="node4" class="node">
<title>Discord Bot Standalone</title>
<polygon fill="lightblue" stroke="black" points="512.25,-315 368.75,-315 368.75,-279 512.25,-279 512.25,-315"/>
<text xml:space="preserve" text-anchor="middle" x="440.5" y="-294.2" font-family="Times,serif" font-size="14.00">Discord Bot</text>
<text xml:space="preserve" text-anchor="middle" x="440.5" y="-283.7" font-family="Times,serif" font-size="14.00">(Standalone Mode)</text>
</g>
<!-- Discord Gateway/API&#45;&gt;Discord Bot Standalone -->
<g id="edge3" class="edge">
<title>Discord Gateway/API&#45;&gt;Discord Bot Standalone</title>
<path fill="none" stroke="black" d="M267.7,-367.6C301.98,-353.79 350.1,-334.41 386.86,-319.61"/>
<polygon fill="black" stroke="black" points="388.02,-322.91 395.98,-315.93 385.4,-316.42 388.02,-322.91"/>
<text xml:space="preserve" text-anchor="middle" x="391.48" y="-333.95" font-family="Times,serif" font-size="14.00">Gateway Events</text>
</g>
<!-- Scion Hub -->
<g id="node5" class="node">
<title>Scion Hub</title>
<polygon fill="lightblue" stroke="black" points="227.25,-226 143.75,-226 143.75,-190 227.25,-190 227.25,-226"/>
<text xml:space="preserve" text-anchor="middle" x="185.5" y="-199.95" font-family="Times,serif" font-size="14.00">Scion Hub</text>
</g>
<!-- Discord Bot Plugin&#45;&gt;Scion Hub -->
<g id="edge4" class="edge">
<title>Discord Bot Plugin&#45;&gt;Scion Hub</title>
<path fill="none" stroke="black" d="M161.59,-126.2C165.91,-140.77 172.17,-161.93 177.2,-178.95"/>
<polygon fill="black" stroke="black" points="173.83,-179.88 180.02,-188.48 180.54,-177.9 173.83,-179.88"/>
<text xml:space="preserve" text-anchor="middle" x="222.35" y="-149.95" font-family="Times,serif" font-size="14.00">go&#45;plugin RPC</text>
</g>
<!-- Persistence (SQLite/Postgres) -->
<g id="node6" class="node">
<title>Persistence (SQLite/Postgres)</title>
<polygon fill="lightblue" stroke="black" points="313.25,-37 79.75,-37 79.75,-1 313.25,-1 313.25,-37"/>
<text xml:space="preserve" text-anchor="middle" x="196.5" y="-10.95" font-family="Times,serif" font-size="14.00">Persistence (SQLite/Postgres)</text>
</g>
<!-- Discord Bot Plugin&#45;&gt;Persistence (SQLite/Postgres) -->
<g id="edge10" class="edge">
<title>Discord Bot Plugin&#45;&gt;Persistence (SQLite/Postgres)</title>
<path fill="none" stroke="black" d="M153.8,-89.82C153.04,-80.29 153.35,-68.45 157.5,-58.75 159.5,-54.08 162.35,-49.68 165.62,-45.64"/>
<polygon fill="black" stroke="black" points="168,-48.22 172.22,-38.51 162.86,-43.47 168,-48.22"/>
<text xml:space="preserve" text-anchor="middle" x="225" y="-55.95" font-family="Times,serif" font-size="14.00">Reads/Writes State</text>
</g>
<!-- Agent Identity (Webhooks) -->
<g id="node7" class="node">
<title>Agent Identity (Webhooks)</title>
<polygon fill="lightblue" stroke="black" points="574.25,-37 370.75,-37 370.75,-1 574.25,-1 574.25,-37"/>
<text xml:space="preserve" text-anchor="middle" x="472.5" y="-10.95" font-family="Times,serif" font-size="14.00">Agent Identity (Webhooks)</text>
</g>
<!-- Discord Bot Plugin&#45;&gt;Agent Identity (Webhooks) -->
<g id="edge12" class="edge">
<title>Discord Bot Plugin&#45;&gt;Agent Identity (Webhooks)</title>
<path fill="none" stroke="black" d="M213.41,-91.79C238.85,-84.95 269.2,-76.75 296.5,-69.25 330.44,-59.93 368.01,-49.44 399.69,-40.54"/>
<polygon fill="black" stroke="black" points="400.5,-43.95 409.18,-37.87 398.61,-37.21 400.5,-43.95"/>
<text xml:space="preserve" text-anchor="middle" x="356.47" y="-55.95" font-family="Times,serif" font-size="14.00">Manages</text>
</g>
<!-- Discord Bot Standalone&#45;&gt;Scion Hub -->
<g id="edge6" class="edge">
<title>Discord Bot Standalone&#45;&gt;Scion Hub</title>
<path fill="none" stroke="black" d="M368.69,-281.29C364.23,-280.48 359.81,-279.71 355.5,-279 320.79,-273.24 224.91,-281.51 198.5,-258.25 192.44,-252.91 189.05,-245.11 187.19,-237.28"/>
<polygon fill="black" stroke="black" points="190.68,-236.92 185.68,-227.58 183.76,-238 190.68,-236.92"/>
<text xml:space="preserve" text-anchor="middle" x="213.5" y="-244.95" font-family="Times,serif" font-size="14.00">gRPC</text>
</g>
<!-- Discord Bot Standalone&#45;&gt;Persistence (SQLite/Postgres) -->
<g id="edge11" class="edge">
<title>Discord Bot Standalone&#45;&gt;Persistence (SQLite/Postgres)</title>
<path fill="none" stroke="black" d="M414.05,-278.58C383.31,-256.79 333.66,-216.43 309,-168.5 286.44,-124.64 323.06,-97.47 292.5,-58.75 287.72,-52.68 281.83,-47.56 275.34,-43.24"/>
<polygon fill="black" stroke="black" points="277.18,-40.26 266.78,-38.22 273.64,-46.3 277.18,-40.26"/>
<text xml:space="preserve" text-anchor="middle" x="380.25" y="-155.2" font-family="Times,serif" font-size="14.00">Reads/Writes State,</text>
<text xml:space="preserve" text-anchor="middle" x="380.25" y="-144.7" font-family="Times,serif" font-size="14.00">Advisory Locks</text>
</g>
<!-- Discord Bot Standalone&#45;&gt;Agent Identity (Webhooks) -->
<g id="edge13" class="edge">
<title>Discord Bot Standalone&#45;&gt;Agent Identity (Webhooks)</title>
<path fill="none" stroke="black" d="M442.51,-278.73C447.86,-232.56 462.55,-105.84 469.18,-48.66"/>
<polygon fill="black" stroke="black" points="472.65,-49.1 470.33,-38.76 465.7,-48.29 472.65,-49.1"/>
<text xml:space="preserve" text-anchor="middle" x="483.86" y="-149.95" font-family="Times,serif" font-size="14.00">Manages</text>
</g>
<!-- Scion Hub&#45;&gt;Discord Gateway/API -->
<g id="edge8" class="edge">
<title>Scion Hub&#45;&gt;Discord Gateway/API</title>
<path fill="none" stroke="black" stroke-dasharray="5,2" d="M174.13,-226.3C161.62,-247.64 144.81,-284.78 157,-315 164.11,-332.59 177.98,-348.23 191.31,-360.24"/>
<polygon fill="black" stroke="black" points="188.89,-362.77 198.77,-366.61 193.44,-357.45 188.89,-362.77"/>
<text xml:space="preserve" text-anchor="middle" x="258.25" y="-288.95" font-family="Times,serif" font-size="14.00">Outbound StructuredMessages</text>
</g>
<!-- Scion Hub&#45;&gt;Discord Bot Plugin -->
<g id="edge5" class="edge">
<title>Scion Hub&#45;&gt;Discord Bot Plugin</title>
<path fill="none" stroke="black" d="M143.49,-205.28C116.9,-201.75 84.36,-192.39 67,-168.5 55.28,-152.36 68.96,-139.32 88.88,-129.61"/>
<polygon fill="black" stroke="black" points="90.28,-132.81 98.03,-125.58 87.46,-126.41 90.28,-132.81"/>
<text xml:space="preserve" text-anchor="middle" x="115.75" y="-149.95" font-family="Times,serif" font-size="14.00">go&#45;plugin RPC</text>
</g>
<!-- Scion Hub&#45;&gt;Discord Bot Standalone -->
<g id="edge7" class="edge">
<title>Scion Hub&#45;&gt;Discord Bot Standalone</title>
<path fill="none" stroke="black" d="M207.89,-226.4C222.65,-237.07 242.83,-250.19 262.5,-258.25 267.27,-260.2 313.4,-269.97 357.49,-279.08"/>
<polygon fill="black" stroke="black" points="356.65,-282.48 367.15,-281.07 358.06,-275.62 356.65,-282.48"/>
<text xml:space="preserve" text-anchor="middle" x="277.5" y="-244.95" font-family="Times,serif" font-size="14.00">gRPC</text>
</g>
<!-- Agent Identity (Webhooks)&#45;&gt;Discord Gateway/API -->
<g id="edge14" class="edge">
<title>Agent Identity (Webhooks)&#45;&gt;Discord Gateway/API</title>
<path fill="none" stroke="black" d="M497.44,-37.29C516.85,-52.99 540.5,-78.05 540.5,-107 540.5,-298 540.5,-298 540.5,-298 540.5,-345.02 408.78,-367.59 315.43,-377.68"/>
<polygon fill="black" stroke="black" points="315.33,-374.17 305.75,-378.7 316.06,-381.14 315.33,-374.17"/>
<text xml:space="preserve" text-anchor="middle" x="608" y="-199.95" font-family="Times,serif" font-size="14.00">Sends Messages Via</text>
</g>
</g>
</svg>
