<?xml version="1.0" encoding="UTF-8" standalone="no"?>
<!DOCTYPE svg PUBLIC "-//W3C//DTD SVG 1.1//EN"
 "http://www.w3.org/Graphics/SVG/1.1/DTD/svg11.dtd">
<!-- Generated by graphviz version 2.44.1 (20201121.0304)
 -->
<!-- Title: G Pages: 1 -->
<svg width="786pt" height="786pt"
 viewBox="0.00 0.00 786.00 786.00" xmlns="http://www.w3.org/2000/svg" xmlns:xlink="http://www.w3.org/1999/xlink"><style>
  * {
    fill: transparent !important;
    stroke: #1f1f1f !important;
    stroke-width: 1 !important;
  }
  polygon:not(.cluster *, .node *, .edge *, text) {
    stroke: transparent !important;
  }
  text {
    font-size: 10px !important;
    font-family: monospace !important;
    fill: #1f1f1f !important;
    stroke: transparent !important;
    transform: translateY(-0.5em);
  }
</style>
<g id="graph0" class="graph" transform="scale(1 1) rotate(0) translate(4 782)">
<title>G</title>
<polygon fill="white" stroke="none" points="-4,4 -4,-782 782,-782 782,4 -4,4"/>
<!-- User / Agent / CLI -->
<g id="node1" class="node">
<title>User / Agent / CLI</title>
<polygon fill="lightblue" stroke="black" points="442,-747 291,-747 291,-711 442,-711 442,-747"/>
<text xml:space="preserve" text-anchor="middle" x="366.5" y="-720.95" font-family="Times,serif" font-size="14.00">User / Agent / CLI</text>
</g>
<!-- Cloud Run Native IAP -->
<g id="node2" class="node">
<title>Cloud Run Native IAP</title>
<polygon fill="lightblue" stroke="black" points="449.5,-520 283.5,-520 283.5,-484 449.5,-484 449.5,-520"/>
<text xml:space="preserve" text-anchor="middle" x="366.5" y="-493.95" font-family="Times,serif" font-size="14.00">Cloud Run Native IAP</text>
</g>
<!-- User / Agent / CLI&#45;&gt;Cloud Run Native IAP -->
<g id="edge1" class="edge">
<title>User / Agent / CLI&#45;&gt;Cloud Run Native IAP</title>
<path fill="none" stroke="black" d="M366.5,-710.72C366.5,-672.19 366.5,-578.93 366.5,-531.59"/>
<polygon fill="black" stroke="black" points="370,-531.85 366.5,-521.85 363,-531.85 370,-531.85"/>
<text xml:space="preserve" text-anchor="middle" x="396.5" y="-606.95" font-family="Times,serif" font-size="14.00">Accesses</text>
</g>
<!-- Cloud Run Service (Scion Hub, Web, Broker) -->
<g id="node3" class="node">
<title>Cloud Run Service (Scion Hub, Web, Broker)</title>
<polygon fill="lightblue" stroke="black" points="532,-294 201,-294 201,-258 532,-258 532,-294"/>
<text xml:space="preserve" text-anchor="middle" x="366.5" y="-267.95" font-family="Times,serif" font-size="14.00">Cloud Run Service (Scion Hub, Web, Broker)</text>
</g>
<!-- Cloud Run Native IAP&#45;&gt;Cloud Run Service (Scion Hub, Web, Broker) -->
<g id="edge2" class="edge">
<title>Cloud Run Native IAP&#45;&gt;Cloud Run Service (Scion Hub, Web, Broker)</title>
<path fill="none" stroke="black" d="M366.5,-483.8C366.5,-445.52 366.5,-352.99 366.5,-305.77"/>
<polygon fill="black" stroke="black" points="370,-305.78 366.5,-295.78 363,-305.78 370,-305.78"/>
<text xml:space="preserve" text-anchor="middle" x="396.5" y="-380.95" font-family="Times,serif" font-size="14.00">Protects</text>
</g>
<!-- Cloud SQL Postgres -->
<g id="node4" class="node">
<title>Cloud SQL Postgres</title>
<polygon fill="lightblue" stroke="black" points="151,-67 0,-67 0,-31 151,-31 151,-67"/>
<text xml:space="preserve" text-anchor="middle" x="75.5" y="-40.95" font-family="Times,serif" font-size="14.00">Cloud SQL Postgres</text>
</g>
<!-- Cloud Run Service (Scion Hub, Web, Broker)&#45;&gt;Cloud SQL Postgres -->
<g id="edge3" class="edge">
<title>Cloud Run Service (Scion Hub, Web, Broker)&#45;&gt;Cloud SQL Postgres</title>
<path fill="none" stroke="black" d="M337.05,-257.66C303.72,-237.58 248.31,-202.82 204,-168.25 165.99,-138.59 125.62,-100.15 100.48,-75.28"/>
<polygon fill="black" stroke="black" points="103.2,-73.05 93.64,-68.47 98.26,-78.01 103.2,-73.05"/>
<text xml:space="preserve" text-anchor="middle" x="245.25" y="-154.95" font-family="Times,serif" font-size="14.00">Connects to</text>
</g>
<!-- Google Cloud Storage (GCS) -->
<g id="node5" class="node">
<title>Google Cloud Storage (GCS)</title>
<polygon fill="lightblue" stroke="black" points="380,-67 169,-67 169,-31 380,-31 380,-67"/>
<text xml:space="preserve" text-anchor="middle" x="274.5" y="-40.95" font-family="Times,serif" font-size="14.00">Google Cloud Storage (GCS)</text>
</g>
<!-- Cloud Run Service (Scion Hub, Web, Broker)&#45;&gt;Google Cloud Storage (GCS) -->
<g id="edge4" class="edge">
<title>Cloud Run Service (Scion Hub, Web, Broker)&#45;&gt;Google Cloud Storage (GCS)</title>
<path fill="none" stroke="black" d="M351.03,-257.5C334.18,-237.42 307.79,-202.79 294,-168.25 282.38,-139.16 277.68,-103.38 275.79,-78.85"/>
<polygon fill="black" stroke="black" points="279.28,-78.72 275.14,-68.97 272.3,-79.18 279.28,-78.72"/>
<text xml:space="preserve" text-anchor="middle" x="365.25" y="-154.95" font-family="Times,serif" font-size="14.00">Stores artifacts in</text>
</g>
<!-- Secret Manager -->
<g id="node6" class="node">
<title>Secret Manager</title>
<polygon fill="lightblue" stroke="black" points="519,-67 398,-67 398,-31 519,-31 519,-67"/>
<text xml:space="preserve" text-anchor="middle" x="458.5" y="-40.95" font-family="Times,serif" font-size="14.00">Secret Manager</text>
</g>
<!-- Cloud Run Service (Scion Hub, Web, Broker)&#45;&gt;Secret Manager -->
<g id="edge5" class="edge">
<title>Cloud Run Service (Scion Hub, Web, Broker)&#45;&gt;Secret Manager</title>
<path fill="none" stroke="black" d="M380.99,-257.72C397.11,-237.56 422.7,-202.59 436.5,-168.25 448.23,-139.08 453.77,-103.32 456.35,-78.81"/>
<polygon fill="black" stroke="black" points="459.82,-79.23 457.27,-68.94 452.85,-78.57 459.82,-79.23"/>
<text xml:space="preserve" text-anchor="middle" x="522.4" y="-154.95" font-family="Times,serif" font-size="14.00">Retrieves secrets from</text>
</g>
<!-- Cloud Run Instances (Runtimes) -->
<g id="node7" class="node">
<title>Cloud Run Instances (Runtimes)</title>
<polygon fill="lightblue" stroke="black" points="778,-67 537,-67 537,-31 778,-31 778,-67"/>
<text xml:space="preserve" text-anchor="middle" x="657.5" y="-40.95" font-family="Times,serif" font-size="14.00">Cloud Run Instances (Runtimes)</text>
</g>
<!-- Cloud Run Service (Scion Hub, Web, Broker)&#45;&gt;Cloud Run Instances (Runtimes) -->
<g id="edge6" class="edge">
<title>Cloud Run Service (Scion Hub, Web, Broker)&#45;&gt;Cloud Run Instances (Runtimes)</title>
<path fill="none" stroke="black" d="M442.57,-257.51C495.15,-241.93 563.48,-214.3 608.5,-168.25 632.88,-143.31 645.79,-104.5 652.12,-78.2"/>
<polygon fill="black" stroke="black" points="655.51,-79.09 654.26,-68.57 648.68,-77.58 655.51,-79.09"/>
<text xml:space="preserve" text-anchor="middle" x="643.72" y="-154.95" font-family="Times,serif" font-size="14.00">Manages</text>
</g>
</g>
</svg>
