<?xml version="1.0" encoding="UTF-8" standalone="no"?>
<!DOCTYPE svg PUBLIC "-//W3C//DTD SVG 1.1//EN"
 "http://www.w3.org/Graphics/SVG/1.1/DTD/svg11.dtd">
<!-- Generated by graphviz version 2.44.1 (20201121.0304)
 -->
<!-- Title: G Pages: 1 -->
<svg width="512pt" height="509pt"
 viewBox="0.00 0.00 512.00 509.00" xmlns="http://www.w3.org/2000/svg" xmlns:xlink="http://www.w3.org/1999/xlink"><style>
  * {
    fill: transparent !important;
    stroke: #1f1f1f !important;
    stroke-width: 1 !important;
  }
  polygon:not(.cluster *, .node *, .edge *, text) {
    stroke: transparent !important;
  }
  text {
    font-size: 10px !important;
    font-family: monospace !important;
    fill: #1f1f1f !important;
    stroke: transparent !important;
    transform: translateY(-0.5em);
  }
</style>
<g id="graph0" class="graph" transform="scale(1 1) rotate(0) translate(4 504.5)">
<title>G</title>
<polygon fill="white" stroke="none" points="-4,4 -4,-504.5 507.95,-504.5 507.95,4 -4,4"/>
<!-- Hub Host -->
<g id="node1" class="node">
<title>Hub Host</title>
<polygon fill="lightblue" stroke="black" points="289,-494 190.5,-494 190.5,-458 289,-458 289,-494"/>
<text xml:space="preserve" text-anchor="middle" x="239.75" y="-473.2" font-family="Times,serif" font-size="14.00">Hub Host</text>
<text xml:space="preserve" text-anchor="middle" x="239.75" y="-462.7" font-family="Times,serif" font-size="14.00">(Processes)</text>
</g>
<!-- GCP SDK (ADC) -->
<g id="node2" class="node">
<title>GCP SDK (ADC)</title>
<polygon fill="lightblue" stroke="black" points="319,-396 160.5,-396 160.5,-360 319,-360 319,-396"/>
<text xml:space="preserve" text-anchor="middle" x="239.75" y="-369.95" font-family="Times,serif" font-size="14.00">Hub&#39;s GCP SDK (ADC)</text>
</g>
<!-- Hub Host&#45;&gt;GCP SDK (ADC) -->
<g id="edge1" class="edge">
<title>Hub Host&#45;&gt;GCP SDK (ADC)</title>
<path fill="none" stroke="black" d="M239.75,-457.84C239.75,-443.86 239.75,-423.84 239.75,-407.47"/>
<polygon fill="black" stroke="black" points="243.25,-407.85 239.75,-397.85 236.25,-407.85 243.25,-407.85"/>
</g>
<!-- iptables REDIRECT Rule -->
<g id="node3" class="node">
<title>iptables REDIRECT Rule</title>
<polygon fill="lightblue" stroke="black" points="394,-298 85.5,-298 85.5,-262 394,-262 394,-298"/>
<text xml:space="preserve" text-anchor="middle" x="239.75" y="-277.2" font-family="Times,serif" font-size="14.00">iptables REDIRECT</text>
<text xml:space="preserve" text-anchor="middle" x="239.75" y="-266.7" font-family="Times,serif" font-size="14.00">(169.254.169.254:80 &#45;&gt; 127.0.0.1:18380)</text>
</g>
<!-- GCP SDK (ADC)&#45;&gt;iptables REDIRECT Rule -->
<g id="edge2" class="edge">
<title>GCP SDK (ADC)&#45;&gt;iptables REDIRECT Rule</title>
<path fill="none" stroke="black" d="M239.75,-359.84C239.75,-345.86 239.75,-325.84 239.75,-309.47"/>
<polygon fill="black" stroke="black" points="243.25,-309.85 239.75,-299.85 236.25,-309.85 243.25,-309.85"/>
</g>
<!-- GCP IAM API -->
<g id="node6" class="node">
<title>GCP IAM API</title>
<polygon fill="lightblue" stroke="black" points="500.5,-226 327,-226 327,-190 500.5,-190 500.5,-226"/>
<text xml:space="preserve" text-anchor="middle" x="413.75" y="-205.2" font-family="Times,serif" font-size="14.00">GCP IAM API</text>
<text xml:space="preserve" text-anchor="middle" x="413.75" y="-194.7" font-family="Times,serif" font-size="14.00">(GenerateAccessToken)</text>
</g>
<!-- GCP SDK (ADC)&#45;&gt;GCP IAM API -->
<g id="edge6" class="edge">
<title>GCP SDK (ADC)&#45;&gt;GCP IAM API</title>
<path fill="none" stroke="black" d="M310.7,-359.63C343.91,-347.8 380.88,-328.56 402.75,-298 415.09,-280.76 417.41,-256.68 416.89,-237.91"/>
<polygon fill="black" stroke="black" points="420.38,-237.76 416.29,-227.98 413.4,-238.17 420.38,-237.76"/>
</g>
<!-- Fabric Metadata Sidecar -->
<g id="node4" class="node">
<title>Fabric Metadata Sidecar</title>
<polygon fill="lightblue" stroke="black" points="330.25,-153 149.25,-153 149.25,-117 330.25,-117 330.25,-153"/>
<text xml:space="preserve" text-anchor="middle" x="239.75" y="-132.2" font-family="Times,serif" font-size="14.00">Fabric Metadata Sidecar</text>
<text xml:space="preserve" text-anchor="middle" x="239.75" y="-121.7" font-family="Times,serif" font-size="14.00">(Port 18380)</text>
</g>
<!-- iptables REDIRECT Rule&#45;&gt;Fabric Metadata Sidecar -->
<g id="edge3" class="edge">
<title>iptables REDIRECT Rule&#45;&gt;Fabric Metadata Sidecar</title>
<path fill="none" stroke="black" d="M239.75,-261.75C239.75,-237.7 239.75,-193.79 239.75,-164.74"/>
<polygon fill="black" stroke="black" points="243.25,-164.82 239.75,-154.82 236.25,-164.82 243.25,-164.82"/>
<text xml:space="preserve" text-anchor="middle" x="277.25" y="-199.95" font-family="Times,serif" font-size="14.00">Intercepts</text>
</g>
<!-- Hub API\n(/api/v1/agent/gcp&#45;token) -->
<g id="node5" class="node">
<title>Hub API\n(/api/v1/agent/gcp&#45;token)</title>
<polygon fill="lightblue" stroke="black" points="203.5,-42 0,-42 0,-6 203.5,-6 203.5,-42"/>
<text xml:space="preserve" text-anchor="middle" x="101.75" y="-21.2" font-family="Times,serif" font-size="14.00">Hub API</text>
<text xml:space="preserve" text-anchor="middle" x="101.75" y="-10.7" font-family="Times,serif" font-size="14.00">(/api/v1/agent/gcp&#45;token)</text>
</g>
<!-- Fabric Metadata Sidecar&#45;&gt;Hub API\n(/api/v1/agent/gcp&#45;token) -->
<g id="edge4" class="edge">
<title>Fabric Metadata Sidecar&#45;&gt;Hub API\n(/api/v1/agent/gcp&#45;token)</title>
<path fill="none" stroke="black" d="M217.88,-116.73C194.87,-98.55 158.46,-69.79 132.54,-49.32"/>
<polygon fill="black" stroke="black" points="134.72,-46.58 124.7,-43.13 130.38,-52.07 134.72,-46.58"/>
</g>
<!-- GCE Metadata Server -->
<g id="node7" class="node">
<title>GCE Metadata Server</title>
<polygon fill="lightblue" stroke="black" points="435,-42 276.5,-42 276.5,-6 435,-6 435,-42"/>
<text xml:space="preserve" text-anchor="middle" x="355.75" y="-21.2" font-family="Times,serif" font-size="14.00">GCE Metadata Server</text>
<text xml:space="preserve" text-anchor="middle" x="355.75" y="-10.7" font-family="Times,serif" font-size="14.00">(169.254.169.254)</text>
</g>
<!-- Fabric Metadata Sidecar&#45;&gt;GCE Metadata Server -->
<g id="edge8" class="edge">
<title>Fabric Metadata Sidecar&#45;&gt;GCE Metadata Server</title>
<path fill="none" stroke="black" stroke-dasharray="1,5" d="M246.68,-116.64C252.4,-103.93 261.47,-86.87 273.25,-74.75 283.28,-64.44 295.88,-55.44 308.19,-48.03"/>
<polygon fill="black" stroke="black" points="309.7,-51.2 316.64,-43.2 306.22,-45.13 309.7,-51.2"/>
<text xml:space="preserve" text-anchor="middle" x="329.5" y="-71.95" font-family="Times,serif" font-size="14.00">Intended Target</text>
</g>
<!-- Hub API\n(/api/v1/agent/gcp&#45;token)&#45;&gt;GCP SDK (ADC) -->
<g id="edge5" class="edge">
<title>Hub API\n(/api/v1/agent/gcp&#45;token)&#45;&gt;GCP SDK (ADC)</title>
<path fill="none" stroke="black" d="M93.45,-42.33C72.84,-88.16 24.57,-214.72 76.75,-298 94,-325.53 123.88,-343.71 153.38,-355.6"/>
<polygon fill="black" stroke="black" points="151.77,-358.73 162.36,-359.01 154.26,-352.19 151.77,-358.73"/>
<text xml:space="preserve" text-anchor="middle" x="106.5" y="-199.95" font-family="Times,serif" font-size="14.00">Requires Token</text>
</g>
<!-- GCP IAM API&#45;&gt;GCE Metadata Server -->
<g id="edge7" class="edge">
<title>GCP IAM API&#45;&gt;GCE Metadata Server</title>
<path fill="none" stroke="black" stroke-dasharray="1,5" d="M411.96,-189.77C408.88,-164.02 401.33,-114.27 385.75,-74.75 382.65,-66.88 378.36,-58.83 373.99,-51.55"/>
<polygon fill="black" stroke="black" points="377.2,-50.08 368.9,-43.49 371.28,-53.82 377.2,-50.08"/>
<text xml:space="preserve" text-anchor="middle" x="455.2" y="-126.95" font-family="Times,serif" font-size="14.00">Expected Flow</text>
</g>
</g>
</svg>
