<?xml version="1.0" encoding="UTF-8" standalone="no"?>
<!DOCTYPE svg PUBLIC "-//W3C//DTD SVG 1.1//EN"
 "http://www.w3.org/Graphics/SVG/1.1/DTD/svg11.dtd">
<!-- Generated by graphviz version 2.44.1 (20201121.0304)
 -->
<!-- Title: G Pages: 1 -->
<svg width="479pt" height="437pt"
 viewBox="0.00 0.00 479.00 437.00" xmlns="http://www.w3.org/2000/svg" xmlns:xlink="http://www.w3.org/1999/xlink"><style>
  * {
    fill: transparent !important;
    stroke: #1f1f1f !important;
    stroke-width: 1 !important;
  }
  polygon:not(.cluster *, .node *, .edge *, text) {
    stroke: transparent !important;
  }
  text {
    font-size: 10px !important;
    font-family: monospace !important;
    fill: #1f1f1f !important;
    stroke: transparent !important;
    transform: translateY(-0.5em);
  }
</style>
<g id="graph0" class="graph" transform="scale(1 1) rotate(0) translate(4 433)">
<title>G</title>
<polygon fill="white" stroke="none" points="-4,4 -4,-433 475.35,-433 475.35,4 -4,4"/>
<!-- Filesystem Events (fanotify) -->
<g id="node1" class="node">
<title>Filesystem Events (fanotify)</title>
<polygon fill="lightblue" stroke="black" points="226,-409 0,-409 0,-373 226,-373 226,-409"/>
<text xml:space="preserve" text-anchor="middle" x="113" y="-382.95" font-family="Times,serif" font-size="14.00">Filesystem Events (fanotify)</text>
</g>
<!-- fabric&#45;fs&#45;watcher -->
<g id="node2" class="node">
<title>fabric&#45;fs&#45;watcher</title>
<polygon fill="lightblue" stroke="black" points="360.75,-233 97.25,-233 97.25,-197 360.75,-197 360.75,-233"/>
<text xml:space="preserve" text-anchor="middle" x="229" y="-212.2" font-family="Times,serif" font-size="14.00">fabric&#45;fs&#45;watcher</text>
<text xml:space="preserve" text-anchor="middle" x="229" y="-201.7" font-family="Times,serif" font-size="14.00">(PID Resolver, Filter, Coalescer)</text>
</g>
<!-- Filesystem Events (fanotify)&#45;&gt;fabric&#45;fs&#45;watcher -->
<g id="edge1" class="edge">
<title>Filesystem Events (fanotify)&#45;&gt;fabric&#45;fs&#45;watcher</title>
<path fill="none" stroke="black" d="M108.72,-372.55C104.92,-353.1 101.68,-321.31 114,-297.75 127.56,-271.82 153.5,-252.29 177.31,-238.84"/>
<polygon fill="black" stroke="black" points="178.87,-241.98 186.01,-234.16 175.55,-235.81 178.87,-241.98"/>
<text xml:space="preserve" text-anchor="middle" x="219" y="-294.95" font-family="Times,serif" font-size="14.00">Raw Events (PID, Path, Mask)</text>
</g>
<!-- NDJSON Output\n(stdout/file) -->
<g id="node4" class="node">
<title>NDJSON Output\n(stdout/file)</title>
<polygon fill="lightblue" stroke="black" points="285.75,-56 172.25,-56 172.25,-20 285.75,-20 285.75,-56"/>
<text xml:space="preserve" text-anchor="middle" x="229" y="-35.2" font-family="Times,serif" font-size="14.00">NDJSON Output</text>
<text xml:space="preserve" text-anchor="middle" x="229" y="-24.7" font-family="Times,serif" font-size="14.00">(stdout/file)</text>
</g>
<!-- fabric&#45;fs&#45;watcher&#45;&gt;NDJSON Output\n(stdout/file) -->
<g id="edge3" class="edge">
<title>fabric&#45;fs&#45;watcher&#45;&gt;NDJSON Output\n(stdout/file)</title>
<path fill="none" stroke="black" d="M229,-196.58C229,-166.44 229,-104.3 229,-67.7"/>
<polygon fill="black" stroke="black" points="232.5,-67.86 229,-57.86 225.5,-67.86 232.5,-67.86"/>
<text xml:space="preserve" text-anchor="middle" x="289" y="-117.95" font-family="Times,serif" font-size="14.00">Formatted Events</text>
</g>
<!-- Docker Daemon Events -->
<g id="node3" class="node">
<title>Docker Daemon Events</title>
<polygon fill="lightblue" stroke="black" points="429,-409 263,-409 263,-373 429,-373 429,-409"/>
<text xml:space="preserve" text-anchor="middle" x="346" y="-382.95" font-family="Times,serif" font-size="14.00">Docker Daemon Events</text>
</g>
<!-- Docker Daemon Events&#45;&gt;fabric&#45;fs&#45;watcher -->
<g id="edge2" class="edge">
<title>Docker Daemon Events&#45;&gt;fabric&#45;fs&#45;watcher</title>
<path fill="none" stroke="black" d="M345.06,-372.82C343.31,-353.33 338.31,-321.23 324,-297.75 309.73,-274.33 286.49,-254.15 266.56,-239.71"/>
<polygon fill="black" stroke="black" points="268.83,-237.02 258.63,-234.15 264.81,-242.76 268.83,-237.02"/>
<text xml:space="preserve" text-anchor="middle" x="400.1" y="-294.95" font-family="Times,serif" font-size="14.00">Container Lifecycle</text>
</g>
</g>
</svg>
