<?xml version="1.0" encoding="UTF-8" standalone="no"?>
<!DOCTYPE svg PUBLIC "-//W3C//DTD SVG 1.1//EN"
 "http://www.w3.org/Graphics/SVG/1.1/DTD/svg11.dtd">
<!-- Generated by graphviz version 2.44.1 (20201121.0304)
 -->
<!-- Title: G Pages: 1 -->
<svg width="851pt" height="851pt"
 viewBox="0.00 0.00 851.00 851.00" xmlns="http://www.w3.org/2000/svg" xmlns:xlink="http://www.w3.org/1999/xlink"><style>
  * {
    fill: transparent !important;
    stroke: #1f1f1f !important;
    stroke-width: 1 !important;
  }
  polygon:not(.cluster *, .node *, .edge *, text) {
    stroke: transparent !important;
  }
  text {
    font-size: 10px !important;
    font-family: monospace !important;
    fill: #1f1f1f !important;
    stroke: transparent !important;
    transform: translateY(-0.5em);
  }
</style>
<g id="graph0" class="graph" transform="scale(1 1) rotate(0) translate(4 847)">
<title>G</title>
<polygon fill="white" stroke="none" points="-4,4 -4,-847 847,-847 847,4 -4,4"/>
<!-- build&#45;images.sh Orchestrator -->
<g id="node1" class="node">
<title>build&#45;images.sh Orchestrator</title>
<polygon fill="lightblue" stroke="black" points="408.5,-786 280,-786 280,-750 408.5,-750 408.5,-786"/>
<text xml:space="preserve" text-anchor="middle" x="344.25" y="-765.2" font-family="Times,serif" font-size="14.00">build&#45;images.sh</text>
<text xml:space="preserve" text-anchor="middle" x="344.25" y="-754.7" font-family="Times,serif" font-size="14.00">(Orchestrator)</text>
</g>
<!-- Image Hierarchy -->
<g id="node2" class="node">
<title>Image Hierarchy</title>
<polygon fill="lightblue" stroke="black" points="308.5,-440 0,-440 0,-404 308.5,-404 308.5,-440"/>
<text xml:space="preserve" text-anchor="middle" x="154.25" y="-419.2" font-family="Times,serif" font-size="14.00">Image Hierarchy</text>
<text xml:space="preserve" text-anchor="middle" x="154.25" y="-408.7" font-family="Times,serif" font-size="14.00">(core&#45;base, fabric&#45;base, hub, harnesses)</text>
</g>
<!-- build&#45;images.sh Orchestrator&#45;&gt;Image Hierarchy -->
<g id="edge1" class="edge">
<title>build&#45;images.sh Orchestrator&#45;&gt;Image Hierarchy</title>
<path fill="none" stroke="black" d="M311.85,-749.56C267.58,-723.68 190.01,-670.51 157.75,-600.25 135.54,-551.88 141.74,-487.96 148.1,-451.59"/>
<polygon fill="black" stroke="black" points="151.52,-452.33 149.94,-441.86 144.65,-451.03 151.52,-452.33"/>
<text xml:space="preserve" text-anchor="middle" x="244" y="-586.95" font-family="Times,serif" font-size="14.00">defines build steps for</text>
</g>
<!-- targets.sh -->
<g id="node3" class="node">
<title>targets.sh</title>
<polygon fill="lightblue" stroke="black" points="298.5,-93 200,-93 200,-57 298.5,-57 298.5,-93"/>
<text xml:space="preserve" text-anchor="middle" x="249.25" y="-72.2" font-family="Times,serif" font-size="14.00">targets.sh</text>
<text xml:space="preserve" text-anchor="middle" x="249.25" y="-61.7" font-family="Times,serif" font-size="14.00">(Build DAG)</text>
</g>
<!-- build&#45;images.sh Orchestrator&#45;&gt;targets.sh -->
<g id="edge2" class="edge">
<title>build&#45;images.sh Orchestrator&#45;&gt;targets.sh</title>
<path fill="none" stroke="black" d="M343.76,-749.53C342.1,-697.02 335.77,-536.05 317.25,-404 301.53,-291.9 270.4,-160.64 256.38,-104.17"/>
<polygon fill="black" stroke="black" points="259.85,-103.61 254.03,-94.75 253.06,-105.3 259.85,-103.61"/>
<text xml:space="preserve" text-anchor="middle" x="400.26" y="-413.95" font-family="Times,serif" font-size="14.00">queries for build DAG</text>
</g>
<!-- Build Backends -->
<g id="node4" class="node">
<title>Build Backends</title>
<polygon fill="lightblue" stroke="black" points="843,-440 519.5,-440 519.5,-404 843,-404 843,-440"/>
<text xml:space="preserve" text-anchor="middle" x="681.25" y="-419.2" font-family="Times,serif" font-size="14.00">Build Backends</text>
<text xml:space="preserve" text-anchor="middle" x="681.25" y="-408.7" font-family="Times,serif" font-size="14.00">(local&#45;docker, local&#45;podman, cloud&#45;build)</text>
</g>
<!-- build&#45;images.sh Orchestrator&#45;&gt;Build Backends -->
<g id="edge3" class="edge">
<title>build&#45;images.sh Orchestrator&#45;&gt;Build Backends</title>
<path fill="none" stroke="black" d="M360.96,-749.94C415.98,-693.78 591.66,-514.45 656.72,-448.04"/>
<polygon fill="black" stroke="black" points="658.88,-450.84 663.38,-441.24 653.88,-445.94 658.88,-450.84"/>
<text xml:space="preserve" text-anchor="middle" x="587.75" y="-586.95" font-family="Times,serif" font-size="14.00">dispatches builds to</text>
</g>
<!-- Image Hierarchy&#45;&gt;targets.sh -->
<g id="edge4" class="edge">
<title>Image Hierarchy&#45;&gt;targets.sh</title>
<path fill="none" stroke="black" d="M158.96,-403.89C174.25,-348.37 222.59,-172.82 241.53,-104.03"/>
<polygon fill="black" stroke="black" points="244.83,-105.24 244.11,-94.67 238.08,-103.38 244.83,-105.24"/>
<text xml:space="preserve" text-anchor="middle" x="239.25" y="-239.95" font-family="Times,serif" font-size="14.00">defined in</text>
</g>
</g>
</svg>
