<?xml version="1.0" encoding="UTF-8" standalone="no"?>
<!DOCTYPE svg PUBLIC "-//W3C//DTD SVG 1.1//EN"
 "http://www.w3.org/Graphics/SVG/1.1/DTD/svg11.dtd">
<!-- Generated by graphviz version 2.44.1 (20201121.0304)
 -->
<!-- Title: G Pages: 1 -->
<svg width="751pt" height="751pt"
 viewBox="0.00 0.00 751.00 751.00" xmlns="http://www.w3.org/2000/svg" xmlns:xlink="http://www.w3.org/1999/xlink"><style>
  * {
    fill: transparent !important;
    stroke: #1f1f1f !important;
    stroke-width: 1 !important;
  }
  polygon:not(.cluster *, .node *, .edge *, text) {
    stroke: transparent !important;
  }
  text {
    font-size: 10px !important;
    font-family: monospace !important;
    fill: #1f1f1f !important;
    stroke: transparent !important;
    transform: translateY(-0.5em);
  }
</style>
<g id="graph0" class="graph" transform="scale(1 1) rotate(0) translate(4 746.5)">
<title>G</title>
<polygon fill="white" stroke="none" points="-4,4 -4,-746.5 746.5,-746.5 746.5,4 -4,4"/>
<!-- CLI -->
<g id="node1" class="node">
<title>CLI</title>
<polygon fill="lightblue" stroke="black" points="677.25,-713 518.75,-713 518.75,-677 677.25,-677 677.25,-713"/>
<text xml:space="preserve" text-anchor="middle" x="598" y="-686.95" font-family="Times,serif" font-size="14.00">Fabric CLI (Manager)</text>
</g>
<!-- Hub -->
<g id="node2" class="node">
<title>Hub</title>
<polygon fill="lightblue" stroke="black" points="612,-497 416,-497 416,-461 612,-461 612,-497"/>
<text xml:space="preserve" text-anchor="middle" x="514" y="-470.95" font-family="Times,serif" font-size="14.00">Fabric Hub (State Server)</text>
</g>
<!-- CLI&#45;&gt;Hub -->
<g id="edge1" class="edge">
<title>CLI&#45;&gt;Hub</title>
<path fill="none" stroke="black" d="M591.27,-676.85C576.77,-639.91 542.48,-552.55 524.86,-507.67"/>
<polygon fill="black" stroke="black" points="528.23,-506.67 521.32,-498.64 521.71,-509.23 528.23,-506.67"/>
<text xml:space="preserve" text-anchor="middle" x="582.25" y="-578.95" font-family="Times,serif" font-size="14.00">Manages</text>
</g>
<!-- RuntimeBrokers -->
<g id="node3" class="node">
<title>RuntimeBrokers</title>
<polygon fill="lightblue" stroke="black" points="286,-281 0,-281 0,-245 286,-245 286,-281"/>
<text xml:space="preserve" text-anchor="middle" x="143" y="-254.95" font-family="Times,serif" font-size="14.00">Runtime Brokers (Docker, K8s, Apple)</text>
</g>
<!-- Hub&#45;&gt;RuntimeBrokers -->
<g id="edge2" class="edge">
<title>Hub&#45;&gt;RuntimeBrokers</title>
<path fill="none" stroke="black" d="M415.7,-460.98C354.08,-446.48 275.68,-420.69 218,-376.25 189.05,-353.95 167.54,-317.17 155.15,-291.82"/>
<polygon fill="black" stroke="black" points="158.32,-290.34 150.9,-282.78 151.98,-293.32 158.32,-290.34"/>
<text xml:space="preserve" text-anchor="middle" x="263" y="-362.95" font-family="Times,serif" font-size="14.00">Orchestrates</text>
</g>
<!-- A2ABridge -->
<g id="node5" class="node">
<title>A2ABridge</title>
<polygon fill="lightblue" stroke="black" points="603.25,-281 444.75,-281 444.75,-245 603.25,-245 603.25,-281"/>
<text xml:space="preserve" text-anchor="middle" x="524" y="-254.95" font-family="Times,serif" font-size="14.00">A2A Protocol Bridge</text>
</g>
<!-- Hub&#45;&gt;A2ABridge -->
<g id="edge5" class="edge">
<title>Hub&#45;&gt;A2ABridge</title>
<path fill="none" stroke="black" d="M514.8,-460.85C516.52,-424.14 520.56,-337.66 522.67,-292.53"/>
<polygon fill="black" stroke="black" points="526.15,-292.9 523.12,-282.74 519.16,-292.57 526.15,-292.9"/>
</g>
<!-- Auth -->
<g id="node6" class="node">
<title>Auth</title>
<polygon fill="lightblue" stroke="black" points="742.5,-281 621.5,-281 621.5,-245 742.5,-245 742.5,-281"/>
<text xml:space="preserve" text-anchor="middle" x="682" y="-254.95" font-family="Times,serif" font-size="14.00">Auth Subsystem</text>
</g>
<!-- Hub&#45;&gt;Auth -->
<g id="edge6" class="edge">
<title>Hub&#45;&gt;Auth</title>
<path fill="none" stroke="black" d="M515.89,-460.58C519.14,-437.19 527.54,-395.17 548,-365.75 571.3,-332.25 609.08,-305.01 638.59,-287.17"/>
<polygon fill="black" stroke="black" points="640.1,-290.35 646.95,-282.26 636.55,-284.31 640.1,-290.35"/>
<text xml:space="preserve" text-anchor="middle" x="608" y="-362.95" font-family="Times,serif" font-size="14.00">Validates Tokens</text>
</g>
<!-- Agent -->
<g id="node4" class="node">
<title>Agent</title>
<polygon fill="lightblue" stroke="black" points="461,-65 295,-65 295,-29 461,-29 461,-65"/>
<text xml:space="preserve" text-anchor="middle" x="378" y="-38.95" font-family="Times,serif" font-size="14.00">LLM Agents (Workers)</text>
</g>
<!-- RuntimeBrokers&#45;&gt;Agent -->
<g id="edge3" class="edge">
<title>RuntimeBrokers&#45;&gt;Agent</title>
<path fill="none" stroke="black" d="M161.83,-244.85C203.26,-207.13 302.42,-116.83 350.68,-72.88"/>
<polygon fill="black" stroke="black" points="352.92,-75.57 357.96,-66.25 348.21,-70.4 352.92,-75.57"/>
<text xml:space="preserve" text-anchor="middle" x="275.5" y="-146.95" font-family="Times,serif" font-size="14.00">Runs</text>
</g>
<!-- Agent&#45;&gt;Hub -->
<g id="edge4" class="edge">
<title>Agent&#45;&gt;Hub</title>
<path fill="none" stroke="black" d="M368.07,-65.25C346.71,-104.68 300.75,-203.99 331,-281 360.81,-356.9 435.15,-420.94 479.36,-453.97"/>
<polygon fill="black" stroke="black" points="477.22,-456.74 487.36,-459.84 481.37,-451.1 477.22,-456.74"/>
<text xml:space="preserve" text-anchor="middle" x="383.5" y="-254.95" font-family="Times,serif" font-size="14.00">Reports Status</text>
</g>
<!-- A2ABridge&#45;&gt;Agent -->
<g id="edge7" class="edge">
<title>A2ABridge&#45;&gt;Agent</title>
<path fill="none" stroke="black" d="M512.3,-244.85C486.88,-207.6 426.48,-119.07 396.11,-74.54"/>
<polygon fill="black" stroke="black" points="399.14,-72.77 390.61,-66.48 393.35,-76.72 399.14,-72.77"/>
</g>
<!-- Auth&#45;&gt;CLI -->
<g id="edge8" class="edge">
<title>Auth&#45;&gt;CLI</title>
<path fill="none" stroke="black" d="M680.36,-281.19C678.13,-303.28 673.76,-342.77 668,-376.25 649.48,-483.87 619.01,-610.14 605.2,-665.53"/>
<polygon fill="black" stroke="black" points="601.85,-664.53 602.81,-675.08 608.64,-666.23 601.85,-664.53"/>
</g>
<!-- Auth&#45;&gt;Agent -->
<g id="edge9" class="edge">
<title>Auth&#45;&gt;Agent</title>
<path fill="none" stroke="black" d="M657.38,-244.67C603.31,-206.6 474.08,-115.64 412.18,-72.06"/>
<polygon fill="black" stroke="black" points="414.28,-69.26 404.09,-66.36 410.25,-74.98 414.28,-69.26"/>
<text xml:space="preserve" text-anchor="middle" x="578.75" y="-146.95" font-family="Times,serif" font-size="14.00">Issues Tokens</text>
</g>
</g>
</svg>
