<?xml version="1.0" encoding="UTF-8" standalone="no"?>
<!DOCTYPE svg PUBLIC "-//W3C//DTD SVG 1.1//EN"
 "http://www.w3.org/Graphics/SVG/1.1/DTD/svg11.dtd">
<!-- Generated by graphviz version 2.44.1 (20201121.0304)
 -->
<!-- Title: G Pages: 1 -->
<svg width="845pt" height="845pt"
 viewBox="0.00 0.00 845.00 845.00" xmlns="http://www.w3.org/2000/svg" xmlns:xlink="http://www.w3.org/1999/xlink"><style>
  * {
    fill: transparent !important;
    stroke: #1f1f1f !important;
    stroke-width: 1 !important;
  }
  polygon:not(.cluster *, .node *, .edge *, text) {
    stroke: transparent !important;
  }
  text {
    font-size: 10px !important;
    font-family: monospace !important;
    fill: #1f1f1f !important;
    stroke: transparent !important;
    transform: translateY(-0.5em);
  }
</style>
<g id="graph0" class="graph" transform="scale(1 1) rotate(0) translate(4 840.5)">
<title>G</title>
<polygon fill="white" stroke="none" points="-4,4 -4,-840.5 840.5,-840.5 840.5,4 -4,4"/>
<g id="clust1" class="cluster">
<title>cluster_cloudrun</title>
<polygon fill="none" stroke="black" points="240.5,-39.6 240.5,-796.9 662.5,-796.9 662.5,-39.6 240.5,-39.6"/>
<text xml:space="preserve" text-anchor="middle" x="451.5" y="-779.6" font-family="Times,serif" font-size="14.00">Cloud Run Service</text>
</g>
<!-- Fabric Docs Agent -->
<g id="node1" class="node">
<title>Fabric Docs Agent</title>
<polygon fill="lightblue" stroke="black" points="384.5,-594.6 248.5,-594.6 248.5,-558.6 384.5,-558.6 384.5,-594.6"/>
<text xml:space="preserve" text-anchor="middle" x="316.5" y="-573.8" font-family="Times,serif" font-size="14.00">Fabric Docs Agent</text>
<text xml:space="preserve" text-anchor="middle" x="316.5" y="-563.3" font-family="Times,serif" font-size="14.00">(Go Service)</text>
</g>
<!-- Endpoints -->
<g id="node2" class="node">
<title>Endpoints</title>
<polygon fill="lightblue" stroke="black" points="654.5,-186.6 248.5,-186.6 248.5,-150.6 654.5,-150.6 654.5,-186.6"/>
<text xml:space="preserve" text-anchor="middle" x="451.5" y="-160.55" font-family="Times,serif" font-size="14.00">{&lt;f0&gt; /ask |&lt;f1&gt; /chat |&lt;f2&gt; /refresh |&lt;f3&gt; /health}</text>
</g>
<!-- Fabric Docs Agent&#45;&gt;Endpoints -->
<g id="edge1" class="edge">
<title>Fabric Docs Agent&#45;&gt;Endpoints</title>
<path fill="none" stroke="black" d="M322.3,-558.15C343.42,-494.64 416.31,-275.44 442.25,-197.43"/>
<polygon fill="black" stroke="black" points="445.41,-199.01 445.24,-188.41 438.77,-196.8 445.41,-199.01"/>
</g>
<!-- Gemini CLI -->
<g id="node4" class="node">
<title>Gemini CLI</title>
<polygon fill="lightblue" stroke="black" points="230,-186.6 139,-186.6 139,-150.6 230,-150.6 230,-186.6"/>
<text xml:space="preserve" text-anchor="middle" x="184.5" y="-160.55" font-family="Times,serif" font-size="14.00">Gemini CLI</text>
</g>
<!-- Fabric Docs Agent&#45;&gt;Gemini CLI -->
<g id="edge4" class="edge">
<title>Fabric Docs Agent&#45;&gt;Gemini CLI</title>
<path fill="none" stroke="black" d="M310.83,-558.15C290.22,-494.77 219.2,-276.33 193.7,-197.91"/>
<polygon fill="black" stroke="black" points="197.04,-196.85 190.62,-188.42 190.38,-199.01 197.04,-196.85"/>
<text xml:space="preserve" text-anchor="middle" x="269.25" y="-364.55" font-family="Times,serif" font-size="14.00">Query</text>
</g>
<!-- Git Repository -->
<g id="node5" class="node">
<title>Git Repository</title>
<polygon fill="lightblue" stroke="black" points="121,-186.6 0,-186.6 0,-150.6 121,-150.6 121,-186.6"/>
<text xml:space="preserve" text-anchor="middle" x="60.5" y="-160.55" font-family="Times,serif" font-size="14.00">Git Repository</text>
</g>
<!-- Fabric Docs Agent&#45;&gt;Git Repository -->
<g id="edge5" class="edge">
<title>Fabric Docs Agent&#45;&gt;Git Repository</title>
<path fill="none" stroke="black" d="M304.8,-558.28C281.76,-524.06 229.03,-445.26 186.5,-377.85 145.93,-313.55 100.15,-236.76 76.52,-196.81"/>
<polygon fill="black" stroke="black" points="79.61,-195.14 71.51,-188.31 73.58,-198.7 79.61,-195.14"/>
<text xml:space="preserve" text-anchor="middle" x="216.5" y="-364.55" font-family="Times,serif" font-size="14.00">git pull</text>
</g>
<!-- Client (Browser/App) -->
<g id="node3" class="node">
<title>Client (Browser/App)</title>
<polygon fill="lightblue" stroke="black" points="836.5,-594.6 670.5,-594.6 670.5,-558.6 836.5,-558.6 836.5,-594.6"/>
<text xml:space="preserve" text-anchor="middle" x="753.5" y="-568.55" font-family="Times,serif" font-size="14.00">Client (Browser/App)</text>
</g>
<!-- Client (Browser/App)&#45;&gt;Endpoints -->
<g id="edge2" class="edge">
<title>Client (Browser/App)&#45;&gt;Endpoints</title>
<path fill="none" stroke="black" d="M740.52,-558.15C692.99,-494.25 528.22,-272.73 471.14,-196"/>
<polygon fill="black" stroke="black" points="474.11,-194.13 465.33,-188.19 468.49,-198.3 474.11,-194.13"/>
<text xml:space="preserve" text-anchor="middle" x="636.25" y="-364.55" font-family="Times,serif" font-size="14.00">POST /ask</text>
</g>
<!-- Client (Browser/App)&#45;&gt;Endpoints -->
<g id="edge3" class="edge">
<title>Client (Browser/App)&#45;&gt;Endpoints</title>
<path fill="none" stroke="black" d="M726.8,-558.32C680.83,-527.33 586.36,-458 531,-377.85 491.18,-320.2 467.92,-239.93 457.71,-197.87"/>
<polygon fill="black" stroke="black" points="461.16,-197.24 455.47,-188.3 454.35,-198.84 461.16,-197.24"/>
<text xml:space="preserve" text-anchor="middle" x="564.75" y="-364.55" font-family="Times,serif" font-size="14.00">GET /chat</text>
</g>
</g>
</svg>
