<?xml version="1.0" encoding="UTF-8" standalone="no"?>
<!DOCTYPE svg PUBLIC "-//W3C//DTD SVG 1.1//EN"
 "http://www.w3.org/Graphics/SVG/1.1/DTD/svg11.dtd">
<!-- Generated by graphviz version 2.44.1 (20201121.0304)
 -->
<!-- Title: G Pages: 1 -->
<svg width="490pt" height="490pt"
 viewBox="0.00 0.00 490.00 490.00" xmlns="http://www.w3.org/2000/svg" xmlns:xlink="http://www.w3.org/1999/xlink"><style>
  * {
    fill: transparent !important;
    stroke: #1f1f1f !important;
    stroke-width: 1 !important;
  }
  polygon:not(.cluster *, .node *, .edge *, text) {
    stroke: transparent !important;
  }
  text {
    font-size: 10px !important;
    font-family: monospace !important;
    fill: #1f1f1f !important;
    stroke: transparent !important;
    transform: translateY(-0.5em);
  }
</style>
<g id="graph0" class="graph" transform="scale(1 1) rotate(0) translate(4 486.25)">
<title>G</title>
<polygon fill="white" stroke="none" points="-4,4 -4,-486.25 486.25,-486.25 486.25,4 -4,4"/>
<!-- Agents -->
<g id="node1" class="node">
<title>Agents</title>
<polygon fill="lightblue" stroke="black" points="350.75,-476 289.75,-476 289.75,-440 350.75,-440 350.75,-476"/>
<text xml:space="preserve" text-anchor="middle" x="320.25" y="-449.95" font-family="Times,serif" font-size="14.00">Agents</text>
</g>
<!-- Hub API &amp; Dispatcher -->
<g id="node2" class="node">
<title>Hub API &amp; Dispatcher</title>
<polygon fill="lightblue" stroke="black" points="365.75,-364 274.75,-364 274.75,-328 365.75,-328 365.75,-364"/>
<text xml:space="preserve" text-anchor="middle" x="320.25" y="-343.2" font-family="Times,serif" font-size="14.00">Hub API &amp;</text>
<text xml:space="preserve" text-anchor="middle" x="320.25" y="-332.7" font-family="Times,serif" font-size="14.00">Dispatcher</text>
</g>
<!-- Agents&#45;&gt;Hub API &amp; Dispatcher -->
<g id="edge1" class="edge">
<title>Agents&#45;&gt;Hub API &amp; Dispatcher</title>
<path fill="none" stroke="#333333" d="M320.25,-439.81C320.25,-422.72 320.25,-396.18 320.25,-375.85"/>
<polygon fill="#333333" stroke="#333333" points="323.75,-375.94 320.25,-365.94 316.75,-375.94 323.75,-375.94"/>
<text xml:space="preserve" text-anchor="middle" x="376.5" y="-393.95" font-family="Times,serif" font-size="14.00">Events/Messages</text>
</g>
<!-- MessageBrokerProxy -->
<g id="node3" class="node">
<title>MessageBrokerProxy</title>
<polygon fill="lightblue" stroke="black" points="299.75,-253 148.75,-253 148.75,-217 299.75,-217 299.75,-253"/>
<text xml:space="preserve" text-anchor="middle" x="224.25" y="-226.95" font-family="Times,serif" font-size="14.00">MessageBrokerProxy</text>
</g>
<!-- Hub API &amp; Dispatcher&#45;&gt;MessageBrokerProxy -->
<g id="edge2" class="edge">
<title>Hub API &amp; Dispatcher&#45;&gt;MessageBrokerProxy</title>
<path fill="none" stroke="#333333" d="M305.25,-327.97C289.63,-310.24 264.98,-282.24 246.97,-261.8"/>
<polygon fill="#333333" stroke="#333333" points="249.7,-259.6 240.46,-254.41 244.44,-264.22 249.7,-259.6"/>
<text xml:space="preserve" text-anchor="middle" x="305.13" y="-281.95" font-family="Times,serif" font-size="14.00">Dispatch</text>
</g>
<!-- Message Store -->
<g id="node4" class="node">
<title>Message Store</title>
<polygon fill="lightblue" stroke="black" points="378,-141 264.5,-141 264.5,-105 378,-105 378,-141"/>
<text xml:space="preserve" text-anchor="middle" x="321.25" y="-114.95" font-family="Times,serif" font-size="14.00">Message Store</text>
</g>
<!-- MessageBrokerProxy&#45;&gt;Message Store -->
<g id="edge3" class="edge">
<title>MessageBrokerProxy&#45;&gt;Message Store</title>
<path fill="none" stroke="#333333" d="M239.41,-216.81C255.19,-198.92 280.1,-170.67 298.29,-150.03"/>
<polygon fill="#333333" stroke="#333333" points="300.89,-152.38 304.88,-142.57 295.64,-147.75 300.89,-152.38"/>
<text xml:space="preserve" text-anchor="middle" x="301.91" y="-170.95" font-family="Times,serif" font-size="14.00">Persist</text>
</g>
<!-- External Channels -->
<g id="node5" class="node">
<title>External Channels</title>
<polygon fill="lightblue" stroke="black" points="188.5,-141 0,-141 0,-105 188.5,-105 188.5,-141"/>
<text xml:space="preserve" text-anchor="middle" x="94.25" y="-120.2" font-family="Times,serif" font-size="14.00">External Channels</text>
<text xml:space="preserve" text-anchor="middle" x="94.25" y="-109.7" font-family="Times,serif" font-size="14.00">(Google Chat, Telegram)</text>
</g>
<!-- MessageBrokerProxy&#45;&gt;External Channels -->
<g id="edge4" class="edge">
<title>MessageBrokerProxy&#45;&gt;External Channels</title>
<path fill="none" stroke="#333333" d="M198.56,-216.57C175.11,-198.39 141,-169.71 118.13,-149.09"/>
<polygon fill="#333333" stroke="#333333" points="120.53,-146.54 110.79,-142.37 115.8,-151.7 120.53,-146.54"/>
</g>
<!-- Web UI -->
<g id="node6" class="node">
<title>Web UI</title>
<polygon fill="lightblue" stroke="black" points="327.75,-42 116.75,-42 116.75,-6 327.75,-6 327.75,-42"/>
<text xml:space="preserve" text-anchor="middle" x="222.25" y="-21.2" font-family="Times,serif" font-size="14.00">Web UI</text>
<text xml:space="preserve" text-anchor="middle" x="222.25" y="-10.7" font-family="Times,serif" font-size="14.00">(Inbox, Notification Tray)</text>
</g>
<!-- MessageBrokerProxy&#45;&gt;Web UI -->
<g id="edge5" class="edge">
<title>MessageBrokerProxy&#45;&gt;Web UI</title>
<path fill="none" stroke="#333333" d="M224.08,-216.54C223.74,-180.49 222.94,-97.53 222.52,-53.56"/>
<polygon fill="#333333" stroke="#333333" points="226.03,-53.74 222.43,-43.78 219.03,-53.81 226.03,-53.74"/>
<text xml:space="preserve" text-anchor="middle" x="234.61" y="-114.95" font-family="Times,serif" font-size="14.00">SSE</text>
</g>
<!-- Message Store&#45;&gt;Web UI -->
<g id="edge6" class="edge">
<title>Message Store&#45;&gt;Web UI</title>
<path fill="none" stroke="#333333" d="M303.55,-104.66C288.06,-89.49 265.38,-67.26 247.9,-50.13"/>
<polygon fill="#333333" stroke="#333333" points="250.47,-47.75 240.88,-43.25 245.57,-52.75 250.47,-47.75"/>
</g>
<!-- CLI -->
<g id="node7" class="node">
<title>CLI</title>
<polygon fill="lightblue" stroke="black" points="482.25,-42 346.25,-42 346.25,-6 482.25,-6 482.25,-42"/>
<text xml:space="preserve" text-anchor="middle" x="414.25" y="-21.2" font-family="Times,serif" font-size="14.00">CLI</text>
<text xml:space="preserve" text-anchor="middle" x="414.25" y="-10.7" font-family="Times,serif" font-size="14.00">(fabric messages)</text>
</g>
<!-- Message Store&#45;&gt;CLI -->
<g id="edge7" class="edge">
<title>Message Store&#45;&gt;CLI</title>
<path fill="none" stroke="#333333" d="M337.88,-104.66C352.42,-89.49 373.74,-67.26 390.15,-50.13"/>
<polygon fill="#333333" stroke="#333333" points="392.33,-52.92 396.72,-43.28 387.27,-48.08 392.33,-52.92"/>
</g>
<!-- External Channels&#45;&gt;MessageBrokerProxy -->
<g id="edge8" class="edge">
<title>External Channels&#45;&gt;MessageBrokerProxy</title>
<path fill="none" stroke="#333333" d="M119.83,-141.35C143.25,-159.5 177.37,-188.17 200.27,-208.82"/>
<polygon fill="#333333" stroke="#333333" points="197.88,-211.38 207.62,-215.55 202.61,-206.22 197.88,-211.38"/>
</g>
<!-- CLI&#45;&gt;Hub API &amp; Dispatcher -->
<g id="edge9" class="edge">
<title>CLI&#45;&gt;Hub API &amp; Dispatcher</title>
<path fill="none" stroke="#333333" d="M410.62,-42.39C405.76,-65.17 396.68,-106.28 387.25,-141 368.43,-210.29 362.74,-227.4 339.25,-295.25 336.79,-302.36 333.97,-309.98 331.28,-317.06"/>
<polygon fill="#333333" stroke="#333333" points="328.09,-315.6 327.75,-326.19 334.62,-318.12 328.09,-315.6"/>
</g>
</g>
</svg>
