<?xml version="1.0" encoding="UTF-8" standalone="no"?>
<!DOCTYPE svg PUBLIC "-//W3C//DTD SVG 1.1//EN"
 "http://www.w3.org/Graphics/SVG/1.1/DTD/svg11.dtd">
<!-- Generated by graphviz version 2.44.1 (20201121.0304)
 -->
<!-- Title: G Pages: 1 -->
<svg width="1627pt" height="1627pt"
 viewBox="0.00 0.00 1627.00 1627.00" xmlns="http://www.w3.org/2000/svg" xmlns:xlink="http://www.w3.org/1999/xlink"><style>
  * {
    fill: transparent !important;
    stroke: #1f1f1f !important;
    stroke-width: 1 !important;
  }
  polygon:not(.cluster *, .node *, .edge *, text) {
    stroke: transparent !important;
  }
  text {
    font-size: 10px !important;
    font-family: monospace !important;
    fill: #1f1f1f !important;
    stroke: transparent !important;
    transform: translateY(-0.5em);
  }
</style>
<g id="graph0" class="graph" transform="scale(1 1) rotate(0) translate(4 1622.75)">
<title>G</title>
<polygon fill="white" stroke="none" points="-4,4 -4,-1622.75 1622.75,-1622.75 1622.75,4 -4,4"/>
<!-- scion -->
<g id="node1" class="node">
<title>scion</title>
<g id="a_node1"><a xlink:href="cmd/root.go" xlink:title="scion CLI Tool">
<polygon fill="lightblue" stroke="black" points="961,-1391 840,-1391 840,-1355 961,-1355 961,-1391"/>
<text xml:space="preserve" text-anchor="middle" x="900.5" y="-1364.95" font-family="Arial" font-size="14.00">scion CLI Tool</text>
</a>
</g>
</g>
<!-- Agent Lifecycle -->
<g id="node2" class="node">
<title>Agent Lifecycle</title>
<g id="a_node2"><a xlink:href="cmd/attach.go cmd/create.go cmd/delete.go cmd/resume.go cmd/start.go cmd/stop.go cmd/suspend.go" xlink:title="Agent Lifecycle\n(attach, create, delete, resume, start, stop, suspend)">
<polygon fill="lightblue" stroke="black" points="421,-264 0,-264 0,-228 421,-228 421,-264"/>
<text xml:space="preserve" text-anchor="middle" x="210.5" y="-243.2" font-family="Arial" font-size="14.00">Agent Lifecycle</text>
<text xml:space="preserve" text-anchor="middle" x="210.5" y="-232.7" font-family="Arial" font-size="14.00">(attach, create, delete, resume, start, stop, suspend)</text>
</a>
</g>
</g>
<!-- scion&#45;&gt;Agent Lifecycle -->
<g id="edge1" class="edge">
<title>scion&#45;&gt;Agent Lifecycle</title>
<path fill="none" stroke="#696969" d="M889.94,-1354.78C811.71,-1227.24 322.76,-430.03 226.82,-273.61"/>
<polygon fill="#696969" stroke="#696969" points="230.08,-272.24 221.87,-265.54 224.12,-275.9 230.08,-272.24"/>
<text xml:space="preserve" text-anchor="middle" x="581.75" y="-804.75" font-family="Arial" font-size="10.00">manages</text>
</g>
<!-- Agent Interaction -->
<g id="node3" class="node">
<title>Agent Interaction</title>
<g id="a_node3"><a xlink:href="cmd/logs.go cmd/look.go cmd/message.go cmd/cdw.go" xlink:title="Agent Interaction\n(logs, look, message, cdw)">
<polygon fill="lightblue" stroke="black" points="650,-264 439,-264 439,-228 650,-228 650,-264"/>
<text xml:space="preserve" text-anchor="middle" x="544.5" y="-243.2" font-family="Arial" font-size="14.00">Agent Interaction</text>
<text xml:space="preserve" text-anchor="middle" x="544.5" y="-232.7" font-family="Arial" font-size="14.00">(logs, look, message, cdw)</text>
</a>
</g>
</g>
<!-- scion&#45;&gt;Agent Interaction -->
<g id="edge2" class="edge">
<title>scion&#45;&gt;Agent Interaction</title>
<path fill="none" stroke="#696969" d="M895.05,-1354.78C854.81,-1227.62 603.93,-434.8 553.37,-275.04"/>
<polygon fill="#696969" stroke="#696969" points="556.77,-274.17 550.42,-265.69 550.1,-276.28 556.77,-274.17"/>
<text xml:space="preserve" text-anchor="middle" x="775" y="-804.75" font-family="Arial" font-size="10.00">interacts with</text>
</g>
<!-- Configuration -->
<g id="node4" class="node">
<title>Configuration</title>
<g id="a_node4"><a xlink:href="cmd/config.go cmd/project.go cmd/shared_dir.go" xlink:title="Configuration\n(config, project, shared&#45;dir)">
<polygon fill="lightblue" stroke="black" points="901.25,-264 667.75,-264 667.75,-228 901.25,-228 901.25,-264"/>
<text xml:space="preserve" text-anchor="middle" x="784.5" y="-243.2" font-family="Arial" font-size="14.00">Configuration</text>
<text xml:space="preserve" text-anchor="middle" x="784.5" y="-232.7" font-family="Arial" font-size="14.00">(config, project, shared&#45;dir)</text>
</a>
</g>
</g>
<!-- scion&#45;&gt;Configuration -->
<g id="edge3" class="edge">
<title>scion&#45;&gt;Configuration</title>
<path fill="none" stroke="#696969" d="M898.72,-1354.78C885.63,-1227.75 804.03,-436.39 787.44,-275.52"/>
<polygon fill="#696969" stroke="#696969" points="790.94,-275.34 786.43,-265.76 783.98,-276.06 790.94,-275.34"/>
<text xml:space="preserve" text-anchor="middle" x="880" y="-804.75" font-family="Arial" font-size="10.00">configures</text>
</g>
<!-- Hub &amp; Broker Management -->
<g id="node5" class="node">
<title>Hub &amp; Broker Management</title>
<g id="a_node5"><a xlink:href="cmd/broker.go cmd/server.go" xlink:title="Hub &amp; Broker Management\n(runtime&#45;broker, server)">
<polygon fill="lightblue" stroke="black" points="1115.5,-264 919.5,-264 919.5,-228 1115.5,-228 1115.5,-264"/>
<text xml:space="preserve" text-anchor="middle" x="1017.5" y="-243.2" font-family="Arial" font-size="14.00">Hub &amp; Broker Management</text>
<text xml:space="preserve" text-anchor="middle" x="1017.5" y="-232.7" font-family="Arial" font-size="14.00">(runtime&#45;broker, server)</text>
</a>
</g>
</g>
<!-- scion&#45;&gt;Hub &amp; Broker Management -->
<g id="edge4" class="edge">
<title>scion&#45;&gt;Hub &amp; Broker Management</title>
<path fill="none" stroke="#696969" d="M902.29,-1354.78C915.5,-1227.75 997.8,-436.39 1014.53,-275.52"/>
<polygon fill="#696969" stroke="#696969" points="1018,-276.06 1015.55,-265.76 1011.03,-275.34 1018,-276.06"/>
<text xml:space="preserve" text-anchor="middle" x="1041.5" y="-804.75" font-family="Arial" font-size="10.00">manages infrastructure</text>
</g>
<!-- Templates &amp; Skills -->
<g id="node6" class="node">
<title>Templates &amp; Skills</title>
<g id="a_node6"><a xlink:href="cmd/templates.go cmd/skills.go" xlink:title="Templates &amp; Skills\n(templates, skills)">
<polygon fill="lightblue" stroke="black" points="1291.75,-264 1133.25,-264 1133.25,-228 1291.75,-228 1291.75,-264"/>
<text xml:space="preserve" text-anchor="middle" x="1212.5" y="-243.2" font-family="Arial" font-size="14.00">Templates &amp; Skills</text>
<text xml:space="preserve" text-anchor="middle" x="1212.5" y="-232.7" font-family="Arial" font-size="14.00">(templates, skills)</text>
</a>
</g>
</g>
<!-- scion&#45;&gt;Templates &amp; Skills -->
<g id="edge5" class="edge">
<title>scion&#45;&gt;Templates &amp; Skills</title>
<path fill="none" stroke="#696969" d="M909.38,-1354.72C943.57,-1287.44 1067.8,-1035.7 1128.5,-814.25 1183.75,-612.67 1204.88,-360.2 1210.69,-275.89"/>
<polygon fill="#696969" stroke="#696969" points="1214.17,-276.21 1211.35,-266 1207.19,-275.74 1214.17,-276.21"/>
<text xml:space="preserve" text-anchor="middle" x="1158.5" y="-804.75" font-family="Arial" font-size="10.00">utilizes</text>
</g>
<!-- Utilities -->
<g id="node7" class="node">
<title>Utilities</title>
<g id="a_node7"><a xlink:href="cmd/build.go cmd/clean.go cmd/doctor.go cmd/version.go cmd/whoami.go" xlink:title="Utilities\n(build, clean, doctor, version, whoami)">
<polygon fill="lightblue" stroke="black" points="1618.75,-264 1310.25,-264 1310.25,-228 1618.75,-228 1618.75,-264"/>
<text xml:space="preserve" text-anchor="middle" x="1464.5" y="-243.2" font-family="Arial" font-size="14.00">Utilities</text>
<text xml:space="preserve" text-anchor="middle" x="1464.5" y="-232.7" font-family="Arial" font-size="14.00">(build, clean, doctor, version, whoami)</text>
</a>
</g>
</g>
<!-- scion&#45;&gt;Utilities -->
<g id="edge6" class="edge">
<title>scion&#45;&gt;Utilities</title>
<path fill="none" stroke="#696969" d="M909.81,-1354.77C946.54,-1286.62 1084.74,-1029.21 1192.5,-814.25 1295.69,-608.43 1413.38,-356.92 1451.71,-274.55"/>
<polygon fill="#696969" stroke="#696969" points="1454.8,-276.2 1455.85,-265.65 1448.46,-273.24 1454.8,-276.2"/>
<text xml:space="preserve" text-anchor="middle" x="1222.5" y="-804.75" font-family="Arial" font-size="10.00">provides</text>
</g>
</g>
</svg>
