<?xml version="1.0" encoding="UTF-8" standalone="no"?>
<!DOCTYPE svg PUBLIC "-//W3C//DTD SVG 1.1//EN"
 "http://www.w3.org/Graphics/SVG/1.1/DTD/svg11.dtd">
<!-- Generated by graphviz version 2.44.1 (20201121.0304)
 -->
<!-- Title: G Pages: 1 -->
<svg width="526pt" height="526pt"
 viewBox="0.00 0.00 526.00 526.00" xmlns="http://www.w3.org/2000/svg" xmlns:xlink="http://www.w3.org/1999/xlink"><style>
  * {
    fill: transparent !important;
    stroke: #1f1f1f !important;
    stroke-width: 1 !important;
  }
  polygon:not(.cluster *, .node *, .edge *, text) {
    stroke: transparent !important;
  }
  text {
    font-size: 10px !important;
    font-family: monospace !important;
    fill: #1f1f1f !important;
    stroke: transparent !important;
    transform: translateY(-0.5em);
  }
</style>
<g id="graph0" class="graph" transform="scale(1 1) rotate(0) translate(4 522)">
<title>G</title>
<polygon fill="white" stroke="none" points="-4,4 -4,-522 522,-522 522,4 -4,4"/>
<!-- AgentConfiguration -->
<g id="node1" class="node">
<title>AgentConfiguration</title>
<polygon fill="lightblue" stroke="black" points="266.5,-511 108,-511 108,-475 266.5,-475 266.5,-511"/>
<text xml:space="preserve" text-anchor="middle" x="187.25" y="-484.95" font-family="Times,serif" font-size="14.00">Agent Configuration</text>
</g>
<!-- HarnessResolution -->
<g id="node2" class="node">
<title>HarnessResolution</title>
<polygon fill="lightblue" stroke="black" points="285.25,-394 89.25,-394 89.25,-358 285.25,-358 285.25,-394"/>
<text xml:space="preserve" text-anchor="middle" x="187.25" y="-367.95" font-family="Times,serif" font-size="14.00">Harness Resolution Logic</text>
</g>
<!-- AgentConfiguration&#45;&gt;HarnessResolution -->
<g id="edge1" class="edge">
<title>AgentConfiguration&#45;&gt;HarnessResolution</title>
<path fill="none" stroke="black" d="M187.25,-474.53C187.25,-456.28 187.25,-427.33 187.25,-405.7"/>
<polygon fill="black" stroke="black" points="190.75,-405.77 187.25,-395.77 183.75,-405.77 190.75,-405.77"/>
<text xml:space="preserve" text-anchor="middle" x="224.75" y="-425.95" font-family="Times,serif" font-size="14.00">determines</text>
</g>
<!-- HarnessImplementations -->
<g id="node3" class="node">
<title>HarnessImplementations</title>
<polygon fill="lightblue" stroke="black" points="281.5,-277 93,-277 93,-241 281.5,-241 281.5,-277"/>
<text xml:space="preserve" text-anchor="middle" x="187.25" y="-250.95" font-family="Times,serif" font-size="14.00">Harness Implementations</text>
</g>
<!-- HarnessResolution&#45;&gt;HarnessImplementations -->
<g id="edge2" class="edge">
<title>HarnessResolution&#45;&gt;HarnessImplementations</title>
<path fill="none" stroke="black" d="M187.25,-357.53C187.25,-339.28 187.25,-310.33 187.25,-288.7"/>
<polygon fill="black" stroke="black" points="190.75,-288.77 187.25,-278.77 183.75,-288.77 190.75,-288.77"/>
<text xml:space="preserve" text-anchor="middle" x="213.5" y="-308.95" font-family="Times,serif" font-size="14.00">selects</text>
</g>
<!-- HarnessInterface -->
<g id="node4" class="node">
<title>HarnessInterface</title>
<polygon fill="lightblue" stroke="black" points="518,-277 374.5,-277 374.5,-241 518,-241 518,-277"/>
<text xml:space="preserve" text-anchor="middle" x="446.25" y="-250.95" font-family="Times,serif" font-size="14.00">Harness Interface</text>
</g>
<!-- HarnessImplementations&#45;&gt;HarnessInterface -->
<g id="edge3" class="edge">
<title>HarnessImplementations&#45;&gt;HarnessInterface</title>
<path fill="none" stroke="black" d="M281.85,-259C308.41,-259 337.09,-259 362.94,-259"/>
<polygon fill="black" stroke="black" points="362.7,-262.5 372.7,-259 362.7,-255.5 362.7,-262.5"/>
<text xml:space="preserve" text-anchor="middle" x="328" y="-259.2" font-family="Times,serif" font-size="14.00">implements</text>
</g>
<!-- KeyHarnessActions -->
<g id="node5" class="node">
<title>KeyHarnessActions</title>
<polygon fill="lightblue" stroke="black" points="158.5,-160 0,-160 0,-124 158.5,-124 158.5,-160"/>
<text xml:space="preserve" text-anchor="middle" x="79.25" y="-133.95" font-family="Times,serif" font-size="14.00">Key Harness Actions</text>
</g>
<!-- HarnessImplementations&#45;&gt;KeyHarnessActions -->
<g id="edge4" class="edge">
<title>HarnessImplementations&#45;&gt;KeyHarnessActions</title>
<path fill="none" stroke="black" d="M170.85,-240.53C152.82,-221.34 123.7,-190.33 103.14,-168.44"/>
<polygon fill="black" stroke="black" points="105.89,-166.25 96.49,-161.36 100.78,-171.04 105.89,-166.25"/>
<text xml:space="preserve" text-anchor="middle" x="166.49" y="-192.95" font-family="Times,serif" font-size="14.00">performs</text>
</g>
<!-- AuthGathering -->
<g id="node6" class="node">
<title>AuthGathering</title>
<polygon fill="lightblue" stroke="black" points="249.25,-43 23.25,-43 23.25,-7 249.25,-7 249.25,-43"/>
<text xml:space="preserve" text-anchor="middle" x="136.25" y="-16.95" font-family="Times,serif" font-size="14.00">Auth Gathering &amp; Application</text>
</g>
<!-- KeyHarnessActions&#45;&gt;AuthGathering -->
<g id="edge6" class="edge">
<title>KeyHarnessActions&#45;&gt;AuthGathering</title>
<path fill="none" stroke="black" d="M50.12,-123.64C33.84,-111.62 18.67,-94.93 28.75,-78.75 36.8,-65.83 49.04,-55.99 62.42,-48.51"/>
<polygon fill="black" stroke="black" points="63.64,-51.82 70.96,-44.17 60.46,-45.58 63.64,-51.82"/>
<text xml:space="preserve" text-anchor="middle" x="130" y="-75.95" font-family="Times,serif" font-size="14.00">influences auth application</text>
</g>
<!-- AuthGathering&#45;&gt;HarnessImplementations -->
<g id="edge5" class="edge">
<title>AuthGathering&#45;&gt;HarnessImplementations</title>
<path fill="none" stroke="black" d="M189.43,-43.27C205.75,-51.35 221.87,-62.82 231.25,-78.75 260,-127.59 228.02,-194.51 205.5,-231.21"/>
<polygon fill="black" stroke="black" points="202.68,-229.12 200.27,-239.44 208.59,-232.88 202.68,-229.12"/>
<text xml:space="preserve" text-anchor="middle" x="332.65" y="-133.95" font-family="Times,serif" font-size="14.00">prepares credentials for</text>
</g>
</g>
</svg>
