<?xml version="1.0" encoding="UTF-8" standalone="no"?>
<!DOCTYPE svg PUBLIC "-//W3C//DTD SVG 1.1//EN"
 "http://www.w3.org/Graphics/SVG/1.1/DTD/svg11.dtd">
<!-- Generated by graphviz version 2.44.1 (20201121.0304)
 -->
<!-- Title: G Pages: 1 -->
<svg width="705pt" height="520pt"
 viewBox="0.00 0.00 705.00 520.00" xmlns="http://www.w3.org/2000/svg" xmlns:xlink="http://www.w3.org/1999/xlink"><style>
  * {
    fill: transparent !important;
    stroke: #1f1f1f !important;
    stroke-width: 1 !important;
  }
  polygon:not(.cluster *, .node *, .edge *, text) {
    stroke: transparent !important;
  }
  text {
    font-size: 10px !important;
    font-family: monospace !important;
    fill: #1f1f1f !important;
    stroke: transparent !important;
    transform: translateY(-0.5em);
  }
</style>
<g id="graph0" class="graph" transform="scale(1 1) rotate(0) translate(4 516.25)">
<title>G</title>
<polygon fill="white" stroke="none" points="-4,4 -4,-516.25 701.49,-516.25 701.49,4 -4,4"/>
<!-- Scion Hub -->
<g id="node1" class="node">
<title>Scion Hub</title>
<polygon fill="lightblue" stroke="black" points="373.03,-452 244.53,-452 244.53,-416 373.03,-416 373.03,-452"/>
<text xml:space="preserve" text-anchor="middle" x="308.78" y="-431.2" font-family="Helvetica,sans-Serif" font-size="14.00">Scion Hub</text>
<text xml:space="preserve" text-anchor="middle" x="308.78" y="-420.7" font-family="Helvetica,sans-Serif" font-size="14.00">(Control Plane)</text>
</g>
<!-- GKE Cluster -->
<g id="node2" class="node">
<title>GKE Cluster</title>
<polygon fill="lightblue" stroke="black" points="178.03,-96 49.53,-96 49.53,-60 178.03,-60 178.03,-96"/>
<text xml:space="preserve" text-anchor="middle" x="113.78" y="-75.2" font-family="Helvetica,sans-Serif" font-size="14.00">GKE Cluster</text>
<text xml:space="preserve" text-anchor="middle" x="113.78" y="-64.7" font-family="Helvetica,sans-Serif" font-size="14.00">(Agent Runtime)</text>
</g>
<!-- Scion Hub&#45;&gt;GKE Cluster -->
<g id="edge1" class="edge">
<title>Scion Hub&#45;&gt;GKE Cluster</title>
<path fill="none" stroke="#333333" d="M244.19,-416.76C172.3,-394.84 59.61,-348.12 9.28,-261.25 -23.33,-204.94 40.26,-138.6 81.81,-103.56"/>
<polygon fill="#333333" stroke="#333333" points="83.89,-106.39 89.39,-97.33 79.44,-100.98 83.89,-106.39"/>
<text xml:space="preserve" text-anchor="middle" x="103.03" y="-247.95" font-family="Times,serif" font-size="14.00">Manages Agents &amp; Identity</text>
</g>
<!-- GitHub -->
<g id="node3" class="node">
<title>GitHub</title>
<polygon fill="lightblue" stroke="black" points="561.78,-96 425.78,-96 425.78,-60 561.78,-60 561.78,-96"/>
<text xml:space="preserve" text-anchor="middle" x="493.78" y="-75.2" font-family="Helvetica,sans-Serif" font-size="14.00">GitHub</text>
<text xml:space="preserve" text-anchor="middle" x="493.78" y="-64.7" font-family="Helvetica,sans-Serif" font-size="14.00">(Source Control)</text>
</g>
<!-- Scion Hub&#45;&gt;GitHub -->
<g id="edge3" class="edge">
<title>Scion Hub&#45;&gt;GitHub</title>
<path fill="none" stroke="#333333" d="M317.37,-415.58C333.45,-383.04 369.33,-310.9 400.78,-250.75 427.58,-199.51 459.95,-140.32 478.57,-106.51"/>
<polygon fill="#333333" stroke="#333333" points="481.61,-108.24 483.38,-97.79 475.48,-104.86 481.61,-108.24"/>
<text xml:space="preserve" text-anchor="middle" x="483.28" y="-247.95" font-family="Times,serif" font-size="14.00">GitHub App Integration</text>
</g>
<!-- GKE Cluster&#45;&gt;Scion Hub -->
<g id="edge2" class="edge">
<title>GKE Cluster&#45;&gt;Scion Hub</title>
<path fill="none" stroke="#333333" d="M123.32,-96.32C154.85,-153.56 255.88,-336.96 294.02,-406.2"/>
<polygon fill="#333333" stroke="#333333" points="290.76,-407.53 298.65,-414.6 296.89,-404.15 290.76,-407.53"/>
<text xml:space="preserve" text-anchor="middle" x="290.03" y="-247.95" font-family="Times,serif" font-size="14.00">Reports Status &amp; Logs</text>
</g>
<!-- GitHub&#45;&gt;Scion Hub -->
<g id="edge4" class="edge">
<title>GitHub&#45;&gt;Scion Hub</title>
<path fill="none" stroke="#333333" d="M510.57,-96.42C540.39,-129.55 596.65,-203.49 565.78,-261.25 524.89,-337.76 433.17,-386.12 371.12,-411.38"/>
<polygon fill="#333333" stroke="#333333" points="370.07,-408.03 362.07,-414.98 372.65,-414.54 370.07,-408.03"/>
<text xml:space="preserve" text-anchor="middle" x="633.74" y="-247.95" font-family="Times,serif" font-size="14.00">Webhooks &amp; Tokens</text>
</g>
</g>
</svg>
