<?xml version="1.0" encoding="UTF-8" standalone="no"?>
<!DOCTYPE svg PUBLIC "-//W3C//DTD SVG 1.1//EN"
 "http://www.w3.org/Graphics/SVG/1.1/DTD/svg11.dtd">
<!-- Generated by graphviz version 2.44.1 (20201121.0304)
 -->
<!-- Title: G Pages: 1 -->
<svg width="1438pt" height="1438pt"
 viewBox="0.00 0.00 1438.00 1438.00" xmlns="http://www.w3.org/2000/svg" xmlns:xlink="http://www.w3.org/1999/xlink"><style>
  * {
    fill: transparent !important;
    stroke: #1f1f1f !important;
    stroke-width: 1 !important;
  }
  polygon:not(.cluster *, .node *, .edge *, text) {
    stroke: transparent !important;
  }
  text {
    font-size: 10px !important;
    font-family: monospace !important;
    fill: #1f1f1f !important;
    stroke: transparent !important;
    transform: translateY(-0.5em);
  }
</style>
<g id="graph0" class="graph" transform="scale(1 1) rotate(0) translate(4 1434)">
<title>G</title>
<polygon fill="white" stroke="none" points="-4,4 -4,-1434 1434,-1434 1434,4 -4,4"/>
<!-- FabricConfig -->
<g id="node1" class="node">
<title>FabricConfig</title>
<polygon fill="lightblue" stroke="black" points="852.25,-1270.25 536.25,-1270.25 536.25,-1167.75 852.25,-1167.75 852.25,-1270.25"/>
<text xml:space="preserve" text-anchor="middle" x="694.25" y="-1252.95" font-family="Times,serif" font-size="14.00">{FabricConfig|HarnessConfig: string</text>
<text xml:space="preserve" text-anchor="middle" x="694.25" y="-1242.45" font-family="Times,serif" font-size="14.00">Volumes: []VolumeMount</text>
<text xml:space="preserve" text-anchor="middle" x="694.25" y="-1231.95" font-family="Times,serif" font-size="14.00">Services: []ServiceSpec</text>
<text xml:space="preserve" text-anchor="middle" x="694.25" y="-1221.45" font-family="Times,serif" font-size="14.00">MCPServers: map&lt;string, MCPServerConfig&gt;</text>
<text xml:space="preserve" text-anchor="middle" x="694.25" y="-1210.95" font-family="Times,serif" font-size="14.00">Kubernetes: *KubernetesConfig</text>
<text xml:space="preserve" text-anchor="middle" x="694.25" y="-1200.45" font-family="Times,serif" font-size="14.00">Telemetry: *TelemetryConfig</text>
<text xml:space="preserve" text-anchor="middle" x="694.25" y="-1189.95" font-family="Times,serif" font-size="14.00">Hub: *AgentHubConfig</text>
<text xml:space="preserve" text-anchor="middle" x="694.25" y="-1179.45" font-family="Times,serif" font-size="14.00">Secrets: []RequiredSecret</text>
<text xml:space="preserve" text-anchor="middle" x="694.25" y="-1168.95" font-family="Times,serif" font-size="14.00">Skills: []SkillReference}</text>
</g>
<!-- HarnessInterface -->
<g id="node2" class="node">
<title>HarnessInterface</title>
<polygon fill="lightblue" stroke="black" points="574,-707.5 370.5,-707.5 370.5,-636.5 574,-636.5 574,-707.5"/>
<text xml:space="preserve" text-anchor="middle" x="472.25" y="-690.2" font-family="Times,serif" font-size="14.00">{Harness Interface|Name()</text>
<text xml:space="preserve" text-anchor="middle" x="472.25" y="-679.7" font-family="Times,serif" font-size="14.00">Provision()</text>
<text xml:space="preserve" text-anchor="middle" x="472.25" y="-669.2" font-family="Times,serif" font-size="14.00">ResolveAuth()</text>
<text xml:space="preserve" text-anchor="middle" x="472.25" y="-658.7" font-family="Times,serif" font-size="14.00">ApplyAuthSettings()</text>
<text xml:space="preserve" text-anchor="middle" x="472.25" y="-648.2" font-family="Times,serif" font-size="14.00">ApplyTelemetrySettings()</text>
<text xml:space="preserve" text-anchor="middle" x="472.25" y="-637.7" font-family="Times,serif" font-size="14.00">ApplyMCPSettings()}</text>
</g>
<!-- FabricConfig&#45;&gt;HarnessInterface -->
<g id="edge1" class="edge">
<title>FabricConfig&#45;&gt;HarnessInterface</title>
<path fill="none" stroke="black" d="M673.76,-1167.7C630.78,-1062.19 531.78,-819.15 490.67,-718.22"/>
<polygon fill="black" stroke="black" points="494,-717.11 486.98,-709.17 487.51,-719.75 494,-717.11"/>
</g>
<!-- AgentInfoNode -->
<g id="node3" class="node">
<title>AgentInfoNode</title>
<polygon fill="lightblue" stroke="black" points="1118,-718 884.5,-718 884.5,-626 1118,-626 1118,-718"/>
<text xml:space="preserve" text-anchor="middle" x="1001.25" y="-700.7" font-family="Times,serif" font-size="14.00">{AgentInfo|ID: string</text>
<text xml:space="preserve" text-anchor="middle" x="1001.25" y="-690.2" font-family="Times,serif" font-size="14.00">Name: string</text>
<text xml:space="preserve" text-anchor="middle" x="1001.25" y="-679.7" font-family="Times,serif" font-size="14.00">Project: string</text>
<text xml:space="preserve" text-anchor="middle" x="1001.25" y="-669.2" font-family="Times,serif" font-size="14.00">ContainerStatus: string</text>
<text xml:space="preserve" text-anchor="middle" x="1001.25" y="-658.7" font-family="Times,serif" font-size="14.00">Phase: string</text>
<text xml:space="preserve" text-anchor="middle" x="1001.25" y="-648.2" font-family="Times,serif" font-size="14.00">Activity: string</text>
<text xml:space="preserve" text-anchor="middle" x="1001.25" y="-637.7" font-family="Times,serif" font-size="14.00">Kubernetes: *AgentK8sMetadata</text>
<text xml:space="preserve" text-anchor="middle" x="1001.25" y="-627.2" font-family="Times,serif" font-size="14.00">Created: time.Time}</text>
</g>
<!-- FabricConfig&#45;&gt;AgentInfoNode -->
<g id="edge2" class="edge">
<title>FabricConfig&#45;&gt;AgentInfoNode</title>
<path fill="none" stroke="black" d="M722.58,-1167.7C780.17,-1065.47 910.5,-834.1 970.26,-728.02"/>
<polygon fill="black" stroke="black" points="973.22,-729.9 975.07,-719.47 967.12,-726.46 973.22,-729.9"/>
</g>
<!-- AuthConfigNode -->
<g id="node4" class="node">
<title>AuthConfigNode</title>
<polygon fill="lightblue" stroke="black" points="878.5,-207.75 510,-207.75 510,-126.25 878.5,-126.25 878.5,-207.75"/>
<text xml:space="preserve" text-anchor="middle" x="694.25" y="-190.45" font-family="Times,serif" font-size="14.00">{AuthConfig &amp; ResolvedAuth|GeminiAPIKey: string</text>
<text xml:space="preserve" text-anchor="middle" x="694.25" y="-179.95" font-family="Times,serif" font-size="14.00">OpenAIAPIKey: string</text>
<text xml:space="preserve" text-anchor="middle" x="694.25" y="-169.45" font-family="Times,serif" font-size="14.00">SelectedType: string</text>
<text xml:space="preserve" text-anchor="middle" x="694.25" y="-158.95" font-family="Times,serif" font-size="14.00">&#45;&#45;&#45;</text>
<text xml:space="preserve" text-anchor="middle" x="694.25" y="-148.45" font-family="Times,serif" font-size="14.00">Method: string</text>
<text xml:space="preserve" text-anchor="middle" x="694.25" y="-137.95" font-family="Times,serif" font-size="14.00">EnvVars: map&lt;string,string&gt;</text>
<text xml:space="preserve" text-anchor="middle" x="694.25" y="-127.45" font-family="Times,serif" font-size="14.00">Files: []FileMapping}</text>
</g>
<!-- HarnessInterface&#45;&gt;AuthConfigNode -->
<g id="edge3" class="edge">
<title>HarnessInterface&#45;&gt;AuthConfigNode</title>
<path fill="none" stroke="black" d="M487.68,-636.03C526.24,-548.67 626.9,-320.6 671.92,-218.59"/>
<polygon fill="black" stroke="black" points="675.04,-220.19 675.88,-209.63 668.64,-217.36 675.04,-220.19"/>
</g>
<!-- TelemetryConfigNode -->
<g id="node5" class="node">
<title>TelemetryConfigNode</title>
<polygon fill="lightblue" stroke="black" points="248.5,-192 0,-192 0,-142 248.5,-142 248.5,-192"/>
<text xml:space="preserve" text-anchor="middle" x="124.25" y="-174.7" font-family="Times,serif" font-size="14.00">{TelemetryConfig|Enabled: *bool</text>
<text xml:space="preserve" text-anchor="middle" x="124.25" y="-164.2" font-family="Times,serif" font-size="14.00">Cloud: *TelemetryCloudConfig</text>
<text xml:space="preserve" text-anchor="middle" x="124.25" y="-153.7" font-family="Times,serif" font-size="14.00">Hub: *TelemetryHubConfig</text>
<text xml:space="preserve" text-anchor="middle" x="124.25" y="-143.2" font-family="Times,serif" font-size="14.00">Local: *TelemetryLocalConfig}</text>
</g>
<!-- HarnessInterface&#45;&gt;TelemetryConfigNode -->
<g id="edge4" class="edge">
<title>HarnessInterface&#45;&gt;TelemetryConfigNode</title>
<path fill="none" stroke="black" d="M448.06,-636.03C383.96,-543.38 210.37,-292.49 147.44,-201.52"/>
<polygon fill="black" stroke="black" points="150.44,-199.7 141.87,-193.47 144.68,-203.69 150.44,-199.7"/>
</g>
<!-- HarnessCapabilities -->
<g id="node6" class="node">
<title>HarnessCapabilities</title>
<polygon fill="lightblue" stroke="black" points="492.25,-202.5 266.25,-202.5 266.25,-131.5 492.25,-131.5 492.25,-202.5"/>
<text xml:space="preserve" text-anchor="middle" x="379.25" y="-185.2" font-family="Times,serif" font-size="14.00">{Harness Capabilities|Limits</text>
<text xml:space="preserve" text-anchor="middle" x="379.25" y="-174.7" font-family="Times,serif" font-size="14.00">Telemetry</text>
<text xml:space="preserve" text-anchor="middle" x="379.25" y="-164.2" font-family="Times,serif" font-size="14.00">Prompts</text>
<text xml:space="preserve" text-anchor="middle" x="379.25" y="-153.7" font-family="Times,serif" font-size="14.00">Auth</text>
<text xml:space="preserve" text-anchor="middle" x="379.25" y="-143.2" font-family="Times,serif" font-size="14.00">MCP</text>
<text xml:space="preserve" text-anchor="middle" x="379.25" y="-132.7" font-family="Times,serif" font-size="14.00">Resume}</text>
</g>
<!-- HarnessInterface&#45;&gt;HarnessCapabilities -->
<g id="edge5" class="edge">
<title>HarnessInterface&#45;&gt;HarnessCapabilities</title>
<path fill="none" stroke="black" d="M465.78,-636.03C449.38,-547.31 406.14,-313.46 387.74,-213.91"/>
<polygon fill="black" stroke="black" points="391.21,-213.42 385.95,-204.23 384.32,-214.7 391.21,-213.42"/>
</g>
<!-- AgentActions -->
<g id="node7" class="node">
<title>AgentActions</title>
<polygon fill="lightblue" stroke="black" points="1430,-185 896.5,-185 896.5,-149 1430,-149 1430,-185"/>
<text xml:space="preserve" text-anchor="middle" x="1163.25" y="-158.95" font-family="Times,serif" font-size="14.00">{Agent Actions|Start, Stop, Message, Exec, Status, Logs, Stats, etc.}</text>
</g>
<!-- AgentInfoNode&#45;&gt;AgentActions -->
<g id="edge6" class="edge">
<title>AgentInfoNode&#45;&gt;AgentActions</title>
<path fill="none" stroke="black" d="M1015.77,-625.92C1048.52,-524.23 1127.37,-279.4 1154.16,-196.21"/>
<polygon fill="black" stroke="black" points="1157.46,-197.39 1157.19,-186.8 1150.8,-195.25 1157.46,-197.39"/>
</g>
<!-- AuthConfigNode&#45;&gt;FabricConfig -->
<g id="edge7" class="edge">
<title>AuthConfigNode&#45;&gt;FabricConfig</title>
<path fill="none" stroke="black" d="M694.25,-208.22C694.25,-368.41 694.25,-961.67 694.25,-1155.96"/>
<polygon fill="black" stroke="black" points="690.75,-1155.84 694.25,-1165.84 697.75,-1155.84 690.75,-1155.84"/>
</g>
</g>
</svg>
