<?xml version="1.0" encoding="UTF-8" standalone="no"?>
<!DOCTYPE svg PUBLIC "-//W3C//DTD SVG 1.1//EN"
 "http://www.w3.org/Graphics/SVG/1.1/DTD/svg11.dtd">
<!-- Generated by graphviz version 2.44.1 (20201121.0304)
 -->
<!-- Title: G Pages: 1 -->
<svg width="547pt" height="492pt"
 viewBox="0.00 0.00 547.00 492.00" xmlns="http://www.w3.org/2000/svg" xmlns:xlink="http://www.w3.org/1999/xlink"><style>
  * {
    fill: transparent !important;
    stroke: #1f1f1f !important;
    stroke-width: 1 !important;
  }
  polygon:not(.cluster *, .node *, .edge *, text) {
    stroke: transparent !important;
  }
  text {
    font-size: 10px !important;
    font-family: monospace !important;
    fill: #1f1f1f !important;
    stroke: transparent !important;
    transform: translateY(-0.5em);
  }
</style>
<g id="graph0" class="graph" transform="scale(1 1) rotate(0) translate(4 487.5)">
<title>G</title>
<polygon fill="white" stroke="none" points="-4,4 -4,-487.5 542.68,-487.5 542.68,4 -4,4"/>
<!-- Hub API -->
<g id="node1" class="node">
<title>Hub API</title>
<polygon fill="lightblue" stroke="black" points="306.5,-458 125.5,-458 125.5,-422 306.5,-422 306.5,-458"/>
<text xml:space="preserve" text-anchor="middle" x="216" y="-431.95" font-family="Times,serif" font-size="14.00">Hub API (Agent Source)</text>
</g>
<!-- agentcache Package -->
<g id="node2" class="node">
<title>agentcache Package</title>
<polygon fill="lightblue" stroke="black" points="377.75,-260 54.25,-260 54.25,-224 377.75,-224 377.75,-260"/>
<text xml:space="preserve" text-anchor="middle" x="216" y="-239.2" font-family="Times,serif" font-size="14.00">agentcache Package</text>
<text xml:space="preserve" text-anchor="middle" x="216" y="-228.7" font-family="Times,serif" font-size="14.00">(ReadCache, WriteCache, GenerateCacheKey)</text>
</g>
<!-- Hub API&#45;&gt;agentcache Package -->
<g id="edge1" class="edge">
<title>Hub API&#45;&gt;agentcache Package</title>
<path fill="none" stroke="black" d="M216,-421.61C216,-387.83 216,-313.05 216,-271.77"/>
<polygon fill="black" stroke="black" points="219.5,-271.87 216,-261.87 212.5,-271.87 219.5,-271.87"/>
<text xml:space="preserve" text-anchor="middle" x="272.25" y="-332.95" font-family="Times,serif" font-size="14.00">Provides Agents</text>
</g>
<!-- Filesystem Cache -->
<g id="node3" class="node">
<title>Filesystem Cache</title>
<polygon fill="lightblue" stroke="black" points="226,-61 0,-61 0,-25 226,-25 226,-61"/>
<text xml:space="preserve" text-anchor="middle" x="113" y="-40.2" font-family="Times,serif" font-size="14.00">Filesystem Cache</text>
<text xml:space="preserve" text-anchor="middle" x="113" y="-29.7" font-family="Times,serif" font-size="14.00">(~/.fabric/cache/agent&#45;names)</text>
</g>
<!-- agentcache Package&#45;&gt;Filesystem Cache -->
<g id="edge2" class="edge">
<title>agentcache Package&#45;&gt;Filesystem Cache</title>
<path fill="none" stroke="black" d="M158.35,-223.51C122.71,-209.38 79.84,-185.58 58.5,-148.25 43.29,-121.64 64.64,-90.4 84.92,-69.11"/>
<polygon fill="black" stroke="black" points="87.18,-71.8 91.78,-62.26 82.23,-66.85 87.18,-71.8"/>
<text xml:space="preserve" text-anchor="middle" x="122.25" y="-134.95" font-family="Times,serif" font-size="14.00">Writes/Reads JSON</text>
</g>
<!-- Shell Completion -->
<g id="node4" class="node">
<title>Shell Completion</title>
<polygon fill="lightblue" stroke="black" points="483.5,-61 272.5,-61 272.5,-25 483.5,-25 483.5,-61"/>
<text xml:space="preserve" text-anchor="middle" x="378" y="-34.95" font-family="Times,serif" font-size="14.00">Shell Completion Component</text>
</g>
<!-- agentcache Package&#45;&gt;Shell Completion -->
<g id="edge4" class="edge">
<title>agentcache Package&#45;&gt;Shell Completion</title>
<path fill="none" stroke="black" d="M214.98,-223.76C214.54,-201.94 216.67,-164.03 234,-137.75 255.33,-105.42 292.06,-81.77 323.08,-66.31"/>
<polygon fill="black" stroke="black" points="324.49,-69.52 331.99,-62.04 321.46,-63.21 324.49,-69.52"/>
<text xml:space="preserve" text-anchor="middle" x="309" y="-134.95" font-family="Times,serif" font-size="14.00">Supplies Agent Names</text>
</g>
<!-- Filesystem Cache&#45;&gt;agentcache Package -->
<g id="edge3" class="edge">
<title>Filesystem Cache&#45;&gt;agentcache Package</title>
<path fill="none" stroke="black" d="M129.76,-61.26C146.23,-79.08 170.99,-108.36 186,-137.75 198.19,-161.62 206.15,-191.21 210.78,-212.58"/>
<polygon fill="black" stroke="black" points="207.34,-213.23 212.77,-222.33 214.2,-211.83 207.34,-213.23"/>
</g>
<!-- Shell Completion&#45;&gt;agentcache Package -->
<g id="edge5" class="edge">
<title>Shell Completion&#45;&gt;agentcache Package</title>
<path fill="none" stroke="black" d="M384.51,-61.25C391.6,-83.13 399.94,-121.24 384,-148.25 363.67,-182.7 325.45,-205.24 290.59,-219.46"/>
<polygon fill="black" stroke="black" points="289.37,-216.18 281.32,-223.06 291.91,-222.71 289.37,-216.18"/>
<text xml:space="preserve" text-anchor="middle" x="463.68" y="-134.95" font-family="Times,serif" font-size="14.00">Requests Agent Names</text>
</g>
</g>
</svg>
