<?xml version="1.0" encoding="UTF-8" standalone="no"?>
<!DOCTYPE svg PUBLIC "-//W3C//DTD SVG 1.1//EN"
 "http://www.w3.org/Graphics/SVG/1.1/DTD/svg11.dtd">
<!-- Generated by graphviz version 2.44.1 (20201121.0304)
 -->
<!-- Title: G Pages: 1 -->
<svg width="380pt" height="351pt"
 viewBox="0.00 0.00 380.00 351.00" xmlns="http://www.w3.org/2000/svg" xmlns:xlink="http://www.w3.org/1999/xlink"><style>
  * {
    fill: transparent !important;
    stroke: #1f1f1f !important;
    stroke-width: 1 !important;
  }
  polygon:not(.cluster *, .node *, .edge *, text) {
    stroke: transparent !important;
  }
  text {
    font-size: 10px !important;
    font-family: monospace !important;
    fill: #1f1f1f !important;
    stroke: transparent !important;
    transform: translateY(-0.5em);
  }
</style>
<g id="graph0" class="graph" transform="scale(1 1) rotate(0) translate(4 347)">
<title>G</title>
<polygon fill="white" stroke="none" points="-4,4 -4,-347 376.36,-347 376.36,4 -4,4"/>
<!-- Project -->
<g id="node1" class="node">
<title>Project</title>
<polygon fill="lightblue" stroke="black" points="305.5,-190 199.5,-190 199.5,-154 305.5,-154 305.5,-190"/>
<text xml:space="preserve" text-anchor="middle" x="252.5" y="-169.2" font-family="Times,serif" font-size="14.00">Project</text>
<text xml:space="preserve" text-anchor="middle" x="252.5" y="-158.7" font-family="Times,serif" font-size="14.00">(.scion dir)</text>
</g>
<!-- Agent -->
<g id="node2" class="node">
<title>Agent</title>
<polygon fill="lightblue" stroke="black" points="343,-49 162,-49 162,-13 343,-13 343,-49"/>
<text xml:space="preserve" text-anchor="middle" x="252.5" y="-28.2" font-family="Times,serif" font-size="14.00">Agent</text>
<text xml:space="preserve" text-anchor="middle" x="252.5" y="-17.7" font-family="Times,serif" font-size="14.00">(Container, Workspace)</text>
</g>
<!-- Project&#45;&gt;Agent -->
<g id="edge1" class="edge">
<title>Project&#45;&gt;Agent</title>
<path fill="none" stroke="black" d="M252.5,-153.68C252.5,-130.35 252.5,-88.53 252.5,-60.53"/>
<polygon fill="black" stroke="black" points="256,-60.62 252.5,-50.62 249,-60.62 256,-60.62"/>
<text xml:space="preserve" text-anchor="middle" x="275" y="-92.95" font-family="Times,serif" font-size="14.00">Groups</text>
</g>
<!-- Template -->
<g id="node3" class="node">
<title>Template</title>
<polygon fill="lightblue" stroke="black" points="181,-190 0,-190 0,-154 181,-154 181,-190"/>
<text xml:space="preserve" text-anchor="middle" x="90.5" y="-169.2" font-family="Times,serif" font-size="14.00">Template</text>
<text xml:space="preserve" text-anchor="middle" x="90.5" y="-158.7" font-family="Times,serif" font-size="14.00">(Blueprint for Agents)</text>
</g>
<!-- Template&#45;&gt;Agent -->
<g id="edge2" class="edge">
<title>Template&#45;&gt;Agent</title>
<path fill="none" stroke="black" d="M110.69,-153.68C139.14,-129.26 191.19,-84.61 223.7,-56.71"/>
<polygon fill="black" stroke="black" points="225.85,-59.48 231.16,-50.31 221.29,-54.16 225.85,-59.48"/>
<text xml:space="preserve" text-anchor="middle" x="202.61" y="-92.95" font-family="Times,serif" font-size="14.00">Creates</text>
</g>
<!-- Harness -->
<g id="node4" class="node">
<title>Harness</title>
<polygon fill="lightblue" stroke="black" points="138.75,-330 10.25,-330 10.25,-294 138.75,-294 138.75,-330"/>
<text xml:space="preserve" text-anchor="middle" x="74.5" y="-309.2" font-family="Times,serif" font-size="14.00">Harness</text>
<text xml:space="preserve" text-anchor="middle" x="74.5" y="-298.7" font-family="Times,serif" font-size="14.00">(LLM Interface)</text>
</g>
<!-- Harness&#45;&gt;Template -->
<g id="edge3" class="edge">
<title>Harness&#45;&gt;Template</title>
<path fill="none" stroke="black" d="M73.67,-293.52C73.2,-278.43 73.13,-256.07 75.5,-236.75 76.94,-225.06 79.66,-212.4 82.4,-201.47"/>
<polygon fill="black" stroke="black" points="85.77,-202.43 84.94,-191.87 79,-200.64 85.77,-202.43"/>
<text xml:space="preserve" text-anchor="middle" x="120.5" y="-233.95" font-family="Times,serif" font-size="14.00">Defines type</text>
</g>
<!-- ScionCLI -->
<g id="node5" class="node">
<title>ScionCLI</title>
<polygon fill="lightblue" stroke="black" points="331.5,-330 195.5,-330 195.5,-294 331.5,-294 331.5,-330"/>
<text xml:space="preserve" text-anchor="middle" x="263.5" y="-309.2" font-family="Times,serif" font-size="14.00">Scion CLI</text>
<text xml:space="preserve" text-anchor="middle" x="263.5" y="-298.7" font-family="Times,serif" font-size="14.00">(scion, scripts)</text>
</g>
<!-- ScionCLI&#45;&gt;Project -->
<g id="edge4" class="edge">
<title>ScionCLI&#45;&gt;Project</title>
<path fill="none" stroke="black" d="M262.11,-293.52C260.26,-270.4 256.99,-229.34 254.78,-201.65"/>
<polygon fill="black" stroke="black" points="258.29,-201.53 254,-191.84 251.31,-202.09 258.29,-201.53"/>
<text xml:space="preserve" text-anchor="middle" x="284.58" y="-233.95" font-family="Times,serif" font-size="14.00">Manages</text>
</g>
<!-- ScionCLI&#45;&gt;Agent -->
<g id="edge5" class="edge">
<title>ScionCLI&#45;&gt;Agent</title>
<path fill="none" stroke="black" d="M282.93,-293.58C294.53,-281.8 308.21,-265.17 314.5,-247.25 328.22,-208.14 319.04,-195.19 314.5,-154 311.59,-127.63 312.74,-119.78 301.5,-95.75 295.17,-82.22 285.57,-68.86 276.54,-57.89"/>
<polygon fill="black" stroke="black" points="279.32,-55.76 270.15,-50.44 274,-60.31 279.32,-55.76"/>
<text xml:space="preserve" text-anchor="middle" x="346.11" y="-163.95" font-family="Times,serif" font-size="14.00">Manages</text>
</g>
<!-- ScionCLI&#45;&gt;Template -->
<g id="edge6" class="edge">
<title>ScionCLI&#45;&gt;Template</title>
<path fill="none" stroke="black" d="M241.59,-293.52C211.04,-269.15 155.53,-224.87 120.96,-197.3"/>
<polygon fill="black" stroke="black" points="123.42,-194.78 113.42,-191.28 119.05,-200.25 123.42,-194.78"/>
<text xml:space="preserve" text-anchor="middle" x="208.44" y="-233.95" font-family="Times,serif" font-size="14.00">Manages</text>
</g>
</g>
</svg>
