<?xml version="1.0" encoding="UTF-8" standalone="no"?>
<!DOCTYPE svg PUBLIC "-//W3C//DTD SVG 1.1//EN"
 "http://www.w3.org/Graphics/SVG/1.1/DTD/svg11.dtd">
<!-- Generated by graphviz version 2.44.1 (20201121.0304)
 -->
<!-- Title: G Pages: 1 -->
<svg width="511pt" height="511pt"
 viewBox="0.00 0.00 511.00 511.00" xmlns="http://www.w3.org/2000/svg" xmlns:xlink="http://www.w3.org/1999/xlink"><style>
  * {
    fill: transparent !important;
    stroke: #1f1f1f !important;
    stroke-width: 1 !important;
  }
  polygon:not(.cluster *, .node *, .edge *, text) {
    stroke: transparent !important;
  }
  text {
    font-size: 10px !important;
    font-family: monospace !important;
    fill: #1f1f1f !important;
    stroke: transparent !important;
    transform: translateY(-0.5em);
  }
</style>
<g id="graph0" class="graph" transform="scale(1 1) rotate(0) translate(4 506.5)">
<title>G</title>
<polygon fill="white" stroke="none" points="-4,4 -4,-506.5 506.5,-506.5 506.5,4 -4,4"/>
<!-- Phase 0&#45;1: Foundations &amp; Identity -->
<g id="node1" class="node">
<title>Phase 0&#45;1: Foundations &amp; Identity</title>
<polygon fill="lightblue" stroke="black" stroke-width="2" points="383,-503 119.5,-503 119.5,-467 383,-467 383,-503"/>
<text xml:space="preserve" text-anchor="middle" x="251.25" y="-482.2" font-family="Times,serif" font-size="14.00">Phase 0&#45;1: Foundations &amp; Identity</text>
<text xml:space="preserve" text-anchor="middle" x="251.25" y="-471.7" font-family="Times,serif" font-size="14.00">(Server Config, Identity, Labels)</text>
</g>
<!-- Phase 2: System API Endpoints -->
<g id="node2" class="node">
<title>Phase 2: System API Endpoints</title>
<polygon fill="lightblue" stroke="black" stroke-width="2" points="368,-430 134.5,-430 134.5,-394 368,-394 368,-430"/>
<text xml:space="preserve" text-anchor="middle" x="251.25" y="-409.2" font-family="Times,serif" font-size="14.00">Phase 2: System API Endpoints</text>
<text xml:space="preserve" text-anchor="middle" x="251.25" y="-398.7" font-family="Times,serif" font-size="14.00">(/system/* endpoints)</text>
</g>
<!-- Phase 0&#45;1: Foundations &amp; Identity&#45;&gt;Phase 2: System API Endpoints -->
<g id="edge1" class="edge">
<title>Phase 0&#45;1: Foundations &amp; Identity&#45;&gt;Phase 2: System API Endpoints</title>
<path fill="none" stroke="black" d="M251.25,-466.08C251.25,-458.8 251.25,-450.19 251.25,-442.05"/>
<polygon fill="black" stroke="black" points="254.75,-442.18 251.25,-432.18 247.75,-442.18 254.75,-442.18"/>
</g>
<!-- Phase 3: Wizard Shell (Web UI) -->
<g id="node3" class="node">
<title>Phase 3: Wizard Shell (Web UI)</title>
<polygon fill="lightblue" stroke="black" stroke-width="2" points="371.75,-347 130.75,-347 130.75,-311 371.75,-311 371.75,-347"/>
<text xml:space="preserve" text-anchor="middle" x="251.25" y="-326.2" font-family="Times,serif" font-size="14.00">Phase 3: Wizard Shell (Web UI)</text>
<text xml:space="preserve" text-anchor="middle" x="251.25" y="-315.7" font-family="Times,serif" font-size="14.00">(/onboarding route, Lit page)</text>
</g>
<!-- Phase 2: System API Endpoints&#45;&gt;Phase 3: Wizard Shell (Web UI) -->
<g id="edge2" class="edge">
<title>Phase 2: System API Endpoints&#45;&gt;Phase 3: Wizard Shell (Web UI)</title>
<path fill="none" stroke="black" d="M251.25,-393.02C251.25,-383.06 251.25,-370.43 251.25,-359.1"/>
<polygon fill="black" stroke="black" points="254.75,-359.44 251.25,-349.44 247.75,-359.44 254.75,-359.44"/>
<text xml:space="preserve" text-anchor="middle" x="281.25" y="-361.95" font-family="Times,serif" font-size="14.00">Uses API</text>
</g>
<!-- Phase 4: Images -->
<g id="node4" class="node">
<title>Phase 4: Images</title>
<polygon fill="lightblue" stroke="black" stroke-width="2" points="356.75,-265 145.75,-265 145.75,-229 356.75,-229 356.75,-265"/>
<text xml:space="preserve" text-anchor="middle" x="251.25" y="-244.2" font-family="Times,serif" font-size="14.00">Phase 4: Images</text>
<text xml:space="preserve" text-anchor="middle" x="251.25" y="-233.7" font-family="Times,serif" font-size="14.00">(Pull/Build, SSE Progress)</text>
</g>
<!-- Phase 3: Wizard Shell (Web UI)&#45;&gt;Phase 4: Images -->
<g id="edge3" class="edge">
<title>Phase 3: Wizard Shell (Web UI)&#45;&gt;Phase 4: Images</title>
<path fill="none" stroke="black" d="M251.25,-310.25C251.25,-300.58 251.25,-288.37 251.25,-277.33"/>
<polygon fill="black" stroke="black" points="254.75,-277.5 251.25,-267.5 247.75,-277.5 254.75,-277.5"/>
<text xml:space="preserve" text-anchor="middle" x="311.25" y="-279.95" font-family="Times,serif" font-size="14.00">Integrates Steps</text>
</g>
<!-- Phase 5: Linked Groves -->
<g id="node5" class="node">
<title>Phase 5: Linked Groves</title>
<polygon fill="lightblue" stroke="black" stroke-width="2" points="394.25,-192 108.25,-192 108.25,-156 394.25,-156 394.25,-192"/>
<text xml:space="preserve" text-anchor="middle" x="251.25" y="-171.2" font-family="Times,serif" font-size="14.00">Phase 5: Linked Groves</text>
<text xml:space="preserve" text-anchor="middle" x="251.25" y="-160.7" font-family="Times,serif" font-size="14.00">(Directory Browser, Project Linking)</text>
</g>
<!-- Phase 4: Images&#45;&gt;Phase 5: Linked Groves -->
<g id="edge4" class="edge">
<title>Phase 4: Images&#45;&gt;Phase 5: Linked Groves</title>
<path fill="none" stroke="black" d="M251.25,-228.08C251.25,-220.8 251.25,-212.19 251.25,-204.05"/>
<polygon fill="black" stroke="black" points="254.75,-204.18 251.25,-194.18 247.75,-204.18 254.75,-204.18"/>
</g>
<!-- Bug Fixes &amp; Polish -->
<g id="node6" class="node">
<title>Bug Fixes &amp; Polish</title>
<polygon fill="lightblue" stroke="black" stroke-width="2" points="360.5,-119 142,-119 142,-83 360.5,-83 360.5,-119"/>
<text xml:space="preserve" text-anchor="middle" x="251.25" y="-98.2" font-family="Times,serif" font-size="14.00">Bug Fixes &amp; Polish</text>
<text xml:space="preserve" text-anchor="middle" x="251.25" y="-87.7" font-family="Times,serif" font-size="14.00">(Tests, Docs, Known Issues)</text>
</g>
<!-- Phase 5: Linked Groves&#45;&gt;Bug Fixes &amp; Polish -->
<g id="edge5" class="edge">
<title>Phase 5: Linked Groves&#45;&gt;Bug Fixes &amp; Polish</title>
<path fill="none" stroke="black" d="M251.25,-155.08C251.25,-147.8 251.25,-139.19 251.25,-131.05"/>
<polygon fill="black" stroke="black" points="254.75,-131.18 251.25,-121.18 247.75,-131.18 254.75,-131.18"/>
</g>
<!-- Continuous Integration &amp; Rebase -->
<g id="node7" class="node">
<title>Continuous Integration &amp; Rebase</title>
<polygon fill="lightblue" stroke="black" stroke-width="2" points="375.5,-36 127,-36 127,0 375.5,0 375.5,-36"/>
<text xml:space="preserve" text-anchor="middle" x="251.25" y="-15.2" font-family="Times,serif" font-size="14.00">Continuous Integration &amp; Rebase</text>
<text xml:space="preserve" text-anchor="middle" x="251.25" y="-4.7" font-family="Times,serif" font-size="14.00">(ci&#45;full, Upstream Rebase)</text>
</g>
<!-- Bug Fixes &amp; Polish&#45;&gt;Continuous Integration &amp; Rebase -->
<g id="edge6" class="edge">
<title>Bug Fixes &amp; Polish&#45;&gt;Continuous Integration &amp; Rebase</title>
<path fill="none" stroke="black" d="M251.25,-82.02C251.25,-72.06 251.25,-59.43 251.25,-48.1"/>
<polygon fill="black" stroke="black" points="254.75,-48.44 251.25,-38.44 247.75,-48.44 254.75,-48.44"/>
<text xml:space="preserve" text-anchor="middle" x="315" y="-50.95" font-family="Times,serif" font-size="14.00">Ensures Stability</text>
</g>
</g>
</svg>
